M48
; DRILL file {KiCad (5.1.4)-1} date 2020/02/21 15:42:16
; FORMAT={-:-/ absolute / inch / decimal}
; #@! TF.CreationDate,2020-02-21T15:42:16+09:00
; #@! TF.GenerationSoftware,Kicad,Pcbnew,(5.1.4)-1
; #@! TF.FileFunction,Plated,1,2,PTH
FMAT,2
INCH
T1C0.0118
T2C0.0157
T3C0.0390
T4C0.0394
T5C0.0512
%
G90
G05
T1
X2.0079Y-2.3228
X2.0079Y-2.6772
X2.0079Y-3.0315
X2.0079Y-3.3858
X2.0079Y-3.7402
X2.0079Y-4.0945
X2.0079Y-4.4882
X2.0079Y-4.8425
X2.1181Y-3.3189
X2.122Y-2.3701
X2.1614Y-2.4843
X2.1614Y-4.0
X2.1654Y-4.0945
X2.1654Y-4.4882
X2.1654Y-5.0
X2.2047Y-2.0079
X2.2146Y-3.1004
X2.2146Y-3.8007
X2.2303Y-3.6476
X2.2343Y-4.9213
X2.2362Y-3.6988
X2.2362Y-3.9606
X2.2638Y-5.0
X2.2736Y-4.2283
X2.2815Y-3.9705
X2.2854Y-2.4252
X2.3504Y-3.7087
X2.3622Y-2.4803
X2.3622Y-4.7638
X2.3622Y-4.9213
X2.3819Y-3.7992
X2.3937Y-3.9724
X2.4803Y-2.1654
X2.4803Y-3.5827
X2.4902Y-4.2126
X2.5369Y-4.3725
X2.5394Y-3.8091
X2.5748Y-4.3425
X2.5984Y-3.8583
X2.6083Y-4.0256
X2.6083Y-4.4488
X2.6378Y-2.0079
X2.6378Y-2.3622
X2.6673Y-4.7146
X2.7165Y-3.7795
X2.7165Y-4.4882
X2.7559Y-4.1339
X2.7559Y-4.9213
X2.7579Y-2.4783
X2.9528Y-4.2126
X2.9528Y-4.685
X3.0807Y-3.1102
X3.0881Y-4.3479
X3.0906Y-3.8878
X3.1102Y-2.0079
X3.1102Y-2.3622
X3.1181Y-4.2461
X3.1496Y-4.4488
X3.1594Y-4.0256
X3.2185Y-4.7441
X3.2677Y-4.4882
X3.2677Y-4.9213
X3.3071Y-4.1339
X3.3465Y-3.8583
X3.4252Y-2.126
X3.4252Y-2.3622
X3.4252Y-3.8976
X3.4646Y-3.8583
X3.4646Y-4.311
X3.5039Y-4.685
X3.5394Y-2.0512
X3.5433Y-4.2126
X3.563Y-3.937
X3.5827Y-2.0079
X3.6393Y-4.3233
X3.6614Y-2.2835
X3.6614Y-3.5433
X3.6713Y-4.1339
X3.6831Y-4.2972
X3.7008Y-2.6378
X3.7008Y-4.0256
X3.7008Y-4.4488
X3.7205Y-3.75
X3.7402Y-3.878
X3.748Y-3.3583
X3.748Y-3.4213
X3.748Y-3.6693
X3.752Y-2.189
X3.7697Y-3.2874
X3.7697Y-3.7402
X3.7697Y-4.7736
X3.7795Y-2.0866
X3.7795Y-3.8976
X3.7894Y-3.1988
X3.7992Y-3.248
X3.8189Y-3.1693
X3.8189Y-4.2717
X3.8189Y-4.9213
X3.8287Y-3.8287
X3.8346Y-3.5748
X3.8484Y-4.1004
X3.8583Y-3.8976
X3.8583Y-4.4882
X3.8661Y-2.185
X3.8661Y-3.2795
X3.878Y-3.4252
X3.878Y-3.8402
X3.9055Y-2.1457
X3.9134Y-3.5039
X3.9154Y-3.9626
X3.9173Y-4.4114
X3.9193Y-3.7874
X3.9252Y-2.3898
X3.9252Y-3.2244
X3.9469Y-3.5531
X3.9469Y-3.7106
X3.9567Y-2.2008
X3.9567Y-4.1043
X3.9646Y-4.2933
X3.9665Y-3.5039
X3.9862Y-3.5728
X3.9862Y-4.1732
X4.0157Y-3.248
X4.0256Y-3.9567
X4.0276Y-3.4134
X4.0551Y-4.685
X4.0669Y-3.7697
X4.1024Y-4.0
X4.1043Y-3.5236
X4.1142Y-3.4803
X4.1299Y-3.2248
X4.1496Y-4.2047
X4.1535Y-3.6122
X4.1732Y-3.2776
X4.1732Y-3.7008
X4.1905Y-3.9936
X4.1905Y-4.2987
X4.2126Y-3.622
X4.2205Y-4.1496
X4.252Y-3.3386
X4.252Y-3.8976
X4.252Y-4.0256
X4.252Y-4.2717
X4.252Y-4.4488
X4.252Y-4.8031
X4.2598Y-3.5079
X4.2815Y-4.2047
X4.2835Y-3.8425
X4.2894Y-4.4744
X4.2913Y-4.2697
X4.2953Y-3.6969
X4.302Y-3.9075
X4.315Y-3.2244
X4.3209Y-4.8031
X4.3228Y-3.3465
X4.3307Y-4.0059
X4.3307Y-4.9213
X4.3346Y-3.6969
X4.3406Y-3.5945
X4.3543Y-4.4567
X4.3563Y-4.2697
X4.3563Y-4.6791
X4.3657Y-4.2169
X4.3676Y-3.9665
X4.3701Y-3.7402
X4.3898Y-4.9409
X4.3996Y-4.0354
X4.4094Y-3.3465
X4.4193Y-4.9016
X4.4291Y-4.0256
X4.4409Y-3.5079
X4.4488Y-2.3701
X4.4488Y-4.8524
X4.4587Y-3.8189
X4.4587Y-3.9665
X4.4606Y-3.311
X4.4646Y-3.4803
X4.4764Y-4.0925
X4.4764Y-4.2717
X4.4764Y-4.4783
X4.4764Y-4.626
X4.4882Y-3.7402
X4.4882Y-4.9803
X4.498Y-3.1988
X4.5Y-3.4449
X4.5197Y-3.878
X4.5315Y-4.4134
X4.5335Y-3.6024
X4.5335Y-4.0492
X4.5472Y-3.3169
X4.563Y-2.1689
X4.5669Y-4.6063
X4.5669Y-4.9803
X4.5768Y-4.2421
X4.5768Y-4.4488
X4.5965Y-3.3169
X4.5965Y-4.2047
X4.6024Y-3.5492
X4.6063Y-2.2047
X4.6063Y-3.7402
X4.626Y-4.0945
X4.6299Y-4.2441
X4.6385Y-3.9652
X4.6654Y-4.0374
X4.6654Y-4.4134
X4.6752Y-3.9665
X4.689Y-3.7047
X4.6897Y-3.6181
X4.6909Y-4.2008
X4.6909Y-4.2717
X4.7052Y-3.4453
X4.7205Y-2.1673
X4.7362Y-2.248
X4.7416Y-4.3725
X4.7559Y-3.4508
X4.7756Y-4.1339
X4.7815Y-4.372
X4.7815Y-4.4724
X4.7992Y-3.8917
X4.8031Y-4.0256
X4.8051Y-4.2717
X4.813Y-3.3661
X4.813Y-4.4488
X4.815Y-3.752
X4.8327Y-4.0039
X4.8425Y-3.5728
X4.8425Y-3.9705
X4.8701Y-3.6457
X4.872Y-4.7146
X4.8917Y-3.622
X4.8976Y-3.7953
X4.8976Y-3.874
X4.8976Y-3.9961
X4.9094Y-3.4742
X4.9213Y-4.498
X4.923Y-3.7695
X4.9253Y-3.7385
X4.9406Y-3.4353
X4.9409Y-3.5207
X4.9488Y-4.1043
X4.9567Y-4.1752
X4.9606Y-4.2657
X4.9646Y-3.4094
X4.9744Y-4.1339
X4.9803Y-3.7894
X4.9803Y-3.8246
X4.9823Y-4.0
X4.9902Y-3.9665
X5.0Y-3.9075
X5.0Y-4.5419
X5.0098Y-3.7402
X5.0104Y-3.8478
X5.0295Y-4.252
X5.0551Y-3.6693
X5.0591Y-3.3346
X5.0748Y-4.4134
X5.0787Y-3.4331
X5.0787Y-4.4882
X5.0906Y-3.8898
X5.1024Y-3.187
X5.1142Y-3.311
X5.1181Y-3.2598
X5.1181Y-4.0965
X5.1555Y-2.4193
X5.1555Y-3.9783
X5.1575Y-2.2047
X5.1575Y-4.2205
X5.1575Y-4.685
X5.1752Y-3.0787
X5.1752Y-3.2047
X5.1752Y-3.4331
X5.185Y-4.0024
X5.224Y-3.4843
X5.2283Y-3.4291
X5.2402Y-3.6693
X5.252Y-3.1693
X5.2657Y-3.8386
X5.2756Y-3.752
X5.2854Y-2.7854
X5.2928Y-4.3479
X5.2992Y-2.0236
X5.3268Y-3.8996
X5.3287Y-4.3681
X5.3543Y-3.7677
X5.3543Y-4.4488
X5.3563Y-2.6752
X5.3642Y-4.0256
X5.3937Y-2.0079
X5.3937Y-2.2835
X5.4232Y-4.7441
X5.4331Y-2.4409
X5.4449Y-3.9134
X5.4724Y-4.4882
X5.5118Y-4.0945
X5.5118Y-4.3701
X5.5512Y-4.0024
X5.5709Y-3.6811
X5.5906Y-3.7339
X5.626Y-3.8819
X5.7047Y-3.9783
X5.7067Y-4.4173
X5.748Y-4.252
X5.748Y-4.3701
X5.748Y-4.7244
X5.7874Y-3.8189
X5.844Y-4.3233
X5.8661Y-2.0079
X5.8799Y-4.3642
X5.9055Y-4.0256
X5.9055Y-4.4488
X5.9154Y-3.1102
X5.9744Y-4.7736
X6.0138Y-3.9665
X6.0236Y-4.2618
X6.0236Y-4.3701
X6.0236Y-4.4882
X6.2205Y-3.8976
X6.2992Y-4.7638
X6.3386Y-2.0079
X6.3386Y-2.2835
X6.3386Y-2.4409
X6.3386Y-4.3307
X6.3952Y-4.2987
X6.4311Y-4.3661
X6.4567Y-4.0157
X6.4567Y-4.4488
X6.5157Y-4.9803
X6.5256Y-4.8031
X6.5551Y-4.0157
X6.5709Y-4.2992
X6.5709Y-4.4843
X6.5728Y-4.4154
X6.5846Y-3.7598
X6.5846Y-5.0098
X6.6417Y-4.0531
X6.6535Y-3.7598
X6.6929Y-4.8504
X6.7126Y-4.9016
X6.7224Y-3.7598
X6.7244Y-2.689
X6.7323Y-4.9409
X6.7402Y-3.9291
X6.7717Y-2.0079
X6.7717Y-2.2835
X6.7717Y-2.5591
X6.7717Y-2.9134
X6.7795Y-3.9764
X6.8504Y-4.6063
X6.9685Y-2.5591
X6.9685Y-2.9134
X6.9685Y-3.2677
X6.9685Y-3.5827
X6.9685Y-3.8976
X6.9685Y-4.2126
X6.9685Y-4.5669
T2
X2.5693Y-3.4055
X3.0807Y-2.5197
X3.5921Y-3.4055
X5.4039Y-2.815
X5.9154Y-3.7008
X6.4268Y-2.815
T3
X2.9823Y-2.1063
X3.1791Y-2.1063
X5.8169Y-2.1063
X6.0138Y-2.1063
T4
X6.0827Y-4.0551
X6.0827Y-4.1339
X6.0827Y-4.2126
X6.1614Y-4.0551
X6.1614Y-4.1339
X6.1614Y-4.2126
X6.2402Y-4.0551
X6.2402Y-4.1339
X6.2402Y-4.2126
X2.35Y-2.8232
X2.35Y-2.9232
X2.35Y-3.0232
X2.35Y-3.1232
X2.35Y-3.2232
X2.35Y-3.3232
X2.35Y-3.4232
X3.5728Y-4.1339
X3.7697Y-4.1339
X2.4705Y-4.6063
X2.6673Y-4.6063
X2.35Y-4.2063
X2.35Y-4.3063
X2.35Y-4.4063
X2.35Y-4.5063
X2.35Y-4.6063
X5.7776Y-4.6063
X5.9744Y-4.6063
X5.7776Y-4.1339
X5.9744Y-4.1339
X4.6752Y-4.1339
X4.872Y-4.1339
X3.8484Y-3.6614
X4.0453Y-3.6614
X4.124Y-4.6063
X4.3209Y-4.6063
X6.65Y-2.8232
X6.65Y-2.9232
X6.65Y-3.0232
X6.65Y-3.1232
X6.65Y-3.2232
X6.65Y-3.3232
X6.65Y-3.4232
X2.4705Y-4.1339
X2.6673Y-4.1339
X3.0217Y-4.1339
X3.2185Y-4.1339
X3.5728Y-4.6063
X3.7697Y-4.6063
X4.124Y-4.1339
X4.3209Y-4.1339
X5.2264Y-4.6063
X5.4232Y-4.6063
X6.65Y-4.4063
X6.65Y-4.5063
X6.65Y-4.6063
X3.0217Y-4.6063
X3.2185Y-4.6063
X4.198Y-2.313
X4.298Y-2.313
X4.398Y-2.313
X4.498Y-2.313
X4.598Y-2.313
X4.698Y-2.313
X4.798Y-2.313
X4.9508Y-3.6614
X5.1476Y-3.6614
X6.3287Y-4.1339
X6.5256Y-4.1339
X5.2264Y-4.1339
X5.4232Y-4.1339
X6.3287Y-4.6063
X6.5256Y-4.6063
X4.6752Y-4.6063
X4.872Y-4.6063
T5
X2.9429Y-2.2043
X3.2189Y-2.2043
X5.7776Y-2.2043
X6.0535Y-2.2043
T0
M30
