G04 #@! TF.GenerationSoftware,KiCad,Pcbnew,(5.1.4)-1*
G04 #@! TF.CreationDate,2020-02-21T15:42:12+09:00*
G04 #@! TF.ProjectId,groove-pad-ctrl,67726f6f-7665-42d7-9061-642d6374726c,rev?*
G04 #@! TF.SameCoordinates,Original*
G04 #@! TF.FileFunction,Legend,Bot*
G04 #@! TF.FilePolarity,Positive*
%FSLAX46Y46*%
G04 Gerber Fmt 4.6, Leading zero omitted, Abs format (unit mm)*
G04 Created by KiCad (PCBNEW (5.1.4)-1) date 2020-02-21 15:42:12*
%MOMM*%
%LPD*%
G04 APERTURE LIST*
%ADD10C,0.120000*%
%ADD11C,0.150000*%
%ADD12C,0.100000*%
G04 APERTURE END LIST*
D10*
X114500000Y-85250000D02*
G75*
G03X114500000Y-85250000I-250000J0D01*
G01*
D11*
X124202380Y-51400000D02*
X124297619Y-51352380D01*
X124440476Y-51352380D01*
X124583333Y-51400000D01*
X124678571Y-51495238D01*
X124726190Y-51590476D01*
X124773809Y-51780952D01*
X124773809Y-51923809D01*
X124726190Y-52114285D01*
X124678571Y-52209523D01*
X124583333Y-52304761D01*
X124440476Y-52352380D01*
X124345238Y-52352380D01*
X124202380Y-52304761D01*
X124154761Y-52257142D01*
X124154761Y-51923809D01*
X124345238Y-51923809D01*
X123154761Y-52352380D02*
X123488095Y-51876190D01*
X123726190Y-52352380D02*
X123726190Y-51352380D01*
X123345238Y-51352380D01*
X123250000Y-51400000D01*
X123202380Y-51447619D01*
X123154761Y-51542857D01*
X123154761Y-51685714D01*
X123202380Y-51780952D01*
X123250000Y-51828571D01*
X123345238Y-51876190D01*
X123726190Y-51876190D01*
X122535714Y-51352380D02*
X122345238Y-51352380D01*
X122250000Y-51400000D01*
X122154761Y-51495238D01*
X122107142Y-51685714D01*
X122107142Y-52019047D01*
X122154761Y-52209523D01*
X122250000Y-52304761D01*
X122345238Y-52352380D01*
X122535714Y-52352380D01*
X122630952Y-52304761D01*
X122726190Y-52209523D01*
X122773809Y-52019047D01*
X122773809Y-51685714D01*
X122726190Y-51495238D01*
X122630952Y-51400000D01*
X122535714Y-51352380D01*
X121488095Y-51352380D02*
X121297619Y-51352380D01*
X121202380Y-51400000D01*
X121107142Y-51495238D01*
X121059523Y-51685714D01*
X121059523Y-52019047D01*
X121107142Y-52209523D01*
X121202380Y-52304761D01*
X121297619Y-52352380D01*
X121488095Y-52352380D01*
X121583333Y-52304761D01*
X121678571Y-52209523D01*
X121726190Y-52019047D01*
X121726190Y-51685714D01*
X121678571Y-51495238D01*
X121583333Y-51400000D01*
X121488095Y-51352380D01*
X120773809Y-51352380D02*
X120440476Y-52352380D01*
X120107142Y-51352380D01*
X119773809Y-51828571D02*
X119440476Y-51828571D01*
X119297619Y-52352380D02*
X119773809Y-52352380D01*
X119773809Y-51352380D01*
X119297619Y-51352380D01*
X117535714Y-52257142D02*
X117583333Y-52304761D01*
X117726190Y-52352380D01*
X117821428Y-52352380D01*
X117964285Y-52304761D01*
X118059523Y-52209523D01*
X118107142Y-52114285D01*
X118154761Y-51923809D01*
X118154761Y-51780952D01*
X118107142Y-51590476D01*
X118059523Y-51495238D01*
X117964285Y-51400000D01*
X117821428Y-51352380D01*
X117726190Y-51352380D01*
X117583333Y-51400000D01*
X117535714Y-51447619D01*
X116916666Y-51352380D02*
X116726190Y-51352380D01*
X116630952Y-51400000D01*
X116535714Y-51495238D01*
X116488095Y-51685714D01*
X116488095Y-52019047D01*
X116535714Y-52209523D01*
X116630952Y-52304761D01*
X116726190Y-52352380D01*
X116916666Y-52352380D01*
X117011904Y-52304761D01*
X117107142Y-52209523D01*
X117154761Y-52019047D01*
X117154761Y-51685714D01*
X117107142Y-51495238D01*
X117011904Y-51400000D01*
X116916666Y-51352380D01*
X116059523Y-52352380D02*
X116059523Y-51352380D01*
X115488095Y-52352380D01*
X115488095Y-51352380D01*
X115154761Y-51352380D02*
X114583333Y-51352380D01*
X114869047Y-52352380D02*
X114869047Y-51352380D01*
X113678571Y-52352380D02*
X114011904Y-51876190D01*
X114250000Y-52352380D02*
X114250000Y-51352380D01*
X113869047Y-51352380D01*
X113773809Y-51400000D01*
X113726190Y-51447619D01*
X113678571Y-51542857D01*
X113678571Y-51685714D01*
X113726190Y-51780952D01*
X113773809Y-51828571D01*
X113869047Y-51876190D01*
X114250000Y-51876190D01*
X113059523Y-51352380D02*
X112869047Y-51352380D01*
X112773809Y-51400000D01*
X112678571Y-51495238D01*
X112630952Y-51685714D01*
X112630952Y-52019047D01*
X112678571Y-52209523D01*
X112773809Y-52304761D01*
X112869047Y-52352380D01*
X113059523Y-52352380D01*
X113154761Y-52304761D01*
X113250000Y-52209523D01*
X113297619Y-52019047D01*
X113297619Y-51685714D01*
X113250000Y-51495238D01*
X113154761Y-51400000D01*
X113059523Y-51352380D01*
X111726190Y-52352380D02*
X112202380Y-52352380D01*
X112202380Y-51352380D01*
X110916666Y-52352380D02*
X111392857Y-52352380D01*
X111392857Y-51352380D01*
X110583333Y-51828571D02*
X110250000Y-51828571D01*
X110107142Y-52352380D02*
X110583333Y-52352380D01*
X110583333Y-51352380D01*
X110107142Y-51352380D01*
X109107142Y-52352380D02*
X109440476Y-51876190D01*
X109678571Y-52352380D02*
X109678571Y-51352380D01*
X109297619Y-51352380D01*
X109202380Y-51400000D01*
X109154761Y-51447619D01*
X109107142Y-51542857D01*
X109107142Y-51685714D01*
X109154761Y-51780952D01*
X109202380Y-51828571D01*
X109297619Y-51876190D01*
X109678571Y-51876190D01*
X108011904Y-51685714D02*
X107773809Y-52352380D01*
X107535714Y-51685714D01*
X106773809Y-52304761D02*
X106869047Y-52352380D01*
X107059523Y-52352380D01*
X107154761Y-52304761D01*
X107202380Y-52209523D01*
X107202380Y-51828571D01*
X107154761Y-51733333D01*
X107059523Y-51685714D01*
X106869047Y-51685714D01*
X106773809Y-51733333D01*
X106726190Y-51828571D01*
X106726190Y-51923809D01*
X107202380Y-52019047D01*
X106297619Y-52352380D02*
X106297619Y-51685714D01*
X106297619Y-51876190D02*
X106250000Y-51780952D01*
X106202380Y-51733333D01*
X106107142Y-51685714D01*
X106011904Y-51685714D01*
X105488095Y-51352380D02*
X105392857Y-51352380D01*
X105297619Y-51400000D01*
X105250000Y-51447619D01*
X105202380Y-51542857D01*
X105154761Y-51733333D01*
X105154761Y-51971428D01*
X105202380Y-52161904D01*
X105250000Y-52257142D01*
X105297619Y-52304761D01*
X105392857Y-52352380D01*
X105488095Y-52352380D01*
X105583333Y-52304761D01*
X105630952Y-52257142D01*
X105678571Y-52161904D01*
X105726190Y-51971428D01*
X105726190Y-51733333D01*
X105678571Y-51542857D01*
X105630952Y-51447619D01*
X105583333Y-51400000D01*
X105488095Y-51352380D01*
X104726190Y-52257142D02*
X104678571Y-52304761D01*
X104726190Y-52352380D01*
X104773809Y-52304761D01*
X104726190Y-52257142D01*
X104726190Y-52352380D01*
X103726190Y-52352380D02*
X104297619Y-52352380D01*
X104011904Y-52352380D02*
X104011904Y-51352380D01*
X104107142Y-51495238D01*
X104202380Y-51590476D01*
X104297619Y-51638095D01*
D10*
X123000000Y-102500000D02*
X122000000Y-101600000D01*
X123500000Y-96600000D02*
X123500000Y-95600000D01*
X129100000Y-93000000D02*
X129900000Y-94500000D01*
X129060000Y-82074721D02*
X129060000Y-82400279D01*
X128040000Y-82074721D02*
X128040000Y-82400279D01*
X105200279Y-96010000D02*
X104874721Y-96010000D01*
X105200279Y-94990000D02*
X104874721Y-94990000D01*
X116837221Y-101240000D02*
X117162779Y-101240000D01*
X116837221Y-102260000D02*
X117162779Y-102260000D01*
X123374721Y-94090000D02*
X123700279Y-94090000D01*
X123374721Y-95110000D02*
X123700279Y-95110000D01*
X113740000Y-83450279D02*
X113740000Y-83124721D01*
X114760000Y-83450279D02*
X114760000Y-83124721D01*
X134740000Y-88700279D02*
X134740000Y-88374721D01*
X135760000Y-88700279D02*
X135760000Y-88374721D01*
X168912779Y-108740000D02*
X168587221Y-108740000D01*
X168912779Y-109760000D02*
X168587221Y-109760000D01*
X106412779Y-89010000D02*
X106087221Y-89010000D01*
X106412779Y-87990000D02*
X106087221Y-87990000D01*
X123162779Y-87240000D02*
X122837221Y-87240000D01*
X123162779Y-88260000D02*
X122837221Y-88260000D01*
X58587221Y-97010000D02*
X58912779Y-97010000D01*
X58587221Y-95990000D02*
X58912779Y-95990000D01*
X58997936Y-91410000D02*
X60202064Y-91410000D01*
X58997936Y-89590000D02*
X60202064Y-89590000D01*
X111424721Y-80790000D02*
X111750279Y-80790000D01*
X111424721Y-81810000D02*
X111750279Y-81810000D01*
X119874721Y-99510000D02*
X120200279Y-99510000D01*
X119874721Y-98490000D02*
X120200279Y-98490000D01*
X120337221Y-84990000D02*
X120662779Y-84990000D01*
X120337221Y-86010000D02*
X120662779Y-86010000D01*
X124162779Y-86010000D02*
X123837221Y-86010000D01*
X124162779Y-84990000D02*
X123837221Y-84990000D01*
X103660000Y-57797936D02*
X103660000Y-59002064D01*
X101840000Y-57797936D02*
X101840000Y-59002064D01*
X129490000Y-96087221D02*
X129490000Y-96412779D01*
X130510000Y-96087221D02*
X130510000Y-96412779D01*
D11*
X66150000Y-107000000D02*
X66150000Y-104000000D01*
X64350000Y-107000000D02*
X64350000Y-104000000D01*
D12*
X64830000Y-104740000D02*
X65250000Y-105350000D01*
X65690000Y-104740000D02*
X64830000Y-104740000D01*
X65250000Y-105350000D02*
X65690000Y-104740000D01*
X65250000Y-105780000D02*
X65250000Y-105340000D01*
X65250000Y-104740000D02*
X65250000Y-104260000D01*
X65820000Y-105350000D02*
X64690000Y-105350000D01*
D11*
X80150000Y-107000000D02*
X80150000Y-104000000D01*
X78350000Y-107000000D02*
X78350000Y-104000000D01*
D12*
X78830000Y-104740000D02*
X79250000Y-105350000D01*
X79690000Y-104740000D02*
X78830000Y-104740000D01*
X79250000Y-105350000D02*
X79690000Y-104740000D01*
X79250000Y-105780000D02*
X79250000Y-105340000D01*
X79250000Y-104740000D02*
X79250000Y-104260000D01*
X79820000Y-105350000D02*
X78690000Y-105350000D01*
D11*
X94150000Y-107000000D02*
X94150000Y-104000000D01*
X92350000Y-107000000D02*
X92350000Y-104000000D01*
D12*
X92830000Y-104740000D02*
X93250000Y-105350000D01*
X93690000Y-104740000D02*
X92830000Y-104740000D01*
X93250000Y-105350000D02*
X93690000Y-104740000D01*
X93250000Y-105780000D02*
X93250000Y-105340000D01*
X93250000Y-104740000D02*
X93250000Y-104260000D01*
X93820000Y-105350000D02*
X92690000Y-105350000D01*
D11*
X108150000Y-107000000D02*
X108150000Y-104000000D01*
X106350000Y-107000000D02*
X106350000Y-104000000D01*
D12*
X106830000Y-104740000D02*
X107250000Y-105350000D01*
X107690000Y-104740000D02*
X106830000Y-104740000D01*
X107250000Y-105350000D02*
X107690000Y-104740000D01*
X107250000Y-105780000D02*
X107250000Y-105340000D01*
X107250000Y-104740000D02*
X107250000Y-104260000D01*
X107820000Y-105350000D02*
X106690000Y-105350000D01*
X121820000Y-105350000D02*
X120690000Y-105350000D01*
X121250000Y-104740000D02*
X121250000Y-104260000D01*
X121250000Y-105780000D02*
X121250000Y-105340000D01*
X121250000Y-105350000D02*
X121690000Y-104740000D01*
X121690000Y-104740000D02*
X120830000Y-104740000D01*
X120830000Y-104740000D02*
X121250000Y-105350000D01*
D11*
X120350000Y-107000000D02*
X120350000Y-104000000D01*
X122150000Y-107000000D02*
X122150000Y-104000000D01*
D12*
X135820000Y-105350000D02*
X134690000Y-105350000D01*
X135250000Y-104740000D02*
X135250000Y-104260000D01*
X135250000Y-105780000D02*
X135250000Y-105340000D01*
X135250000Y-105350000D02*
X135690000Y-104740000D01*
X135690000Y-104740000D02*
X134830000Y-104740000D01*
X134830000Y-104740000D02*
X135250000Y-105350000D01*
D11*
X134350000Y-107000000D02*
X134350000Y-104000000D01*
X136150000Y-107000000D02*
X136150000Y-104000000D01*
X150150000Y-107000000D02*
X150150000Y-104000000D01*
X148350000Y-107000000D02*
X148350000Y-104000000D01*
D12*
X148830000Y-104740000D02*
X149250000Y-105350000D01*
X149690000Y-104740000D02*
X148830000Y-104740000D01*
X149250000Y-105350000D02*
X149690000Y-104740000D01*
X149250000Y-105780000D02*
X149250000Y-105340000D01*
X149250000Y-104740000D02*
X149250000Y-104260000D01*
X149820000Y-105350000D02*
X148690000Y-105350000D01*
D11*
X164150000Y-107000000D02*
X164150000Y-104000000D01*
X162350000Y-107000000D02*
X162350000Y-104000000D01*
D12*
X162830000Y-104740000D02*
X163250000Y-105350000D01*
X163690000Y-104740000D02*
X162830000Y-104740000D01*
X163250000Y-105350000D02*
X163690000Y-104740000D01*
X163250000Y-105780000D02*
X163250000Y-105340000D01*
X163250000Y-104740000D02*
X163250000Y-104260000D01*
X163820000Y-105350000D02*
X162690000Y-105350000D01*
X65820000Y-117350000D02*
X64690000Y-117350000D01*
X65250000Y-116740000D02*
X65250000Y-116260000D01*
X65250000Y-117780000D02*
X65250000Y-117340000D01*
X65250000Y-117350000D02*
X65690000Y-116740000D01*
X65690000Y-116740000D02*
X64830000Y-116740000D01*
X64830000Y-116740000D02*
X65250000Y-117350000D01*
D11*
X64350000Y-119000000D02*
X64350000Y-116000000D01*
X66150000Y-119000000D02*
X66150000Y-116000000D01*
D12*
X79820000Y-117350000D02*
X78690000Y-117350000D01*
X79250000Y-116740000D02*
X79250000Y-116260000D01*
X79250000Y-117780000D02*
X79250000Y-117340000D01*
X79250000Y-117350000D02*
X79690000Y-116740000D01*
X79690000Y-116740000D02*
X78830000Y-116740000D01*
X78830000Y-116740000D02*
X79250000Y-117350000D01*
D11*
X78350000Y-119000000D02*
X78350000Y-116000000D01*
X80150000Y-119000000D02*
X80150000Y-116000000D01*
X94150000Y-119000000D02*
X94150000Y-116000000D01*
X92350000Y-119000000D02*
X92350000Y-116000000D01*
D12*
X92830000Y-116740000D02*
X93250000Y-117350000D01*
X93690000Y-116740000D02*
X92830000Y-116740000D01*
X93250000Y-117350000D02*
X93690000Y-116740000D01*
X93250000Y-117780000D02*
X93250000Y-117340000D01*
X93250000Y-116740000D02*
X93250000Y-116260000D01*
X93820000Y-117350000D02*
X92690000Y-117350000D01*
X107820000Y-117350000D02*
X106690000Y-117350000D01*
X107250000Y-116740000D02*
X107250000Y-116260000D01*
X107250000Y-117780000D02*
X107250000Y-117340000D01*
X107250000Y-117350000D02*
X107690000Y-116740000D01*
X107690000Y-116740000D02*
X106830000Y-116740000D01*
X106830000Y-116740000D02*
X107250000Y-117350000D01*
D11*
X106350000Y-119000000D02*
X106350000Y-116000000D01*
X108150000Y-119000000D02*
X108150000Y-116000000D01*
D12*
X121820000Y-117350000D02*
X120690000Y-117350000D01*
X121250000Y-116740000D02*
X121250000Y-116260000D01*
X121250000Y-117780000D02*
X121250000Y-117340000D01*
X121250000Y-117350000D02*
X121690000Y-116740000D01*
X121690000Y-116740000D02*
X120830000Y-116740000D01*
X120830000Y-116740000D02*
X121250000Y-117350000D01*
D11*
X120350000Y-119000000D02*
X120350000Y-116000000D01*
X122150000Y-119000000D02*
X122150000Y-116000000D01*
D12*
X135820000Y-117350000D02*
X134690000Y-117350000D01*
X135250000Y-116740000D02*
X135250000Y-116260000D01*
X135250000Y-117780000D02*
X135250000Y-117340000D01*
X135250000Y-117350000D02*
X135690000Y-116740000D01*
X135690000Y-116740000D02*
X134830000Y-116740000D01*
X134830000Y-116740000D02*
X135250000Y-117350000D01*
D11*
X134350000Y-119000000D02*
X134350000Y-116000000D01*
X136150000Y-119000000D02*
X136150000Y-116000000D01*
D12*
X149820000Y-117350000D02*
X148690000Y-117350000D01*
X149250000Y-116740000D02*
X149250000Y-116260000D01*
X149250000Y-117780000D02*
X149250000Y-117340000D01*
X149250000Y-117350000D02*
X149690000Y-116740000D01*
X149690000Y-116740000D02*
X148830000Y-116740000D01*
X148830000Y-116740000D02*
X149250000Y-117350000D01*
D11*
X148350000Y-119000000D02*
X148350000Y-116000000D01*
X150150000Y-119000000D02*
X150150000Y-116000000D01*
X164150000Y-119000000D02*
X164150000Y-116000000D01*
X162350000Y-119000000D02*
X162350000Y-116000000D01*
D12*
X162830000Y-116740000D02*
X163250000Y-117350000D01*
X163690000Y-116740000D02*
X162830000Y-116740000D01*
X163250000Y-117350000D02*
X163690000Y-116740000D01*
X163250000Y-117780000D02*
X163250000Y-117340000D01*
X163250000Y-116740000D02*
X163250000Y-116260000D01*
X163820000Y-117350000D02*
X162690000Y-117350000D01*
D10*
X58960000Y-93946078D02*
X58960000Y-93428922D01*
X57540000Y-93946078D02*
X57540000Y-93428922D01*
X100460000Y-58178922D02*
X100460000Y-58696078D01*
X99040000Y-58178922D02*
X99040000Y-58696078D01*
X167580000Y-110590000D02*
X170240000Y-110590000D01*
X167580000Y-115730000D02*
X167580000Y-110590000D01*
X170240000Y-115730000D02*
X170240000Y-110590000D01*
X167580000Y-115730000D02*
X170240000Y-115730000D01*
X167580000Y-117000000D02*
X167580000Y-118330000D01*
X167580000Y-118330000D02*
X168910000Y-118330000D01*
X58360000Y-70380000D02*
X61020000Y-70380000D01*
X58360000Y-85680000D02*
X58360000Y-70380000D01*
X61020000Y-85680000D02*
X61020000Y-70380000D01*
X58360000Y-85680000D02*
X61020000Y-85680000D01*
X58360000Y-86950000D02*
X58360000Y-88280000D01*
X58360000Y-88280000D02*
X59690000Y-88280000D01*
X167580000Y-88280000D02*
X168910000Y-88280000D01*
X167580000Y-86950000D02*
X167580000Y-88280000D01*
X167580000Y-85680000D02*
X170240000Y-85680000D01*
X170240000Y-85680000D02*
X170240000Y-70380000D01*
X167580000Y-85680000D02*
X167580000Y-70380000D01*
X167580000Y-70380000D02*
X170240000Y-70380000D01*
X123200000Y-57420000D02*
X123200000Y-60080000D01*
X107900000Y-57420000D02*
X123200000Y-57420000D01*
X107900000Y-60080000D02*
X123200000Y-60080000D01*
X107900000Y-57420000D02*
X107900000Y-60080000D01*
X106630000Y-57420000D02*
X105300000Y-57420000D01*
X105300000Y-57420000D02*
X105300000Y-58750000D01*
X58360000Y-105510000D02*
X61020000Y-105510000D01*
X58360000Y-115730000D02*
X58360000Y-105510000D01*
X61020000Y-115730000D02*
X61020000Y-105510000D01*
X58360000Y-115730000D02*
X61020000Y-115730000D01*
X58360000Y-117000000D02*
X58360000Y-118330000D01*
X58360000Y-118330000D02*
X59690000Y-118330000D01*
X60240000Y-93625279D02*
X60240000Y-93299721D01*
X61260000Y-93625279D02*
X61260000Y-93299721D01*
X92337221Y-93740000D02*
X92662779Y-93740000D01*
X92337221Y-94760000D02*
X92662779Y-94760000D01*
X164490000Y-92162779D02*
X164490000Y-91837221D01*
X165510000Y-92162779D02*
X165510000Y-91837221D01*
X168587221Y-104510000D02*
X168912779Y-104510000D01*
X168587221Y-103490000D02*
X168912779Y-103490000D01*
X107874721Y-85490000D02*
X108200279Y-85490000D01*
X107874721Y-86510000D02*
X108200279Y-86510000D01*
X136124721Y-92010000D02*
X136450279Y-92010000D01*
X136124721Y-90990000D02*
X136450279Y-90990000D01*
X104299721Y-85490000D02*
X104625279Y-85490000D01*
X104299721Y-86510000D02*
X104625279Y-86510000D01*
X133290000Y-85475279D02*
X133290000Y-85149721D01*
X134310000Y-85475279D02*
X134310000Y-85149721D01*
X168587221Y-106260000D02*
X168912779Y-106260000D01*
X168587221Y-105240000D02*
X168912779Y-105240000D01*
X168912779Y-108010000D02*
X168587221Y-108010000D01*
X168912779Y-106990000D02*
X168587221Y-106990000D01*
X127740000Y-100087221D02*
X127740000Y-100412779D01*
X128760000Y-100087221D02*
X128760000Y-100412779D01*
X129490000Y-100087221D02*
X129490000Y-100412779D01*
X130510000Y-100087221D02*
X130510000Y-100412779D01*
X144260000Y-100087221D02*
X144260000Y-100412779D01*
X143240000Y-100087221D02*
X143240000Y-100412779D01*
X169125279Y-65990000D02*
X168799721Y-65990000D01*
X169125279Y-67010000D02*
X168799721Y-67010000D01*
X169125279Y-67740000D02*
X168799721Y-67740000D01*
X169125279Y-68760000D02*
X168799721Y-68760000D01*
X92662779Y-91990000D02*
X92337221Y-91990000D01*
X92662779Y-93010000D02*
X92337221Y-93010000D01*
X125760000Y-58162779D02*
X125760000Y-57837221D01*
X124740000Y-58162779D02*
X124740000Y-57837221D01*
X127760000Y-58162779D02*
X127760000Y-57837221D01*
X126740000Y-58162779D02*
X126740000Y-57837221D01*
X104375279Y-99260000D02*
X104049721Y-99260000D01*
X104375279Y-98240000D02*
X104049721Y-98240000D01*
X120375279Y-101240000D02*
X120049721Y-101240000D01*
X120375279Y-102260000D02*
X120049721Y-102260000D01*
X165990000Y-95662779D02*
X165990000Y-95337221D01*
X167010000Y-95662779D02*
X167010000Y-95337221D01*
X170510000Y-95662779D02*
X170510000Y-95337221D01*
X169490000Y-95662779D02*
X169490000Y-95337221D01*
X167740000Y-95662779D02*
X167740000Y-95337221D01*
X168760000Y-95662779D02*
X168760000Y-95337221D01*
X101490000Y-107912779D02*
X101490000Y-107587221D01*
X102510000Y-107912779D02*
X102510000Y-107587221D01*
X115510000Y-107162779D02*
X115510000Y-106837221D01*
X114490000Y-107162779D02*
X114490000Y-106837221D01*
X107837221Y-83490000D02*
X108162779Y-83490000D01*
X107837221Y-84510000D02*
X108162779Y-84510000D01*
X58587221Y-98760000D02*
X58912779Y-98760000D01*
X58587221Y-97740000D02*
X58912779Y-97740000D01*
X104299721Y-83490000D02*
X104625279Y-83490000D01*
X104299721Y-84510000D02*
X104625279Y-84510000D01*
X167010000Y-98587221D02*
X167010000Y-98912779D01*
X165990000Y-98587221D02*
X165990000Y-98912779D01*
X90249721Y-98290000D02*
X90575279Y-98290000D01*
X90249721Y-99310000D02*
X90575279Y-99310000D01*
X169490000Y-98587221D02*
X169490000Y-98912779D01*
X170510000Y-98587221D02*
X170510000Y-98912779D01*
X104362779Y-100090000D02*
X104037221Y-100090000D01*
X104362779Y-101110000D02*
X104037221Y-101110000D01*
X168760000Y-98587221D02*
X168760000Y-98912779D01*
X167740000Y-98587221D02*
X167740000Y-98912779D01*
X127740000Y-96412779D02*
X127740000Y-96087221D01*
X128760000Y-96412779D02*
X128760000Y-96087221D01*
X141490000Y-100087221D02*
X141490000Y-100412779D01*
X142510000Y-100087221D02*
X142510000Y-100412779D01*
X128087221Y-86760000D02*
X128412779Y-86760000D01*
X128087221Y-85740000D02*
X128412779Y-85740000D01*
X102625279Y-88490000D02*
X102299721Y-88490000D01*
X102625279Y-89510000D02*
X102299721Y-89510000D01*
X114921751Y-99554880D02*
X114250000Y-100226631D01*
X114250000Y-100226631D02*
X113578249Y-99554880D01*
X120804880Y-93671751D02*
X121476631Y-93000000D01*
X121476631Y-93000000D02*
X120804880Y-92328249D01*
X107695120Y-92328249D02*
X107023369Y-93000000D01*
X107023369Y-93000000D02*
X107695120Y-93671751D01*
X113578249Y-86445120D02*
X114250000Y-85773369D01*
X114250000Y-85773369D02*
X114921751Y-86445120D01*
X114921751Y-86445120D02*
X115869275Y-85497597D01*
D11*
X138075000Y-94925000D02*
X138650000Y-95550000D01*
X138650000Y-95550000D02*
X138650000Y-96050000D01*
X133950000Y-94925000D02*
X133350000Y-94925000D01*
X133350000Y-94925000D02*
X133350000Y-95275000D01*
X133925000Y-100075000D02*
X133350000Y-100075000D01*
X133350000Y-100075000D02*
X133350000Y-99725000D01*
X138075000Y-100075000D02*
X138650000Y-100075000D01*
X138650000Y-100075000D02*
X138650000Y-99750000D01*
X137882843Y-94100000D02*
G75*
G03X137882843Y-94100000I-282843J0D01*
G01*
X138075000Y-94925000D02*
X133925000Y-94925000D01*
X138075000Y-100075000D02*
X133925000Y-100075000D01*
D10*
X124700000Y-84300000D02*
X117375000Y-84300000D01*
X117375000Y-84300000D02*
X117375000Y-80700000D01*
X117375000Y-80700000D02*
X124700000Y-80700000D01*
D11*
X127477142Y-81594642D02*
X127524761Y-81547023D01*
X127572380Y-81404166D01*
X127572380Y-81308928D01*
X127524761Y-81166071D01*
X127429523Y-81070833D01*
X127334285Y-81023214D01*
X127143809Y-80975595D01*
X127000952Y-80975595D01*
X126810476Y-81023214D01*
X126715238Y-81070833D01*
X126620000Y-81166071D01*
X126572380Y-81308928D01*
X126572380Y-81404166D01*
X126620000Y-81547023D01*
X126667619Y-81594642D01*
X127572380Y-82547023D02*
X127572380Y-81975595D01*
X127572380Y-82261309D02*
X126572380Y-82261309D01*
X126715238Y-82166071D01*
X126810476Y-82070833D01*
X126858095Y-81975595D01*
X126572380Y-83404166D02*
X126572380Y-83213690D01*
X126620000Y-83118452D01*
X126667619Y-83070833D01*
X126810476Y-82975595D01*
X127000952Y-82927976D01*
X127381904Y-82927976D01*
X127477142Y-82975595D01*
X127524761Y-83023214D01*
X127572380Y-83118452D01*
X127572380Y-83308928D01*
X127524761Y-83404166D01*
X127477142Y-83451785D01*
X127381904Y-83499404D01*
X127143809Y-83499404D01*
X127048571Y-83451785D01*
X127000952Y-83404166D01*
X126953333Y-83308928D01*
X126953333Y-83118452D01*
X127000952Y-83023214D01*
X127048571Y-82975595D01*
X127143809Y-82927976D01*
X102242857Y-95757142D02*
X102290476Y-95804761D01*
X102433333Y-95852380D01*
X102528571Y-95852380D01*
X102671428Y-95804761D01*
X102766666Y-95709523D01*
X102814285Y-95614285D01*
X102861904Y-95423809D01*
X102861904Y-95280952D01*
X102814285Y-95090476D01*
X102766666Y-94995238D01*
X102671428Y-94900000D01*
X102528571Y-94852380D01*
X102433333Y-94852380D01*
X102290476Y-94900000D01*
X102242857Y-94947619D01*
X101290476Y-95852380D02*
X101861904Y-95852380D01*
X101576190Y-95852380D02*
X101576190Y-94852380D01*
X101671428Y-94995238D01*
X101766666Y-95090476D01*
X101861904Y-95138095D01*
X100385714Y-94852380D02*
X100861904Y-94852380D01*
X100909523Y-95328571D01*
X100861904Y-95280952D01*
X100766666Y-95233333D01*
X100528571Y-95233333D01*
X100433333Y-95280952D01*
X100385714Y-95328571D01*
X100338095Y-95423809D01*
X100338095Y-95661904D01*
X100385714Y-95757142D01*
X100433333Y-95804761D01*
X100528571Y-95852380D01*
X100766666Y-95852380D01*
X100861904Y-95804761D01*
X100909523Y-95757142D01*
X117642857Y-103537142D02*
X117690476Y-103584761D01*
X117833333Y-103632380D01*
X117928571Y-103632380D01*
X118071428Y-103584761D01*
X118166666Y-103489523D01*
X118214285Y-103394285D01*
X118261904Y-103203809D01*
X118261904Y-103060952D01*
X118214285Y-102870476D01*
X118166666Y-102775238D01*
X118071428Y-102680000D01*
X117928571Y-102632380D01*
X117833333Y-102632380D01*
X117690476Y-102680000D01*
X117642857Y-102727619D01*
X116690476Y-103632380D02*
X117261904Y-103632380D01*
X116976190Y-103632380D02*
X116976190Y-102632380D01*
X117071428Y-102775238D01*
X117166666Y-102870476D01*
X117261904Y-102918095D01*
X115833333Y-102965714D02*
X115833333Y-103632380D01*
X116071428Y-102584761D02*
X116309523Y-103299047D01*
X115690476Y-103299047D01*
X124442857Y-97757142D02*
X124490476Y-97804761D01*
X124633333Y-97852380D01*
X124728571Y-97852380D01*
X124871428Y-97804761D01*
X124966666Y-97709523D01*
X125014285Y-97614285D01*
X125061904Y-97423809D01*
X125061904Y-97280952D01*
X125014285Y-97090476D01*
X124966666Y-96995238D01*
X124871428Y-96900000D01*
X124728571Y-96852380D01*
X124633333Y-96852380D01*
X124490476Y-96900000D01*
X124442857Y-96947619D01*
X123490476Y-97852380D02*
X124061904Y-97852380D01*
X123776190Y-97852380D02*
X123776190Y-96852380D01*
X123871428Y-96995238D01*
X123966666Y-97090476D01*
X124061904Y-97138095D01*
X123157142Y-96852380D02*
X122538095Y-96852380D01*
X122871428Y-97233333D01*
X122728571Y-97233333D01*
X122633333Y-97280952D01*
X122585714Y-97328571D01*
X122538095Y-97423809D01*
X122538095Y-97661904D01*
X122585714Y-97757142D01*
X122633333Y-97804761D01*
X122728571Y-97852380D01*
X123014285Y-97852380D01*
X123109523Y-97804761D01*
X123157142Y-97757142D01*
X112642857Y-83607142D02*
X112690476Y-83654761D01*
X112833333Y-83702380D01*
X112928571Y-83702380D01*
X113071428Y-83654761D01*
X113166666Y-83559523D01*
X113214285Y-83464285D01*
X113261904Y-83273809D01*
X113261904Y-83130952D01*
X113214285Y-82940476D01*
X113166666Y-82845238D01*
X113071428Y-82750000D01*
X112928571Y-82702380D01*
X112833333Y-82702380D01*
X112690476Y-82750000D01*
X112642857Y-82797619D01*
X111690476Y-83702380D02*
X112261904Y-83702380D01*
X111976190Y-83702380D02*
X111976190Y-82702380D01*
X112071428Y-82845238D01*
X112166666Y-82940476D01*
X112261904Y-82988095D01*
X111309523Y-82797619D02*
X111261904Y-82750000D01*
X111166666Y-82702380D01*
X110928571Y-82702380D01*
X110833333Y-82750000D01*
X110785714Y-82797619D01*
X110738095Y-82892857D01*
X110738095Y-82988095D01*
X110785714Y-83130952D01*
X111357142Y-83702380D01*
X110738095Y-83702380D01*
X134302380Y-88157142D02*
X133826190Y-87823809D01*
X134302380Y-87585714D02*
X133302380Y-87585714D01*
X133302380Y-87966666D01*
X133350000Y-88061904D01*
X133397619Y-88109523D01*
X133492857Y-88157142D01*
X133635714Y-88157142D01*
X133730952Y-88109523D01*
X133778571Y-88061904D01*
X133826190Y-87966666D01*
X133826190Y-87585714D01*
X133302380Y-88490476D02*
X133302380Y-89109523D01*
X133683333Y-88776190D01*
X133683333Y-88919047D01*
X133730952Y-89014285D01*
X133778571Y-89061904D01*
X133873809Y-89109523D01*
X134111904Y-89109523D01*
X134207142Y-89061904D01*
X134254761Y-89014285D01*
X134302380Y-88919047D01*
X134302380Y-88633333D01*
X134254761Y-88538095D01*
X134207142Y-88490476D01*
X133730952Y-89680952D02*
X133683333Y-89585714D01*
X133635714Y-89538095D01*
X133540476Y-89490476D01*
X133492857Y-89490476D01*
X133397619Y-89538095D01*
X133350000Y-89585714D01*
X133302380Y-89680952D01*
X133302380Y-89871428D01*
X133350000Y-89966666D01*
X133397619Y-90014285D01*
X133492857Y-90061904D01*
X133540476Y-90061904D01*
X133635714Y-90014285D01*
X133683333Y-89966666D01*
X133730952Y-89871428D01*
X133730952Y-89680952D01*
X133778571Y-89585714D01*
X133826190Y-89538095D01*
X133921428Y-89490476D01*
X134111904Y-89490476D01*
X134207142Y-89538095D01*
X134254761Y-89585714D01*
X134302380Y-89680952D01*
X134302380Y-89871428D01*
X134254761Y-89966666D01*
X134207142Y-90014285D01*
X134111904Y-90061904D01*
X133921428Y-90061904D01*
X133826190Y-90014285D01*
X133778571Y-89966666D01*
X133730952Y-89871428D01*
X171666666Y-109557142D02*
X171714285Y-109604761D01*
X171857142Y-109652380D01*
X171952380Y-109652380D01*
X172095238Y-109604761D01*
X172190476Y-109509523D01*
X172238095Y-109414285D01*
X172285714Y-109223809D01*
X172285714Y-109080952D01*
X172238095Y-108890476D01*
X172190476Y-108795238D01*
X172095238Y-108700000D01*
X171952380Y-108652380D01*
X171857142Y-108652380D01*
X171714285Y-108700000D01*
X171666666Y-108747619D01*
X170714285Y-109652380D02*
X171285714Y-109652380D01*
X171000000Y-109652380D02*
X171000000Y-108652380D01*
X171095238Y-108795238D01*
X171190476Y-108890476D01*
X171285714Y-108938095D01*
X105816666Y-90357142D02*
X105864285Y-90404761D01*
X106007142Y-90452380D01*
X106102380Y-90452380D01*
X106245238Y-90404761D01*
X106340476Y-90309523D01*
X106388095Y-90214285D01*
X106435714Y-90023809D01*
X106435714Y-89880952D01*
X106388095Y-89690476D01*
X106340476Y-89595238D01*
X106245238Y-89500000D01*
X106102380Y-89452380D01*
X106007142Y-89452380D01*
X105864285Y-89500000D01*
X105816666Y-89547619D01*
X105435714Y-89547619D02*
X105388095Y-89500000D01*
X105292857Y-89452380D01*
X105054761Y-89452380D01*
X104959523Y-89500000D01*
X104911904Y-89547619D01*
X104864285Y-89642857D01*
X104864285Y-89738095D01*
X104911904Y-89880952D01*
X105483333Y-90452380D01*
X104864285Y-90452380D01*
X123216666Y-89707142D02*
X123264285Y-89754761D01*
X123407142Y-89802380D01*
X123502380Y-89802380D01*
X123645238Y-89754761D01*
X123740476Y-89659523D01*
X123788095Y-89564285D01*
X123835714Y-89373809D01*
X123835714Y-89230952D01*
X123788095Y-89040476D01*
X123740476Y-88945238D01*
X123645238Y-88850000D01*
X123502380Y-88802380D01*
X123407142Y-88802380D01*
X123264285Y-88850000D01*
X123216666Y-88897619D01*
X122883333Y-88802380D02*
X122264285Y-88802380D01*
X122597619Y-89183333D01*
X122454761Y-89183333D01*
X122359523Y-89230952D01*
X122311904Y-89278571D01*
X122264285Y-89373809D01*
X122264285Y-89611904D01*
X122311904Y-89707142D01*
X122359523Y-89754761D01*
X122454761Y-89802380D01*
X122740476Y-89802380D01*
X122835714Y-89754761D01*
X122883333Y-89707142D01*
X62066666Y-96957142D02*
X62114285Y-97004761D01*
X62257142Y-97052380D01*
X62352380Y-97052380D01*
X62495238Y-97004761D01*
X62590476Y-96909523D01*
X62638095Y-96814285D01*
X62685714Y-96623809D01*
X62685714Y-96480952D01*
X62638095Y-96290476D01*
X62590476Y-96195238D01*
X62495238Y-96100000D01*
X62352380Y-96052380D01*
X62257142Y-96052380D01*
X62114285Y-96100000D01*
X62066666Y-96147619D01*
X61209523Y-96385714D02*
X61209523Y-97052380D01*
X61447619Y-96004761D02*
X61685714Y-96719047D01*
X61066666Y-96719047D01*
X56366666Y-90957142D02*
X56414285Y-91004761D01*
X56557142Y-91052380D01*
X56652380Y-91052380D01*
X56795238Y-91004761D01*
X56890476Y-90909523D01*
X56938095Y-90814285D01*
X56985714Y-90623809D01*
X56985714Y-90480952D01*
X56938095Y-90290476D01*
X56890476Y-90195238D01*
X56795238Y-90100000D01*
X56652380Y-90052380D01*
X56557142Y-90052380D01*
X56414285Y-90100000D01*
X56366666Y-90147619D01*
X55461904Y-90052380D02*
X55938095Y-90052380D01*
X55985714Y-90528571D01*
X55938095Y-90480952D01*
X55842857Y-90433333D01*
X55604761Y-90433333D01*
X55509523Y-90480952D01*
X55461904Y-90528571D01*
X55414285Y-90623809D01*
X55414285Y-90861904D01*
X55461904Y-90957142D01*
X55509523Y-91004761D01*
X55604761Y-91052380D01*
X55842857Y-91052380D01*
X55938095Y-91004761D01*
X55985714Y-90957142D01*
X108716666Y-81507142D02*
X108764285Y-81554761D01*
X108907142Y-81602380D01*
X109002380Y-81602380D01*
X109145238Y-81554761D01*
X109240476Y-81459523D01*
X109288095Y-81364285D01*
X109335714Y-81173809D01*
X109335714Y-81030952D01*
X109288095Y-80840476D01*
X109240476Y-80745238D01*
X109145238Y-80650000D01*
X109002380Y-80602380D01*
X108907142Y-80602380D01*
X108764285Y-80650000D01*
X108716666Y-80697619D01*
X107859523Y-80602380D02*
X108050000Y-80602380D01*
X108145238Y-80650000D01*
X108192857Y-80697619D01*
X108288095Y-80840476D01*
X108335714Y-81030952D01*
X108335714Y-81411904D01*
X108288095Y-81507142D01*
X108240476Y-81554761D01*
X108145238Y-81602380D01*
X107954761Y-81602380D01*
X107859523Y-81554761D01*
X107811904Y-81507142D01*
X107764285Y-81411904D01*
X107764285Y-81173809D01*
X107811904Y-81078571D01*
X107859523Y-81030952D01*
X107954761Y-80983333D01*
X108145238Y-80983333D01*
X108240476Y-81030952D01*
X108288095Y-81078571D01*
X108335714Y-81173809D01*
X121166666Y-97957142D02*
X121214285Y-98004761D01*
X121357142Y-98052380D01*
X121452380Y-98052380D01*
X121595238Y-98004761D01*
X121690476Y-97909523D01*
X121738095Y-97814285D01*
X121785714Y-97623809D01*
X121785714Y-97480952D01*
X121738095Y-97290476D01*
X121690476Y-97195238D01*
X121595238Y-97100000D01*
X121452380Y-97052380D01*
X121357142Y-97052380D01*
X121214285Y-97100000D01*
X121166666Y-97147619D01*
X120833333Y-97052380D02*
X120166666Y-97052380D01*
X120595238Y-98052380D01*
X118166666Y-85907142D02*
X118214285Y-85954761D01*
X118357142Y-86002380D01*
X118452380Y-86002380D01*
X118595238Y-85954761D01*
X118690476Y-85859523D01*
X118738095Y-85764285D01*
X118785714Y-85573809D01*
X118785714Y-85430952D01*
X118738095Y-85240476D01*
X118690476Y-85145238D01*
X118595238Y-85050000D01*
X118452380Y-85002380D01*
X118357142Y-85002380D01*
X118214285Y-85050000D01*
X118166666Y-85097619D01*
X117595238Y-85430952D02*
X117690476Y-85383333D01*
X117738095Y-85335714D01*
X117785714Y-85240476D01*
X117785714Y-85192857D01*
X117738095Y-85097619D01*
X117690476Y-85050000D01*
X117595238Y-85002380D01*
X117404761Y-85002380D01*
X117309523Y-85050000D01*
X117261904Y-85097619D01*
X117214285Y-85192857D01*
X117214285Y-85240476D01*
X117261904Y-85335714D01*
X117309523Y-85383333D01*
X117404761Y-85430952D01*
X117595238Y-85430952D01*
X117690476Y-85478571D01*
X117738095Y-85526190D01*
X117785714Y-85621428D01*
X117785714Y-85811904D01*
X117738095Y-85907142D01*
X117690476Y-85954761D01*
X117595238Y-86002380D01*
X117404761Y-86002380D01*
X117309523Y-85954761D01*
X117261904Y-85907142D01*
X117214285Y-85811904D01*
X117214285Y-85621428D01*
X117261904Y-85526190D01*
X117309523Y-85478571D01*
X117404761Y-85430952D01*
X126666666Y-84957142D02*
X126714285Y-85004761D01*
X126857142Y-85052380D01*
X126952380Y-85052380D01*
X127095238Y-85004761D01*
X127190476Y-84909523D01*
X127238095Y-84814285D01*
X127285714Y-84623809D01*
X127285714Y-84480952D01*
X127238095Y-84290476D01*
X127190476Y-84195238D01*
X127095238Y-84100000D01*
X126952380Y-84052380D01*
X126857142Y-84052380D01*
X126714285Y-84100000D01*
X126666666Y-84147619D01*
X126190476Y-85052380D02*
X126000000Y-85052380D01*
X125904761Y-85004761D01*
X125857142Y-84957142D01*
X125761904Y-84814285D01*
X125714285Y-84623809D01*
X125714285Y-84242857D01*
X125761904Y-84147619D01*
X125809523Y-84100000D01*
X125904761Y-84052380D01*
X126095238Y-84052380D01*
X126190476Y-84100000D01*
X126238095Y-84147619D01*
X126285714Y-84242857D01*
X126285714Y-84480952D01*
X126238095Y-84576190D01*
X126190476Y-84623809D01*
X126095238Y-84671428D01*
X125904761Y-84671428D01*
X125809523Y-84623809D01*
X125761904Y-84576190D01*
X125714285Y-84480952D01*
X103342857Y-55157142D02*
X103390476Y-55204761D01*
X103533333Y-55252380D01*
X103628571Y-55252380D01*
X103771428Y-55204761D01*
X103866666Y-55109523D01*
X103914285Y-55014285D01*
X103961904Y-54823809D01*
X103961904Y-54680952D01*
X103914285Y-54490476D01*
X103866666Y-54395238D01*
X103771428Y-54300000D01*
X103628571Y-54252380D01*
X103533333Y-54252380D01*
X103390476Y-54300000D01*
X103342857Y-54347619D01*
X102390476Y-55252380D02*
X102961904Y-55252380D01*
X102676190Y-55252380D02*
X102676190Y-54252380D01*
X102771428Y-54395238D01*
X102866666Y-54490476D01*
X102961904Y-54538095D01*
X101771428Y-54252380D02*
X101676190Y-54252380D01*
X101580952Y-54300000D01*
X101533333Y-54347619D01*
X101485714Y-54442857D01*
X101438095Y-54633333D01*
X101438095Y-54871428D01*
X101485714Y-55061904D01*
X101533333Y-55157142D01*
X101580952Y-55204761D01*
X101676190Y-55252380D01*
X101771428Y-55252380D01*
X101866666Y-55204761D01*
X101914285Y-55157142D01*
X101961904Y-55061904D01*
X102009523Y-54871428D01*
X102009523Y-54633333D01*
X101961904Y-54442857D01*
X101914285Y-54347619D01*
X101866666Y-54300000D01*
X101771428Y-54252380D01*
X129357142Y-90657142D02*
X129404761Y-90609523D01*
X129452380Y-90466666D01*
X129452380Y-90371428D01*
X129404761Y-90228571D01*
X129309523Y-90133333D01*
X129214285Y-90085714D01*
X129023809Y-90038095D01*
X128880952Y-90038095D01*
X128690476Y-90085714D01*
X128595238Y-90133333D01*
X128500000Y-90228571D01*
X128452380Y-90371428D01*
X128452380Y-90466666D01*
X128500000Y-90609523D01*
X128547619Y-90657142D01*
X129452380Y-91609523D02*
X129452380Y-91038095D01*
X129452380Y-91323809D02*
X128452380Y-91323809D01*
X128595238Y-91228571D01*
X128690476Y-91133333D01*
X128738095Y-91038095D01*
X129452380Y-92561904D02*
X129452380Y-91990476D01*
X129452380Y-92276190D02*
X128452380Y-92276190D01*
X128595238Y-92180952D01*
X128690476Y-92085714D01*
X128738095Y-91990476D01*
D12*
X65642857Y-108371428D02*
X65642857Y-107771428D01*
X65500000Y-107771428D01*
X65414285Y-107800000D01*
X65357142Y-107857142D01*
X65328571Y-107914285D01*
X65300000Y-108028571D01*
X65300000Y-108114285D01*
X65328571Y-108228571D01*
X65357142Y-108285714D01*
X65414285Y-108342857D01*
X65500000Y-108371428D01*
X65642857Y-108371428D01*
X64728571Y-108371428D02*
X65071428Y-108371428D01*
X64900000Y-108371428D02*
X64900000Y-107771428D01*
X64957142Y-107857142D01*
X65014285Y-107914285D01*
X65071428Y-107942857D01*
X80942857Y-108271428D02*
X80942857Y-107671428D01*
X80800000Y-107671428D01*
X80714285Y-107700000D01*
X80657142Y-107757142D01*
X80628571Y-107814285D01*
X80600000Y-107928571D01*
X80600000Y-108014285D01*
X80628571Y-108128571D01*
X80657142Y-108185714D01*
X80714285Y-108242857D01*
X80800000Y-108271428D01*
X80942857Y-108271428D01*
X80371428Y-107728571D02*
X80342857Y-107700000D01*
X80285714Y-107671428D01*
X80142857Y-107671428D01*
X80085714Y-107700000D01*
X80057142Y-107728571D01*
X80028571Y-107785714D01*
X80028571Y-107842857D01*
X80057142Y-107928571D01*
X80400000Y-108271428D01*
X80028571Y-108271428D01*
X93742857Y-108421428D02*
X93742857Y-107821428D01*
X93600000Y-107821428D01*
X93514285Y-107850000D01*
X93457142Y-107907142D01*
X93428571Y-107964285D01*
X93400000Y-108078571D01*
X93400000Y-108164285D01*
X93428571Y-108278571D01*
X93457142Y-108335714D01*
X93514285Y-108392857D01*
X93600000Y-108421428D01*
X93742857Y-108421428D01*
X93200000Y-107821428D02*
X92828571Y-107821428D01*
X93028571Y-108050000D01*
X92942857Y-108050000D01*
X92885714Y-108078571D01*
X92857142Y-108107142D01*
X92828571Y-108164285D01*
X92828571Y-108307142D01*
X92857142Y-108364285D01*
X92885714Y-108392857D01*
X92942857Y-108421428D01*
X93114285Y-108421428D01*
X93171428Y-108392857D01*
X93200000Y-108364285D01*
X107492857Y-108271428D02*
X107492857Y-107671428D01*
X107350000Y-107671428D01*
X107264285Y-107700000D01*
X107207142Y-107757142D01*
X107178571Y-107814285D01*
X107150000Y-107928571D01*
X107150000Y-108014285D01*
X107178571Y-108128571D01*
X107207142Y-108185714D01*
X107264285Y-108242857D01*
X107350000Y-108271428D01*
X107492857Y-108271428D01*
X106635714Y-107871428D02*
X106635714Y-108271428D01*
X106778571Y-107642857D02*
X106921428Y-108071428D01*
X106550000Y-108071428D01*
X121642857Y-108271428D02*
X121642857Y-107671428D01*
X121500000Y-107671428D01*
X121414285Y-107700000D01*
X121357142Y-107757142D01*
X121328571Y-107814285D01*
X121300000Y-107928571D01*
X121300000Y-108014285D01*
X121328571Y-108128571D01*
X121357142Y-108185714D01*
X121414285Y-108242857D01*
X121500000Y-108271428D01*
X121642857Y-108271428D01*
X120757142Y-107671428D02*
X121042857Y-107671428D01*
X121071428Y-107957142D01*
X121042857Y-107928571D01*
X120985714Y-107900000D01*
X120842857Y-107900000D01*
X120785714Y-107928571D01*
X120757142Y-107957142D01*
X120728571Y-108014285D01*
X120728571Y-108157142D01*
X120757142Y-108214285D01*
X120785714Y-108242857D01*
X120842857Y-108271428D01*
X120985714Y-108271428D01*
X121042857Y-108242857D01*
X121071428Y-108214285D01*
X135742857Y-108371428D02*
X135742857Y-107771428D01*
X135600000Y-107771428D01*
X135514285Y-107800000D01*
X135457142Y-107857142D01*
X135428571Y-107914285D01*
X135400000Y-108028571D01*
X135400000Y-108114285D01*
X135428571Y-108228571D01*
X135457142Y-108285714D01*
X135514285Y-108342857D01*
X135600000Y-108371428D01*
X135742857Y-108371428D01*
X134885714Y-107771428D02*
X135000000Y-107771428D01*
X135057142Y-107800000D01*
X135085714Y-107828571D01*
X135142857Y-107914285D01*
X135171428Y-108028571D01*
X135171428Y-108257142D01*
X135142857Y-108314285D01*
X135114285Y-108342857D01*
X135057142Y-108371428D01*
X134942857Y-108371428D01*
X134885714Y-108342857D01*
X134857142Y-108314285D01*
X134828571Y-108257142D01*
X134828571Y-108114285D01*
X134857142Y-108057142D01*
X134885714Y-108028571D01*
X134942857Y-108000000D01*
X135057142Y-108000000D01*
X135114285Y-108028571D01*
X135142857Y-108057142D01*
X135171428Y-108114285D01*
X149742857Y-108271428D02*
X149742857Y-107671428D01*
X149600000Y-107671428D01*
X149514285Y-107700000D01*
X149457142Y-107757142D01*
X149428571Y-107814285D01*
X149400000Y-107928571D01*
X149400000Y-108014285D01*
X149428571Y-108128571D01*
X149457142Y-108185714D01*
X149514285Y-108242857D01*
X149600000Y-108271428D01*
X149742857Y-108271428D01*
X149200000Y-107671428D02*
X148800000Y-107671428D01*
X149057142Y-108271428D01*
X163742857Y-108271428D02*
X163742857Y-107671428D01*
X163600000Y-107671428D01*
X163514285Y-107700000D01*
X163457142Y-107757142D01*
X163428571Y-107814285D01*
X163400000Y-107928571D01*
X163400000Y-108014285D01*
X163428571Y-108128571D01*
X163457142Y-108185714D01*
X163514285Y-108242857D01*
X163600000Y-108271428D01*
X163742857Y-108271428D01*
X163057142Y-107928571D02*
X163114285Y-107900000D01*
X163142857Y-107871428D01*
X163171428Y-107814285D01*
X163171428Y-107785714D01*
X163142857Y-107728571D01*
X163114285Y-107700000D01*
X163057142Y-107671428D01*
X162942857Y-107671428D01*
X162885714Y-107700000D01*
X162857142Y-107728571D01*
X162828571Y-107785714D01*
X162828571Y-107814285D01*
X162857142Y-107871428D01*
X162885714Y-107900000D01*
X162942857Y-107928571D01*
X163057142Y-107928571D01*
X163114285Y-107957142D01*
X163142857Y-107985714D01*
X163171428Y-108042857D01*
X163171428Y-108157142D01*
X163142857Y-108214285D01*
X163114285Y-108242857D01*
X163057142Y-108271428D01*
X162942857Y-108271428D01*
X162885714Y-108242857D01*
X162857142Y-108214285D01*
X162828571Y-108157142D01*
X162828571Y-108042857D01*
X162857142Y-107985714D01*
X162885714Y-107957142D01*
X162942857Y-107928571D01*
X65742857Y-120471428D02*
X65742857Y-119871428D01*
X65600000Y-119871428D01*
X65514285Y-119900000D01*
X65457142Y-119957142D01*
X65428571Y-120014285D01*
X65400000Y-120128571D01*
X65400000Y-120214285D01*
X65428571Y-120328571D01*
X65457142Y-120385714D01*
X65514285Y-120442857D01*
X65600000Y-120471428D01*
X65742857Y-120471428D01*
X65114285Y-120471428D02*
X65000000Y-120471428D01*
X64942857Y-120442857D01*
X64914285Y-120414285D01*
X64857142Y-120328571D01*
X64828571Y-120214285D01*
X64828571Y-119985714D01*
X64857142Y-119928571D01*
X64885714Y-119900000D01*
X64942857Y-119871428D01*
X65057142Y-119871428D01*
X65114285Y-119900000D01*
X65142857Y-119928571D01*
X65171428Y-119985714D01*
X65171428Y-120128571D01*
X65142857Y-120185714D01*
X65114285Y-120214285D01*
X65057142Y-120242857D01*
X64942857Y-120242857D01*
X64885714Y-120214285D01*
X64857142Y-120185714D01*
X64828571Y-120128571D01*
X80028571Y-120471428D02*
X80028571Y-119871428D01*
X79885714Y-119871428D01*
X79800000Y-119900000D01*
X79742857Y-119957142D01*
X79714285Y-120014285D01*
X79685714Y-120128571D01*
X79685714Y-120214285D01*
X79714285Y-120328571D01*
X79742857Y-120385714D01*
X79800000Y-120442857D01*
X79885714Y-120471428D01*
X80028571Y-120471428D01*
X79114285Y-120471428D02*
X79457142Y-120471428D01*
X79285714Y-120471428D02*
X79285714Y-119871428D01*
X79342857Y-119957142D01*
X79400000Y-120014285D01*
X79457142Y-120042857D01*
X78742857Y-119871428D02*
X78685714Y-119871428D01*
X78628571Y-119900000D01*
X78600000Y-119928571D01*
X78571428Y-119985714D01*
X78542857Y-120100000D01*
X78542857Y-120242857D01*
X78571428Y-120357142D01*
X78600000Y-120414285D01*
X78628571Y-120442857D01*
X78685714Y-120471428D01*
X78742857Y-120471428D01*
X78800000Y-120442857D01*
X78828571Y-120414285D01*
X78857142Y-120357142D01*
X78885714Y-120242857D01*
X78885714Y-120100000D01*
X78857142Y-119985714D01*
X78828571Y-119928571D01*
X78800000Y-119900000D01*
X78742857Y-119871428D01*
X94028571Y-120271428D02*
X94028571Y-119671428D01*
X93885714Y-119671428D01*
X93800000Y-119700000D01*
X93742857Y-119757142D01*
X93714285Y-119814285D01*
X93685714Y-119928571D01*
X93685714Y-120014285D01*
X93714285Y-120128571D01*
X93742857Y-120185714D01*
X93800000Y-120242857D01*
X93885714Y-120271428D01*
X94028571Y-120271428D01*
X93114285Y-120271428D02*
X93457142Y-120271428D01*
X93285714Y-120271428D02*
X93285714Y-119671428D01*
X93342857Y-119757142D01*
X93400000Y-119814285D01*
X93457142Y-119842857D01*
X92542857Y-120271428D02*
X92885714Y-120271428D01*
X92714285Y-120271428D02*
X92714285Y-119671428D01*
X92771428Y-119757142D01*
X92828571Y-119814285D01*
X92885714Y-119842857D01*
X107928571Y-120371428D02*
X107928571Y-119771428D01*
X107785714Y-119771428D01*
X107700000Y-119800000D01*
X107642857Y-119857142D01*
X107614285Y-119914285D01*
X107585714Y-120028571D01*
X107585714Y-120114285D01*
X107614285Y-120228571D01*
X107642857Y-120285714D01*
X107700000Y-120342857D01*
X107785714Y-120371428D01*
X107928571Y-120371428D01*
X107014285Y-120371428D02*
X107357142Y-120371428D01*
X107185714Y-120371428D02*
X107185714Y-119771428D01*
X107242857Y-119857142D01*
X107300000Y-119914285D01*
X107357142Y-119942857D01*
X106785714Y-119828571D02*
X106757142Y-119800000D01*
X106700000Y-119771428D01*
X106557142Y-119771428D01*
X106500000Y-119800000D01*
X106471428Y-119828571D01*
X106442857Y-119885714D01*
X106442857Y-119942857D01*
X106471428Y-120028571D01*
X106814285Y-120371428D01*
X106442857Y-120371428D01*
X122028571Y-120371428D02*
X122028571Y-119771428D01*
X121885714Y-119771428D01*
X121800000Y-119800000D01*
X121742857Y-119857142D01*
X121714285Y-119914285D01*
X121685714Y-120028571D01*
X121685714Y-120114285D01*
X121714285Y-120228571D01*
X121742857Y-120285714D01*
X121800000Y-120342857D01*
X121885714Y-120371428D01*
X122028571Y-120371428D01*
X121114285Y-120371428D02*
X121457142Y-120371428D01*
X121285714Y-120371428D02*
X121285714Y-119771428D01*
X121342857Y-119857142D01*
X121400000Y-119914285D01*
X121457142Y-119942857D01*
X120914285Y-119771428D02*
X120542857Y-119771428D01*
X120742857Y-120000000D01*
X120657142Y-120000000D01*
X120600000Y-120028571D01*
X120571428Y-120057142D01*
X120542857Y-120114285D01*
X120542857Y-120257142D01*
X120571428Y-120314285D01*
X120600000Y-120342857D01*
X120657142Y-120371428D01*
X120828571Y-120371428D01*
X120885714Y-120342857D01*
X120914285Y-120314285D01*
X135928571Y-120371428D02*
X135928571Y-119771428D01*
X135785714Y-119771428D01*
X135700000Y-119800000D01*
X135642857Y-119857142D01*
X135614285Y-119914285D01*
X135585714Y-120028571D01*
X135585714Y-120114285D01*
X135614285Y-120228571D01*
X135642857Y-120285714D01*
X135700000Y-120342857D01*
X135785714Y-120371428D01*
X135928571Y-120371428D01*
X135014285Y-120371428D02*
X135357142Y-120371428D01*
X135185714Y-120371428D02*
X135185714Y-119771428D01*
X135242857Y-119857142D01*
X135300000Y-119914285D01*
X135357142Y-119942857D01*
X134500000Y-119971428D02*
X134500000Y-120371428D01*
X134642857Y-119742857D02*
X134785714Y-120171428D01*
X134414285Y-120171428D01*
X150028571Y-120371428D02*
X150028571Y-119771428D01*
X149885714Y-119771428D01*
X149800000Y-119800000D01*
X149742857Y-119857142D01*
X149714285Y-119914285D01*
X149685714Y-120028571D01*
X149685714Y-120114285D01*
X149714285Y-120228571D01*
X149742857Y-120285714D01*
X149800000Y-120342857D01*
X149885714Y-120371428D01*
X150028571Y-120371428D01*
X149114285Y-120371428D02*
X149457142Y-120371428D01*
X149285714Y-120371428D02*
X149285714Y-119771428D01*
X149342857Y-119857142D01*
X149400000Y-119914285D01*
X149457142Y-119942857D01*
X148571428Y-119771428D02*
X148857142Y-119771428D01*
X148885714Y-120057142D01*
X148857142Y-120028571D01*
X148800000Y-120000000D01*
X148657142Y-120000000D01*
X148600000Y-120028571D01*
X148571428Y-120057142D01*
X148542857Y-120114285D01*
X148542857Y-120257142D01*
X148571428Y-120314285D01*
X148600000Y-120342857D01*
X148657142Y-120371428D01*
X148800000Y-120371428D01*
X148857142Y-120342857D01*
X148885714Y-120314285D01*
X163928571Y-120371428D02*
X163928571Y-119771428D01*
X163785714Y-119771428D01*
X163700000Y-119800000D01*
X163642857Y-119857142D01*
X163614285Y-119914285D01*
X163585714Y-120028571D01*
X163585714Y-120114285D01*
X163614285Y-120228571D01*
X163642857Y-120285714D01*
X163700000Y-120342857D01*
X163785714Y-120371428D01*
X163928571Y-120371428D01*
X163014285Y-120371428D02*
X163357142Y-120371428D01*
X163185714Y-120371428D02*
X163185714Y-119771428D01*
X163242857Y-119857142D01*
X163300000Y-119914285D01*
X163357142Y-119942857D01*
X162500000Y-119771428D02*
X162614285Y-119771428D01*
X162671428Y-119800000D01*
X162700000Y-119828571D01*
X162757142Y-119914285D01*
X162785714Y-120028571D01*
X162785714Y-120257142D01*
X162757142Y-120314285D01*
X162728571Y-120342857D01*
X162671428Y-120371428D01*
X162557142Y-120371428D01*
X162500000Y-120342857D01*
X162471428Y-120314285D01*
X162442857Y-120257142D01*
X162442857Y-120114285D01*
X162471428Y-120057142D01*
X162500000Y-120028571D01*
X162557142Y-120000000D01*
X162671428Y-120000000D01*
X162728571Y-120028571D01*
X162757142Y-120057142D01*
X162785714Y-120114285D01*
D11*
X55728571Y-93366666D02*
X55728571Y-93033333D01*
X56252380Y-93033333D02*
X55252380Y-93033333D01*
X55252380Y-93509523D01*
X55728571Y-94223809D02*
X55776190Y-94366666D01*
X55823809Y-94414285D01*
X55919047Y-94461904D01*
X56061904Y-94461904D01*
X56157142Y-94414285D01*
X56204761Y-94366666D01*
X56252380Y-94271428D01*
X56252380Y-93890476D01*
X55252380Y-93890476D01*
X55252380Y-94223809D01*
X55300000Y-94319047D01*
X55347619Y-94366666D01*
X55442857Y-94414285D01*
X55538095Y-94414285D01*
X55633333Y-94366666D01*
X55680952Y-94319047D01*
X55728571Y-94223809D01*
X55728571Y-93890476D01*
X56252380Y-95414285D02*
X56252380Y-94842857D01*
X56252380Y-95128571D02*
X55252380Y-95128571D01*
X55395238Y-95033333D01*
X55490476Y-94938095D01*
X55538095Y-94842857D01*
X97728571Y-57766666D02*
X97728571Y-57433333D01*
X98252380Y-57433333D02*
X97252380Y-57433333D01*
X97252380Y-57909523D01*
X97728571Y-58623809D02*
X97776190Y-58766666D01*
X97823809Y-58814285D01*
X97919047Y-58861904D01*
X98061904Y-58861904D01*
X98157142Y-58814285D01*
X98204761Y-58766666D01*
X98252380Y-58671428D01*
X98252380Y-58290476D01*
X97252380Y-58290476D01*
X97252380Y-58623809D01*
X97300000Y-58719047D01*
X97347619Y-58766666D01*
X97442857Y-58814285D01*
X97538095Y-58814285D01*
X97633333Y-58766666D01*
X97680952Y-58719047D01*
X97728571Y-58623809D01*
X97728571Y-58290476D01*
X97347619Y-59242857D02*
X97300000Y-59290476D01*
X97252380Y-59385714D01*
X97252380Y-59623809D01*
X97300000Y-59719047D01*
X97347619Y-59766666D01*
X97442857Y-59814285D01*
X97538095Y-59814285D01*
X97680952Y-59766666D01*
X98252380Y-59195238D01*
X98252380Y-59814285D01*
X169243333Y-118782380D02*
X169243333Y-119496666D01*
X169290952Y-119639523D01*
X169386190Y-119734761D01*
X169529047Y-119782380D01*
X169624285Y-119782380D01*
X168862380Y-118782380D02*
X168243333Y-118782380D01*
X168576666Y-119163333D01*
X168433809Y-119163333D01*
X168338571Y-119210952D01*
X168290952Y-119258571D01*
X168243333Y-119353809D01*
X168243333Y-119591904D01*
X168290952Y-119687142D01*
X168338571Y-119734761D01*
X168433809Y-119782380D01*
X168719523Y-119782380D01*
X168814761Y-119734761D01*
X168862380Y-119687142D01*
X60233333Y-68052380D02*
X60233333Y-68766666D01*
X60280952Y-68909523D01*
X60376190Y-69004761D01*
X60519047Y-69052380D01*
X60614285Y-69052380D01*
X59328571Y-68385714D02*
X59328571Y-69052380D01*
X59566666Y-68004761D02*
X59804761Y-68719047D01*
X59185714Y-68719047D01*
X169243333Y-88732380D02*
X169243333Y-89446666D01*
X169290952Y-89589523D01*
X169386190Y-89684761D01*
X169529047Y-89732380D01*
X169624285Y-89732380D01*
X168290952Y-88732380D02*
X168767142Y-88732380D01*
X168814761Y-89208571D01*
X168767142Y-89160952D01*
X168671904Y-89113333D01*
X168433809Y-89113333D01*
X168338571Y-89160952D01*
X168290952Y-89208571D01*
X168243333Y-89303809D01*
X168243333Y-89541904D01*
X168290952Y-89637142D01*
X168338571Y-89684761D01*
X168433809Y-89732380D01*
X168671904Y-89732380D01*
X168767142Y-89684761D01*
X168814761Y-89637142D01*
X114333333Y-55252380D02*
X114333333Y-55966666D01*
X114380952Y-56109523D01*
X114476190Y-56204761D01*
X114619047Y-56252380D01*
X114714285Y-56252380D01*
X113952380Y-55252380D02*
X113285714Y-55252380D01*
X113714285Y-56252380D01*
X60023333Y-103552380D02*
X60023333Y-104266666D01*
X60070952Y-104409523D01*
X60166190Y-104504761D01*
X60309047Y-104552380D01*
X60404285Y-104552380D01*
X59404285Y-103980952D02*
X59499523Y-103933333D01*
X59547142Y-103885714D01*
X59594761Y-103790476D01*
X59594761Y-103742857D01*
X59547142Y-103647619D01*
X59499523Y-103600000D01*
X59404285Y-103552380D01*
X59213809Y-103552380D01*
X59118571Y-103600000D01*
X59070952Y-103647619D01*
X59023333Y-103742857D01*
X59023333Y-103790476D01*
X59070952Y-103885714D01*
X59118571Y-103933333D01*
X59213809Y-103980952D01*
X59404285Y-103980952D01*
X59499523Y-104028571D01*
X59547142Y-104076190D01*
X59594761Y-104171428D01*
X59594761Y-104361904D01*
X59547142Y-104457142D01*
X59499523Y-104504761D01*
X59404285Y-104552380D01*
X59213809Y-104552380D01*
X59118571Y-104504761D01*
X59070952Y-104457142D01*
X59023333Y-104361904D01*
X59023333Y-104171428D01*
X59070952Y-104076190D01*
X59118571Y-104028571D01*
X59213809Y-103980952D01*
X62852380Y-93433333D02*
X62376190Y-93100000D01*
X62852380Y-92861904D02*
X61852380Y-92861904D01*
X61852380Y-93242857D01*
X61900000Y-93338095D01*
X61947619Y-93385714D01*
X62042857Y-93433333D01*
X62185714Y-93433333D01*
X62280952Y-93385714D01*
X62328571Y-93338095D01*
X62376190Y-93242857D01*
X62376190Y-92861904D01*
X62852380Y-94385714D02*
X62852380Y-93814285D01*
X62852380Y-94100000D02*
X61852380Y-94100000D01*
X61995238Y-94004761D01*
X62090476Y-93909523D01*
X62138095Y-93814285D01*
X92666666Y-96132380D02*
X93000000Y-95656190D01*
X93238095Y-96132380D02*
X93238095Y-95132380D01*
X92857142Y-95132380D01*
X92761904Y-95180000D01*
X92714285Y-95227619D01*
X92666666Y-95322857D01*
X92666666Y-95465714D01*
X92714285Y-95560952D01*
X92761904Y-95608571D01*
X92857142Y-95656190D01*
X93238095Y-95656190D01*
X92285714Y-95227619D02*
X92238095Y-95180000D01*
X92142857Y-95132380D01*
X91904761Y-95132380D01*
X91809523Y-95180000D01*
X91761904Y-95227619D01*
X91714285Y-95322857D01*
X91714285Y-95418095D01*
X91761904Y-95560952D01*
X92333333Y-96132380D01*
X91714285Y-96132380D01*
X165552380Y-89233333D02*
X165076190Y-88900000D01*
X165552380Y-88661904D02*
X164552380Y-88661904D01*
X164552380Y-89042857D01*
X164600000Y-89138095D01*
X164647619Y-89185714D01*
X164742857Y-89233333D01*
X164885714Y-89233333D01*
X164980952Y-89185714D01*
X165028571Y-89138095D01*
X165076190Y-89042857D01*
X165076190Y-88661904D01*
X164552380Y-89566666D02*
X164552380Y-90185714D01*
X164933333Y-89852380D01*
X164933333Y-89995238D01*
X164980952Y-90090476D01*
X165028571Y-90138095D01*
X165123809Y-90185714D01*
X165361904Y-90185714D01*
X165457142Y-90138095D01*
X165504761Y-90090476D01*
X165552380Y-89995238D01*
X165552380Y-89709523D01*
X165504761Y-89614285D01*
X165457142Y-89566666D01*
X171666666Y-104452380D02*
X172000000Y-103976190D01*
X172238095Y-104452380D02*
X172238095Y-103452380D01*
X171857142Y-103452380D01*
X171761904Y-103500000D01*
X171714285Y-103547619D01*
X171666666Y-103642857D01*
X171666666Y-103785714D01*
X171714285Y-103880952D01*
X171761904Y-103928571D01*
X171857142Y-103976190D01*
X172238095Y-103976190D01*
X170809523Y-103785714D02*
X170809523Y-104452380D01*
X171047619Y-103404761D02*
X171285714Y-104119047D01*
X170666666Y-104119047D01*
X110566666Y-86452380D02*
X110900000Y-85976190D01*
X111138095Y-86452380D02*
X111138095Y-85452380D01*
X110757142Y-85452380D01*
X110661904Y-85500000D01*
X110614285Y-85547619D01*
X110566666Y-85642857D01*
X110566666Y-85785714D01*
X110614285Y-85880952D01*
X110661904Y-85928571D01*
X110757142Y-85976190D01*
X111138095Y-85976190D01*
X109661904Y-85452380D02*
X110138095Y-85452380D01*
X110185714Y-85928571D01*
X110138095Y-85880952D01*
X110042857Y-85833333D01*
X109804761Y-85833333D01*
X109709523Y-85880952D01*
X109661904Y-85928571D01*
X109614285Y-86023809D01*
X109614285Y-86261904D01*
X109661904Y-86357142D01*
X109709523Y-86404761D01*
X109804761Y-86452380D01*
X110042857Y-86452380D01*
X110138095Y-86404761D01*
X110185714Y-86357142D01*
X136454166Y-93382380D02*
X136787500Y-92906190D01*
X137025595Y-93382380D02*
X137025595Y-92382380D01*
X136644642Y-92382380D01*
X136549404Y-92430000D01*
X136501785Y-92477619D01*
X136454166Y-92572857D01*
X136454166Y-92715714D01*
X136501785Y-92810952D01*
X136549404Y-92858571D01*
X136644642Y-92906190D01*
X137025595Y-92906190D01*
X135597023Y-92382380D02*
X135787500Y-92382380D01*
X135882738Y-92430000D01*
X135930357Y-92477619D01*
X136025595Y-92620476D01*
X136073214Y-92810952D01*
X136073214Y-93191904D01*
X136025595Y-93287142D01*
X135977976Y-93334761D01*
X135882738Y-93382380D01*
X135692261Y-93382380D01*
X135597023Y-93334761D01*
X135549404Y-93287142D01*
X135501785Y-93191904D01*
X135501785Y-92953809D01*
X135549404Y-92858571D01*
X135597023Y-92810952D01*
X135692261Y-92763333D01*
X135882738Y-92763333D01*
X135977976Y-92810952D01*
X136025595Y-92858571D01*
X136073214Y-92953809D01*
X101766666Y-86152380D02*
X102100000Y-85676190D01*
X102338095Y-86152380D02*
X102338095Y-85152380D01*
X101957142Y-85152380D01*
X101861904Y-85200000D01*
X101814285Y-85247619D01*
X101766666Y-85342857D01*
X101766666Y-85485714D01*
X101814285Y-85580952D01*
X101861904Y-85628571D01*
X101957142Y-85676190D01*
X102338095Y-85676190D01*
X101433333Y-85152380D02*
X100766666Y-85152380D01*
X101195238Y-86152380D01*
X132702380Y-85033333D02*
X132226190Y-84700000D01*
X132702380Y-84461904D02*
X131702380Y-84461904D01*
X131702380Y-84842857D01*
X131750000Y-84938095D01*
X131797619Y-84985714D01*
X131892857Y-85033333D01*
X132035714Y-85033333D01*
X132130952Y-84985714D01*
X132178571Y-84938095D01*
X132226190Y-84842857D01*
X132226190Y-84461904D01*
X132130952Y-85604761D02*
X132083333Y-85509523D01*
X132035714Y-85461904D01*
X131940476Y-85414285D01*
X131892857Y-85414285D01*
X131797619Y-85461904D01*
X131750000Y-85509523D01*
X131702380Y-85604761D01*
X131702380Y-85795238D01*
X131750000Y-85890476D01*
X131797619Y-85938095D01*
X131892857Y-85985714D01*
X131940476Y-85985714D01*
X132035714Y-85938095D01*
X132083333Y-85890476D01*
X132130952Y-85795238D01*
X132130952Y-85604761D01*
X132178571Y-85509523D01*
X132226190Y-85461904D01*
X132321428Y-85414285D01*
X132511904Y-85414285D01*
X132607142Y-85461904D01*
X132654761Y-85509523D01*
X132702380Y-85604761D01*
X132702380Y-85795238D01*
X132654761Y-85890476D01*
X132607142Y-85938095D01*
X132511904Y-85985714D01*
X132321428Y-85985714D01*
X132226190Y-85938095D01*
X132178571Y-85890476D01*
X132130952Y-85795238D01*
X171666666Y-106152380D02*
X172000000Y-105676190D01*
X172238095Y-106152380D02*
X172238095Y-105152380D01*
X171857142Y-105152380D01*
X171761904Y-105200000D01*
X171714285Y-105247619D01*
X171666666Y-105342857D01*
X171666666Y-105485714D01*
X171714285Y-105580952D01*
X171761904Y-105628571D01*
X171857142Y-105676190D01*
X172238095Y-105676190D01*
X171190476Y-106152380D02*
X171000000Y-106152380D01*
X170904761Y-106104761D01*
X170857142Y-106057142D01*
X170761904Y-105914285D01*
X170714285Y-105723809D01*
X170714285Y-105342857D01*
X170761904Y-105247619D01*
X170809523Y-105200000D01*
X170904761Y-105152380D01*
X171095238Y-105152380D01*
X171190476Y-105200000D01*
X171238095Y-105247619D01*
X171285714Y-105342857D01*
X171285714Y-105580952D01*
X171238095Y-105676190D01*
X171190476Y-105723809D01*
X171095238Y-105771428D01*
X170904761Y-105771428D01*
X170809523Y-105723809D01*
X170761904Y-105676190D01*
X170714285Y-105580952D01*
X172542857Y-107952380D02*
X172876190Y-107476190D01*
X173114285Y-107952380D02*
X173114285Y-106952380D01*
X172733333Y-106952380D01*
X172638095Y-107000000D01*
X172590476Y-107047619D01*
X172542857Y-107142857D01*
X172542857Y-107285714D01*
X172590476Y-107380952D01*
X172638095Y-107428571D01*
X172733333Y-107476190D01*
X173114285Y-107476190D01*
X171590476Y-107952380D02*
X172161904Y-107952380D01*
X171876190Y-107952380D02*
X171876190Y-106952380D01*
X171971428Y-107095238D01*
X172066666Y-107190476D01*
X172161904Y-107238095D01*
X170971428Y-106952380D02*
X170876190Y-106952380D01*
X170780952Y-107000000D01*
X170733333Y-107047619D01*
X170685714Y-107142857D01*
X170638095Y-107333333D01*
X170638095Y-107571428D01*
X170685714Y-107761904D01*
X170733333Y-107857142D01*
X170780952Y-107904761D01*
X170876190Y-107952380D01*
X170971428Y-107952380D01*
X171066666Y-107904761D01*
X171114285Y-107857142D01*
X171161904Y-107761904D01*
X171209523Y-107571428D01*
X171209523Y-107333333D01*
X171161904Y-107142857D01*
X171114285Y-107047619D01*
X171066666Y-107000000D01*
X170971428Y-106952380D01*
X128752380Y-102657142D02*
X128276190Y-102323809D01*
X128752380Y-102085714D02*
X127752380Y-102085714D01*
X127752380Y-102466666D01*
X127800000Y-102561904D01*
X127847619Y-102609523D01*
X127942857Y-102657142D01*
X128085714Y-102657142D01*
X128180952Y-102609523D01*
X128228571Y-102561904D01*
X128276190Y-102466666D01*
X128276190Y-102085714D01*
X128752380Y-103609523D02*
X128752380Y-103038095D01*
X128752380Y-103323809D02*
X127752380Y-103323809D01*
X127895238Y-103228571D01*
X127990476Y-103133333D01*
X128038095Y-103038095D01*
X128752380Y-104561904D02*
X128752380Y-103990476D01*
X128752380Y-104276190D02*
X127752380Y-104276190D01*
X127895238Y-104180952D01*
X127990476Y-104085714D01*
X128038095Y-103990476D01*
X131552380Y-102757142D02*
X131076190Y-102423809D01*
X131552380Y-102185714D02*
X130552380Y-102185714D01*
X130552380Y-102566666D01*
X130600000Y-102661904D01*
X130647619Y-102709523D01*
X130742857Y-102757142D01*
X130885714Y-102757142D01*
X130980952Y-102709523D01*
X131028571Y-102661904D01*
X131076190Y-102566666D01*
X131076190Y-102185714D01*
X131552380Y-103709523D02*
X131552380Y-103138095D01*
X131552380Y-103423809D02*
X130552380Y-103423809D01*
X130695238Y-103328571D01*
X130790476Y-103233333D01*
X130838095Y-103138095D01*
X130647619Y-104090476D02*
X130600000Y-104138095D01*
X130552380Y-104233333D01*
X130552380Y-104471428D01*
X130600000Y-104566666D01*
X130647619Y-104614285D01*
X130742857Y-104661904D01*
X130838095Y-104661904D01*
X130980952Y-104614285D01*
X131552380Y-104042857D01*
X131552380Y-104661904D01*
X145392857Y-98352380D02*
X145726190Y-97876190D01*
X145964285Y-98352380D02*
X145964285Y-97352380D01*
X145583333Y-97352380D01*
X145488095Y-97400000D01*
X145440476Y-97447619D01*
X145392857Y-97542857D01*
X145392857Y-97685714D01*
X145440476Y-97780952D01*
X145488095Y-97828571D01*
X145583333Y-97876190D01*
X145964285Y-97876190D01*
X144440476Y-98352380D02*
X145011904Y-98352380D01*
X144726190Y-98352380D02*
X144726190Y-97352380D01*
X144821428Y-97495238D01*
X144916666Y-97590476D01*
X145011904Y-97638095D01*
X144107142Y-97352380D02*
X143488095Y-97352380D01*
X143821428Y-97733333D01*
X143678571Y-97733333D01*
X143583333Y-97780952D01*
X143535714Y-97828571D01*
X143488095Y-97923809D01*
X143488095Y-98161904D01*
X143535714Y-98257142D01*
X143583333Y-98304761D01*
X143678571Y-98352380D01*
X143964285Y-98352380D01*
X144059523Y-98304761D01*
X144107142Y-98257142D01*
X172742857Y-67052380D02*
X173076190Y-66576190D01*
X173314285Y-67052380D02*
X173314285Y-66052380D01*
X172933333Y-66052380D01*
X172838095Y-66100000D01*
X172790476Y-66147619D01*
X172742857Y-66242857D01*
X172742857Y-66385714D01*
X172790476Y-66480952D01*
X172838095Y-66528571D01*
X172933333Y-66576190D01*
X173314285Y-66576190D01*
X171790476Y-67052380D02*
X172361904Y-67052380D01*
X172076190Y-67052380D02*
X172076190Y-66052380D01*
X172171428Y-66195238D01*
X172266666Y-66290476D01*
X172361904Y-66338095D01*
X170933333Y-66385714D02*
X170933333Y-67052380D01*
X171171428Y-66004761D02*
X171409523Y-66719047D01*
X170790476Y-66719047D01*
X173342857Y-68752380D02*
X173676190Y-68276190D01*
X173914285Y-68752380D02*
X173914285Y-67752380D01*
X173533333Y-67752380D01*
X173438095Y-67800000D01*
X173390476Y-67847619D01*
X173342857Y-67942857D01*
X173342857Y-68085714D01*
X173390476Y-68180952D01*
X173438095Y-68228571D01*
X173533333Y-68276190D01*
X173914285Y-68276190D01*
X172390476Y-68752380D02*
X172961904Y-68752380D01*
X172676190Y-68752380D02*
X172676190Y-67752380D01*
X172771428Y-67895238D01*
X172866666Y-67990476D01*
X172961904Y-68038095D01*
X171485714Y-67752380D02*
X171961904Y-67752380D01*
X172009523Y-68228571D01*
X171961904Y-68180952D01*
X171866666Y-68133333D01*
X171628571Y-68133333D01*
X171533333Y-68180952D01*
X171485714Y-68228571D01*
X171438095Y-68323809D01*
X171438095Y-68561904D01*
X171485714Y-68657142D01*
X171533333Y-68704761D01*
X171628571Y-68752380D01*
X171866666Y-68752380D01*
X171961904Y-68704761D01*
X172009523Y-68657142D01*
X93142857Y-91522380D02*
X93476190Y-91046190D01*
X93714285Y-91522380D02*
X93714285Y-90522380D01*
X93333333Y-90522380D01*
X93238095Y-90570000D01*
X93190476Y-90617619D01*
X93142857Y-90712857D01*
X93142857Y-90855714D01*
X93190476Y-90950952D01*
X93238095Y-90998571D01*
X93333333Y-91046190D01*
X93714285Y-91046190D01*
X92190476Y-91522380D02*
X92761904Y-91522380D01*
X92476190Y-91522380D02*
X92476190Y-90522380D01*
X92571428Y-90665238D01*
X92666666Y-90760476D01*
X92761904Y-90808095D01*
X91333333Y-90522380D02*
X91523809Y-90522380D01*
X91619047Y-90570000D01*
X91666666Y-90617619D01*
X91761904Y-90760476D01*
X91809523Y-90950952D01*
X91809523Y-91331904D01*
X91761904Y-91427142D01*
X91714285Y-91474761D01*
X91619047Y-91522380D01*
X91428571Y-91522380D01*
X91333333Y-91474761D01*
X91285714Y-91427142D01*
X91238095Y-91331904D01*
X91238095Y-91093809D01*
X91285714Y-90998571D01*
X91333333Y-90950952D01*
X91428571Y-90903333D01*
X91619047Y-90903333D01*
X91714285Y-90950952D01*
X91761904Y-90998571D01*
X91809523Y-91093809D01*
X125852380Y-54257142D02*
X125376190Y-53923809D01*
X125852380Y-53685714D02*
X124852380Y-53685714D01*
X124852380Y-54066666D01*
X124900000Y-54161904D01*
X124947619Y-54209523D01*
X125042857Y-54257142D01*
X125185714Y-54257142D01*
X125280952Y-54209523D01*
X125328571Y-54161904D01*
X125376190Y-54066666D01*
X125376190Y-53685714D01*
X125852380Y-55209523D02*
X125852380Y-54638095D01*
X125852380Y-54923809D02*
X124852380Y-54923809D01*
X124995238Y-54828571D01*
X125090476Y-54733333D01*
X125138095Y-54638095D01*
X124852380Y-55542857D02*
X124852380Y-56209523D01*
X125852380Y-55780952D01*
X127752380Y-54257142D02*
X127276190Y-53923809D01*
X127752380Y-53685714D02*
X126752380Y-53685714D01*
X126752380Y-54066666D01*
X126800000Y-54161904D01*
X126847619Y-54209523D01*
X126942857Y-54257142D01*
X127085714Y-54257142D01*
X127180952Y-54209523D01*
X127228571Y-54161904D01*
X127276190Y-54066666D01*
X127276190Y-53685714D01*
X127752380Y-55209523D02*
X127752380Y-54638095D01*
X127752380Y-54923809D02*
X126752380Y-54923809D01*
X126895238Y-54828571D01*
X126990476Y-54733333D01*
X127038095Y-54638095D01*
X127180952Y-55780952D02*
X127133333Y-55685714D01*
X127085714Y-55638095D01*
X126990476Y-55590476D01*
X126942857Y-55590476D01*
X126847619Y-55638095D01*
X126800000Y-55685714D01*
X126752380Y-55780952D01*
X126752380Y-55971428D01*
X126800000Y-56066666D01*
X126847619Y-56114285D01*
X126942857Y-56161904D01*
X126990476Y-56161904D01*
X127085714Y-56114285D01*
X127133333Y-56066666D01*
X127180952Y-55971428D01*
X127180952Y-55780952D01*
X127228571Y-55685714D01*
X127276190Y-55638095D01*
X127371428Y-55590476D01*
X127561904Y-55590476D01*
X127657142Y-55638095D01*
X127704761Y-55685714D01*
X127752380Y-55780952D01*
X127752380Y-55971428D01*
X127704761Y-56066666D01*
X127657142Y-56114285D01*
X127561904Y-56161904D01*
X127371428Y-56161904D01*
X127276190Y-56114285D01*
X127228571Y-56066666D01*
X127180952Y-55971428D01*
X101792857Y-99352380D02*
X102126190Y-98876190D01*
X102364285Y-99352380D02*
X102364285Y-98352380D01*
X101983333Y-98352380D01*
X101888095Y-98400000D01*
X101840476Y-98447619D01*
X101792857Y-98542857D01*
X101792857Y-98685714D01*
X101840476Y-98780952D01*
X101888095Y-98828571D01*
X101983333Y-98876190D01*
X102364285Y-98876190D01*
X100840476Y-99352380D02*
X101411904Y-99352380D01*
X101126190Y-99352380D02*
X101126190Y-98352380D01*
X101221428Y-98495238D01*
X101316666Y-98590476D01*
X101411904Y-98638095D01*
X100364285Y-99352380D02*
X100173809Y-99352380D01*
X100078571Y-99304761D01*
X100030952Y-99257142D01*
X99935714Y-99114285D01*
X99888095Y-98923809D01*
X99888095Y-98542857D01*
X99935714Y-98447619D01*
X99983333Y-98400000D01*
X100078571Y-98352380D01*
X100269047Y-98352380D01*
X100364285Y-98400000D01*
X100411904Y-98447619D01*
X100459523Y-98542857D01*
X100459523Y-98780952D01*
X100411904Y-98876190D01*
X100364285Y-98923809D01*
X100269047Y-98971428D01*
X100078571Y-98971428D01*
X99983333Y-98923809D01*
X99935714Y-98876190D01*
X99888095Y-98780952D01*
X125242857Y-103152380D02*
X125576190Y-102676190D01*
X125814285Y-103152380D02*
X125814285Y-102152380D01*
X125433333Y-102152380D01*
X125338095Y-102200000D01*
X125290476Y-102247619D01*
X125242857Y-102342857D01*
X125242857Y-102485714D01*
X125290476Y-102580952D01*
X125338095Y-102628571D01*
X125433333Y-102676190D01*
X125814285Y-102676190D01*
X124861904Y-102247619D02*
X124814285Y-102200000D01*
X124719047Y-102152380D01*
X124480952Y-102152380D01*
X124385714Y-102200000D01*
X124338095Y-102247619D01*
X124290476Y-102342857D01*
X124290476Y-102438095D01*
X124338095Y-102580952D01*
X124909523Y-103152380D01*
X124290476Y-103152380D01*
X123671428Y-102152380D02*
X123576190Y-102152380D01*
X123480952Y-102200000D01*
X123433333Y-102247619D01*
X123385714Y-102342857D01*
X123338095Y-102533333D01*
X123338095Y-102771428D01*
X123385714Y-102961904D01*
X123433333Y-103057142D01*
X123480952Y-103104761D01*
X123576190Y-103152380D01*
X123671428Y-103152380D01*
X123766666Y-103104761D01*
X123814285Y-103057142D01*
X123861904Y-102961904D01*
X123909523Y-102771428D01*
X123909523Y-102533333D01*
X123861904Y-102342857D01*
X123814285Y-102247619D01*
X123766666Y-102200000D01*
X123671428Y-102152380D01*
X167052380Y-91757142D02*
X166576190Y-91423809D01*
X167052380Y-91185714D02*
X166052380Y-91185714D01*
X166052380Y-91566666D01*
X166100000Y-91661904D01*
X166147619Y-91709523D01*
X166242857Y-91757142D01*
X166385714Y-91757142D01*
X166480952Y-91709523D01*
X166528571Y-91661904D01*
X166576190Y-91566666D01*
X166576190Y-91185714D01*
X166147619Y-92138095D02*
X166100000Y-92185714D01*
X166052380Y-92280952D01*
X166052380Y-92519047D01*
X166100000Y-92614285D01*
X166147619Y-92661904D01*
X166242857Y-92709523D01*
X166338095Y-92709523D01*
X166480952Y-92661904D01*
X167052380Y-92090476D01*
X167052380Y-92709523D01*
X167052380Y-93661904D02*
X167052380Y-93090476D01*
X167052380Y-93376190D02*
X166052380Y-93376190D01*
X166195238Y-93280952D01*
X166290476Y-93185714D01*
X166338095Y-93090476D01*
X170452380Y-91757142D02*
X169976190Y-91423809D01*
X170452380Y-91185714D02*
X169452380Y-91185714D01*
X169452380Y-91566666D01*
X169500000Y-91661904D01*
X169547619Y-91709523D01*
X169642857Y-91757142D01*
X169785714Y-91757142D01*
X169880952Y-91709523D01*
X169928571Y-91661904D01*
X169976190Y-91566666D01*
X169976190Y-91185714D01*
X169547619Y-92138095D02*
X169500000Y-92185714D01*
X169452380Y-92280952D01*
X169452380Y-92519047D01*
X169500000Y-92614285D01*
X169547619Y-92661904D01*
X169642857Y-92709523D01*
X169738095Y-92709523D01*
X169880952Y-92661904D01*
X170452380Y-92090476D01*
X170452380Y-92709523D01*
X169547619Y-93090476D02*
X169500000Y-93138095D01*
X169452380Y-93233333D01*
X169452380Y-93471428D01*
X169500000Y-93566666D01*
X169547619Y-93614285D01*
X169642857Y-93661904D01*
X169738095Y-93661904D01*
X169880952Y-93614285D01*
X170452380Y-93042857D01*
X170452380Y-93661904D01*
X168752380Y-91757142D02*
X168276190Y-91423809D01*
X168752380Y-91185714D02*
X167752380Y-91185714D01*
X167752380Y-91566666D01*
X167800000Y-91661904D01*
X167847619Y-91709523D01*
X167942857Y-91757142D01*
X168085714Y-91757142D01*
X168180952Y-91709523D01*
X168228571Y-91661904D01*
X168276190Y-91566666D01*
X168276190Y-91185714D01*
X167847619Y-92138095D02*
X167800000Y-92185714D01*
X167752380Y-92280952D01*
X167752380Y-92519047D01*
X167800000Y-92614285D01*
X167847619Y-92661904D01*
X167942857Y-92709523D01*
X168038095Y-92709523D01*
X168180952Y-92661904D01*
X168752380Y-92090476D01*
X168752380Y-92709523D01*
X167752380Y-93042857D02*
X167752380Y-93661904D01*
X168133333Y-93328571D01*
X168133333Y-93471428D01*
X168180952Y-93566666D01*
X168228571Y-93614285D01*
X168323809Y-93661904D01*
X168561904Y-93661904D01*
X168657142Y-93614285D01*
X168704761Y-93566666D01*
X168752380Y-93471428D01*
X168752380Y-93185714D01*
X168704761Y-93090476D01*
X168657142Y-93042857D01*
X103882380Y-107107142D02*
X103406190Y-106773809D01*
X103882380Y-106535714D02*
X102882380Y-106535714D01*
X102882380Y-106916666D01*
X102930000Y-107011904D01*
X102977619Y-107059523D01*
X103072857Y-107107142D01*
X103215714Y-107107142D01*
X103310952Y-107059523D01*
X103358571Y-107011904D01*
X103406190Y-106916666D01*
X103406190Y-106535714D01*
X102977619Y-107488095D02*
X102930000Y-107535714D01*
X102882380Y-107630952D01*
X102882380Y-107869047D01*
X102930000Y-107964285D01*
X102977619Y-108011904D01*
X103072857Y-108059523D01*
X103168095Y-108059523D01*
X103310952Y-108011904D01*
X103882380Y-107440476D01*
X103882380Y-108059523D01*
X103215714Y-108916666D02*
X103882380Y-108916666D01*
X102834761Y-108678571D02*
X103549047Y-108440476D01*
X103549047Y-109059523D01*
X116882380Y-106357142D02*
X116406190Y-106023809D01*
X116882380Y-105785714D02*
X115882380Y-105785714D01*
X115882380Y-106166666D01*
X115930000Y-106261904D01*
X115977619Y-106309523D01*
X116072857Y-106357142D01*
X116215714Y-106357142D01*
X116310952Y-106309523D01*
X116358571Y-106261904D01*
X116406190Y-106166666D01*
X116406190Y-105785714D01*
X115977619Y-106738095D02*
X115930000Y-106785714D01*
X115882380Y-106880952D01*
X115882380Y-107119047D01*
X115930000Y-107214285D01*
X115977619Y-107261904D01*
X116072857Y-107309523D01*
X116168095Y-107309523D01*
X116310952Y-107261904D01*
X116882380Y-106690476D01*
X116882380Y-107309523D01*
X115882380Y-108214285D02*
X115882380Y-107738095D01*
X116358571Y-107690476D01*
X116310952Y-107738095D01*
X116263333Y-107833333D01*
X116263333Y-108071428D01*
X116310952Y-108166666D01*
X116358571Y-108214285D01*
X116453809Y-108261904D01*
X116691904Y-108261904D01*
X116787142Y-108214285D01*
X116834761Y-108166666D01*
X116882380Y-108071428D01*
X116882380Y-107833333D01*
X116834761Y-107738095D01*
X116787142Y-107690476D01*
X108592857Y-83052380D02*
X108926190Y-82576190D01*
X109164285Y-83052380D02*
X109164285Y-82052380D01*
X108783333Y-82052380D01*
X108688095Y-82100000D01*
X108640476Y-82147619D01*
X108592857Y-82242857D01*
X108592857Y-82385714D01*
X108640476Y-82480952D01*
X108688095Y-82528571D01*
X108783333Y-82576190D01*
X109164285Y-82576190D01*
X108211904Y-82147619D02*
X108164285Y-82100000D01*
X108069047Y-82052380D01*
X107830952Y-82052380D01*
X107735714Y-82100000D01*
X107688095Y-82147619D01*
X107640476Y-82242857D01*
X107640476Y-82338095D01*
X107688095Y-82480952D01*
X108259523Y-83052380D01*
X107640476Y-83052380D01*
X106783333Y-82052380D02*
X106973809Y-82052380D01*
X107069047Y-82100000D01*
X107116666Y-82147619D01*
X107211904Y-82290476D01*
X107259523Y-82480952D01*
X107259523Y-82861904D01*
X107211904Y-82957142D01*
X107164285Y-83004761D01*
X107069047Y-83052380D01*
X106878571Y-83052380D01*
X106783333Y-83004761D01*
X106735714Y-82957142D01*
X106688095Y-82861904D01*
X106688095Y-82623809D01*
X106735714Y-82528571D01*
X106783333Y-82480952D01*
X106878571Y-82433333D01*
X107069047Y-82433333D01*
X107164285Y-82480952D01*
X107211904Y-82528571D01*
X107259523Y-82623809D01*
X62842857Y-98752380D02*
X63176190Y-98276190D01*
X63414285Y-98752380D02*
X63414285Y-97752380D01*
X63033333Y-97752380D01*
X62938095Y-97800000D01*
X62890476Y-97847619D01*
X62842857Y-97942857D01*
X62842857Y-98085714D01*
X62890476Y-98180952D01*
X62938095Y-98228571D01*
X63033333Y-98276190D01*
X63414285Y-98276190D01*
X62461904Y-97847619D02*
X62414285Y-97800000D01*
X62319047Y-97752380D01*
X62080952Y-97752380D01*
X61985714Y-97800000D01*
X61938095Y-97847619D01*
X61890476Y-97942857D01*
X61890476Y-98038095D01*
X61938095Y-98180952D01*
X62509523Y-98752380D01*
X61890476Y-98752380D01*
X61557142Y-97752380D02*
X60890476Y-97752380D01*
X61319047Y-98752380D01*
X101942857Y-84502380D02*
X102276190Y-84026190D01*
X102514285Y-84502380D02*
X102514285Y-83502380D01*
X102133333Y-83502380D01*
X102038095Y-83550000D01*
X101990476Y-83597619D01*
X101942857Y-83692857D01*
X101942857Y-83835714D01*
X101990476Y-83930952D01*
X102038095Y-83978571D01*
X102133333Y-84026190D01*
X102514285Y-84026190D01*
X101561904Y-83597619D02*
X101514285Y-83550000D01*
X101419047Y-83502380D01*
X101180952Y-83502380D01*
X101085714Y-83550000D01*
X101038095Y-83597619D01*
X100990476Y-83692857D01*
X100990476Y-83788095D01*
X101038095Y-83930952D01*
X101609523Y-84502380D01*
X100990476Y-84502380D01*
X100419047Y-83930952D02*
X100514285Y-83883333D01*
X100561904Y-83835714D01*
X100609523Y-83740476D01*
X100609523Y-83692857D01*
X100561904Y-83597619D01*
X100514285Y-83550000D01*
X100419047Y-83502380D01*
X100228571Y-83502380D01*
X100133333Y-83550000D01*
X100085714Y-83597619D01*
X100038095Y-83692857D01*
X100038095Y-83740476D01*
X100085714Y-83835714D01*
X100133333Y-83883333D01*
X100228571Y-83930952D01*
X100419047Y-83930952D01*
X100514285Y-83978571D01*
X100561904Y-84026190D01*
X100609523Y-84121428D01*
X100609523Y-84311904D01*
X100561904Y-84407142D01*
X100514285Y-84454761D01*
X100419047Y-84502380D01*
X100228571Y-84502380D01*
X100133333Y-84454761D01*
X100085714Y-84407142D01*
X100038095Y-84311904D01*
X100038095Y-84121428D01*
X100085714Y-84026190D01*
X100133333Y-83978571D01*
X100228571Y-83930952D01*
X166052380Y-101057142D02*
X165576190Y-100723809D01*
X166052380Y-100485714D02*
X165052380Y-100485714D01*
X165052380Y-100866666D01*
X165100000Y-100961904D01*
X165147619Y-101009523D01*
X165242857Y-101057142D01*
X165385714Y-101057142D01*
X165480952Y-101009523D01*
X165528571Y-100961904D01*
X165576190Y-100866666D01*
X165576190Y-100485714D01*
X165147619Y-101438095D02*
X165100000Y-101485714D01*
X165052380Y-101580952D01*
X165052380Y-101819047D01*
X165100000Y-101914285D01*
X165147619Y-101961904D01*
X165242857Y-102009523D01*
X165338095Y-102009523D01*
X165480952Y-101961904D01*
X166052380Y-101390476D01*
X166052380Y-102009523D01*
X166052380Y-102485714D02*
X166052380Y-102676190D01*
X166004761Y-102771428D01*
X165957142Y-102819047D01*
X165814285Y-102914285D01*
X165623809Y-102961904D01*
X165242857Y-102961904D01*
X165147619Y-102914285D01*
X165100000Y-102866666D01*
X165052380Y-102771428D01*
X165052380Y-102580952D01*
X165100000Y-102485714D01*
X165147619Y-102438095D01*
X165242857Y-102390476D01*
X165480952Y-102390476D01*
X165576190Y-102438095D01*
X165623809Y-102485714D01*
X165671428Y-102580952D01*
X165671428Y-102771428D01*
X165623809Y-102866666D01*
X165576190Y-102914285D01*
X165480952Y-102961904D01*
X91055357Y-100682380D02*
X91388690Y-100206190D01*
X91626785Y-100682380D02*
X91626785Y-99682380D01*
X91245833Y-99682380D01*
X91150595Y-99730000D01*
X91102976Y-99777619D01*
X91055357Y-99872857D01*
X91055357Y-100015714D01*
X91102976Y-100110952D01*
X91150595Y-100158571D01*
X91245833Y-100206190D01*
X91626785Y-100206190D01*
X90722023Y-99682380D02*
X90102976Y-99682380D01*
X90436309Y-100063333D01*
X90293452Y-100063333D01*
X90198214Y-100110952D01*
X90150595Y-100158571D01*
X90102976Y-100253809D01*
X90102976Y-100491904D01*
X90150595Y-100587142D01*
X90198214Y-100634761D01*
X90293452Y-100682380D01*
X90579166Y-100682380D01*
X90674404Y-100634761D01*
X90722023Y-100587142D01*
X89483928Y-99682380D02*
X89388690Y-99682380D01*
X89293452Y-99730000D01*
X89245833Y-99777619D01*
X89198214Y-99872857D01*
X89150595Y-100063333D01*
X89150595Y-100301428D01*
X89198214Y-100491904D01*
X89245833Y-100587142D01*
X89293452Y-100634761D01*
X89388690Y-100682380D01*
X89483928Y-100682380D01*
X89579166Y-100634761D01*
X89626785Y-100587142D01*
X89674404Y-100491904D01*
X89722023Y-100301428D01*
X89722023Y-100063333D01*
X89674404Y-99872857D01*
X89626785Y-99777619D01*
X89579166Y-99730000D01*
X89483928Y-99682380D01*
X170552380Y-101057142D02*
X170076190Y-100723809D01*
X170552380Y-100485714D02*
X169552380Y-100485714D01*
X169552380Y-100866666D01*
X169600000Y-100961904D01*
X169647619Y-101009523D01*
X169742857Y-101057142D01*
X169885714Y-101057142D01*
X169980952Y-101009523D01*
X170028571Y-100961904D01*
X170076190Y-100866666D01*
X170076190Y-100485714D01*
X169552380Y-101390476D02*
X169552380Y-102009523D01*
X169933333Y-101676190D01*
X169933333Y-101819047D01*
X169980952Y-101914285D01*
X170028571Y-101961904D01*
X170123809Y-102009523D01*
X170361904Y-102009523D01*
X170457142Y-101961904D01*
X170504761Y-101914285D01*
X170552380Y-101819047D01*
X170552380Y-101533333D01*
X170504761Y-101438095D01*
X170457142Y-101390476D01*
X170552380Y-102961904D02*
X170552380Y-102390476D01*
X170552380Y-102676190D02*
X169552380Y-102676190D01*
X169695238Y-102580952D01*
X169790476Y-102485714D01*
X169838095Y-102390476D01*
X101792857Y-102202380D02*
X102126190Y-101726190D01*
X102364285Y-102202380D02*
X102364285Y-101202380D01*
X101983333Y-101202380D01*
X101888095Y-101250000D01*
X101840476Y-101297619D01*
X101792857Y-101392857D01*
X101792857Y-101535714D01*
X101840476Y-101630952D01*
X101888095Y-101678571D01*
X101983333Y-101726190D01*
X102364285Y-101726190D01*
X101459523Y-101202380D02*
X100840476Y-101202380D01*
X101173809Y-101583333D01*
X101030952Y-101583333D01*
X100935714Y-101630952D01*
X100888095Y-101678571D01*
X100840476Y-101773809D01*
X100840476Y-102011904D01*
X100888095Y-102107142D01*
X100935714Y-102154761D01*
X101030952Y-102202380D01*
X101316666Y-102202380D01*
X101411904Y-102154761D01*
X101459523Y-102107142D01*
X100459523Y-101297619D02*
X100411904Y-101250000D01*
X100316666Y-101202380D01*
X100078571Y-101202380D01*
X99983333Y-101250000D01*
X99935714Y-101297619D01*
X99888095Y-101392857D01*
X99888095Y-101488095D01*
X99935714Y-101630952D01*
X100507142Y-102202380D01*
X99888095Y-102202380D01*
X168252380Y-101057142D02*
X167776190Y-100723809D01*
X168252380Y-100485714D02*
X167252380Y-100485714D01*
X167252380Y-100866666D01*
X167300000Y-100961904D01*
X167347619Y-101009523D01*
X167442857Y-101057142D01*
X167585714Y-101057142D01*
X167680952Y-101009523D01*
X167728571Y-100961904D01*
X167776190Y-100866666D01*
X167776190Y-100485714D01*
X167252380Y-101390476D02*
X167252380Y-102009523D01*
X167633333Y-101676190D01*
X167633333Y-101819047D01*
X167680952Y-101914285D01*
X167728571Y-101961904D01*
X167823809Y-102009523D01*
X168061904Y-102009523D01*
X168157142Y-101961904D01*
X168204761Y-101914285D01*
X168252380Y-101819047D01*
X168252380Y-101533333D01*
X168204761Y-101438095D01*
X168157142Y-101390476D01*
X167252380Y-102342857D02*
X167252380Y-102961904D01*
X167633333Y-102628571D01*
X167633333Y-102771428D01*
X167680952Y-102866666D01*
X167728571Y-102914285D01*
X167823809Y-102961904D01*
X168061904Y-102961904D01*
X168157142Y-102914285D01*
X168204761Y-102866666D01*
X168252380Y-102771428D01*
X168252380Y-102485714D01*
X168204761Y-102390476D01*
X168157142Y-102342857D01*
X127952380Y-92557142D02*
X127476190Y-92223809D01*
X127952380Y-91985714D02*
X126952380Y-91985714D01*
X126952380Y-92366666D01*
X127000000Y-92461904D01*
X127047619Y-92509523D01*
X127142857Y-92557142D01*
X127285714Y-92557142D01*
X127380952Y-92509523D01*
X127428571Y-92461904D01*
X127476190Y-92366666D01*
X127476190Y-91985714D01*
X126952380Y-92890476D02*
X126952380Y-93509523D01*
X127333333Y-93176190D01*
X127333333Y-93319047D01*
X127380952Y-93414285D01*
X127428571Y-93461904D01*
X127523809Y-93509523D01*
X127761904Y-93509523D01*
X127857142Y-93461904D01*
X127904761Y-93414285D01*
X127952380Y-93319047D01*
X127952380Y-93033333D01*
X127904761Y-92938095D01*
X127857142Y-92890476D01*
X127285714Y-94366666D02*
X127952380Y-94366666D01*
X126904761Y-94128571D02*
X127619047Y-93890476D01*
X127619047Y-94509523D01*
X141992857Y-103352380D02*
X142326190Y-102876190D01*
X142564285Y-103352380D02*
X142564285Y-102352380D01*
X142183333Y-102352380D01*
X142088095Y-102400000D01*
X142040476Y-102447619D01*
X141992857Y-102542857D01*
X141992857Y-102685714D01*
X142040476Y-102780952D01*
X142088095Y-102828571D01*
X142183333Y-102876190D01*
X142564285Y-102876190D01*
X141659523Y-102352380D02*
X141040476Y-102352380D01*
X141373809Y-102733333D01*
X141230952Y-102733333D01*
X141135714Y-102780952D01*
X141088095Y-102828571D01*
X141040476Y-102923809D01*
X141040476Y-103161904D01*
X141088095Y-103257142D01*
X141135714Y-103304761D01*
X141230952Y-103352380D01*
X141516666Y-103352380D01*
X141611904Y-103304761D01*
X141659523Y-103257142D01*
X140135714Y-102352380D02*
X140611904Y-102352380D01*
X140659523Y-102828571D01*
X140611904Y-102780952D01*
X140516666Y-102733333D01*
X140278571Y-102733333D01*
X140183333Y-102780952D01*
X140135714Y-102828571D01*
X140088095Y-102923809D01*
X140088095Y-103161904D01*
X140135714Y-103257142D01*
X140183333Y-103304761D01*
X140278571Y-103352380D01*
X140516666Y-103352380D01*
X140611904Y-103304761D01*
X140659523Y-103257142D01*
X128892857Y-88852380D02*
X129226190Y-88376190D01*
X129464285Y-88852380D02*
X129464285Y-87852380D01*
X129083333Y-87852380D01*
X128988095Y-87900000D01*
X128940476Y-87947619D01*
X128892857Y-88042857D01*
X128892857Y-88185714D01*
X128940476Y-88280952D01*
X128988095Y-88328571D01*
X129083333Y-88376190D01*
X129464285Y-88376190D01*
X128559523Y-87852380D02*
X127940476Y-87852380D01*
X128273809Y-88233333D01*
X128130952Y-88233333D01*
X128035714Y-88280952D01*
X127988095Y-88328571D01*
X127940476Y-88423809D01*
X127940476Y-88661904D01*
X127988095Y-88757142D01*
X128035714Y-88804761D01*
X128130952Y-88852380D01*
X128416666Y-88852380D01*
X128511904Y-88804761D01*
X128559523Y-88757142D01*
X127083333Y-87852380D02*
X127273809Y-87852380D01*
X127369047Y-87900000D01*
X127416666Y-87947619D01*
X127511904Y-88090476D01*
X127559523Y-88280952D01*
X127559523Y-88661904D01*
X127511904Y-88757142D01*
X127464285Y-88804761D01*
X127369047Y-88852380D01*
X127178571Y-88852380D01*
X127083333Y-88804761D01*
X127035714Y-88757142D01*
X126988095Y-88661904D01*
X126988095Y-88423809D01*
X127035714Y-88328571D01*
X127083333Y-88280952D01*
X127178571Y-88233333D01*
X127369047Y-88233333D01*
X127464285Y-88280952D01*
X127511904Y-88328571D01*
X127559523Y-88423809D01*
X103642857Y-91202380D02*
X103976190Y-90726190D01*
X104214285Y-91202380D02*
X104214285Y-90202380D01*
X103833333Y-90202380D01*
X103738095Y-90250000D01*
X103690476Y-90297619D01*
X103642857Y-90392857D01*
X103642857Y-90535714D01*
X103690476Y-90630952D01*
X103738095Y-90678571D01*
X103833333Y-90726190D01*
X104214285Y-90726190D01*
X103309523Y-90202380D02*
X102690476Y-90202380D01*
X103023809Y-90583333D01*
X102880952Y-90583333D01*
X102785714Y-90630952D01*
X102738095Y-90678571D01*
X102690476Y-90773809D01*
X102690476Y-91011904D01*
X102738095Y-91107142D01*
X102785714Y-91154761D01*
X102880952Y-91202380D01*
X103166666Y-91202380D01*
X103261904Y-91154761D01*
X103309523Y-91107142D01*
X102357142Y-90202380D02*
X101690476Y-90202380D01*
X102119047Y-91202380D01*
X109168932Y-86841436D02*
X109741352Y-87413856D01*
X109775024Y-87514871D01*
X109775024Y-87582215D01*
X109741352Y-87683230D01*
X109606665Y-87817917D01*
X109505650Y-87851589D01*
X109438306Y-87851589D01*
X109337291Y-87817917D01*
X108764871Y-87245497D01*
X108764871Y-88659711D02*
X109168932Y-88255650D01*
X108966902Y-88457680D02*
X108259795Y-87750574D01*
X108428154Y-87784245D01*
X108562841Y-87784245D01*
X108663856Y-87750574D01*
X138911904Y-100652380D02*
X138911904Y-101461904D01*
X138864285Y-101557142D01*
X138816666Y-101604761D01*
X138721428Y-101652380D01*
X138530952Y-101652380D01*
X138435714Y-101604761D01*
X138388095Y-101557142D01*
X138340476Y-101461904D01*
X138340476Y-100652380D01*
X137911904Y-100747619D02*
X137864285Y-100700000D01*
X137769047Y-100652380D01*
X137530952Y-100652380D01*
X137435714Y-100700000D01*
X137388095Y-100747619D01*
X137340476Y-100842857D01*
X137340476Y-100938095D01*
X137388095Y-101080952D01*
X137959523Y-101652380D01*
X137340476Y-101652380D01*
D12*
X138514285Y-96871428D02*
X138514285Y-96271428D01*
X138314285Y-96700000D01*
X138114285Y-96271428D01*
X138114285Y-96871428D01*
X137628571Y-96557142D02*
X137542857Y-96585714D01*
X137514285Y-96614285D01*
X137485714Y-96671428D01*
X137485714Y-96757142D01*
X137514285Y-96814285D01*
X137542857Y-96842857D01*
X137600000Y-96871428D01*
X137828571Y-96871428D01*
X137828571Y-96271428D01*
X137628571Y-96271428D01*
X137571428Y-96300000D01*
X137542857Y-96328571D01*
X137514285Y-96385714D01*
X137514285Y-96442857D01*
X137542857Y-96500000D01*
X137571428Y-96528571D01*
X137628571Y-96557142D01*
X137828571Y-96557142D01*
X137142857Y-96528571D02*
X137200000Y-96500000D01*
X137228571Y-96471428D01*
X137257142Y-96414285D01*
X137257142Y-96385714D01*
X137228571Y-96328571D01*
X137200000Y-96300000D01*
X137142857Y-96271428D01*
X137028571Y-96271428D01*
X136971428Y-96300000D01*
X136942857Y-96328571D01*
X136914285Y-96385714D01*
X136914285Y-96414285D01*
X136942857Y-96471428D01*
X136971428Y-96500000D01*
X137028571Y-96528571D01*
X137142857Y-96528571D01*
X137200000Y-96557142D01*
X137228571Y-96585714D01*
X137257142Y-96642857D01*
X137257142Y-96757142D01*
X137228571Y-96814285D01*
X137200000Y-96842857D01*
X137142857Y-96871428D01*
X137028571Y-96871428D01*
X136971428Y-96842857D01*
X136942857Y-96814285D01*
X136914285Y-96757142D01*
X136914285Y-96642857D01*
X136942857Y-96585714D01*
X136971428Y-96557142D01*
X137028571Y-96528571D01*
X136371428Y-96271428D02*
X136657142Y-96271428D01*
X136685714Y-96557142D01*
X136657142Y-96528571D01*
X136600000Y-96500000D01*
X136457142Y-96500000D01*
X136400000Y-96528571D01*
X136371428Y-96557142D01*
X136342857Y-96614285D01*
X136342857Y-96757142D01*
X136371428Y-96814285D01*
X136400000Y-96842857D01*
X136457142Y-96871428D01*
X136600000Y-96871428D01*
X136657142Y-96842857D01*
X136685714Y-96814285D01*
X135742857Y-96871428D02*
X135942857Y-96585714D01*
X136085714Y-96871428D02*
X136085714Y-96271428D01*
X135857142Y-96271428D01*
X135800000Y-96300000D01*
X135771428Y-96328571D01*
X135742857Y-96385714D01*
X135742857Y-96471428D01*
X135771428Y-96528571D01*
X135800000Y-96557142D01*
X135857142Y-96585714D01*
X136085714Y-96585714D01*
X135514285Y-96842857D02*
X135428571Y-96871428D01*
X135285714Y-96871428D01*
X135228571Y-96842857D01*
X135200000Y-96814285D01*
X135171428Y-96757142D01*
X135171428Y-96700000D01*
X135200000Y-96642857D01*
X135228571Y-96614285D01*
X135285714Y-96585714D01*
X135400000Y-96557142D01*
X135457142Y-96528571D01*
X135485714Y-96500000D01*
X135514285Y-96442857D01*
X135514285Y-96385714D01*
X135485714Y-96328571D01*
X135457142Y-96300000D01*
X135400000Y-96271428D01*
X135257142Y-96271428D01*
X135171428Y-96300000D01*
X134942857Y-96328571D02*
X134914285Y-96300000D01*
X134857142Y-96271428D01*
X134714285Y-96271428D01*
X134657142Y-96300000D01*
X134628571Y-96328571D01*
X134600000Y-96385714D01*
X134600000Y-96442857D01*
X134628571Y-96528571D01*
X134971428Y-96871428D01*
X134600000Y-96871428D01*
X134342857Y-96871428D02*
X134342857Y-96271428D01*
X134142857Y-96700000D01*
X133942857Y-96271428D01*
X133942857Y-96871428D01*
X133742857Y-96271428D02*
X133400000Y-96271428D01*
X133571428Y-96871428D02*
X133571428Y-96271428D01*
D11*
X116576190Y-81973809D02*
X117052380Y-81973809D01*
X116052380Y-81640476D02*
X116576190Y-81973809D01*
X116052380Y-82307142D01*
X117052380Y-83164285D02*
X117052380Y-82592857D01*
X117052380Y-82878571D02*
X116052380Y-82878571D01*
X116195238Y-82783333D01*
X116290476Y-82688095D01*
X116338095Y-82592857D01*
M02*
