G04 #@! TF.GenerationSoftware,KiCad,Pcbnew,(5.1.4)-1*
G04 #@! TF.CreationDate,2020-02-21T15:42:12+09:00*
G04 #@! TF.ProjectId,groove-pad-ctrl,67726f6f-7665-42d7-9061-642d6374726c,rev?*
G04 #@! TF.SameCoordinates,Original*
G04 #@! TF.FileFunction,Paste,Top*
G04 #@! TF.FilePolarity,Positive*
%FSLAX46Y46*%
G04 Gerber Fmt 4.6, Leading zero omitted, Abs format (unit mm)*
G04 Created by KiCad (PCBNEW (5.1.4)-1) date 2020-02-21 15:42:12*
%MOMM*%
%LPD*%
G04 APERTURE LIST*
%ADD10C,0.100000*%
%ADD11C,0.850000*%
G04 APERTURE END LIST*
D10*
G36*
X64858329Y-99576023D02*
G01*
X64878957Y-99579083D01*
X64899185Y-99584150D01*
X64918820Y-99591176D01*
X64937672Y-99600092D01*
X64955559Y-99610813D01*
X64972309Y-99623235D01*
X64987760Y-99637240D01*
X65001765Y-99652691D01*
X65014187Y-99669441D01*
X65024908Y-99687328D01*
X65033824Y-99706180D01*
X65040850Y-99725815D01*
X65045917Y-99746043D01*
X65048977Y-99766671D01*
X65050000Y-99787500D01*
X65050000Y-100212500D01*
X65048977Y-100233329D01*
X65045917Y-100253957D01*
X65040850Y-100274185D01*
X65033824Y-100293820D01*
X65024908Y-100312672D01*
X65014187Y-100330559D01*
X65001765Y-100347309D01*
X64987760Y-100362760D01*
X64972309Y-100376765D01*
X64955559Y-100389187D01*
X64937672Y-100399908D01*
X64918820Y-100408824D01*
X64899185Y-100415850D01*
X64878957Y-100420917D01*
X64858329Y-100423977D01*
X64837500Y-100425000D01*
X64037500Y-100425000D01*
X64016671Y-100423977D01*
X63996043Y-100420917D01*
X63975815Y-100415850D01*
X63956180Y-100408824D01*
X63937328Y-100399908D01*
X63919441Y-100389187D01*
X63902691Y-100376765D01*
X63887240Y-100362760D01*
X63873235Y-100347309D01*
X63860813Y-100330559D01*
X63850092Y-100312672D01*
X63841176Y-100293820D01*
X63834150Y-100274185D01*
X63829083Y-100253957D01*
X63826023Y-100233329D01*
X63825000Y-100212500D01*
X63825000Y-99787500D01*
X63826023Y-99766671D01*
X63829083Y-99746043D01*
X63834150Y-99725815D01*
X63841176Y-99706180D01*
X63850092Y-99687328D01*
X63860813Y-99669441D01*
X63873235Y-99652691D01*
X63887240Y-99637240D01*
X63902691Y-99623235D01*
X63919441Y-99610813D01*
X63937328Y-99600092D01*
X63956180Y-99591176D01*
X63975815Y-99584150D01*
X63996043Y-99579083D01*
X64016671Y-99576023D01*
X64037500Y-99575000D01*
X64837500Y-99575000D01*
X64858329Y-99576023D01*
X64858329Y-99576023D01*
G37*
D11*
X64437500Y-100000000D03*
D10*
G36*
X66483329Y-99576023D02*
G01*
X66503957Y-99579083D01*
X66524185Y-99584150D01*
X66543820Y-99591176D01*
X66562672Y-99600092D01*
X66580559Y-99610813D01*
X66597309Y-99623235D01*
X66612760Y-99637240D01*
X66626765Y-99652691D01*
X66639187Y-99669441D01*
X66649908Y-99687328D01*
X66658824Y-99706180D01*
X66665850Y-99725815D01*
X66670917Y-99746043D01*
X66673977Y-99766671D01*
X66675000Y-99787500D01*
X66675000Y-100212500D01*
X66673977Y-100233329D01*
X66670917Y-100253957D01*
X66665850Y-100274185D01*
X66658824Y-100293820D01*
X66649908Y-100312672D01*
X66639187Y-100330559D01*
X66626765Y-100347309D01*
X66612760Y-100362760D01*
X66597309Y-100376765D01*
X66580559Y-100389187D01*
X66562672Y-100399908D01*
X66543820Y-100408824D01*
X66524185Y-100415850D01*
X66503957Y-100420917D01*
X66483329Y-100423977D01*
X66462500Y-100425000D01*
X65662500Y-100425000D01*
X65641671Y-100423977D01*
X65621043Y-100420917D01*
X65600815Y-100415850D01*
X65581180Y-100408824D01*
X65562328Y-100399908D01*
X65544441Y-100389187D01*
X65527691Y-100376765D01*
X65512240Y-100362760D01*
X65498235Y-100347309D01*
X65485813Y-100330559D01*
X65475092Y-100312672D01*
X65466176Y-100293820D01*
X65459150Y-100274185D01*
X65454083Y-100253957D01*
X65451023Y-100233329D01*
X65450000Y-100212500D01*
X65450000Y-99787500D01*
X65451023Y-99766671D01*
X65454083Y-99746043D01*
X65459150Y-99725815D01*
X65466176Y-99706180D01*
X65475092Y-99687328D01*
X65485813Y-99669441D01*
X65498235Y-99652691D01*
X65512240Y-99637240D01*
X65527691Y-99623235D01*
X65544441Y-99610813D01*
X65562328Y-99600092D01*
X65581180Y-99591176D01*
X65600815Y-99584150D01*
X65621043Y-99579083D01*
X65641671Y-99576023D01*
X65662500Y-99575000D01*
X66462500Y-99575000D01*
X66483329Y-99576023D01*
X66483329Y-99576023D01*
G37*
D11*
X66062500Y-100000000D03*
D10*
G36*
X78858329Y-99576023D02*
G01*
X78878957Y-99579083D01*
X78899185Y-99584150D01*
X78918820Y-99591176D01*
X78937672Y-99600092D01*
X78955559Y-99610813D01*
X78972309Y-99623235D01*
X78987760Y-99637240D01*
X79001765Y-99652691D01*
X79014187Y-99669441D01*
X79024908Y-99687328D01*
X79033824Y-99706180D01*
X79040850Y-99725815D01*
X79045917Y-99746043D01*
X79048977Y-99766671D01*
X79050000Y-99787500D01*
X79050000Y-100212500D01*
X79048977Y-100233329D01*
X79045917Y-100253957D01*
X79040850Y-100274185D01*
X79033824Y-100293820D01*
X79024908Y-100312672D01*
X79014187Y-100330559D01*
X79001765Y-100347309D01*
X78987760Y-100362760D01*
X78972309Y-100376765D01*
X78955559Y-100389187D01*
X78937672Y-100399908D01*
X78918820Y-100408824D01*
X78899185Y-100415850D01*
X78878957Y-100420917D01*
X78858329Y-100423977D01*
X78837500Y-100425000D01*
X78037500Y-100425000D01*
X78016671Y-100423977D01*
X77996043Y-100420917D01*
X77975815Y-100415850D01*
X77956180Y-100408824D01*
X77937328Y-100399908D01*
X77919441Y-100389187D01*
X77902691Y-100376765D01*
X77887240Y-100362760D01*
X77873235Y-100347309D01*
X77860813Y-100330559D01*
X77850092Y-100312672D01*
X77841176Y-100293820D01*
X77834150Y-100274185D01*
X77829083Y-100253957D01*
X77826023Y-100233329D01*
X77825000Y-100212500D01*
X77825000Y-99787500D01*
X77826023Y-99766671D01*
X77829083Y-99746043D01*
X77834150Y-99725815D01*
X77841176Y-99706180D01*
X77850092Y-99687328D01*
X77860813Y-99669441D01*
X77873235Y-99652691D01*
X77887240Y-99637240D01*
X77902691Y-99623235D01*
X77919441Y-99610813D01*
X77937328Y-99600092D01*
X77956180Y-99591176D01*
X77975815Y-99584150D01*
X77996043Y-99579083D01*
X78016671Y-99576023D01*
X78037500Y-99575000D01*
X78837500Y-99575000D01*
X78858329Y-99576023D01*
X78858329Y-99576023D01*
G37*
D11*
X78437500Y-100000000D03*
D10*
G36*
X80483329Y-99576023D02*
G01*
X80503957Y-99579083D01*
X80524185Y-99584150D01*
X80543820Y-99591176D01*
X80562672Y-99600092D01*
X80580559Y-99610813D01*
X80597309Y-99623235D01*
X80612760Y-99637240D01*
X80626765Y-99652691D01*
X80639187Y-99669441D01*
X80649908Y-99687328D01*
X80658824Y-99706180D01*
X80665850Y-99725815D01*
X80670917Y-99746043D01*
X80673977Y-99766671D01*
X80675000Y-99787500D01*
X80675000Y-100212500D01*
X80673977Y-100233329D01*
X80670917Y-100253957D01*
X80665850Y-100274185D01*
X80658824Y-100293820D01*
X80649908Y-100312672D01*
X80639187Y-100330559D01*
X80626765Y-100347309D01*
X80612760Y-100362760D01*
X80597309Y-100376765D01*
X80580559Y-100389187D01*
X80562672Y-100399908D01*
X80543820Y-100408824D01*
X80524185Y-100415850D01*
X80503957Y-100420917D01*
X80483329Y-100423977D01*
X80462500Y-100425000D01*
X79662500Y-100425000D01*
X79641671Y-100423977D01*
X79621043Y-100420917D01*
X79600815Y-100415850D01*
X79581180Y-100408824D01*
X79562328Y-100399908D01*
X79544441Y-100389187D01*
X79527691Y-100376765D01*
X79512240Y-100362760D01*
X79498235Y-100347309D01*
X79485813Y-100330559D01*
X79475092Y-100312672D01*
X79466176Y-100293820D01*
X79459150Y-100274185D01*
X79454083Y-100253957D01*
X79451023Y-100233329D01*
X79450000Y-100212500D01*
X79450000Y-99787500D01*
X79451023Y-99766671D01*
X79454083Y-99746043D01*
X79459150Y-99725815D01*
X79466176Y-99706180D01*
X79475092Y-99687328D01*
X79485813Y-99669441D01*
X79498235Y-99652691D01*
X79512240Y-99637240D01*
X79527691Y-99623235D01*
X79544441Y-99610813D01*
X79562328Y-99600092D01*
X79581180Y-99591176D01*
X79600815Y-99584150D01*
X79621043Y-99579083D01*
X79641671Y-99576023D01*
X79662500Y-99575000D01*
X80462500Y-99575000D01*
X80483329Y-99576023D01*
X80483329Y-99576023D01*
G37*
D11*
X80062500Y-100000000D03*
D10*
G36*
X94483329Y-99576023D02*
G01*
X94503957Y-99579083D01*
X94524185Y-99584150D01*
X94543820Y-99591176D01*
X94562672Y-99600092D01*
X94580559Y-99610813D01*
X94597309Y-99623235D01*
X94612760Y-99637240D01*
X94626765Y-99652691D01*
X94639187Y-99669441D01*
X94649908Y-99687328D01*
X94658824Y-99706180D01*
X94665850Y-99725815D01*
X94670917Y-99746043D01*
X94673977Y-99766671D01*
X94675000Y-99787500D01*
X94675000Y-100212500D01*
X94673977Y-100233329D01*
X94670917Y-100253957D01*
X94665850Y-100274185D01*
X94658824Y-100293820D01*
X94649908Y-100312672D01*
X94639187Y-100330559D01*
X94626765Y-100347309D01*
X94612760Y-100362760D01*
X94597309Y-100376765D01*
X94580559Y-100389187D01*
X94562672Y-100399908D01*
X94543820Y-100408824D01*
X94524185Y-100415850D01*
X94503957Y-100420917D01*
X94483329Y-100423977D01*
X94462500Y-100425000D01*
X93662500Y-100425000D01*
X93641671Y-100423977D01*
X93621043Y-100420917D01*
X93600815Y-100415850D01*
X93581180Y-100408824D01*
X93562328Y-100399908D01*
X93544441Y-100389187D01*
X93527691Y-100376765D01*
X93512240Y-100362760D01*
X93498235Y-100347309D01*
X93485813Y-100330559D01*
X93475092Y-100312672D01*
X93466176Y-100293820D01*
X93459150Y-100274185D01*
X93454083Y-100253957D01*
X93451023Y-100233329D01*
X93450000Y-100212500D01*
X93450000Y-99787500D01*
X93451023Y-99766671D01*
X93454083Y-99746043D01*
X93459150Y-99725815D01*
X93466176Y-99706180D01*
X93475092Y-99687328D01*
X93485813Y-99669441D01*
X93498235Y-99652691D01*
X93512240Y-99637240D01*
X93527691Y-99623235D01*
X93544441Y-99610813D01*
X93562328Y-99600092D01*
X93581180Y-99591176D01*
X93600815Y-99584150D01*
X93621043Y-99579083D01*
X93641671Y-99576023D01*
X93662500Y-99575000D01*
X94462500Y-99575000D01*
X94483329Y-99576023D01*
X94483329Y-99576023D01*
G37*
D11*
X94062500Y-100000000D03*
D10*
G36*
X92858329Y-99576023D02*
G01*
X92878957Y-99579083D01*
X92899185Y-99584150D01*
X92918820Y-99591176D01*
X92937672Y-99600092D01*
X92955559Y-99610813D01*
X92972309Y-99623235D01*
X92987760Y-99637240D01*
X93001765Y-99652691D01*
X93014187Y-99669441D01*
X93024908Y-99687328D01*
X93033824Y-99706180D01*
X93040850Y-99725815D01*
X93045917Y-99746043D01*
X93048977Y-99766671D01*
X93050000Y-99787500D01*
X93050000Y-100212500D01*
X93048977Y-100233329D01*
X93045917Y-100253957D01*
X93040850Y-100274185D01*
X93033824Y-100293820D01*
X93024908Y-100312672D01*
X93014187Y-100330559D01*
X93001765Y-100347309D01*
X92987760Y-100362760D01*
X92972309Y-100376765D01*
X92955559Y-100389187D01*
X92937672Y-100399908D01*
X92918820Y-100408824D01*
X92899185Y-100415850D01*
X92878957Y-100420917D01*
X92858329Y-100423977D01*
X92837500Y-100425000D01*
X92037500Y-100425000D01*
X92016671Y-100423977D01*
X91996043Y-100420917D01*
X91975815Y-100415850D01*
X91956180Y-100408824D01*
X91937328Y-100399908D01*
X91919441Y-100389187D01*
X91902691Y-100376765D01*
X91887240Y-100362760D01*
X91873235Y-100347309D01*
X91860813Y-100330559D01*
X91850092Y-100312672D01*
X91841176Y-100293820D01*
X91834150Y-100274185D01*
X91829083Y-100253957D01*
X91826023Y-100233329D01*
X91825000Y-100212500D01*
X91825000Y-99787500D01*
X91826023Y-99766671D01*
X91829083Y-99746043D01*
X91834150Y-99725815D01*
X91841176Y-99706180D01*
X91850092Y-99687328D01*
X91860813Y-99669441D01*
X91873235Y-99652691D01*
X91887240Y-99637240D01*
X91902691Y-99623235D01*
X91919441Y-99610813D01*
X91937328Y-99600092D01*
X91956180Y-99591176D01*
X91975815Y-99584150D01*
X91996043Y-99579083D01*
X92016671Y-99576023D01*
X92037500Y-99575000D01*
X92837500Y-99575000D01*
X92858329Y-99576023D01*
X92858329Y-99576023D01*
G37*
D11*
X92437500Y-100000000D03*
D10*
G36*
X106858329Y-99576023D02*
G01*
X106878957Y-99579083D01*
X106899185Y-99584150D01*
X106918820Y-99591176D01*
X106937672Y-99600092D01*
X106955559Y-99610813D01*
X106972309Y-99623235D01*
X106987760Y-99637240D01*
X107001765Y-99652691D01*
X107014187Y-99669441D01*
X107024908Y-99687328D01*
X107033824Y-99706180D01*
X107040850Y-99725815D01*
X107045917Y-99746043D01*
X107048977Y-99766671D01*
X107050000Y-99787500D01*
X107050000Y-100212500D01*
X107048977Y-100233329D01*
X107045917Y-100253957D01*
X107040850Y-100274185D01*
X107033824Y-100293820D01*
X107024908Y-100312672D01*
X107014187Y-100330559D01*
X107001765Y-100347309D01*
X106987760Y-100362760D01*
X106972309Y-100376765D01*
X106955559Y-100389187D01*
X106937672Y-100399908D01*
X106918820Y-100408824D01*
X106899185Y-100415850D01*
X106878957Y-100420917D01*
X106858329Y-100423977D01*
X106837500Y-100425000D01*
X106037500Y-100425000D01*
X106016671Y-100423977D01*
X105996043Y-100420917D01*
X105975815Y-100415850D01*
X105956180Y-100408824D01*
X105937328Y-100399908D01*
X105919441Y-100389187D01*
X105902691Y-100376765D01*
X105887240Y-100362760D01*
X105873235Y-100347309D01*
X105860813Y-100330559D01*
X105850092Y-100312672D01*
X105841176Y-100293820D01*
X105834150Y-100274185D01*
X105829083Y-100253957D01*
X105826023Y-100233329D01*
X105825000Y-100212500D01*
X105825000Y-99787500D01*
X105826023Y-99766671D01*
X105829083Y-99746043D01*
X105834150Y-99725815D01*
X105841176Y-99706180D01*
X105850092Y-99687328D01*
X105860813Y-99669441D01*
X105873235Y-99652691D01*
X105887240Y-99637240D01*
X105902691Y-99623235D01*
X105919441Y-99610813D01*
X105937328Y-99600092D01*
X105956180Y-99591176D01*
X105975815Y-99584150D01*
X105996043Y-99579083D01*
X106016671Y-99576023D01*
X106037500Y-99575000D01*
X106837500Y-99575000D01*
X106858329Y-99576023D01*
X106858329Y-99576023D01*
G37*
D11*
X106437500Y-100000000D03*
D10*
G36*
X108483329Y-99576023D02*
G01*
X108503957Y-99579083D01*
X108524185Y-99584150D01*
X108543820Y-99591176D01*
X108562672Y-99600092D01*
X108580559Y-99610813D01*
X108597309Y-99623235D01*
X108612760Y-99637240D01*
X108626765Y-99652691D01*
X108639187Y-99669441D01*
X108649908Y-99687328D01*
X108658824Y-99706180D01*
X108665850Y-99725815D01*
X108670917Y-99746043D01*
X108673977Y-99766671D01*
X108675000Y-99787500D01*
X108675000Y-100212500D01*
X108673977Y-100233329D01*
X108670917Y-100253957D01*
X108665850Y-100274185D01*
X108658824Y-100293820D01*
X108649908Y-100312672D01*
X108639187Y-100330559D01*
X108626765Y-100347309D01*
X108612760Y-100362760D01*
X108597309Y-100376765D01*
X108580559Y-100389187D01*
X108562672Y-100399908D01*
X108543820Y-100408824D01*
X108524185Y-100415850D01*
X108503957Y-100420917D01*
X108483329Y-100423977D01*
X108462500Y-100425000D01*
X107662500Y-100425000D01*
X107641671Y-100423977D01*
X107621043Y-100420917D01*
X107600815Y-100415850D01*
X107581180Y-100408824D01*
X107562328Y-100399908D01*
X107544441Y-100389187D01*
X107527691Y-100376765D01*
X107512240Y-100362760D01*
X107498235Y-100347309D01*
X107485813Y-100330559D01*
X107475092Y-100312672D01*
X107466176Y-100293820D01*
X107459150Y-100274185D01*
X107454083Y-100253957D01*
X107451023Y-100233329D01*
X107450000Y-100212500D01*
X107450000Y-99787500D01*
X107451023Y-99766671D01*
X107454083Y-99746043D01*
X107459150Y-99725815D01*
X107466176Y-99706180D01*
X107475092Y-99687328D01*
X107485813Y-99669441D01*
X107498235Y-99652691D01*
X107512240Y-99637240D01*
X107527691Y-99623235D01*
X107544441Y-99610813D01*
X107562328Y-99600092D01*
X107581180Y-99591176D01*
X107600815Y-99584150D01*
X107621043Y-99579083D01*
X107641671Y-99576023D01*
X107662500Y-99575000D01*
X108462500Y-99575000D01*
X108483329Y-99576023D01*
X108483329Y-99576023D01*
G37*
D11*
X108062500Y-100000000D03*
D10*
G36*
X122483329Y-99576023D02*
G01*
X122503957Y-99579083D01*
X122524185Y-99584150D01*
X122543820Y-99591176D01*
X122562672Y-99600092D01*
X122580559Y-99610813D01*
X122597309Y-99623235D01*
X122612760Y-99637240D01*
X122626765Y-99652691D01*
X122639187Y-99669441D01*
X122649908Y-99687328D01*
X122658824Y-99706180D01*
X122665850Y-99725815D01*
X122670917Y-99746043D01*
X122673977Y-99766671D01*
X122675000Y-99787500D01*
X122675000Y-100212500D01*
X122673977Y-100233329D01*
X122670917Y-100253957D01*
X122665850Y-100274185D01*
X122658824Y-100293820D01*
X122649908Y-100312672D01*
X122639187Y-100330559D01*
X122626765Y-100347309D01*
X122612760Y-100362760D01*
X122597309Y-100376765D01*
X122580559Y-100389187D01*
X122562672Y-100399908D01*
X122543820Y-100408824D01*
X122524185Y-100415850D01*
X122503957Y-100420917D01*
X122483329Y-100423977D01*
X122462500Y-100425000D01*
X121662500Y-100425000D01*
X121641671Y-100423977D01*
X121621043Y-100420917D01*
X121600815Y-100415850D01*
X121581180Y-100408824D01*
X121562328Y-100399908D01*
X121544441Y-100389187D01*
X121527691Y-100376765D01*
X121512240Y-100362760D01*
X121498235Y-100347309D01*
X121485813Y-100330559D01*
X121475092Y-100312672D01*
X121466176Y-100293820D01*
X121459150Y-100274185D01*
X121454083Y-100253957D01*
X121451023Y-100233329D01*
X121450000Y-100212500D01*
X121450000Y-99787500D01*
X121451023Y-99766671D01*
X121454083Y-99746043D01*
X121459150Y-99725815D01*
X121466176Y-99706180D01*
X121475092Y-99687328D01*
X121485813Y-99669441D01*
X121498235Y-99652691D01*
X121512240Y-99637240D01*
X121527691Y-99623235D01*
X121544441Y-99610813D01*
X121562328Y-99600092D01*
X121581180Y-99591176D01*
X121600815Y-99584150D01*
X121621043Y-99579083D01*
X121641671Y-99576023D01*
X121662500Y-99575000D01*
X122462500Y-99575000D01*
X122483329Y-99576023D01*
X122483329Y-99576023D01*
G37*
D11*
X122062500Y-100000000D03*
D10*
G36*
X120858329Y-99576023D02*
G01*
X120878957Y-99579083D01*
X120899185Y-99584150D01*
X120918820Y-99591176D01*
X120937672Y-99600092D01*
X120955559Y-99610813D01*
X120972309Y-99623235D01*
X120987760Y-99637240D01*
X121001765Y-99652691D01*
X121014187Y-99669441D01*
X121024908Y-99687328D01*
X121033824Y-99706180D01*
X121040850Y-99725815D01*
X121045917Y-99746043D01*
X121048977Y-99766671D01*
X121050000Y-99787500D01*
X121050000Y-100212500D01*
X121048977Y-100233329D01*
X121045917Y-100253957D01*
X121040850Y-100274185D01*
X121033824Y-100293820D01*
X121024908Y-100312672D01*
X121014187Y-100330559D01*
X121001765Y-100347309D01*
X120987760Y-100362760D01*
X120972309Y-100376765D01*
X120955559Y-100389187D01*
X120937672Y-100399908D01*
X120918820Y-100408824D01*
X120899185Y-100415850D01*
X120878957Y-100420917D01*
X120858329Y-100423977D01*
X120837500Y-100425000D01*
X120037500Y-100425000D01*
X120016671Y-100423977D01*
X119996043Y-100420917D01*
X119975815Y-100415850D01*
X119956180Y-100408824D01*
X119937328Y-100399908D01*
X119919441Y-100389187D01*
X119902691Y-100376765D01*
X119887240Y-100362760D01*
X119873235Y-100347309D01*
X119860813Y-100330559D01*
X119850092Y-100312672D01*
X119841176Y-100293820D01*
X119834150Y-100274185D01*
X119829083Y-100253957D01*
X119826023Y-100233329D01*
X119825000Y-100212500D01*
X119825000Y-99787500D01*
X119826023Y-99766671D01*
X119829083Y-99746043D01*
X119834150Y-99725815D01*
X119841176Y-99706180D01*
X119850092Y-99687328D01*
X119860813Y-99669441D01*
X119873235Y-99652691D01*
X119887240Y-99637240D01*
X119902691Y-99623235D01*
X119919441Y-99610813D01*
X119937328Y-99600092D01*
X119956180Y-99591176D01*
X119975815Y-99584150D01*
X119996043Y-99579083D01*
X120016671Y-99576023D01*
X120037500Y-99575000D01*
X120837500Y-99575000D01*
X120858329Y-99576023D01*
X120858329Y-99576023D01*
G37*
D11*
X120437500Y-100000000D03*
D10*
G36*
X134858329Y-99576023D02*
G01*
X134878957Y-99579083D01*
X134899185Y-99584150D01*
X134918820Y-99591176D01*
X134937672Y-99600092D01*
X134955559Y-99610813D01*
X134972309Y-99623235D01*
X134987760Y-99637240D01*
X135001765Y-99652691D01*
X135014187Y-99669441D01*
X135024908Y-99687328D01*
X135033824Y-99706180D01*
X135040850Y-99725815D01*
X135045917Y-99746043D01*
X135048977Y-99766671D01*
X135050000Y-99787500D01*
X135050000Y-100212500D01*
X135048977Y-100233329D01*
X135045917Y-100253957D01*
X135040850Y-100274185D01*
X135033824Y-100293820D01*
X135024908Y-100312672D01*
X135014187Y-100330559D01*
X135001765Y-100347309D01*
X134987760Y-100362760D01*
X134972309Y-100376765D01*
X134955559Y-100389187D01*
X134937672Y-100399908D01*
X134918820Y-100408824D01*
X134899185Y-100415850D01*
X134878957Y-100420917D01*
X134858329Y-100423977D01*
X134837500Y-100425000D01*
X134037500Y-100425000D01*
X134016671Y-100423977D01*
X133996043Y-100420917D01*
X133975815Y-100415850D01*
X133956180Y-100408824D01*
X133937328Y-100399908D01*
X133919441Y-100389187D01*
X133902691Y-100376765D01*
X133887240Y-100362760D01*
X133873235Y-100347309D01*
X133860813Y-100330559D01*
X133850092Y-100312672D01*
X133841176Y-100293820D01*
X133834150Y-100274185D01*
X133829083Y-100253957D01*
X133826023Y-100233329D01*
X133825000Y-100212500D01*
X133825000Y-99787500D01*
X133826023Y-99766671D01*
X133829083Y-99746043D01*
X133834150Y-99725815D01*
X133841176Y-99706180D01*
X133850092Y-99687328D01*
X133860813Y-99669441D01*
X133873235Y-99652691D01*
X133887240Y-99637240D01*
X133902691Y-99623235D01*
X133919441Y-99610813D01*
X133937328Y-99600092D01*
X133956180Y-99591176D01*
X133975815Y-99584150D01*
X133996043Y-99579083D01*
X134016671Y-99576023D01*
X134037500Y-99575000D01*
X134837500Y-99575000D01*
X134858329Y-99576023D01*
X134858329Y-99576023D01*
G37*
D11*
X134437500Y-100000000D03*
D10*
G36*
X136483329Y-99576023D02*
G01*
X136503957Y-99579083D01*
X136524185Y-99584150D01*
X136543820Y-99591176D01*
X136562672Y-99600092D01*
X136580559Y-99610813D01*
X136597309Y-99623235D01*
X136612760Y-99637240D01*
X136626765Y-99652691D01*
X136639187Y-99669441D01*
X136649908Y-99687328D01*
X136658824Y-99706180D01*
X136665850Y-99725815D01*
X136670917Y-99746043D01*
X136673977Y-99766671D01*
X136675000Y-99787500D01*
X136675000Y-100212500D01*
X136673977Y-100233329D01*
X136670917Y-100253957D01*
X136665850Y-100274185D01*
X136658824Y-100293820D01*
X136649908Y-100312672D01*
X136639187Y-100330559D01*
X136626765Y-100347309D01*
X136612760Y-100362760D01*
X136597309Y-100376765D01*
X136580559Y-100389187D01*
X136562672Y-100399908D01*
X136543820Y-100408824D01*
X136524185Y-100415850D01*
X136503957Y-100420917D01*
X136483329Y-100423977D01*
X136462500Y-100425000D01*
X135662500Y-100425000D01*
X135641671Y-100423977D01*
X135621043Y-100420917D01*
X135600815Y-100415850D01*
X135581180Y-100408824D01*
X135562328Y-100399908D01*
X135544441Y-100389187D01*
X135527691Y-100376765D01*
X135512240Y-100362760D01*
X135498235Y-100347309D01*
X135485813Y-100330559D01*
X135475092Y-100312672D01*
X135466176Y-100293820D01*
X135459150Y-100274185D01*
X135454083Y-100253957D01*
X135451023Y-100233329D01*
X135450000Y-100212500D01*
X135450000Y-99787500D01*
X135451023Y-99766671D01*
X135454083Y-99746043D01*
X135459150Y-99725815D01*
X135466176Y-99706180D01*
X135475092Y-99687328D01*
X135485813Y-99669441D01*
X135498235Y-99652691D01*
X135512240Y-99637240D01*
X135527691Y-99623235D01*
X135544441Y-99610813D01*
X135562328Y-99600092D01*
X135581180Y-99591176D01*
X135600815Y-99584150D01*
X135621043Y-99579083D01*
X135641671Y-99576023D01*
X135662500Y-99575000D01*
X136462500Y-99575000D01*
X136483329Y-99576023D01*
X136483329Y-99576023D01*
G37*
D11*
X136062500Y-100000000D03*
D10*
G36*
X150483329Y-99576023D02*
G01*
X150503957Y-99579083D01*
X150524185Y-99584150D01*
X150543820Y-99591176D01*
X150562672Y-99600092D01*
X150580559Y-99610813D01*
X150597309Y-99623235D01*
X150612760Y-99637240D01*
X150626765Y-99652691D01*
X150639187Y-99669441D01*
X150649908Y-99687328D01*
X150658824Y-99706180D01*
X150665850Y-99725815D01*
X150670917Y-99746043D01*
X150673977Y-99766671D01*
X150675000Y-99787500D01*
X150675000Y-100212500D01*
X150673977Y-100233329D01*
X150670917Y-100253957D01*
X150665850Y-100274185D01*
X150658824Y-100293820D01*
X150649908Y-100312672D01*
X150639187Y-100330559D01*
X150626765Y-100347309D01*
X150612760Y-100362760D01*
X150597309Y-100376765D01*
X150580559Y-100389187D01*
X150562672Y-100399908D01*
X150543820Y-100408824D01*
X150524185Y-100415850D01*
X150503957Y-100420917D01*
X150483329Y-100423977D01*
X150462500Y-100425000D01*
X149662500Y-100425000D01*
X149641671Y-100423977D01*
X149621043Y-100420917D01*
X149600815Y-100415850D01*
X149581180Y-100408824D01*
X149562328Y-100399908D01*
X149544441Y-100389187D01*
X149527691Y-100376765D01*
X149512240Y-100362760D01*
X149498235Y-100347309D01*
X149485813Y-100330559D01*
X149475092Y-100312672D01*
X149466176Y-100293820D01*
X149459150Y-100274185D01*
X149454083Y-100253957D01*
X149451023Y-100233329D01*
X149450000Y-100212500D01*
X149450000Y-99787500D01*
X149451023Y-99766671D01*
X149454083Y-99746043D01*
X149459150Y-99725815D01*
X149466176Y-99706180D01*
X149475092Y-99687328D01*
X149485813Y-99669441D01*
X149498235Y-99652691D01*
X149512240Y-99637240D01*
X149527691Y-99623235D01*
X149544441Y-99610813D01*
X149562328Y-99600092D01*
X149581180Y-99591176D01*
X149600815Y-99584150D01*
X149621043Y-99579083D01*
X149641671Y-99576023D01*
X149662500Y-99575000D01*
X150462500Y-99575000D01*
X150483329Y-99576023D01*
X150483329Y-99576023D01*
G37*
D11*
X150062500Y-100000000D03*
D10*
G36*
X148858329Y-99576023D02*
G01*
X148878957Y-99579083D01*
X148899185Y-99584150D01*
X148918820Y-99591176D01*
X148937672Y-99600092D01*
X148955559Y-99610813D01*
X148972309Y-99623235D01*
X148987760Y-99637240D01*
X149001765Y-99652691D01*
X149014187Y-99669441D01*
X149024908Y-99687328D01*
X149033824Y-99706180D01*
X149040850Y-99725815D01*
X149045917Y-99746043D01*
X149048977Y-99766671D01*
X149050000Y-99787500D01*
X149050000Y-100212500D01*
X149048977Y-100233329D01*
X149045917Y-100253957D01*
X149040850Y-100274185D01*
X149033824Y-100293820D01*
X149024908Y-100312672D01*
X149014187Y-100330559D01*
X149001765Y-100347309D01*
X148987760Y-100362760D01*
X148972309Y-100376765D01*
X148955559Y-100389187D01*
X148937672Y-100399908D01*
X148918820Y-100408824D01*
X148899185Y-100415850D01*
X148878957Y-100420917D01*
X148858329Y-100423977D01*
X148837500Y-100425000D01*
X148037500Y-100425000D01*
X148016671Y-100423977D01*
X147996043Y-100420917D01*
X147975815Y-100415850D01*
X147956180Y-100408824D01*
X147937328Y-100399908D01*
X147919441Y-100389187D01*
X147902691Y-100376765D01*
X147887240Y-100362760D01*
X147873235Y-100347309D01*
X147860813Y-100330559D01*
X147850092Y-100312672D01*
X147841176Y-100293820D01*
X147834150Y-100274185D01*
X147829083Y-100253957D01*
X147826023Y-100233329D01*
X147825000Y-100212500D01*
X147825000Y-99787500D01*
X147826023Y-99766671D01*
X147829083Y-99746043D01*
X147834150Y-99725815D01*
X147841176Y-99706180D01*
X147850092Y-99687328D01*
X147860813Y-99669441D01*
X147873235Y-99652691D01*
X147887240Y-99637240D01*
X147902691Y-99623235D01*
X147919441Y-99610813D01*
X147937328Y-99600092D01*
X147956180Y-99591176D01*
X147975815Y-99584150D01*
X147996043Y-99579083D01*
X148016671Y-99576023D01*
X148037500Y-99575000D01*
X148837500Y-99575000D01*
X148858329Y-99576023D01*
X148858329Y-99576023D01*
G37*
D11*
X148437500Y-100000000D03*
D10*
G36*
X162858329Y-99576023D02*
G01*
X162878957Y-99579083D01*
X162899185Y-99584150D01*
X162918820Y-99591176D01*
X162937672Y-99600092D01*
X162955559Y-99610813D01*
X162972309Y-99623235D01*
X162987760Y-99637240D01*
X163001765Y-99652691D01*
X163014187Y-99669441D01*
X163024908Y-99687328D01*
X163033824Y-99706180D01*
X163040850Y-99725815D01*
X163045917Y-99746043D01*
X163048977Y-99766671D01*
X163050000Y-99787500D01*
X163050000Y-100212500D01*
X163048977Y-100233329D01*
X163045917Y-100253957D01*
X163040850Y-100274185D01*
X163033824Y-100293820D01*
X163024908Y-100312672D01*
X163014187Y-100330559D01*
X163001765Y-100347309D01*
X162987760Y-100362760D01*
X162972309Y-100376765D01*
X162955559Y-100389187D01*
X162937672Y-100399908D01*
X162918820Y-100408824D01*
X162899185Y-100415850D01*
X162878957Y-100420917D01*
X162858329Y-100423977D01*
X162837500Y-100425000D01*
X162037500Y-100425000D01*
X162016671Y-100423977D01*
X161996043Y-100420917D01*
X161975815Y-100415850D01*
X161956180Y-100408824D01*
X161937328Y-100399908D01*
X161919441Y-100389187D01*
X161902691Y-100376765D01*
X161887240Y-100362760D01*
X161873235Y-100347309D01*
X161860813Y-100330559D01*
X161850092Y-100312672D01*
X161841176Y-100293820D01*
X161834150Y-100274185D01*
X161829083Y-100253957D01*
X161826023Y-100233329D01*
X161825000Y-100212500D01*
X161825000Y-99787500D01*
X161826023Y-99766671D01*
X161829083Y-99746043D01*
X161834150Y-99725815D01*
X161841176Y-99706180D01*
X161850092Y-99687328D01*
X161860813Y-99669441D01*
X161873235Y-99652691D01*
X161887240Y-99637240D01*
X161902691Y-99623235D01*
X161919441Y-99610813D01*
X161937328Y-99600092D01*
X161956180Y-99591176D01*
X161975815Y-99584150D01*
X161996043Y-99579083D01*
X162016671Y-99576023D01*
X162037500Y-99575000D01*
X162837500Y-99575000D01*
X162858329Y-99576023D01*
X162858329Y-99576023D01*
G37*
D11*
X162437500Y-100000000D03*
D10*
G36*
X164483329Y-99576023D02*
G01*
X164503957Y-99579083D01*
X164524185Y-99584150D01*
X164543820Y-99591176D01*
X164562672Y-99600092D01*
X164580559Y-99610813D01*
X164597309Y-99623235D01*
X164612760Y-99637240D01*
X164626765Y-99652691D01*
X164639187Y-99669441D01*
X164649908Y-99687328D01*
X164658824Y-99706180D01*
X164665850Y-99725815D01*
X164670917Y-99746043D01*
X164673977Y-99766671D01*
X164675000Y-99787500D01*
X164675000Y-100212500D01*
X164673977Y-100233329D01*
X164670917Y-100253957D01*
X164665850Y-100274185D01*
X164658824Y-100293820D01*
X164649908Y-100312672D01*
X164639187Y-100330559D01*
X164626765Y-100347309D01*
X164612760Y-100362760D01*
X164597309Y-100376765D01*
X164580559Y-100389187D01*
X164562672Y-100399908D01*
X164543820Y-100408824D01*
X164524185Y-100415850D01*
X164503957Y-100420917D01*
X164483329Y-100423977D01*
X164462500Y-100425000D01*
X163662500Y-100425000D01*
X163641671Y-100423977D01*
X163621043Y-100420917D01*
X163600815Y-100415850D01*
X163581180Y-100408824D01*
X163562328Y-100399908D01*
X163544441Y-100389187D01*
X163527691Y-100376765D01*
X163512240Y-100362760D01*
X163498235Y-100347309D01*
X163485813Y-100330559D01*
X163475092Y-100312672D01*
X163466176Y-100293820D01*
X163459150Y-100274185D01*
X163454083Y-100253957D01*
X163451023Y-100233329D01*
X163450000Y-100212500D01*
X163450000Y-99787500D01*
X163451023Y-99766671D01*
X163454083Y-99746043D01*
X163459150Y-99725815D01*
X163466176Y-99706180D01*
X163475092Y-99687328D01*
X163485813Y-99669441D01*
X163498235Y-99652691D01*
X163512240Y-99637240D01*
X163527691Y-99623235D01*
X163544441Y-99610813D01*
X163562328Y-99600092D01*
X163581180Y-99591176D01*
X163600815Y-99584150D01*
X163621043Y-99579083D01*
X163641671Y-99576023D01*
X163662500Y-99575000D01*
X164462500Y-99575000D01*
X164483329Y-99576023D01*
X164483329Y-99576023D01*
G37*
D11*
X164062500Y-100000000D03*
D10*
G36*
X66483329Y-111576023D02*
G01*
X66503957Y-111579083D01*
X66524185Y-111584150D01*
X66543820Y-111591176D01*
X66562672Y-111600092D01*
X66580559Y-111610813D01*
X66597309Y-111623235D01*
X66612760Y-111637240D01*
X66626765Y-111652691D01*
X66639187Y-111669441D01*
X66649908Y-111687328D01*
X66658824Y-111706180D01*
X66665850Y-111725815D01*
X66670917Y-111746043D01*
X66673977Y-111766671D01*
X66675000Y-111787500D01*
X66675000Y-112212500D01*
X66673977Y-112233329D01*
X66670917Y-112253957D01*
X66665850Y-112274185D01*
X66658824Y-112293820D01*
X66649908Y-112312672D01*
X66639187Y-112330559D01*
X66626765Y-112347309D01*
X66612760Y-112362760D01*
X66597309Y-112376765D01*
X66580559Y-112389187D01*
X66562672Y-112399908D01*
X66543820Y-112408824D01*
X66524185Y-112415850D01*
X66503957Y-112420917D01*
X66483329Y-112423977D01*
X66462500Y-112425000D01*
X65662500Y-112425000D01*
X65641671Y-112423977D01*
X65621043Y-112420917D01*
X65600815Y-112415850D01*
X65581180Y-112408824D01*
X65562328Y-112399908D01*
X65544441Y-112389187D01*
X65527691Y-112376765D01*
X65512240Y-112362760D01*
X65498235Y-112347309D01*
X65485813Y-112330559D01*
X65475092Y-112312672D01*
X65466176Y-112293820D01*
X65459150Y-112274185D01*
X65454083Y-112253957D01*
X65451023Y-112233329D01*
X65450000Y-112212500D01*
X65450000Y-111787500D01*
X65451023Y-111766671D01*
X65454083Y-111746043D01*
X65459150Y-111725815D01*
X65466176Y-111706180D01*
X65475092Y-111687328D01*
X65485813Y-111669441D01*
X65498235Y-111652691D01*
X65512240Y-111637240D01*
X65527691Y-111623235D01*
X65544441Y-111610813D01*
X65562328Y-111600092D01*
X65581180Y-111591176D01*
X65600815Y-111584150D01*
X65621043Y-111579083D01*
X65641671Y-111576023D01*
X65662500Y-111575000D01*
X66462500Y-111575000D01*
X66483329Y-111576023D01*
X66483329Y-111576023D01*
G37*
D11*
X66062500Y-112000000D03*
D10*
G36*
X64858329Y-111576023D02*
G01*
X64878957Y-111579083D01*
X64899185Y-111584150D01*
X64918820Y-111591176D01*
X64937672Y-111600092D01*
X64955559Y-111610813D01*
X64972309Y-111623235D01*
X64987760Y-111637240D01*
X65001765Y-111652691D01*
X65014187Y-111669441D01*
X65024908Y-111687328D01*
X65033824Y-111706180D01*
X65040850Y-111725815D01*
X65045917Y-111746043D01*
X65048977Y-111766671D01*
X65050000Y-111787500D01*
X65050000Y-112212500D01*
X65048977Y-112233329D01*
X65045917Y-112253957D01*
X65040850Y-112274185D01*
X65033824Y-112293820D01*
X65024908Y-112312672D01*
X65014187Y-112330559D01*
X65001765Y-112347309D01*
X64987760Y-112362760D01*
X64972309Y-112376765D01*
X64955559Y-112389187D01*
X64937672Y-112399908D01*
X64918820Y-112408824D01*
X64899185Y-112415850D01*
X64878957Y-112420917D01*
X64858329Y-112423977D01*
X64837500Y-112425000D01*
X64037500Y-112425000D01*
X64016671Y-112423977D01*
X63996043Y-112420917D01*
X63975815Y-112415850D01*
X63956180Y-112408824D01*
X63937328Y-112399908D01*
X63919441Y-112389187D01*
X63902691Y-112376765D01*
X63887240Y-112362760D01*
X63873235Y-112347309D01*
X63860813Y-112330559D01*
X63850092Y-112312672D01*
X63841176Y-112293820D01*
X63834150Y-112274185D01*
X63829083Y-112253957D01*
X63826023Y-112233329D01*
X63825000Y-112212500D01*
X63825000Y-111787500D01*
X63826023Y-111766671D01*
X63829083Y-111746043D01*
X63834150Y-111725815D01*
X63841176Y-111706180D01*
X63850092Y-111687328D01*
X63860813Y-111669441D01*
X63873235Y-111652691D01*
X63887240Y-111637240D01*
X63902691Y-111623235D01*
X63919441Y-111610813D01*
X63937328Y-111600092D01*
X63956180Y-111591176D01*
X63975815Y-111584150D01*
X63996043Y-111579083D01*
X64016671Y-111576023D01*
X64037500Y-111575000D01*
X64837500Y-111575000D01*
X64858329Y-111576023D01*
X64858329Y-111576023D01*
G37*
D11*
X64437500Y-112000000D03*
D10*
G36*
X78858329Y-111576023D02*
G01*
X78878957Y-111579083D01*
X78899185Y-111584150D01*
X78918820Y-111591176D01*
X78937672Y-111600092D01*
X78955559Y-111610813D01*
X78972309Y-111623235D01*
X78987760Y-111637240D01*
X79001765Y-111652691D01*
X79014187Y-111669441D01*
X79024908Y-111687328D01*
X79033824Y-111706180D01*
X79040850Y-111725815D01*
X79045917Y-111746043D01*
X79048977Y-111766671D01*
X79050000Y-111787500D01*
X79050000Y-112212500D01*
X79048977Y-112233329D01*
X79045917Y-112253957D01*
X79040850Y-112274185D01*
X79033824Y-112293820D01*
X79024908Y-112312672D01*
X79014187Y-112330559D01*
X79001765Y-112347309D01*
X78987760Y-112362760D01*
X78972309Y-112376765D01*
X78955559Y-112389187D01*
X78937672Y-112399908D01*
X78918820Y-112408824D01*
X78899185Y-112415850D01*
X78878957Y-112420917D01*
X78858329Y-112423977D01*
X78837500Y-112425000D01*
X78037500Y-112425000D01*
X78016671Y-112423977D01*
X77996043Y-112420917D01*
X77975815Y-112415850D01*
X77956180Y-112408824D01*
X77937328Y-112399908D01*
X77919441Y-112389187D01*
X77902691Y-112376765D01*
X77887240Y-112362760D01*
X77873235Y-112347309D01*
X77860813Y-112330559D01*
X77850092Y-112312672D01*
X77841176Y-112293820D01*
X77834150Y-112274185D01*
X77829083Y-112253957D01*
X77826023Y-112233329D01*
X77825000Y-112212500D01*
X77825000Y-111787500D01*
X77826023Y-111766671D01*
X77829083Y-111746043D01*
X77834150Y-111725815D01*
X77841176Y-111706180D01*
X77850092Y-111687328D01*
X77860813Y-111669441D01*
X77873235Y-111652691D01*
X77887240Y-111637240D01*
X77902691Y-111623235D01*
X77919441Y-111610813D01*
X77937328Y-111600092D01*
X77956180Y-111591176D01*
X77975815Y-111584150D01*
X77996043Y-111579083D01*
X78016671Y-111576023D01*
X78037500Y-111575000D01*
X78837500Y-111575000D01*
X78858329Y-111576023D01*
X78858329Y-111576023D01*
G37*
D11*
X78437500Y-112000000D03*
D10*
G36*
X80483329Y-111576023D02*
G01*
X80503957Y-111579083D01*
X80524185Y-111584150D01*
X80543820Y-111591176D01*
X80562672Y-111600092D01*
X80580559Y-111610813D01*
X80597309Y-111623235D01*
X80612760Y-111637240D01*
X80626765Y-111652691D01*
X80639187Y-111669441D01*
X80649908Y-111687328D01*
X80658824Y-111706180D01*
X80665850Y-111725815D01*
X80670917Y-111746043D01*
X80673977Y-111766671D01*
X80675000Y-111787500D01*
X80675000Y-112212500D01*
X80673977Y-112233329D01*
X80670917Y-112253957D01*
X80665850Y-112274185D01*
X80658824Y-112293820D01*
X80649908Y-112312672D01*
X80639187Y-112330559D01*
X80626765Y-112347309D01*
X80612760Y-112362760D01*
X80597309Y-112376765D01*
X80580559Y-112389187D01*
X80562672Y-112399908D01*
X80543820Y-112408824D01*
X80524185Y-112415850D01*
X80503957Y-112420917D01*
X80483329Y-112423977D01*
X80462500Y-112425000D01*
X79662500Y-112425000D01*
X79641671Y-112423977D01*
X79621043Y-112420917D01*
X79600815Y-112415850D01*
X79581180Y-112408824D01*
X79562328Y-112399908D01*
X79544441Y-112389187D01*
X79527691Y-112376765D01*
X79512240Y-112362760D01*
X79498235Y-112347309D01*
X79485813Y-112330559D01*
X79475092Y-112312672D01*
X79466176Y-112293820D01*
X79459150Y-112274185D01*
X79454083Y-112253957D01*
X79451023Y-112233329D01*
X79450000Y-112212500D01*
X79450000Y-111787500D01*
X79451023Y-111766671D01*
X79454083Y-111746043D01*
X79459150Y-111725815D01*
X79466176Y-111706180D01*
X79475092Y-111687328D01*
X79485813Y-111669441D01*
X79498235Y-111652691D01*
X79512240Y-111637240D01*
X79527691Y-111623235D01*
X79544441Y-111610813D01*
X79562328Y-111600092D01*
X79581180Y-111591176D01*
X79600815Y-111584150D01*
X79621043Y-111579083D01*
X79641671Y-111576023D01*
X79662500Y-111575000D01*
X80462500Y-111575000D01*
X80483329Y-111576023D01*
X80483329Y-111576023D01*
G37*
D11*
X80062500Y-112000000D03*
D10*
G36*
X94483329Y-111576023D02*
G01*
X94503957Y-111579083D01*
X94524185Y-111584150D01*
X94543820Y-111591176D01*
X94562672Y-111600092D01*
X94580559Y-111610813D01*
X94597309Y-111623235D01*
X94612760Y-111637240D01*
X94626765Y-111652691D01*
X94639187Y-111669441D01*
X94649908Y-111687328D01*
X94658824Y-111706180D01*
X94665850Y-111725815D01*
X94670917Y-111746043D01*
X94673977Y-111766671D01*
X94675000Y-111787500D01*
X94675000Y-112212500D01*
X94673977Y-112233329D01*
X94670917Y-112253957D01*
X94665850Y-112274185D01*
X94658824Y-112293820D01*
X94649908Y-112312672D01*
X94639187Y-112330559D01*
X94626765Y-112347309D01*
X94612760Y-112362760D01*
X94597309Y-112376765D01*
X94580559Y-112389187D01*
X94562672Y-112399908D01*
X94543820Y-112408824D01*
X94524185Y-112415850D01*
X94503957Y-112420917D01*
X94483329Y-112423977D01*
X94462500Y-112425000D01*
X93662500Y-112425000D01*
X93641671Y-112423977D01*
X93621043Y-112420917D01*
X93600815Y-112415850D01*
X93581180Y-112408824D01*
X93562328Y-112399908D01*
X93544441Y-112389187D01*
X93527691Y-112376765D01*
X93512240Y-112362760D01*
X93498235Y-112347309D01*
X93485813Y-112330559D01*
X93475092Y-112312672D01*
X93466176Y-112293820D01*
X93459150Y-112274185D01*
X93454083Y-112253957D01*
X93451023Y-112233329D01*
X93450000Y-112212500D01*
X93450000Y-111787500D01*
X93451023Y-111766671D01*
X93454083Y-111746043D01*
X93459150Y-111725815D01*
X93466176Y-111706180D01*
X93475092Y-111687328D01*
X93485813Y-111669441D01*
X93498235Y-111652691D01*
X93512240Y-111637240D01*
X93527691Y-111623235D01*
X93544441Y-111610813D01*
X93562328Y-111600092D01*
X93581180Y-111591176D01*
X93600815Y-111584150D01*
X93621043Y-111579083D01*
X93641671Y-111576023D01*
X93662500Y-111575000D01*
X94462500Y-111575000D01*
X94483329Y-111576023D01*
X94483329Y-111576023D01*
G37*
D11*
X94062500Y-112000000D03*
D10*
G36*
X92858329Y-111576023D02*
G01*
X92878957Y-111579083D01*
X92899185Y-111584150D01*
X92918820Y-111591176D01*
X92937672Y-111600092D01*
X92955559Y-111610813D01*
X92972309Y-111623235D01*
X92987760Y-111637240D01*
X93001765Y-111652691D01*
X93014187Y-111669441D01*
X93024908Y-111687328D01*
X93033824Y-111706180D01*
X93040850Y-111725815D01*
X93045917Y-111746043D01*
X93048977Y-111766671D01*
X93050000Y-111787500D01*
X93050000Y-112212500D01*
X93048977Y-112233329D01*
X93045917Y-112253957D01*
X93040850Y-112274185D01*
X93033824Y-112293820D01*
X93024908Y-112312672D01*
X93014187Y-112330559D01*
X93001765Y-112347309D01*
X92987760Y-112362760D01*
X92972309Y-112376765D01*
X92955559Y-112389187D01*
X92937672Y-112399908D01*
X92918820Y-112408824D01*
X92899185Y-112415850D01*
X92878957Y-112420917D01*
X92858329Y-112423977D01*
X92837500Y-112425000D01*
X92037500Y-112425000D01*
X92016671Y-112423977D01*
X91996043Y-112420917D01*
X91975815Y-112415850D01*
X91956180Y-112408824D01*
X91937328Y-112399908D01*
X91919441Y-112389187D01*
X91902691Y-112376765D01*
X91887240Y-112362760D01*
X91873235Y-112347309D01*
X91860813Y-112330559D01*
X91850092Y-112312672D01*
X91841176Y-112293820D01*
X91834150Y-112274185D01*
X91829083Y-112253957D01*
X91826023Y-112233329D01*
X91825000Y-112212500D01*
X91825000Y-111787500D01*
X91826023Y-111766671D01*
X91829083Y-111746043D01*
X91834150Y-111725815D01*
X91841176Y-111706180D01*
X91850092Y-111687328D01*
X91860813Y-111669441D01*
X91873235Y-111652691D01*
X91887240Y-111637240D01*
X91902691Y-111623235D01*
X91919441Y-111610813D01*
X91937328Y-111600092D01*
X91956180Y-111591176D01*
X91975815Y-111584150D01*
X91996043Y-111579083D01*
X92016671Y-111576023D01*
X92037500Y-111575000D01*
X92837500Y-111575000D01*
X92858329Y-111576023D01*
X92858329Y-111576023D01*
G37*
D11*
X92437500Y-112000000D03*
D10*
G36*
X108483329Y-111576023D02*
G01*
X108503957Y-111579083D01*
X108524185Y-111584150D01*
X108543820Y-111591176D01*
X108562672Y-111600092D01*
X108580559Y-111610813D01*
X108597309Y-111623235D01*
X108612760Y-111637240D01*
X108626765Y-111652691D01*
X108639187Y-111669441D01*
X108649908Y-111687328D01*
X108658824Y-111706180D01*
X108665850Y-111725815D01*
X108670917Y-111746043D01*
X108673977Y-111766671D01*
X108675000Y-111787500D01*
X108675000Y-112212500D01*
X108673977Y-112233329D01*
X108670917Y-112253957D01*
X108665850Y-112274185D01*
X108658824Y-112293820D01*
X108649908Y-112312672D01*
X108639187Y-112330559D01*
X108626765Y-112347309D01*
X108612760Y-112362760D01*
X108597309Y-112376765D01*
X108580559Y-112389187D01*
X108562672Y-112399908D01*
X108543820Y-112408824D01*
X108524185Y-112415850D01*
X108503957Y-112420917D01*
X108483329Y-112423977D01*
X108462500Y-112425000D01*
X107662500Y-112425000D01*
X107641671Y-112423977D01*
X107621043Y-112420917D01*
X107600815Y-112415850D01*
X107581180Y-112408824D01*
X107562328Y-112399908D01*
X107544441Y-112389187D01*
X107527691Y-112376765D01*
X107512240Y-112362760D01*
X107498235Y-112347309D01*
X107485813Y-112330559D01*
X107475092Y-112312672D01*
X107466176Y-112293820D01*
X107459150Y-112274185D01*
X107454083Y-112253957D01*
X107451023Y-112233329D01*
X107450000Y-112212500D01*
X107450000Y-111787500D01*
X107451023Y-111766671D01*
X107454083Y-111746043D01*
X107459150Y-111725815D01*
X107466176Y-111706180D01*
X107475092Y-111687328D01*
X107485813Y-111669441D01*
X107498235Y-111652691D01*
X107512240Y-111637240D01*
X107527691Y-111623235D01*
X107544441Y-111610813D01*
X107562328Y-111600092D01*
X107581180Y-111591176D01*
X107600815Y-111584150D01*
X107621043Y-111579083D01*
X107641671Y-111576023D01*
X107662500Y-111575000D01*
X108462500Y-111575000D01*
X108483329Y-111576023D01*
X108483329Y-111576023D01*
G37*
D11*
X108062500Y-112000000D03*
D10*
G36*
X106858329Y-111576023D02*
G01*
X106878957Y-111579083D01*
X106899185Y-111584150D01*
X106918820Y-111591176D01*
X106937672Y-111600092D01*
X106955559Y-111610813D01*
X106972309Y-111623235D01*
X106987760Y-111637240D01*
X107001765Y-111652691D01*
X107014187Y-111669441D01*
X107024908Y-111687328D01*
X107033824Y-111706180D01*
X107040850Y-111725815D01*
X107045917Y-111746043D01*
X107048977Y-111766671D01*
X107050000Y-111787500D01*
X107050000Y-112212500D01*
X107048977Y-112233329D01*
X107045917Y-112253957D01*
X107040850Y-112274185D01*
X107033824Y-112293820D01*
X107024908Y-112312672D01*
X107014187Y-112330559D01*
X107001765Y-112347309D01*
X106987760Y-112362760D01*
X106972309Y-112376765D01*
X106955559Y-112389187D01*
X106937672Y-112399908D01*
X106918820Y-112408824D01*
X106899185Y-112415850D01*
X106878957Y-112420917D01*
X106858329Y-112423977D01*
X106837500Y-112425000D01*
X106037500Y-112425000D01*
X106016671Y-112423977D01*
X105996043Y-112420917D01*
X105975815Y-112415850D01*
X105956180Y-112408824D01*
X105937328Y-112399908D01*
X105919441Y-112389187D01*
X105902691Y-112376765D01*
X105887240Y-112362760D01*
X105873235Y-112347309D01*
X105860813Y-112330559D01*
X105850092Y-112312672D01*
X105841176Y-112293820D01*
X105834150Y-112274185D01*
X105829083Y-112253957D01*
X105826023Y-112233329D01*
X105825000Y-112212500D01*
X105825000Y-111787500D01*
X105826023Y-111766671D01*
X105829083Y-111746043D01*
X105834150Y-111725815D01*
X105841176Y-111706180D01*
X105850092Y-111687328D01*
X105860813Y-111669441D01*
X105873235Y-111652691D01*
X105887240Y-111637240D01*
X105902691Y-111623235D01*
X105919441Y-111610813D01*
X105937328Y-111600092D01*
X105956180Y-111591176D01*
X105975815Y-111584150D01*
X105996043Y-111579083D01*
X106016671Y-111576023D01*
X106037500Y-111575000D01*
X106837500Y-111575000D01*
X106858329Y-111576023D01*
X106858329Y-111576023D01*
G37*
D11*
X106437500Y-112000000D03*
D10*
G36*
X122483329Y-111576023D02*
G01*
X122503957Y-111579083D01*
X122524185Y-111584150D01*
X122543820Y-111591176D01*
X122562672Y-111600092D01*
X122580559Y-111610813D01*
X122597309Y-111623235D01*
X122612760Y-111637240D01*
X122626765Y-111652691D01*
X122639187Y-111669441D01*
X122649908Y-111687328D01*
X122658824Y-111706180D01*
X122665850Y-111725815D01*
X122670917Y-111746043D01*
X122673977Y-111766671D01*
X122675000Y-111787500D01*
X122675000Y-112212500D01*
X122673977Y-112233329D01*
X122670917Y-112253957D01*
X122665850Y-112274185D01*
X122658824Y-112293820D01*
X122649908Y-112312672D01*
X122639187Y-112330559D01*
X122626765Y-112347309D01*
X122612760Y-112362760D01*
X122597309Y-112376765D01*
X122580559Y-112389187D01*
X122562672Y-112399908D01*
X122543820Y-112408824D01*
X122524185Y-112415850D01*
X122503957Y-112420917D01*
X122483329Y-112423977D01*
X122462500Y-112425000D01*
X121662500Y-112425000D01*
X121641671Y-112423977D01*
X121621043Y-112420917D01*
X121600815Y-112415850D01*
X121581180Y-112408824D01*
X121562328Y-112399908D01*
X121544441Y-112389187D01*
X121527691Y-112376765D01*
X121512240Y-112362760D01*
X121498235Y-112347309D01*
X121485813Y-112330559D01*
X121475092Y-112312672D01*
X121466176Y-112293820D01*
X121459150Y-112274185D01*
X121454083Y-112253957D01*
X121451023Y-112233329D01*
X121450000Y-112212500D01*
X121450000Y-111787500D01*
X121451023Y-111766671D01*
X121454083Y-111746043D01*
X121459150Y-111725815D01*
X121466176Y-111706180D01*
X121475092Y-111687328D01*
X121485813Y-111669441D01*
X121498235Y-111652691D01*
X121512240Y-111637240D01*
X121527691Y-111623235D01*
X121544441Y-111610813D01*
X121562328Y-111600092D01*
X121581180Y-111591176D01*
X121600815Y-111584150D01*
X121621043Y-111579083D01*
X121641671Y-111576023D01*
X121662500Y-111575000D01*
X122462500Y-111575000D01*
X122483329Y-111576023D01*
X122483329Y-111576023D01*
G37*
D11*
X122062500Y-112000000D03*
D10*
G36*
X120858329Y-111576023D02*
G01*
X120878957Y-111579083D01*
X120899185Y-111584150D01*
X120918820Y-111591176D01*
X120937672Y-111600092D01*
X120955559Y-111610813D01*
X120972309Y-111623235D01*
X120987760Y-111637240D01*
X121001765Y-111652691D01*
X121014187Y-111669441D01*
X121024908Y-111687328D01*
X121033824Y-111706180D01*
X121040850Y-111725815D01*
X121045917Y-111746043D01*
X121048977Y-111766671D01*
X121050000Y-111787500D01*
X121050000Y-112212500D01*
X121048977Y-112233329D01*
X121045917Y-112253957D01*
X121040850Y-112274185D01*
X121033824Y-112293820D01*
X121024908Y-112312672D01*
X121014187Y-112330559D01*
X121001765Y-112347309D01*
X120987760Y-112362760D01*
X120972309Y-112376765D01*
X120955559Y-112389187D01*
X120937672Y-112399908D01*
X120918820Y-112408824D01*
X120899185Y-112415850D01*
X120878957Y-112420917D01*
X120858329Y-112423977D01*
X120837500Y-112425000D01*
X120037500Y-112425000D01*
X120016671Y-112423977D01*
X119996043Y-112420917D01*
X119975815Y-112415850D01*
X119956180Y-112408824D01*
X119937328Y-112399908D01*
X119919441Y-112389187D01*
X119902691Y-112376765D01*
X119887240Y-112362760D01*
X119873235Y-112347309D01*
X119860813Y-112330559D01*
X119850092Y-112312672D01*
X119841176Y-112293820D01*
X119834150Y-112274185D01*
X119829083Y-112253957D01*
X119826023Y-112233329D01*
X119825000Y-112212500D01*
X119825000Y-111787500D01*
X119826023Y-111766671D01*
X119829083Y-111746043D01*
X119834150Y-111725815D01*
X119841176Y-111706180D01*
X119850092Y-111687328D01*
X119860813Y-111669441D01*
X119873235Y-111652691D01*
X119887240Y-111637240D01*
X119902691Y-111623235D01*
X119919441Y-111610813D01*
X119937328Y-111600092D01*
X119956180Y-111591176D01*
X119975815Y-111584150D01*
X119996043Y-111579083D01*
X120016671Y-111576023D01*
X120037500Y-111575000D01*
X120837500Y-111575000D01*
X120858329Y-111576023D01*
X120858329Y-111576023D01*
G37*
D11*
X120437500Y-112000000D03*
D10*
G36*
X134858329Y-111576023D02*
G01*
X134878957Y-111579083D01*
X134899185Y-111584150D01*
X134918820Y-111591176D01*
X134937672Y-111600092D01*
X134955559Y-111610813D01*
X134972309Y-111623235D01*
X134987760Y-111637240D01*
X135001765Y-111652691D01*
X135014187Y-111669441D01*
X135024908Y-111687328D01*
X135033824Y-111706180D01*
X135040850Y-111725815D01*
X135045917Y-111746043D01*
X135048977Y-111766671D01*
X135050000Y-111787500D01*
X135050000Y-112212500D01*
X135048977Y-112233329D01*
X135045917Y-112253957D01*
X135040850Y-112274185D01*
X135033824Y-112293820D01*
X135024908Y-112312672D01*
X135014187Y-112330559D01*
X135001765Y-112347309D01*
X134987760Y-112362760D01*
X134972309Y-112376765D01*
X134955559Y-112389187D01*
X134937672Y-112399908D01*
X134918820Y-112408824D01*
X134899185Y-112415850D01*
X134878957Y-112420917D01*
X134858329Y-112423977D01*
X134837500Y-112425000D01*
X134037500Y-112425000D01*
X134016671Y-112423977D01*
X133996043Y-112420917D01*
X133975815Y-112415850D01*
X133956180Y-112408824D01*
X133937328Y-112399908D01*
X133919441Y-112389187D01*
X133902691Y-112376765D01*
X133887240Y-112362760D01*
X133873235Y-112347309D01*
X133860813Y-112330559D01*
X133850092Y-112312672D01*
X133841176Y-112293820D01*
X133834150Y-112274185D01*
X133829083Y-112253957D01*
X133826023Y-112233329D01*
X133825000Y-112212500D01*
X133825000Y-111787500D01*
X133826023Y-111766671D01*
X133829083Y-111746043D01*
X133834150Y-111725815D01*
X133841176Y-111706180D01*
X133850092Y-111687328D01*
X133860813Y-111669441D01*
X133873235Y-111652691D01*
X133887240Y-111637240D01*
X133902691Y-111623235D01*
X133919441Y-111610813D01*
X133937328Y-111600092D01*
X133956180Y-111591176D01*
X133975815Y-111584150D01*
X133996043Y-111579083D01*
X134016671Y-111576023D01*
X134037500Y-111575000D01*
X134837500Y-111575000D01*
X134858329Y-111576023D01*
X134858329Y-111576023D01*
G37*
D11*
X134437500Y-112000000D03*
D10*
G36*
X136483329Y-111576023D02*
G01*
X136503957Y-111579083D01*
X136524185Y-111584150D01*
X136543820Y-111591176D01*
X136562672Y-111600092D01*
X136580559Y-111610813D01*
X136597309Y-111623235D01*
X136612760Y-111637240D01*
X136626765Y-111652691D01*
X136639187Y-111669441D01*
X136649908Y-111687328D01*
X136658824Y-111706180D01*
X136665850Y-111725815D01*
X136670917Y-111746043D01*
X136673977Y-111766671D01*
X136675000Y-111787500D01*
X136675000Y-112212500D01*
X136673977Y-112233329D01*
X136670917Y-112253957D01*
X136665850Y-112274185D01*
X136658824Y-112293820D01*
X136649908Y-112312672D01*
X136639187Y-112330559D01*
X136626765Y-112347309D01*
X136612760Y-112362760D01*
X136597309Y-112376765D01*
X136580559Y-112389187D01*
X136562672Y-112399908D01*
X136543820Y-112408824D01*
X136524185Y-112415850D01*
X136503957Y-112420917D01*
X136483329Y-112423977D01*
X136462500Y-112425000D01*
X135662500Y-112425000D01*
X135641671Y-112423977D01*
X135621043Y-112420917D01*
X135600815Y-112415850D01*
X135581180Y-112408824D01*
X135562328Y-112399908D01*
X135544441Y-112389187D01*
X135527691Y-112376765D01*
X135512240Y-112362760D01*
X135498235Y-112347309D01*
X135485813Y-112330559D01*
X135475092Y-112312672D01*
X135466176Y-112293820D01*
X135459150Y-112274185D01*
X135454083Y-112253957D01*
X135451023Y-112233329D01*
X135450000Y-112212500D01*
X135450000Y-111787500D01*
X135451023Y-111766671D01*
X135454083Y-111746043D01*
X135459150Y-111725815D01*
X135466176Y-111706180D01*
X135475092Y-111687328D01*
X135485813Y-111669441D01*
X135498235Y-111652691D01*
X135512240Y-111637240D01*
X135527691Y-111623235D01*
X135544441Y-111610813D01*
X135562328Y-111600092D01*
X135581180Y-111591176D01*
X135600815Y-111584150D01*
X135621043Y-111579083D01*
X135641671Y-111576023D01*
X135662500Y-111575000D01*
X136462500Y-111575000D01*
X136483329Y-111576023D01*
X136483329Y-111576023D01*
G37*
D11*
X136062500Y-112000000D03*
D10*
G36*
X150483329Y-111576023D02*
G01*
X150503957Y-111579083D01*
X150524185Y-111584150D01*
X150543820Y-111591176D01*
X150562672Y-111600092D01*
X150580559Y-111610813D01*
X150597309Y-111623235D01*
X150612760Y-111637240D01*
X150626765Y-111652691D01*
X150639187Y-111669441D01*
X150649908Y-111687328D01*
X150658824Y-111706180D01*
X150665850Y-111725815D01*
X150670917Y-111746043D01*
X150673977Y-111766671D01*
X150675000Y-111787500D01*
X150675000Y-112212500D01*
X150673977Y-112233329D01*
X150670917Y-112253957D01*
X150665850Y-112274185D01*
X150658824Y-112293820D01*
X150649908Y-112312672D01*
X150639187Y-112330559D01*
X150626765Y-112347309D01*
X150612760Y-112362760D01*
X150597309Y-112376765D01*
X150580559Y-112389187D01*
X150562672Y-112399908D01*
X150543820Y-112408824D01*
X150524185Y-112415850D01*
X150503957Y-112420917D01*
X150483329Y-112423977D01*
X150462500Y-112425000D01*
X149662500Y-112425000D01*
X149641671Y-112423977D01*
X149621043Y-112420917D01*
X149600815Y-112415850D01*
X149581180Y-112408824D01*
X149562328Y-112399908D01*
X149544441Y-112389187D01*
X149527691Y-112376765D01*
X149512240Y-112362760D01*
X149498235Y-112347309D01*
X149485813Y-112330559D01*
X149475092Y-112312672D01*
X149466176Y-112293820D01*
X149459150Y-112274185D01*
X149454083Y-112253957D01*
X149451023Y-112233329D01*
X149450000Y-112212500D01*
X149450000Y-111787500D01*
X149451023Y-111766671D01*
X149454083Y-111746043D01*
X149459150Y-111725815D01*
X149466176Y-111706180D01*
X149475092Y-111687328D01*
X149485813Y-111669441D01*
X149498235Y-111652691D01*
X149512240Y-111637240D01*
X149527691Y-111623235D01*
X149544441Y-111610813D01*
X149562328Y-111600092D01*
X149581180Y-111591176D01*
X149600815Y-111584150D01*
X149621043Y-111579083D01*
X149641671Y-111576023D01*
X149662500Y-111575000D01*
X150462500Y-111575000D01*
X150483329Y-111576023D01*
X150483329Y-111576023D01*
G37*
D11*
X150062500Y-112000000D03*
D10*
G36*
X148858329Y-111576023D02*
G01*
X148878957Y-111579083D01*
X148899185Y-111584150D01*
X148918820Y-111591176D01*
X148937672Y-111600092D01*
X148955559Y-111610813D01*
X148972309Y-111623235D01*
X148987760Y-111637240D01*
X149001765Y-111652691D01*
X149014187Y-111669441D01*
X149024908Y-111687328D01*
X149033824Y-111706180D01*
X149040850Y-111725815D01*
X149045917Y-111746043D01*
X149048977Y-111766671D01*
X149050000Y-111787500D01*
X149050000Y-112212500D01*
X149048977Y-112233329D01*
X149045917Y-112253957D01*
X149040850Y-112274185D01*
X149033824Y-112293820D01*
X149024908Y-112312672D01*
X149014187Y-112330559D01*
X149001765Y-112347309D01*
X148987760Y-112362760D01*
X148972309Y-112376765D01*
X148955559Y-112389187D01*
X148937672Y-112399908D01*
X148918820Y-112408824D01*
X148899185Y-112415850D01*
X148878957Y-112420917D01*
X148858329Y-112423977D01*
X148837500Y-112425000D01*
X148037500Y-112425000D01*
X148016671Y-112423977D01*
X147996043Y-112420917D01*
X147975815Y-112415850D01*
X147956180Y-112408824D01*
X147937328Y-112399908D01*
X147919441Y-112389187D01*
X147902691Y-112376765D01*
X147887240Y-112362760D01*
X147873235Y-112347309D01*
X147860813Y-112330559D01*
X147850092Y-112312672D01*
X147841176Y-112293820D01*
X147834150Y-112274185D01*
X147829083Y-112253957D01*
X147826023Y-112233329D01*
X147825000Y-112212500D01*
X147825000Y-111787500D01*
X147826023Y-111766671D01*
X147829083Y-111746043D01*
X147834150Y-111725815D01*
X147841176Y-111706180D01*
X147850092Y-111687328D01*
X147860813Y-111669441D01*
X147873235Y-111652691D01*
X147887240Y-111637240D01*
X147902691Y-111623235D01*
X147919441Y-111610813D01*
X147937328Y-111600092D01*
X147956180Y-111591176D01*
X147975815Y-111584150D01*
X147996043Y-111579083D01*
X148016671Y-111576023D01*
X148037500Y-111575000D01*
X148837500Y-111575000D01*
X148858329Y-111576023D01*
X148858329Y-111576023D01*
G37*
D11*
X148437500Y-112000000D03*
D10*
G36*
X162858329Y-111576023D02*
G01*
X162878957Y-111579083D01*
X162899185Y-111584150D01*
X162918820Y-111591176D01*
X162937672Y-111600092D01*
X162955559Y-111610813D01*
X162972309Y-111623235D01*
X162987760Y-111637240D01*
X163001765Y-111652691D01*
X163014187Y-111669441D01*
X163024908Y-111687328D01*
X163033824Y-111706180D01*
X163040850Y-111725815D01*
X163045917Y-111746043D01*
X163048977Y-111766671D01*
X163050000Y-111787500D01*
X163050000Y-112212500D01*
X163048977Y-112233329D01*
X163045917Y-112253957D01*
X163040850Y-112274185D01*
X163033824Y-112293820D01*
X163024908Y-112312672D01*
X163014187Y-112330559D01*
X163001765Y-112347309D01*
X162987760Y-112362760D01*
X162972309Y-112376765D01*
X162955559Y-112389187D01*
X162937672Y-112399908D01*
X162918820Y-112408824D01*
X162899185Y-112415850D01*
X162878957Y-112420917D01*
X162858329Y-112423977D01*
X162837500Y-112425000D01*
X162037500Y-112425000D01*
X162016671Y-112423977D01*
X161996043Y-112420917D01*
X161975815Y-112415850D01*
X161956180Y-112408824D01*
X161937328Y-112399908D01*
X161919441Y-112389187D01*
X161902691Y-112376765D01*
X161887240Y-112362760D01*
X161873235Y-112347309D01*
X161860813Y-112330559D01*
X161850092Y-112312672D01*
X161841176Y-112293820D01*
X161834150Y-112274185D01*
X161829083Y-112253957D01*
X161826023Y-112233329D01*
X161825000Y-112212500D01*
X161825000Y-111787500D01*
X161826023Y-111766671D01*
X161829083Y-111746043D01*
X161834150Y-111725815D01*
X161841176Y-111706180D01*
X161850092Y-111687328D01*
X161860813Y-111669441D01*
X161873235Y-111652691D01*
X161887240Y-111637240D01*
X161902691Y-111623235D01*
X161919441Y-111610813D01*
X161937328Y-111600092D01*
X161956180Y-111591176D01*
X161975815Y-111584150D01*
X161996043Y-111579083D01*
X162016671Y-111576023D01*
X162037500Y-111575000D01*
X162837500Y-111575000D01*
X162858329Y-111576023D01*
X162858329Y-111576023D01*
G37*
D11*
X162437500Y-112000000D03*
D10*
G36*
X164483329Y-111576023D02*
G01*
X164503957Y-111579083D01*
X164524185Y-111584150D01*
X164543820Y-111591176D01*
X164562672Y-111600092D01*
X164580559Y-111610813D01*
X164597309Y-111623235D01*
X164612760Y-111637240D01*
X164626765Y-111652691D01*
X164639187Y-111669441D01*
X164649908Y-111687328D01*
X164658824Y-111706180D01*
X164665850Y-111725815D01*
X164670917Y-111746043D01*
X164673977Y-111766671D01*
X164675000Y-111787500D01*
X164675000Y-112212500D01*
X164673977Y-112233329D01*
X164670917Y-112253957D01*
X164665850Y-112274185D01*
X164658824Y-112293820D01*
X164649908Y-112312672D01*
X164639187Y-112330559D01*
X164626765Y-112347309D01*
X164612760Y-112362760D01*
X164597309Y-112376765D01*
X164580559Y-112389187D01*
X164562672Y-112399908D01*
X164543820Y-112408824D01*
X164524185Y-112415850D01*
X164503957Y-112420917D01*
X164483329Y-112423977D01*
X164462500Y-112425000D01*
X163662500Y-112425000D01*
X163641671Y-112423977D01*
X163621043Y-112420917D01*
X163600815Y-112415850D01*
X163581180Y-112408824D01*
X163562328Y-112399908D01*
X163544441Y-112389187D01*
X163527691Y-112376765D01*
X163512240Y-112362760D01*
X163498235Y-112347309D01*
X163485813Y-112330559D01*
X163475092Y-112312672D01*
X163466176Y-112293820D01*
X163459150Y-112274185D01*
X163454083Y-112253957D01*
X163451023Y-112233329D01*
X163450000Y-112212500D01*
X163450000Y-111787500D01*
X163451023Y-111766671D01*
X163454083Y-111746043D01*
X163459150Y-111725815D01*
X163466176Y-111706180D01*
X163475092Y-111687328D01*
X163485813Y-111669441D01*
X163498235Y-111652691D01*
X163512240Y-111637240D01*
X163527691Y-111623235D01*
X163544441Y-111610813D01*
X163562328Y-111600092D01*
X163581180Y-111591176D01*
X163600815Y-111584150D01*
X163621043Y-111579083D01*
X163641671Y-111576023D01*
X163662500Y-111575000D01*
X164462500Y-111575000D01*
X164483329Y-111576023D01*
X164483329Y-111576023D01*
G37*
D11*
X164062500Y-112000000D03*
D10*
G36*
X129483329Y-87576023D02*
G01*
X129503957Y-87579083D01*
X129524185Y-87584150D01*
X129543820Y-87591176D01*
X129562672Y-87600092D01*
X129580559Y-87610813D01*
X129597309Y-87623235D01*
X129612760Y-87637240D01*
X129626765Y-87652691D01*
X129639187Y-87669441D01*
X129649908Y-87687328D01*
X129658824Y-87706180D01*
X129665850Y-87725815D01*
X129670917Y-87746043D01*
X129673977Y-87766671D01*
X129675000Y-87787500D01*
X129675000Y-88212500D01*
X129673977Y-88233329D01*
X129670917Y-88253957D01*
X129665850Y-88274185D01*
X129658824Y-88293820D01*
X129649908Y-88312672D01*
X129639187Y-88330559D01*
X129626765Y-88347309D01*
X129612760Y-88362760D01*
X129597309Y-88376765D01*
X129580559Y-88389187D01*
X129562672Y-88399908D01*
X129543820Y-88408824D01*
X129524185Y-88415850D01*
X129503957Y-88420917D01*
X129483329Y-88423977D01*
X129462500Y-88425000D01*
X128662500Y-88425000D01*
X128641671Y-88423977D01*
X128621043Y-88420917D01*
X128600815Y-88415850D01*
X128581180Y-88408824D01*
X128562328Y-88399908D01*
X128544441Y-88389187D01*
X128527691Y-88376765D01*
X128512240Y-88362760D01*
X128498235Y-88347309D01*
X128485813Y-88330559D01*
X128475092Y-88312672D01*
X128466176Y-88293820D01*
X128459150Y-88274185D01*
X128454083Y-88253957D01*
X128451023Y-88233329D01*
X128450000Y-88212500D01*
X128450000Y-87787500D01*
X128451023Y-87766671D01*
X128454083Y-87746043D01*
X128459150Y-87725815D01*
X128466176Y-87706180D01*
X128475092Y-87687328D01*
X128485813Y-87669441D01*
X128498235Y-87652691D01*
X128512240Y-87637240D01*
X128527691Y-87623235D01*
X128544441Y-87610813D01*
X128562328Y-87600092D01*
X128581180Y-87591176D01*
X128600815Y-87584150D01*
X128621043Y-87579083D01*
X128641671Y-87576023D01*
X128662500Y-87575000D01*
X129462500Y-87575000D01*
X129483329Y-87576023D01*
X129483329Y-87576023D01*
G37*
D11*
X129062500Y-88000000D03*
D10*
G36*
X127858329Y-87576023D02*
G01*
X127878957Y-87579083D01*
X127899185Y-87584150D01*
X127918820Y-87591176D01*
X127937672Y-87600092D01*
X127955559Y-87610813D01*
X127972309Y-87623235D01*
X127987760Y-87637240D01*
X128001765Y-87652691D01*
X128014187Y-87669441D01*
X128024908Y-87687328D01*
X128033824Y-87706180D01*
X128040850Y-87725815D01*
X128045917Y-87746043D01*
X128048977Y-87766671D01*
X128050000Y-87787500D01*
X128050000Y-88212500D01*
X128048977Y-88233329D01*
X128045917Y-88253957D01*
X128040850Y-88274185D01*
X128033824Y-88293820D01*
X128024908Y-88312672D01*
X128014187Y-88330559D01*
X128001765Y-88347309D01*
X127987760Y-88362760D01*
X127972309Y-88376765D01*
X127955559Y-88389187D01*
X127937672Y-88399908D01*
X127918820Y-88408824D01*
X127899185Y-88415850D01*
X127878957Y-88420917D01*
X127858329Y-88423977D01*
X127837500Y-88425000D01*
X127037500Y-88425000D01*
X127016671Y-88423977D01*
X126996043Y-88420917D01*
X126975815Y-88415850D01*
X126956180Y-88408824D01*
X126937328Y-88399908D01*
X126919441Y-88389187D01*
X126902691Y-88376765D01*
X126887240Y-88362760D01*
X126873235Y-88347309D01*
X126860813Y-88330559D01*
X126850092Y-88312672D01*
X126841176Y-88293820D01*
X126834150Y-88274185D01*
X126829083Y-88253957D01*
X126826023Y-88233329D01*
X126825000Y-88212500D01*
X126825000Y-87787500D01*
X126826023Y-87766671D01*
X126829083Y-87746043D01*
X126834150Y-87725815D01*
X126841176Y-87706180D01*
X126850092Y-87687328D01*
X126860813Y-87669441D01*
X126873235Y-87652691D01*
X126887240Y-87637240D01*
X126902691Y-87623235D01*
X126919441Y-87610813D01*
X126937328Y-87600092D01*
X126956180Y-87591176D01*
X126975815Y-87584150D01*
X126996043Y-87579083D01*
X127016671Y-87576023D01*
X127037500Y-87575000D01*
X127837500Y-87575000D01*
X127858329Y-87576023D01*
X127858329Y-87576023D01*
G37*
D11*
X127437500Y-88000000D03*
D10*
G36*
X99858329Y-87576023D02*
G01*
X99878957Y-87579083D01*
X99899185Y-87584150D01*
X99918820Y-87591176D01*
X99937672Y-87600092D01*
X99955559Y-87610813D01*
X99972309Y-87623235D01*
X99987760Y-87637240D01*
X100001765Y-87652691D01*
X100014187Y-87669441D01*
X100024908Y-87687328D01*
X100033824Y-87706180D01*
X100040850Y-87725815D01*
X100045917Y-87746043D01*
X100048977Y-87766671D01*
X100050000Y-87787500D01*
X100050000Y-88212500D01*
X100048977Y-88233329D01*
X100045917Y-88253957D01*
X100040850Y-88274185D01*
X100033824Y-88293820D01*
X100024908Y-88312672D01*
X100014187Y-88330559D01*
X100001765Y-88347309D01*
X99987760Y-88362760D01*
X99972309Y-88376765D01*
X99955559Y-88389187D01*
X99937672Y-88399908D01*
X99918820Y-88408824D01*
X99899185Y-88415850D01*
X99878957Y-88420917D01*
X99858329Y-88423977D01*
X99837500Y-88425000D01*
X99037500Y-88425000D01*
X99016671Y-88423977D01*
X98996043Y-88420917D01*
X98975815Y-88415850D01*
X98956180Y-88408824D01*
X98937328Y-88399908D01*
X98919441Y-88389187D01*
X98902691Y-88376765D01*
X98887240Y-88362760D01*
X98873235Y-88347309D01*
X98860813Y-88330559D01*
X98850092Y-88312672D01*
X98841176Y-88293820D01*
X98834150Y-88274185D01*
X98829083Y-88253957D01*
X98826023Y-88233329D01*
X98825000Y-88212500D01*
X98825000Y-87787500D01*
X98826023Y-87766671D01*
X98829083Y-87746043D01*
X98834150Y-87725815D01*
X98841176Y-87706180D01*
X98850092Y-87687328D01*
X98860813Y-87669441D01*
X98873235Y-87652691D01*
X98887240Y-87637240D01*
X98902691Y-87623235D01*
X98919441Y-87610813D01*
X98937328Y-87600092D01*
X98956180Y-87591176D01*
X98975815Y-87584150D01*
X98996043Y-87579083D01*
X99016671Y-87576023D01*
X99037500Y-87575000D01*
X99837500Y-87575000D01*
X99858329Y-87576023D01*
X99858329Y-87576023D01*
G37*
D11*
X99437500Y-88000000D03*
D10*
G36*
X101483329Y-87576023D02*
G01*
X101503957Y-87579083D01*
X101524185Y-87584150D01*
X101543820Y-87591176D01*
X101562672Y-87600092D01*
X101580559Y-87610813D01*
X101597309Y-87623235D01*
X101612760Y-87637240D01*
X101626765Y-87652691D01*
X101639187Y-87669441D01*
X101649908Y-87687328D01*
X101658824Y-87706180D01*
X101665850Y-87725815D01*
X101670917Y-87746043D01*
X101673977Y-87766671D01*
X101675000Y-87787500D01*
X101675000Y-88212500D01*
X101673977Y-88233329D01*
X101670917Y-88253957D01*
X101665850Y-88274185D01*
X101658824Y-88293820D01*
X101649908Y-88312672D01*
X101639187Y-88330559D01*
X101626765Y-88347309D01*
X101612760Y-88362760D01*
X101597309Y-88376765D01*
X101580559Y-88389187D01*
X101562672Y-88399908D01*
X101543820Y-88408824D01*
X101524185Y-88415850D01*
X101503957Y-88420917D01*
X101483329Y-88423977D01*
X101462500Y-88425000D01*
X100662500Y-88425000D01*
X100641671Y-88423977D01*
X100621043Y-88420917D01*
X100600815Y-88415850D01*
X100581180Y-88408824D01*
X100562328Y-88399908D01*
X100544441Y-88389187D01*
X100527691Y-88376765D01*
X100512240Y-88362760D01*
X100498235Y-88347309D01*
X100485813Y-88330559D01*
X100475092Y-88312672D01*
X100466176Y-88293820D01*
X100459150Y-88274185D01*
X100454083Y-88253957D01*
X100451023Y-88233329D01*
X100450000Y-88212500D01*
X100450000Y-87787500D01*
X100451023Y-87766671D01*
X100454083Y-87746043D01*
X100459150Y-87725815D01*
X100466176Y-87706180D01*
X100475092Y-87687328D01*
X100485813Y-87669441D01*
X100498235Y-87652691D01*
X100512240Y-87637240D01*
X100527691Y-87623235D01*
X100544441Y-87610813D01*
X100562328Y-87600092D01*
X100581180Y-87591176D01*
X100600815Y-87584150D01*
X100621043Y-87579083D01*
X100641671Y-87576023D01*
X100662500Y-87575000D01*
X101462500Y-87575000D01*
X101483329Y-87576023D01*
X101483329Y-87576023D01*
G37*
D11*
X101062500Y-88000000D03*
M02*
