G04 #@! TF.GenerationSoftware,KiCad,Pcbnew,(5.1.4)-1*
G04 #@! TF.CreationDate,2020-02-21T15:42:12+09:00*
G04 #@! TF.ProjectId,groove-pad-ctrl,67726f6f-7665-42d7-9061-642d6374726c,rev?*
G04 #@! TF.SameCoordinates,Original*
G04 #@! TF.FileFunction,Soldermask,Top*
G04 #@! TF.FilePolarity,Negative*
%FSLAX46Y46*%
G04 Gerber Fmt 4.6, Leading zero omitted, Abs format (unit mm)*
G04 Created by KiCad (PCBNEW (5.1.4)-1) date 2020-02-21 15:42:12*
%MOMM*%
%LPD*%
G04 APERTURE LIST*
%ADD10C,0.100000*%
%ADD11C,0.010000*%
G04 APERTURE END LIST*
D10*
X126194500Y-93000000D02*
G75*
G03X126194500Y-93000000I-444500J0D01*
G01*
X131194500Y-93000000D02*
G75*
G03X131194500Y-93000000I-444500J0D01*
G01*
X98194500Y-93000000D02*
G75*
G03X98194500Y-93000000I-444500J0D01*
G01*
X103194500Y-93000000D02*
G75*
G03X103194500Y-93000000I-444500J0D01*
G01*
X161194500Y-117000000D02*
G75*
G03X161194500Y-117000000I-444500J0D01*
G01*
X166194500Y-117000000D02*
G75*
G03X166194500Y-117000000I-444500J0D01*
G01*
X147194500Y-117000000D02*
G75*
G03X147194500Y-117000000I-444500J0D01*
G01*
X152194500Y-117000000D02*
G75*
G03X152194500Y-117000000I-444500J0D01*
G01*
X133194500Y-117000000D02*
G75*
G03X133194500Y-117000000I-444500J0D01*
G01*
X138194500Y-117000000D02*
G75*
G03X138194500Y-117000000I-444500J0D01*
G01*
X119194500Y-117000000D02*
G75*
G03X119194500Y-117000000I-444500J0D01*
G01*
X124194500Y-117000000D02*
G75*
G03X124194500Y-117000000I-444500J0D01*
G01*
X105194500Y-117000000D02*
G75*
G03X105194500Y-117000000I-444500J0D01*
G01*
X110194500Y-117000000D02*
G75*
G03X110194500Y-117000000I-444500J0D01*
G01*
X91194500Y-117000000D02*
G75*
G03X91194500Y-117000000I-444500J0D01*
G01*
X96194500Y-117000000D02*
G75*
G03X96194500Y-117000000I-444500J0D01*
G01*
X77194500Y-117000000D02*
G75*
G03X77194500Y-117000000I-444500J0D01*
G01*
X82194500Y-117000000D02*
G75*
G03X82194500Y-117000000I-444500J0D01*
G01*
X63194500Y-117000000D02*
G75*
G03X63194500Y-117000000I-444500J0D01*
G01*
X68194500Y-117000000D02*
G75*
G03X68194500Y-117000000I-444500J0D01*
G01*
X161194500Y-105000000D02*
G75*
G03X161194500Y-105000000I-444500J0D01*
G01*
X166194500Y-105000000D02*
G75*
G03X166194500Y-105000000I-444500J0D01*
G01*
X147194500Y-105000000D02*
G75*
G03X147194500Y-105000000I-444500J0D01*
G01*
X152194500Y-105000000D02*
G75*
G03X152194500Y-105000000I-444500J0D01*
G01*
X133194500Y-105000000D02*
G75*
G03X133194500Y-105000000I-444500J0D01*
G01*
X138194500Y-105000000D02*
G75*
G03X138194500Y-105000000I-444500J0D01*
G01*
X119194500Y-105000000D02*
G75*
G03X119194500Y-105000000I-444500J0D01*
G01*
X124194500Y-105000000D02*
G75*
G03X124194500Y-105000000I-444500J0D01*
G01*
X105194500Y-105000000D02*
G75*
G03X105194500Y-105000000I-444500J0D01*
G01*
X110194500Y-105000000D02*
G75*
G03X110194500Y-105000000I-444500J0D01*
G01*
X91194500Y-105000000D02*
G75*
G03X91194500Y-105000000I-444500J0D01*
G01*
X96194500Y-105000000D02*
G75*
G03X96194500Y-105000000I-444500J0D01*
G01*
X77194500Y-105000000D02*
G75*
G03X77194500Y-105000000I-444500J0D01*
G01*
X82194500Y-105000000D02*
G75*
G03X82194500Y-105000000I-444500J0D01*
G01*
X63194500Y-105000000D02*
G75*
G03X63194500Y-105000000I-444500J0D01*
G01*
X68194500Y-105000000D02*
G75*
G03X68194500Y-105000000I-444500J0D01*
G01*
D11*
G36*
X83732704Y-74666740D02*
G01*
X83693333Y-74625319D01*
X83638342Y-74563921D01*
X83573477Y-74488814D01*
X83571264Y-74486208D01*
X83207327Y-74089466D01*
X82817477Y-73724828D01*
X82403909Y-73393100D01*
X81968817Y-73095090D01*
X81514395Y-72831604D01*
X81042837Y-72603450D01*
X80556337Y-72411435D01*
X80057090Y-72256365D01*
X79547290Y-72139047D01*
X79029132Y-72060289D01*
X78504809Y-72020898D01*
X77976515Y-72021679D01*
X77446446Y-72063441D01*
X77112894Y-72111102D01*
X76578522Y-72221235D01*
X76062894Y-72369126D01*
X75564446Y-72555390D01*
X75081617Y-72780640D01*
X74612841Y-73045492D01*
X74418834Y-73169304D01*
X74096446Y-73394014D01*
X73795816Y-73629215D01*
X73509008Y-73882002D01*
X73228089Y-74159472D01*
X72945125Y-74468717D01*
X72874277Y-74550493D01*
X72809128Y-74620834D01*
X72759737Y-74662421D01*
X72730117Y-74672056D01*
X72705558Y-74659120D01*
X72646760Y-74626288D01*
X72555776Y-74574748D01*
X72434654Y-74505687D01*
X72285446Y-74420291D01*
X72110204Y-74319750D01*
X71910976Y-74205248D01*
X71689816Y-74077975D01*
X71448772Y-73939117D01*
X71189896Y-73789861D01*
X70915239Y-73631395D01*
X70626851Y-73464906D01*
X70326783Y-73291580D01*
X70017086Y-73112606D01*
X69699811Y-72929171D01*
X69377008Y-72742461D01*
X69050729Y-72553664D01*
X68723023Y-72363968D01*
X68395942Y-72174559D01*
X68071536Y-71986624D01*
X67751857Y-71801352D01*
X67438954Y-71619929D01*
X67134879Y-71443543D01*
X66841683Y-71273380D01*
X66561416Y-71110628D01*
X66296129Y-70956474D01*
X66047872Y-70812106D01*
X65818697Y-70678710D01*
X65610655Y-70557474D01*
X65425795Y-70449585D01*
X65266169Y-70356231D01*
X65133828Y-70278598D01*
X65030822Y-70217875D01*
X64959202Y-70175247D01*
X64921018Y-70151902D01*
X64915000Y-70147671D01*
X64927558Y-70118926D01*
X64963157Y-70061101D01*
X65018686Y-69978402D01*
X65091032Y-69875040D01*
X65177085Y-69755221D01*
X65273733Y-69623154D01*
X65377864Y-69483047D01*
X65486366Y-69339109D01*
X65596129Y-69195547D01*
X65704040Y-69056569D01*
X65806988Y-68926384D01*
X65901861Y-68809200D01*
X65928872Y-68776500D01*
X66454412Y-68175633D01*
X67011079Y-67600258D01*
X67596375Y-67052291D01*
X68207803Y-66533644D01*
X68842865Y-66046233D01*
X69499063Y-65591970D01*
X70173901Y-65172771D01*
X70864881Y-64790549D01*
X71569506Y-64447218D01*
X71589045Y-64438347D01*
X72259434Y-64150711D01*
X72926422Y-63897583D01*
X73595605Y-63677511D01*
X74272573Y-63489042D01*
X74962921Y-63330724D01*
X75672242Y-63201106D01*
X76406128Y-63098734D01*
X76980000Y-63038601D01*
X77069787Y-63032524D01*
X77195693Y-63026983D01*
X77351507Y-63022032D01*
X77531016Y-63017724D01*
X77728010Y-63014112D01*
X77936276Y-63011249D01*
X78149604Y-63009189D01*
X78361782Y-63007985D01*
X78566598Y-63007690D01*
X78757840Y-63008357D01*
X78929298Y-63010039D01*
X79074759Y-63012791D01*
X79188012Y-63016664D01*
X79234250Y-63019287D01*
X80037260Y-63092453D01*
X80816563Y-63198550D01*
X81576282Y-63338610D01*
X82320539Y-63513661D01*
X83053455Y-63724736D01*
X83779153Y-63972864D01*
X84501755Y-64259075D01*
X84910956Y-64438347D01*
X85615920Y-64780582D01*
X86307309Y-65161760D01*
X86982624Y-65579969D01*
X87639368Y-66033293D01*
X88275044Y-66519819D01*
X88887155Y-67037632D01*
X89473203Y-67584819D01*
X90030690Y-68159466D01*
X90557120Y-68759658D01*
X90571129Y-68776500D01*
X90671704Y-68899544D01*
X90779171Y-69034490D01*
X90890567Y-69177299D01*
X91002931Y-69323937D01*
X91113302Y-69470367D01*
X91218717Y-69612553D01*
X91316216Y-69746457D01*
X91402836Y-69868045D01*
X91475616Y-69973279D01*
X91531594Y-70058122D01*
X91567809Y-70118540D01*
X91581298Y-70150495D01*
X91581078Y-70152930D01*
X91562539Y-70164887D01*
X91509374Y-70196799D01*
X91423638Y-70247479D01*
X91307382Y-70315740D01*
X91162658Y-70400396D01*
X90991518Y-70500260D01*
X90796013Y-70614144D01*
X90578196Y-70740863D01*
X90340120Y-70879228D01*
X90083835Y-71028054D01*
X89811394Y-71186153D01*
X89524848Y-71352339D01*
X89226251Y-71525424D01*
X88917653Y-71704222D01*
X88601108Y-71887547D01*
X88278666Y-72074210D01*
X87952379Y-72263026D01*
X87624301Y-72452807D01*
X87296482Y-72642367D01*
X86970975Y-72830519D01*
X86649832Y-73016076D01*
X86335105Y-73197850D01*
X86028845Y-73374656D01*
X85733105Y-73545307D01*
X85449937Y-73708615D01*
X85181392Y-73863394D01*
X84929523Y-74008457D01*
X84696382Y-74142616D01*
X84484021Y-74264686D01*
X84294491Y-74373480D01*
X84129845Y-74467810D01*
X83992134Y-74546489D01*
X83883411Y-74608331D01*
X83805728Y-74652150D01*
X83761136Y-74676757D01*
X83750707Y-74681916D01*
X83732704Y-74666740D01*
X83732704Y-74666740D01*
G37*
X83732704Y-74666740D02*
X83693333Y-74625319D01*
X83638342Y-74563921D01*
X83573477Y-74488814D01*
X83571264Y-74486208D01*
X83207327Y-74089466D01*
X82817477Y-73724828D01*
X82403909Y-73393100D01*
X81968817Y-73095090D01*
X81514395Y-72831604D01*
X81042837Y-72603450D01*
X80556337Y-72411435D01*
X80057090Y-72256365D01*
X79547290Y-72139047D01*
X79029132Y-72060289D01*
X78504809Y-72020898D01*
X77976515Y-72021679D01*
X77446446Y-72063441D01*
X77112894Y-72111102D01*
X76578522Y-72221235D01*
X76062894Y-72369126D01*
X75564446Y-72555390D01*
X75081617Y-72780640D01*
X74612841Y-73045492D01*
X74418834Y-73169304D01*
X74096446Y-73394014D01*
X73795816Y-73629215D01*
X73509008Y-73882002D01*
X73228089Y-74159472D01*
X72945125Y-74468717D01*
X72874277Y-74550493D01*
X72809128Y-74620834D01*
X72759737Y-74662421D01*
X72730117Y-74672056D01*
X72705558Y-74659120D01*
X72646760Y-74626288D01*
X72555776Y-74574748D01*
X72434654Y-74505687D01*
X72285446Y-74420291D01*
X72110204Y-74319750D01*
X71910976Y-74205248D01*
X71689816Y-74077975D01*
X71448772Y-73939117D01*
X71189896Y-73789861D01*
X70915239Y-73631395D01*
X70626851Y-73464906D01*
X70326783Y-73291580D01*
X70017086Y-73112606D01*
X69699811Y-72929171D01*
X69377008Y-72742461D01*
X69050729Y-72553664D01*
X68723023Y-72363968D01*
X68395942Y-72174559D01*
X68071536Y-71986624D01*
X67751857Y-71801352D01*
X67438954Y-71619929D01*
X67134879Y-71443543D01*
X66841683Y-71273380D01*
X66561416Y-71110628D01*
X66296129Y-70956474D01*
X66047872Y-70812106D01*
X65818697Y-70678710D01*
X65610655Y-70557474D01*
X65425795Y-70449585D01*
X65266169Y-70356231D01*
X65133828Y-70278598D01*
X65030822Y-70217875D01*
X64959202Y-70175247D01*
X64921018Y-70151902D01*
X64915000Y-70147671D01*
X64927558Y-70118926D01*
X64963157Y-70061101D01*
X65018686Y-69978402D01*
X65091032Y-69875040D01*
X65177085Y-69755221D01*
X65273733Y-69623154D01*
X65377864Y-69483047D01*
X65486366Y-69339109D01*
X65596129Y-69195547D01*
X65704040Y-69056569D01*
X65806988Y-68926384D01*
X65901861Y-68809200D01*
X65928872Y-68776500D01*
X66454412Y-68175633D01*
X67011079Y-67600258D01*
X67596375Y-67052291D01*
X68207803Y-66533644D01*
X68842865Y-66046233D01*
X69499063Y-65591970D01*
X70173901Y-65172771D01*
X70864881Y-64790549D01*
X71569506Y-64447218D01*
X71589045Y-64438347D01*
X72259434Y-64150711D01*
X72926422Y-63897583D01*
X73595605Y-63677511D01*
X74272573Y-63489042D01*
X74962921Y-63330724D01*
X75672242Y-63201106D01*
X76406128Y-63098734D01*
X76980000Y-63038601D01*
X77069787Y-63032524D01*
X77195693Y-63026983D01*
X77351507Y-63022032D01*
X77531016Y-63017724D01*
X77728010Y-63014112D01*
X77936276Y-63011249D01*
X78149604Y-63009189D01*
X78361782Y-63007985D01*
X78566598Y-63007690D01*
X78757840Y-63008357D01*
X78929298Y-63010039D01*
X79074759Y-63012791D01*
X79188012Y-63016664D01*
X79234250Y-63019287D01*
X80037260Y-63092453D01*
X80816563Y-63198550D01*
X81576282Y-63338610D01*
X82320539Y-63513661D01*
X83053455Y-63724736D01*
X83779153Y-63972864D01*
X84501755Y-64259075D01*
X84910956Y-64438347D01*
X85615920Y-64780582D01*
X86307309Y-65161760D01*
X86982624Y-65579969D01*
X87639368Y-66033293D01*
X88275044Y-66519819D01*
X88887155Y-67037632D01*
X89473203Y-67584819D01*
X90030690Y-68159466D01*
X90557120Y-68759658D01*
X90571129Y-68776500D01*
X90671704Y-68899544D01*
X90779171Y-69034490D01*
X90890567Y-69177299D01*
X91002931Y-69323937D01*
X91113302Y-69470367D01*
X91218717Y-69612553D01*
X91316216Y-69746457D01*
X91402836Y-69868045D01*
X91475616Y-69973279D01*
X91531594Y-70058122D01*
X91567809Y-70118540D01*
X91581298Y-70150495D01*
X91581078Y-70152930D01*
X91562539Y-70164887D01*
X91509374Y-70196799D01*
X91423638Y-70247479D01*
X91307382Y-70315740D01*
X91162658Y-70400396D01*
X90991518Y-70500260D01*
X90796013Y-70614144D01*
X90578196Y-70740863D01*
X90340120Y-70879228D01*
X90083835Y-71028054D01*
X89811394Y-71186153D01*
X89524848Y-71352339D01*
X89226251Y-71525424D01*
X88917653Y-71704222D01*
X88601108Y-71887547D01*
X88278666Y-72074210D01*
X87952379Y-72263026D01*
X87624301Y-72452807D01*
X87296482Y-72642367D01*
X86970975Y-72830519D01*
X86649832Y-73016076D01*
X86335105Y-73197850D01*
X86028845Y-73374656D01*
X85733105Y-73545307D01*
X85449937Y-73708615D01*
X85181392Y-73863394D01*
X84929523Y-74008457D01*
X84696382Y-74142616D01*
X84484021Y-74264686D01*
X84294491Y-74373480D01*
X84129845Y-74467810D01*
X83992134Y-74546489D01*
X83883411Y-74608331D01*
X83805728Y-74652150D01*
X83761136Y-74676757D01*
X83750707Y-74681916D01*
X83732704Y-74666740D01*
G36*
X79244834Y-85906162D02*
G01*
X79366542Y-85891973D01*
X79471919Y-85875966D01*
X79607624Y-85849725D01*
X79763552Y-85815551D01*
X79929595Y-85775741D01*
X80095646Y-85732597D01*
X80218500Y-85698157D01*
X80719728Y-85530467D01*
X81206520Y-85324055D01*
X81676480Y-85080788D01*
X82127210Y-84802529D01*
X82556313Y-84491144D01*
X82961390Y-84148497D01*
X83340045Y-83776453D01*
X83689879Y-83376878D01*
X84008495Y-82951635D01*
X84265430Y-82550449D01*
X84519684Y-82081950D01*
X84735086Y-81600497D01*
X84912268Y-81104110D01*
X85051858Y-80590811D01*
X85154486Y-80058620D01*
X85215570Y-79564010D01*
X85225503Y-79411101D01*
X85230691Y-79227054D01*
X85231385Y-79022767D01*
X85227835Y-78809139D01*
X85220291Y-78597069D01*
X85209002Y-78397455D01*
X85194220Y-78221197D01*
X85182483Y-78121583D01*
X85135492Y-77829076D01*
X85074106Y-77526096D01*
X85001349Y-77224831D01*
X84920243Y-76937470D01*
X84833810Y-76676201D01*
X84804556Y-76597583D01*
X84774530Y-76514703D01*
X84753461Y-76447139D01*
X84744039Y-76404109D01*
X84745057Y-76393937D01*
X84764174Y-76382475D01*
X84817869Y-76351072D01*
X84904093Y-76300912D01*
X85020797Y-76233178D01*
X85165931Y-76149053D01*
X85337447Y-76049722D01*
X85533294Y-75936367D01*
X85751423Y-75810171D01*
X85989784Y-75672317D01*
X86246329Y-75523990D01*
X86519008Y-75366372D01*
X86805771Y-75200646D01*
X87104569Y-75027997D01*
X87413353Y-74849606D01*
X87730072Y-74666658D01*
X88052678Y-74480335D01*
X88379122Y-74291822D01*
X88707353Y-74102300D01*
X89035323Y-73912955D01*
X89360981Y-73724968D01*
X89682280Y-73539523D01*
X89997168Y-73357803D01*
X90303596Y-73180993D01*
X90599516Y-73010274D01*
X90882878Y-72846831D01*
X91151632Y-72691846D01*
X91403729Y-72546503D01*
X91637120Y-72411985D01*
X91849754Y-72289475D01*
X92039583Y-72180158D01*
X92204558Y-72085215D01*
X92342628Y-72005830D01*
X92451744Y-71943187D01*
X92529857Y-71898469D01*
X92574918Y-71872859D01*
X92585795Y-71866903D01*
X92595840Y-71885056D01*
X92620665Y-71935218D01*
X92657192Y-72011015D01*
X92702340Y-72106077D01*
X92736693Y-72179112D01*
X93067346Y-72932519D01*
X93357321Y-73695194D01*
X93607020Y-74468630D01*
X93816849Y-75254320D01*
X93987213Y-76053755D01*
X94118515Y-76868428D01*
X94200450Y-77581833D01*
X94212236Y-77734323D01*
X94222573Y-77921634D01*
X94231360Y-78136274D01*
X94238494Y-78370754D01*
X94243874Y-78617582D01*
X94247399Y-78869267D01*
X94248967Y-79118318D01*
X94248477Y-79357245D01*
X94245826Y-79578556D01*
X94240915Y-79774761D01*
X94233641Y-79938368D01*
X94232618Y-79955230D01*
X94160768Y-80785489D01*
X94050257Y-81598985D01*
X93900759Y-82396918D01*
X93711948Y-83180483D01*
X93483498Y-83950878D01*
X93215084Y-84709301D01*
X92906379Y-85456948D01*
X92557058Y-86195017D01*
X92507831Y-86291917D01*
X92115595Y-87011993D01*
X91689251Y-87707845D01*
X91230002Y-88378483D01*
X90739050Y-89022918D01*
X90217598Y-89640160D01*
X89666847Y-90229220D01*
X89088001Y-90789108D01*
X88482261Y-91318835D01*
X87850831Y-91817411D01*
X87194911Y-92283848D01*
X86515706Y-92717156D01*
X85814416Y-93116344D01*
X85092245Y-93480425D01*
X84350395Y-93808408D01*
X83590067Y-94099304D01*
X82812465Y-94352124D01*
X82658334Y-94397072D01*
X82087894Y-94548752D01*
X81512276Y-94678213D01*
X80923781Y-94786814D01*
X80314711Y-94875914D01*
X79677366Y-94946873D01*
X79408875Y-94970807D01*
X79244834Y-94984444D01*
X79244834Y-85906162D01*
X79244834Y-85906162D01*
G37*
X79244834Y-85906162D02*
X79366542Y-85891973D01*
X79471919Y-85875966D01*
X79607624Y-85849725D01*
X79763552Y-85815551D01*
X79929595Y-85775741D01*
X80095646Y-85732597D01*
X80218500Y-85698157D01*
X80719728Y-85530467D01*
X81206520Y-85324055D01*
X81676480Y-85080788D01*
X82127210Y-84802529D01*
X82556313Y-84491144D01*
X82961390Y-84148497D01*
X83340045Y-83776453D01*
X83689879Y-83376878D01*
X84008495Y-82951635D01*
X84265430Y-82550449D01*
X84519684Y-82081950D01*
X84735086Y-81600497D01*
X84912268Y-81104110D01*
X85051858Y-80590811D01*
X85154486Y-80058620D01*
X85215570Y-79564010D01*
X85225503Y-79411101D01*
X85230691Y-79227054D01*
X85231385Y-79022767D01*
X85227835Y-78809139D01*
X85220291Y-78597069D01*
X85209002Y-78397455D01*
X85194220Y-78221197D01*
X85182483Y-78121583D01*
X85135492Y-77829076D01*
X85074106Y-77526096D01*
X85001349Y-77224831D01*
X84920243Y-76937470D01*
X84833810Y-76676201D01*
X84804556Y-76597583D01*
X84774530Y-76514703D01*
X84753461Y-76447139D01*
X84744039Y-76404109D01*
X84745057Y-76393937D01*
X84764174Y-76382475D01*
X84817869Y-76351072D01*
X84904093Y-76300912D01*
X85020797Y-76233178D01*
X85165931Y-76149053D01*
X85337447Y-76049722D01*
X85533294Y-75936367D01*
X85751423Y-75810171D01*
X85989784Y-75672317D01*
X86246329Y-75523990D01*
X86519008Y-75366372D01*
X86805771Y-75200646D01*
X87104569Y-75027997D01*
X87413353Y-74849606D01*
X87730072Y-74666658D01*
X88052678Y-74480335D01*
X88379122Y-74291822D01*
X88707353Y-74102300D01*
X89035323Y-73912955D01*
X89360981Y-73724968D01*
X89682280Y-73539523D01*
X89997168Y-73357803D01*
X90303596Y-73180993D01*
X90599516Y-73010274D01*
X90882878Y-72846831D01*
X91151632Y-72691846D01*
X91403729Y-72546503D01*
X91637120Y-72411985D01*
X91849754Y-72289475D01*
X92039583Y-72180158D01*
X92204558Y-72085215D01*
X92342628Y-72005830D01*
X92451744Y-71943187D01*
X92529857Y-71898469D01*
X92574918Y-71872859D01*
X92585795Y-71866903D01*
X92595840Y-71885056D01*
X92620665Y-71935218D01*
X92657192Y-72011015D01*
X92702340Y-72106077D01*
X92736693Y-72179112D01*
X93067346Y-72932519D01*
X93357321Y-73695194D01*
X93607020Y-74468630D01*
X93816849Y-75254320D01*
X93987213Y-76053755D01*
X94118515Y-76868428D01*
X94200450Y-77581833D01*
X94212236Y-77734323D01*
X94222573Y-77921634D01*
X94231360Y-78136274D01*
X94238494Y-78370754D01*
X94243874Y-78617582D01*
X94247399Y-78869267D01*
X94248967Y-79118318D01*
X94248477Y-79357245D01*
X94245826Y-79578556D01*
X94240915Y-79774761D01*
X94233641Y-79938368D01*
X94232618Y-79955230D01*
X94160768Y-80785489D01*
X94050257Y-81598985D01*
X93900759Y-82396918D01*
X93711948Y-83180483D01*
X93483498Y-83950878D01*
X93215084Y-84709301D01*
X92906379Y-85456948D01*
X92557058Y-86195017D01*
X92507831Y-86291917D01*
X92115595Y-87011993D01*
X91689251Y-87707845D01*
X91230002Y-88378483D01*
X90739050Y-89022918D01*
X90217598Y-89640160D01*
X89666847Y-90229220D01*
X89088001Y-90789108D01*
X88482261Y-91318835D01*
X87850831Y-91817411D01*
X87194911Y-92283848D01*
X86515706Y-92717156D01*
X85814416Y-93116344D01*
X85092245Y-93480425D01*
X84350395Y-93808408D01*
X83590067Y-94099304D01*
X82812465Y-94352124D01*
X82658334Y-94397072D01*
X82087894Y-94548752D01*
X81512276Y-94678213D01*
X80923781Y-94786814D01*
X80314711Y-94875914D01*
X79677366Y-94946873D01*
X79408875Y-94970807D01*
X79244834Y-94984444D01*
X79244834Y-85906162D01*
G36*
X77091125Y-94970807D02*
G01*
X76433905Y-94906085D01*
X75808158Y-94823351D01*
X75206456Y-94721298D01*
X74621372Y-94598614D01*
X74045480Y-94453989D01*
X73847028Y-94398607D01*
X73065131Y-94153064D01*
X72300409Y-93869302D01*
X71554053Y-93548300D01*
X70827255Y-93191039D01*
X70121207Y-92798500D01*
X69437102Y-92371664D01*
X68776131Y-91911509D01*
X68139486Y-91419019D01*
X67528359Y-90895172D01*
X66943942Y-90340949D01*
X66387428Y-89757331D01*
X65860007Y-89145298D01*
X65362873Y-88505832D01*
X64897217Y-87839912D01*
X64464230Y-87148519D01*
X64065106Y-86432633D01*
X63992170Y-86291917D01*
X63637122Y-85554110D01*
X63322686Y-84806310D01*
X63048570Y-84047459D01*
X62814486Y-83276498D01*
X62620142Y-82492368D01*
X62465250Y-81694011D01*
X62349518Y-80880369D01*
X62272657Y-80050382D01*
X62269630Y-80005417D01*
X62262472Y-79865869D01*
X62256838Y-79692395D01*
X62252727Y-79493088D01*
X62250138Y-79276043D01*
X62249072Y-79049356D01*
X62249528Y-78821120D01*
X62251504Y-78599431D01*
X62255002Y-78392383D01*
X62260021Y-78208072D01*
X62266559Y-78054592D01*
X62269739Y-78001559D01*
X62344101Y-77179084D01*
X62456119Y-76374552D01*
X62606481Y-75585277D01*
X62795877Y-74808572D01*
X63024994Y-74041752D01*
X63294522Y-73282129D01*
X63605150Y-72527018D01*
X63762682Y-72179042D01*
X63812101Y-72074427D01*
X63855729Y-71984895D01*
X63890356Y-71916808D01*
X63912776Y-71876525D01*
X63919418Y-71868261D01*
X63938562Y-71878832D01*
X63992673Y-71909619D01*
X64080065Y-71959653D01*
X64199054Y-72027963D01*
X64347958Y-72113577D01*
X64525091Y-72215525D01*
X64728770Y-72332835D01*
X64957311Y-72464538D01*
X65209030Y-72609662D01*
X65482243Y-72767236D01*
X65775266Y-72936289D01*
X66086415Y-73115852D01*
X66414006Y-73304952D01*
X66756356Y-73502619D01*
X67111780Y-73707882D01*
X67478595Y-73919771D01*
X67850371Y-74134572D01*
X71769991Y-76399456D01*
X71715601Y-76540853D01*
X71601140Y-76868977D01*
X71498141Y-77225381D01*
X71409950Y-77596794D01*
X71339912Y-77969950D01*
X71317051Y-78121583D01*
X71301017Y-78266058D01*
X71287940Y-78442184D01*
X71278059Y-78639367D01*
X71271616Y-78847011D01*
X71268851Y-79054521D01*
X71270004Y-79251304D01*
X71275316Y-79426764D01*
X71284337Y-79563017D01*
X71345570Y-80065001D01*
X71434693Y-80540842D01*
X71553690Y-80997878D01*
X71704544Y-81443445D01*
X71889240Y-81884882D01*
X71943159Y-82000116D01*
X72195331Y-82479256D01*
X72481915Y-82934730D01*
X72801233Y-83365002D01*
X73151610Y-83768538D01*
X73531369Y-84143802D01*
X73938833Y-84489259D01*
X74372326Y-84803375D01*
X74830172Y-85084613D01*
X75310694Y-85331440D01*
X75810977Y-85541853D01*
X75991614Y-85605819D01*
X76190350Y-85669257D01*
X76397727Y-85729664D01*
X76604288Y-85784535D01*
X76800577Y-85831368D01*
X76977135Y-85867658D01*
X77124506Y-85890902D01*
X77133459Y-85891973D01*
X77255167Y-85906162D01*
X77255167Y-94984444D01*
X77091125Y-94970807D01*
X77091125Y-94970807D01*
G37*
X77091125Y-94970807D02*
X76433905Y-94906085D01*
X75808158Y-94823351D01*
X75206456Y-94721298D01*
X74621372Y-94598614D01*
X74045480Y-94453989D01*
X73847028Y-94398607D01*
X73065131Y-94153064D01*
X72300409Y-93869302D01*
X71554053Y-93548300D01*
X70827255Y-93191039D01*
X70121207Y-92798500D01*
X69437102Y-92371664D01*
X68776131Y-91911509D01*
X68139486Y-91419019D01*
X67528359Y-90895172D01*
X66943942Y-90340949D01*
X66387428Y-89757331D01*
X65860007Y-89145298D01*
X65362873Y-88505832D01*
X64897217Y-87839912D01*
X64464230Y-87148519D01*
X64065106Y-86432633D01*
X63992170Y-86291917D01*
X63637122Y-85554110D01*
X63322686Y-84806310D01*
X63048570Y-84047459D01*
X62814486Y-83276498D01*
X62620142Y-82492368D01*
X62465250Y-81694011D01*
X62349518Y-80880369D01*
X62272657Y-80050382D01*
X62269630Y-80005417D01*
X62262472Y-79865869D01*
X62256838Y-79692395D01*
X62252727Y-79493088D01*
X62250138Y-79276043D01*
X62249072Y-79049356D01*
X62249528Y-78821120D01*
X62251504Y-78599431D01*
X62255002Y-78392383D01*
X62260021Y-78208072D01*
X62266559Y-78054592D01*
X62269739Y-78001559D01*
X62344101Y-77179084D01*
X62456119Y-76374552D01*
X62606481Y-75585277D01*
X62795877Y-74808572D01*
X63024994Y-74041752D01*
X63294522Y-73282129D01*
X63605150Y-72527018D01*
X63762682Y-72179042D01*
X63812101Y-72074427D01*
X63855729Y-71984895D01*
X63890356Y-71916808D01*
X63912776Y-71876525D01*
X63919418Y-71868261D01*
X63938562Y-71878832D01*
X63992673Y-71909619D01*
X64080065Y-71959653D01*
X64199054Y-72027963D01*
X64347958Y-72113577D01*
X64525091Y-72215525D01*
X64728770Y-72332835D01*
X64957311Y-72464538D01*
X65209030Y-72609662D01*
X65482243Y-72767236D01*
X65775266Y-72936289D01*
X66086415Y-73115852D01*
X66414006Y-73304952D01*
X66756356Y-73502619D01*
X67111780Y-73707882D01*
X67478595Y-73919771D01*
X67850371Y-74134572D01*
X71769991Y-76399456D01*
X71715601Y-76540853D01*
X71601140Y-76868977D01*
X71498141Y-77225381D01*
X71409950Y-77596794D01*
X71339912Y-77969950D01*
X71317051Y-78121583D01*
X71301017Y-78266058D01*
X71287940Y-78442184D01*
X71278059Y-78639367D01*
X71271616Y-78847011D01*
X71268851Y-79054521D01*
X71270004Y-79251304D01*
X71275316Y-79426764D01*
X71284337Y-79563017D01*
X71345570Y-80065001D01*
X71434693Y-80540842D01*
X71553690Y-80997878D01*
X71704544Y-81443445D01*
X71889240Y-81884882D01*
X71943159Y-82000116D01*
X72195331Y-82479256D01*
X72481915Y-82934730D01*
X72801233Y-83365002D01*
X73151610Y-83768538D01*
X73531369Y-84143802D01*
X73938833Y-84489259D01*
X74372326Y-84803375D01*
X74830172Y-85084613D01*
X75310694Y-85331440D01*
X75810977Y-85541853D01*
X75991614Y-85605819D01*
X76190350Y-85669257D01*
X76397727Y-85729664D01*
X76604288Y-85784535D01*
X76800577Y-85831368D01*
X76977135Y-85867658D01*
X77124506Y-85890902D01*
X77133459Y-85891973D01*
X77255167Y-85906162D01*
X77255167Y-94984444D01*
X77091125Y-94970807D01*
G36*
X151408875Y-63029193D02*
G01*
X152066095Y-63093915D01*
X152691842Y-63176649D01*
X153293544Y-63278702D01*
X153878628Y-63401386D01*
X154454520Y-63546011D01*
X154652972Y-63601393D01*
X155434869Y-63846936D01*
X156199591Y-64130698D01*
X156945947Y-64451700D01*
X157672745Y-64808961D01*
X158378793Y-65201500D01*
X159062898Y-65628336D01*
X159723869Y-66088491D01*
X160360514Y-66580981D01*
X160971641Y-67104828D01*
X161556058Y-67659051D01*
X162112572Y-68242669D01*
X162639993Y-68854702D01*
X163137127Y-69494168D01*
X163602783Y-70160088D01*
X164035770Y-70851481D01*
X164434894Y-71567367D01*
X164507830Y-71708083D01*
X164862878Y-72445890D01*
X165177314Y-73193690D01*
X165451430Y-73952541D01*
X165685514Y-74723502D01*
X165879858Y-75507632D01*
X166034750Y-76305989D01*
X166150482Y-77119631D01*
X166227343Y-77949618D01*
X166230370Y-77994583D01*
X166237528Y-78134131D01*
X166243162Y-78307605D01*
X166247273Y-78506912D01*
X166249862Y-78723957D01*
X166250928Y-78950644D01*
X166250472Y-79178880D01*
X166248496Y-79400569D01*
X166244998Y-79607617D01*
X166239979Y-79791928D01*
X166233441Y-79945408D01*
X166230261Y-79998441D01*
X166155899Y-80820916D01*
X166043881Y-81625448D01*
X165893519Y-82414723D01*
X165704123Y-83191428D01*
X165475006Y-83958248D01*
X165205478Y-84717871D01*
X164894850Y-85472982D01*
X164737318Y-85820958D01*
X164687899Y-85925573D01*
X164644271Y-86015105D01*
X164609644Y-86083192D01*
X164587224Y-86123475D01*
X164580582Y-86131739D01*
X164561438Y-86121168D01*
X164507327Y-86090381D01*
X164419935Y-86040347D01*
X164300946Y-85972037D01*
X164152042Y-85886423D01*
X163974909Y-85784475D01*
X163771230Y-85667165D01*
X163542689Y-85535462D01*
X163290970Y-85390338D01*
X163017757Y-85232764D01*
X162724734Y-85063711D01*
X162413585Y-84884148D01*
X162085994Y-84695048D01*
X161743644Y-84497381D01*
X161388220Y-84292118D01*
X161021405Y-84080229D01*
X160649629Y-83865428D01*
X156730009Y-81600544D01*
X156784399Y-81459147D01*
X156898860Y-81131023D01*
X157001859Y-80774619D01*
X157090050Y-80403206D01*
X157160088Y-80030050D01*
X157182949Y-79878417D01*
X157198983Y-79733942D01*
X157212060Y-79557816D01*
X157221941Y-79360633D01*
X157228384Y-79152989D01*
X157231149Y-78945479D01*
X157229996Y-78748696D01*
X157224684Y-78573236D01*
X157215663Y-78436983D01*
X157154430Y-77934999D01*
X157065307Y-77459158D01*
X156946310Y-77002122D01*
X156795456Y-76556555D01*
X156610760Y-76115118D01*
X156556841Y-75999884D01*
X156304669Y-75520744D01*
X156018085Y-75065270D01*
X155698767Y-74634998D01*
X155348390Y-74231462D01*
X154968631Y-73856198D01*
X154561167Y-73510741D01*
X154127674Y-73196625D01*
X153669828Y-72915387D01*
X153189306Y-72668560D01*
X152689023Y-72458147D01*
X152508386Y-72394181D01*
X152309650Y-72330743D01*
X152102273Y-72270336D01*
X151895712Y-72215465D01*
X151699423Y-72168632D01*
X151522865Y-72132342D01*
X151375494Y-72109098D01*
X151366541Y-72108027D01*
X151244833Y-72093838D01*
X151244833Y-63015556D01*
X151408875Y-63029193D01*
X151408875Y-63029193D01*
G37*
X151408875Y-63029193D02*
X152066095Y-63093915D01*
X152691842Y-63176649D01*
X153293544Y-63278702D01*
X153878628Y-63401386D01*
X154454520Y-63546011D01*
X154652972Y-63601393D01*
X155434869Y-63846936D01*
X156199591Y-64130698D01*
X156945947Y-64451700D01*
X157672745Y-64808961D01*
X158378793Y-65201500D01*
X159062898Y-65628336D01*
X159723869Y-66088491D01*
X160360514Y-66580981D01*
X160971641Y-67104828D01*
X161556058Y-67659051D01*
X162112572Y-68242669D01*
X162639993Y-68854702D01*
X163137127Y-69494168D01*
X163602783Y-70160088D01*
X164035770Y-70851481D01*
X164434894Y-71567367D01*
X164507830Y-71708083D01*
X164862878Y-72445890D01*
X165177314Y-73193690D01*
X165451430Y-73952541D01*
X165685514Y-74723502D01*
X165879858Y-75507632D01*
X166034750Y-76305989D01*
X166150482Y-77119631D01*
X166227343Y-77949618D01*
X166230370Y-77994583D01*
X166237528Y-78134131D01*
X166243162Y-78307605D01*
X166247273Y-78506912D01*
X166249862Y-78723957D01*
X166250928Y-78950644D01*
X166250472Y-79178880D01*
X166248496Y-79400569D01*
X166244998Y-79607617D01*
X166239979Y-79791928D01*
X166233441Y-79945408D01*
X166230261Y-79998441D01*
X166155899Y-80820916D01*
X166043881Y-81625448D01*
X165893519Y-82414723D01*
X165704123Y-83191428D01*
X165475006Y-83958248D01*
X165205478Y-84717871D01*
X164894850Y-85472982D01*
X164737318Y-85820958D01*
X164687899Y-85925573D01*
X164644271Y-86015105D01*
X164609644Y-86083192D01*
X164587224Y-86123475D01*
X164580582Y-86131739D01*
X164561438Y-86121168D01*
X164507327Y-86090381D01*
X164419935Y-86040347D01*
X164300946Y-85972037D01*
X164152042Y-85886423D01*
X163974909Y-85784475D01*
X163771230Y-85667165D01*
X163542689Y-85535462D01*
X163290970Y-85390338D01*
X163017757Y-85232764D01*
X162724734Y-85063711D01*
X162413585Y-84884148D01*
X162085994Y-84695048D01*
X161743644Y-84497381D01*
X161388220Y-84292118D01*
X161021405Y-84080229D01*
X160649629Y-83865428D01*
X156730009Y-81600544D01*
X156784399Y-81459147D01*
X156898860Y-81131023D01*
X157001859Y-80774619D01*
X157090050Y-80403206D01*
X157160088Y-80030050D01*
X157182949Y-79878417D01*
X157198983Y-79733942D01*
X157212060Y-79557816D01*
X157221941Y-79360633D01*
X157228384Y-79152989D01*
X157231149Y-78945479D01*
X157229996Y-78748696D01*
X157224684Y-78573236D01*
X157215663Y-78436983D01*
X157154430Y-77934999D01*
X157065307Y-77459158D01*
X156946310Y-77002122D01*
X156795456Y-76556555D01*
X156610760Y-76115118D01*
X156556841Y-75999884D01*
X156304669Y-75520744D01*
X156018085Y-75065270D01*
X155698767Y-74634998D01*
X155348390Y-74231462D01*
X154968631Y-73856198D01*
X154561167Y-73510741D01*
X154127674Y-73196625D01*
X153669828Y-72915387D01*
X153189306Y-72668560D01*
X152689023Y-72458147D01*
X152508386Y-72394181D01*
X152309650Y-72330743D01*
X152102273Y-72270336D01*
X151895712Y-72215465D01*
X151699423Y-72168632D01*
X151522865Y-72132342D01*
X151375494Y-72109098D01*
X151366541Y-72108027D01*
X151244833Y-72093838D01*
X151244833Y-63015556D01*
X151408875Y-63029193D01*
G36*
X149255166Y-72093838D02*
G01*
X149133458Y-72108027D01*
X149028081Y-72124034D01*
X148892376Y-72150275D01*
X148736448Y-72184449D01*
X148570405Y-72224259D01*
X148404354Y-72267403D01*
X148281500Y-72301843D01*
X147780272Y-72469533D01*
X147293480Y-72675945D01*
X146823520Y-72919212D01*
X146372790Y-73197471D01*
X145943687Y-73508856D01*
X145538610Y-73851503D01*
X145159955Y-74223547D01*
X144810121Y-74623122D01*
X144491505Y-75048365D01*
X144234570Y-75449551D01*
X143980316Y-75918050D01*
X143764914Y-76399503D01*
X143587732Y-76895890D01*
X143448142Y-77409189D01*
X143345514Y-77941380D01*
X143284430Y-78435990D01*
X143274497Y-78588899D01*
X143269309Y-78772946D01*
X143268615Y-78977233D01*
X143272165Y-79190861D01*
X143279709Y-79402931D01*
X143290998Y-79602545D01*
X143305780Y-79778803D01*
X143317517Y-79878417D01*
X143364508Y-80170924D01*
X143425894Y-80473904D01*
X143498651Y-80775169D01*
X143579757Y-81062530D01*
X143666190Y-81323799D01*
X143695444Y-81402417D01*
X143725470Y-81485297D01*
X143746539Y-81552861D01*
X143755961Y-81595891D01*
X143754943Y-81606063D01*
X143735826Y-81617525D01*
X143682131Y-81648928D01*
X143595907Y-81699088D01*
X143479203Y-81766822D01*
X143334069Y-81850947D01*
X143162553Y-81950278D01*
X142966706Y-82063633D01*
X142748577Y-82189829D01*
X142510216Y-82327683D01*
X142253671Y-82476010D01*
X141980992Y-82633628D01*
X141694229Y-82799354D01*
X141395431Y-82972003D01*
X141086647Y-83150394D01*
X140769928Y-83333342D01*
X140447322Y-83519665D01*
X140120878Y-83708178D01*
X139792647Y-83897700D01*
X139464677Y-84087045D01*
X139139019Y-84275032D01*
X138817720Y-84460477D01*
X138502832Y-84642197D01*
X138196404Y-84819007D01*
X137900484Y-84989726D01*
X137617122Y-85153169D01*
X137348368Y-85308154D01*
X137096271Y-85453497D01*
X136862880Y-85588015D01*
X136650246Y-85710525D01*
X136460417Y-85819842D01*
X136295442Y-85914785D01*
X136157372Y-85994170D01*
X136048256Y-86056813D01*
X135970143Y-86101531D01*
X135925082Y-86127141D01*
X135914205Y-86133097D01*
X135904160Y-86114944D01*
X135879335Y-86064782D01*
X135842808Y-85988985D01*
X135797660Y-85893923D01*
X135763307Y-85820888D01*
X135432654Y-85067481D01*
X135142679Y-84304806D01*
X134892980Y-83531370D01*
X134683151Y-82745680D01*
X134512787Y-81946245D01*
X134381485Y-81131572D01*
X134299550Y-80418167D01*
X134287764Y-80265677D01*
X134277427Y-80078366D01*
X134268640Y-79863726D01*
X134261506Y-79629246D01*
X134256126Y-79382418D01*
X134252601Y-79130733D01*
X134251033Y-78881682D01*
X134251523Y-78642755D01*
X134254174Y-78421444D01*
X134259085Y-78225239D01*
X134266359Y-78061632D01*
X134267382Y-78044770D01*
X134339232Y-77214511D01*
X134449743Y-76401015D01*
X134599241Y-75603082D01*
X134788052Y-74819517D01*
X135016502Y-74049122D01*
X135284916Y-73290699D01*
X135593621Y-72543052D01*
X135942942Y-71804983D01*
X135992169Y-71708083D01*
X136384405Y-70988007D01*
X136810749Y-70292155D01*
X137269998Y-69621517D01*
X137760950Y-68977082D01*
X138282402Y-68359840D01*
X138833153Y-67770780D01*
X139411999Y-67210892D01*
X140017739Y-66681165D01*
X140649169Y-66182589D01*
X141305089Y-65716152D01*
X141984294Y-65282844D01*
X142685584Y-64883656D01*
X143407755Y-64519575D01*
X144149605Y-64191592D01*
X144909933Y-63900696D01*
X145687535Y-63647876D01*
X145841666Y-63602928D01*
X146412106Y-63451248D01*
X146987724Y-63321787D01*
X147576219Y-63213186D01*
X148185289Y-63124086D01*
X148822634Y-63053127D01*
X149091125Y-63029193D01*
X149255166Y-63015556D01*
X149255166Y-72093838D01*
X149255166Y-72093838D01*
G37*
X149255166Y-72093838D02*
X149133458Y-72108027D01*
X149028081Y-72124034D01*
X148892376Y-72150275D01*
X148736448Y-72184449D01*
X148570405Y-72224259D01*
X148404354Y-72267403D01*
X148281500Y-72301843D01*
X147780272Y-72469533D01*
X147293480Y-72675945D01*
X146823520Y-72919212D01*
X146372790Y-73197471D01*
X145943687Y-73508856D01*
X145538610Y-73851503D01*
X145159955Y-74223547D01*
X144810121Y-74623122D01*
X144491505Y-75048365D01*
X144234570Y-75449551D01*
X143980316Y-75918050D01*
X143764914Y-76399503D01*
X143587732Y-76895890D01*
X143448142Y-77409189D01*
X143345514Y-77941380D01*
X143284430Y-78435990D01*
X143274497Y-78588899D01*
X143269309Y-78772946D01*
X143268615Y-78977233D01*
X143272165Y-79190861D01*
X143279709Y-79402931D01*
X143290998Y-79602545D01*
X143305780Y-79778803D01*
X143317517Y-79878417D01*
X143364508Y-80170924D01*
X143425894Y-80473904D01*
X143498651Y-80775169D01*
X143579757Y-81062530D01*
X143666190Y-81323799D01*
X143695444Y-81402417D01*
X143725470Y-81485297D01*
X143746539Y-81552861D01*
X143755961Y-81595891D01*
X143754943Y-81606063D01*
X143735826Y-81617525D01*
X143682131Y-81648928D01*
X143595907Y-81699088D01*
X143479203Y-81766822D01*
X143334069Y-81850947D01*
X143162553Y-81950278D01*
X142966706Y-82063633D01*
X142748577Y-82189829D01*
X142510216Y-82327683D01*
X142253671Y-82476010D01*
X141980992Y-82633628D01*
X141694229Y-82799354D01*
X141395431Y-82972003D01*
X141086647Y-83150394D01*
X140769928Y-83333342D01*
X140447322Y-83519665D01*
X140120878Y-83708178D01*
X139792647Y-83897700D01*
X139464677Y-84087045D01*
X139139019Y-84275032D01*
X138817720Y-84460477D01*
X138502832Y-84642197D01*
X138196404Y-84819007D01*
X137900484Y-84989726D01*
X137617122Y-85153169D01*
X137348368Y-85308154D01*
X137096271Y-85453497D01*
X136862880Y-85588015D01*
X136650246Y-85710525D01*
X136460417Y-85819842D01*
X136295442Y-85914785D01*
X136157372Y-85994170D01*
X136048256Y-86056813D01*
X135970143Y-86101531D01*
X135925082Y-86127141D01*
X135914205Y-86133097D01*
X135904160Y-86114944D01*
X135879335Y-86064782D01*
X135842808Y-85988985D01*
X135797660Y-85893923D01*
X135763307Y-85820888D01*
X135432654Y-85067481D01*
X135142679Y-84304806D01*
X134892980Y-83531370D01*
X134683151Y-82745680D01*
X134512787Y-81946245D01*
X134381485Y-81131572D01*
X134299550Y-80418167D01*
X134287764Y-80265677D01*
X134277427Y-80078366D01*
X134268640Y-79863726D01*
X134261506Y-79629246D01*
X134256126Y-79382418D01*
X134252601Y-79130733D01*
X134251033Y-78881682D01*
X134251523Y-78642755D01*
X134254174Y-78421444D01*
X134259085Y-78225239D01*
X134266359Y-78061632D01*
X134267382Y-78044770D01*
X134339232Y-77214511D01*
X134449743Y-76401015D01*
X134599241Y-75603082D01*
X134788052Y-74819517D01*
X135016502Y-74049122D01*
X135284916Y-73290699D01*
X135593621Y-72543052D01*
X135942942Y-71804983D01*
X135992169Y-71708083D01*
X136384405Y-70988007D01*
X136810749Y-70292155D01*
X137269998Y-69621517D01*
X137760950Y-68977082D01*
X138282402Y-68359840D01*
X138833153Y-67770780D01*
X139411999Y-67210892D01*
X140017739Y-66681165D01*
X140649169Y-66182589D01*
X141305089Y-65716152D01*
X141984294Y-65282844D01*
X142685584Y-64883656D01*
X143407755Y-64519575D01*
X144149605Y-64191592D01*
X144909933Y-63900696D01*
X145687535Y-63647876D01*
X145841666Y-63602928D01*
X146412106Y-63451248D01*
X146987724Y-63321787D01*
X147576219Y-63213186D01*
X148185289Y-63124086D01*
X148822634Y-63053127D01*
X149091125Y-63029193D01*
X149255166Y-63015556D01*
X149255166Y-72093838D01*
G36*
X144767296Y-83333260D02*
G01*
X144806667Y-83374681D01*
X144861658Y-83436079D01*
X144926523Y-83511186D01*
X144928736Y-83513792D01*
X145292673Y-83910534D01*
X145682523Y-84275172D01*
X146096091Y-84606900D01*
X146531183Y-84904910D01*
X146985605Y-85168396D01*
X147457163Y-85396550D01*
X147943663Y-85588565D01*
X148442910Y-85743635D01*
X148952710Y-85860953D01*
X149470868Y-85939711D01*
X149995191Y-85979102D01*
X150523485Y-85978321D01*
X151053554Y-85936559D01*
X151387106Y-85888898D01*
X151921478Y-85778765D01*
X152437106Y-85630874D01*
X152935554Y-85444610D01*
X153418383Y-85219360D01*
X153887159Y-84954508D01*
X154081166Y-84830696D01*
X154403554Y-84605986D01*
X154704184Y-84370785D01*
X154990992Y-84117998D01*
X155271911Y-83840528D01*
X155554875Y-83531283D01*
X155625723Y-83449507D01*
X155690872Y-83379166D01*
X155740263Y-83337579D01*
X155769883Y-83327944D01*
X155794442Y-83340880D01*
X155853240Y-83373712D01*
X155944224Y-83425252D01*
X156065346Y-83494313D01*
X156214554Y-83579709D01*
X156389796Y-83680250D01*
X156589024Y-83794752D01*
X156810184Y-83922025D01*
X157051228Y-84060883D01*
X157310104Y-84210139D01*
X157584761Y-84368605D01*
X157873149Y-84535094D01*
X158173217Y-84708420D01*
X158482914Y-84887394D01*
X158800189Y-85070829D01*
X159122992Y-85257539D01*
X159449271Y-85446336D01*
X159776977Y-85636032D01*
X160104058Y-85825441D01*
X160428464Y-86013376D01*
X160748143Y-86198648D01*
X161061046Y-86380071D01*
X161365121Y-86556457D01*
X161658317Y-86726620D01*
X161938584Y-86889372D01*
X162203871Y-87043526D01*
X162452128Y-87187894D01*
X162681303Y-87321290D01*
X162889345Y-87442526D01*
X163074205Y-87550415D01*
X163233831Y-87643769D01*
X163366172Y-87721402D01*
X163469178Y-87782125D01*
X163540798Y-87824753D01*
X163578982Y-87848098D01*
X163585000Y-87852329D01*
X163572442Y-87881074D01*
X163536843Y-87938899D01*
X163481314Y-88021598D01*
X163408968Y-88124960D01*
X163322915Y-88244779D01*
X163226267Y-88376846D01*
X163122136Y-88516953D01*
X163013634Y-88660891D01*
X162903871Y-88804453D01*
X162795960Y-88943431D01*
X162693012Y-89073616D01*
X162598139Y-89190800D01*
X162571128Y-89223500D01*
X162045588Y-89824367D01*
X161488921Y-90399742D01*
X160903625Y-90947709D01*
X160292197Y-91466356D01*
X159657135Y-91953767D01*
X159000937Y-92408030D01*
X158326099Y-92827229D01*
X157635119Y-93209451D01*
X156930494Y-93552782D01*
X156910955Y-93561653D01*
X156240566Y-93849289D01*
X155573578Y-94102417D01*
X154904395Y-94322489D01*
X154227427Y-94510958D01*
X153537079Y-94669276D01*
X152827758Y-94798894D01*
X152093872Y-94901266D01*
X151520000Y-94961399D01*
X151430213Y-94967476D01*
X151304307Y-94973017D01*
X151148493Y-94977968D01*
X150968984Y-94982276D01*
X150771990Y-94985888D01*
X150563724Y-94988751D01*
X150350396Y-94990811D01*
X150138218Y-94992015D01*
X149933402Y-94992310D01*
X149742160Y-94991643D01*
X149570702Y-94989961D01*
X149425241Y-94987209D01*
X149311988Y-94983336D01*
X149265750Y-94980713D01*
X148462740Y-94907547D01*
X147683437Y-94801450D01*
X146923718Y-94661390D01*
X146179461Y-94486339D01*
X145446545Y-94275264D01*
X144720847Y-94027136D01*
X143998245Y-93740925D01*
X143589044Y-93561653D01*
X142884080Y-93219418D01*
X142192691Y-92838240D01*
X141517376Y-92420031D01*
X140860632Y-91966707D01*
X140224956Y-91480181D01*
X139612845Y-90962368D01*
X139026797Y-90415181D01*
X138469310Y-89840534D01*
X137942880Y-89240342D01*
X137928871Y-89223500D01*
X137828296Y-89100456D01*
X137720829Y-88965510D01*
X137609433Y-88822701D01*
X137497069Y-88676063D01*
X137386698Y-88529633D01*
X137281283Y-88387447D01*
X137183784Y-88253543D01*
X137097164Y-88131955D01*
X137024384Y-88026721D01*
X136968406Y-87941878D01*
X136932191Y-87881460D01*
X136918702Y-87849505D01*
X136918922Y-87847070D01*
X136937461Y-87835113D01*
X136990626Y-87803201D01*
X137076362Y-87752521D01*
X137192618Y-87684260D01*
X137337342Y-87599604D01*
X137508482Y-87499740D01*
X137703987Y-87385856D01*
X137921804Y-87259137D01*
X138159880Y-87120772D01*
X138416165Y-86971946D01*
X138688606Y-86813847D01*
X138975152Y-86647661D01*
X139273749Y-86474576D01*
X139582347Y-86295778D01*
X139898892Y-86112453D01*
X140221334Y-85925790D01*
X140547621Y-85736974D01*
X140875699Y-85547193D01*
X141203518Y-85357633D01*
X141529025Y-85169481D01*
X141850168Y-84983924D01*
X142164895Y-84802150D01*
X142471155Y-84625344D01*
X142766895Y-84454693D01*
X143050063Y-84291385D01*
X143318608Y-84136606D01*
X143570477Y-83991543D01*
X143803618Y-83857384D01*
X144015979Y-83735314D01*
X144205509Y-83626520D01*
X144370155Y-83532190D01*
X144507866Y-83453511D01*
X144616589Y-83391669D01*
X144694272Y-83347850D01*
X144738864Y-83323243D01*
X144749293Y-83318084D01*
X144767296Y-83333260D01*
X144767296Y-83333260D01*
G37*
X144767296Y-83333260D02*
X144806667Y-83374681D01*
X144861658Y-83436079D01*
X144926523Y-83511186D01*
X144928736Y-83513792D01*
X145292673Y-83910534D01*
X145682523Y-84275172D01*
X146096091Y-84606900D01*
X146531183Y-84904910D01*
X146985605Y-85168396D01*
X147457163Y-85396550D01*
X147943663Y-85588565D01*
X148442910Y-85743635D01*
X148952710Y-85860953D01*
X149470868Y-85939711D01*
X149995191Y-85979102D01*
X150523485Y-85978321D01*
X151053554Y-85936559D01*
X151387106Y-85888898D01*
X151921478Y-85778765D01*
X152437106Y-85630874D01*
X152935554Y-85444610D01*
X153418383Y-85219360D01*
X153887159Y-84954508D01*
X154081166Y-84830696D01*
X154403554Y-84605986D01*
X154704184Y-84370785D01*
X154990992Y-84117998D01*
X155271911Y-83840528D01*
X155554875Y-83531283D01*
X155625723Y-83449507D01*
X155690872Y-83379166D01*
X155740263Y-83337579D01*
X155769883Y-83327944D01*
X155794442Y-83340880D01*
X155853240Y-83373712D01*
X155944224Y-83425252D01*
X156065346Y-83494313D01*
X156214554Y-83579709D01*
X156389796Y-83680250D01*
X156589024Y-83794752D01*
X156810184Y-83922025D01*
X157051228Y-84060883D01*
X157310104Y-84210139D01*
X157584761Y-84368605D01*
X157873149Y-84535094D01*
X158173217Y-84708420D01*
X158482914Y-84887394D01*
X158800189Y-85070829D01*
X159122992Y-85257539D01*
X159449271Y-85446336D01*
X159776977Y-85636032D01*
X160104058Y-85825441D01*
X160428464Y-86013376D01*
X160748143Y-86198648D01*
X161061046Y-86380071D01*
X161365121Y-86556457D01*
X161658317Y-86726620D01*
X161938584Y-86889372D01*
X162203871Y-87043526D01*
X162452128Y-87187894D01*
X162681303Y-87321290D01*
X162889345Y-87442526D01*
X163074205Y-87550415D01*
X163233831Y-87643769D01*
X163366172Y-87721402D01*
X163469178Y-87782125D01*
X163540798Y-87824753D01*
X163578982Y-87848098D01*
X163585000Y-87852329D01*
X163572442Y-87881074D01*
X163536843Y-87938899D01*
X163481314Y-88021598D01*
X163408968Y-88124960D01*
X163322915Y-88244779D01*
X163226267Y-88376846D01*
X163122136Y-88516953D01*
X163013634Y-88660891D01*
X162903871Y-88804453D01*
X162795960Y-88943431D01*
X162693012Y-89073616D01*
X162598139Y-89190800D01*
X162571128Y-89223500D01*
X162045588Y-89824367D01*
X161488921Y-90399742D01*
X160903625Y-90947709D01*
X160292197Y-91466356D01*
X159657135Y-91953767D01*
X159000937Y-92408030D01*
X158326099Y-92827229D01*
X157635119Y-93209451D01*
X156930494Y-93552782D01*
X156910955Y-93561653D01*
X156240566Y-93849289D01*
X155573578Y-94102417D01*
X154904395Y-94322489D01*
X154227427Y-94510958D01*
X153537079Y-94669276D01*
X152827758Y-94798894D01*
X152093872Y-94901266D01*
X151520000Y-94961399D01*
X151430213Y-94967476D01*
X151304307Y-94973017D01*
X151148493Y-94977968D01*
X150968984Y-94982276D01*
X150771990Y-94985888D01*
X150563724Y-94988751D01*
X150350396Y-94990811D01*
X150138218Y-94992015D01*
X149933402Y-94992310D01*
X149742160Y-94991643D01*
X149570702Y-94989961D01*
X149425241Y-94987209D01*
X149311988Y-94983336D01*
X149265750Y-94980713D01*
X148462740Y-94907547D01*
X147683437Y-94801450D01*
X146923718Y-94661390D01*
X146179461Y-94486339D01*
X145446545Y-94275264D01*
X144720847Y-94027136D01*
X143998245Y-93740925D01*
X143589044Y-93561653D01*
X142884080Y-93219418D01*
X142192691Y-92838240D01*
X141517376Y-92420031D01*
X140860632Y-91966707D01*
X140224956Y-91480181D01*
X139612845Y-90962368D01*
X139026797Y-90415181D01*
X138469310Y-89840534D01*
X137942880Y-89240342D01*
X137928871Y-89223500D01*
X137828296Y-89100456D01*
X137720829Y-88965510D01*
X137609433Y-88822701D01*
X137497069Y-88676063D01*
X137386698Y-88529633D01*
X137281283Y-88387447D01*
X137183784Y-88253543D01*
X137097164Y-88131955D01*
X137024384Y-88026721D01*
X136968406Y-87941878D01*
X136932191Y-87881460D01*
X136918702Y-87849505D01*
X136918922Y-87847070D01*
X136937461Y-87835113D01*
X136990626Y-87803201D01*
X137076362Y-87752521D01*
X137192618Y-87684260D01*
X137337342Y-87599604D01*
X137508482Y-87499740D01*
X137703987Y-87385856D01*
X137921804Y-87259137D01*
X138159880Y-87120772D01*
X138416165Y-86971946D01*
X138688606Y-86813847D01*
X138975152Y-86647661D01*
X139273749Y-86474576D01*
X139582347Y-86295778D01*
X139898892Y-86112453D01*
X140221334Y-85925790D01*
X140547621Y-85736974D01*
X140875699Y-85547193D01*
X141203518Y-85357633D01*
X141529025Y-85169481D01*
X141850168Y-84983924D01*
X142164895Y-84802150D01*
X142471155Y-84625344D01*
X142766895Y-84454693D01*
X143050063Y-84291385D01*
X143318608Y-84136606D01*
X143570477Y-83991543D01*
X143803618Y-83857384D01*
X144015979Y-83735314D01*
X144205509Y-83626520D01*
X144370155Y-83532190D01*
X144507866Y-83453511D01*
X144616589Y-83391669D01*
X144694272Y-83347850D01*
X144738864Y-83323243D01*
X144749293Y-83318084D01*
X144767296Y-83333260D01*
D10*
G36*
X175854048Y-122746442D02*
G01*
X176146413Y-122835130D01*
X176146415Y-122835131D01*
X176415856Y-122979150D01*
X176415858Y-122979151D01*
X176415857Y-122979151D01*
X176652029Y-123172971D01*
X176739395Y-123279426D01*
X176845850Y-123409142D01*
X176989869Y-123678584D01*
X176989870Y-123678586D01*
X177078558Y-123970951D01*
X177101000Y-124198810D01*
X177101000Y-125001189D01*
X177078558Y-125229048D01*
X176989870Y-125521414D01*
X176989869Y-125521417D01*
X176845850Y-125790858D01*
X176652029Y-126027029D01*
X176415858Y-126220850D01*
X176146416Y-126364869D01*
X176146414Y-126364870D01*
X175854049Y-126453558D01*
X175550000Y-126483504D01*
X175245952Y-126453558D01*
X174953587Y-126364870D01*
X174953585Y-126364869D01*
X174684144Y-126220850D01*
X174648232Y-126191378D01*
X174447971Y-126027029D01*
X174360605Y-125920574D01*
X174254150Y-125790858D01*
X174110131Y-125521416D01*
X174110130Y-125521414D01*
X174021442Y-125229049D01*
X173999000Y-125001190D01*
X173999000Y-124198811D01*
X174021442Y-123970952D01*
X174110130Y-123678587D01*
X174254151Y-123409143D01*
X174447971Y-123172971D01*
X174554426Y-123085605D01*
X174684142Y-122979150D01*
X174953584Y-122835131D01*
X174953586Y-122835130D01*
X175245951Y-122746442D01*
X175550000Y-122716496D01*
X175854048Y-122746442D01*
X175854048Y-122746442D01*
G37*
G36*
X53354048Y-122746442D02*
G01*
X53646413Y-122835130D01*
X53646415Y-122835131D01*
X53915856Y-122979150D01*
X53915858Y-122979151D01*
X53915857Y-122979151D01*
X54152029Y-123172971D01*
X54239395Y-123279426D01*
X54345850Y-123409142D01*
X54489869Y-123678584D01*
X54489870Y-123678586D01*
X54578558Y-123970951D01*
X54601000Y-124198810D01*
X54601000Y-125001189D01*
X54578558Y-125229048D01*
X54489870Y-125521414D01*
X54489869Y-125521417D01*
X54345850Y-125790858D01*
X54152029Y-126027029D01*
X53915858Y-126220850D01*
X53646416Y-126364869D01*
X53646414Y-126364870D01*
X53354049Y-126453558D01*
X53050000Y-126483504D01*
X52745952Y-126453558D01*
X52453587Y-126364870D01*
X52453585Y-126364869D01*
X52184144Y-126220850D01*
X52148232Y-126191378D01*
X51947971Y-126027029D01*
X51860605Y-125920574D01*
X51754150Y-125790858D01*
X51610131Y-125521416D01*
X51610130Y-125521414D01*
X51521442Y-125229049D01*
X51499000Y-125001190D01*
X51499000Y-124198811D01*
X51521442Y-123970952D01*
X51610130Y-123678587D01*
X51754151Y-123409143D01*
X51947971Y-123172971D01*
X52054426Y-123085605D01*
X52184142Y-122979150D01*
X52453584Y-122835131D01*
X52453586Y-122835130D01*
X52745951Y-122746442D01*
X53050000Y-122716496D01*
X53354048Y-122746442D01*
X53354048Y-122746442D01*
G37*
G36*
X137863512Y-116103927D02*
G01*
X138012812Y-116133624D01*
X138176784Y-116201544D01*
X138324354Y-116300147D01*
X138449853Y-116425646D01*
X138548456Y-116573216D01*
X138616376Y-116737188D01*
X138651000Y-116911259D01*
X138651000Y-117088741D01*
X138616376Y-117262812D01*
X138548456Y-117426784D01*
X138449853Y-117574354D01*
X138324354Y-117699853D01*
X138176784Y-117798456D01*
X138012812Y-117866376D01*
X137863512Y-117896073D01*
X137838742Y-117901000D01*
X137661258Y-117901000D01*
X137636488Y-117896073D01*
X137487188Y-117866376D01*
X137323216Y-117798456D01*
X137175646Y-117699853D01*
X137050147Y-117574354D01*
X136951544Y-117426784D01*
X136883624Y-117262812D01*
X136849000Y-117088741D01*
X136849000Y-116911259D01*
X136883624Y-116737188D01*
X136951544Y-116573216D01*
X137050147Y-116425646D01*
X137175646Y-116300147D01*
X137323216Y-116201544D01*
X137487188Y-116133624D01*
X137636488Y-116103927D01*
X137661258Y-116099000D01*
X137838742Y-116099000D01*
X137863512Y-116103927D01*
X137863512Y-116103927D01*
G37*
G36*
X165863512Y-116103927D02*
G01*
X166012812Y-116133624D01*
X166176784Y-116201544D01*
X166324354Y-116300147D01*
X166449853Y-116425646D01*
X166548456Y-116573216D01*
X166616376Y-116737188D01*
X166651000Y-116911259D01*
X166651000Y-117088741D01*
X166616376Y-117262812D01*
X166548456Y-117426784D01*
X166449853Y-117574354D01*
X166324354Y-117699853D01*
X166176784Y-117798456D01*
X166012812Y-117866376D01*
X165863512Y-117896073D01*
X165838742Y-117901000D01*
X165661258Y-117901000D01*
X165636488Y-117896073D01*
X165487188Y-117866376D01*
X165323216Y-117798456D01*
X165175646Y-117699853D01*
X165050147Y-117574354D01*
X164951544Y-117426784D01*
X164883624Y-117262812D01*
X164849000Y-117088741D01*
X164849000Y-116911259D01*
X164883624Y-116737188D01*
X164951544Y-116573216D01*
X165050147Y-116425646D01*
X165175646Y-116300147D01*
X165323216Y-116201544D01*
X165487188Y-116133624D01*
X165636488Y-116103927D01*
X165661258Y-116099000D01*
X165838742Y-116099000D01*
X165863512Y-116103927D01*
X165863512Y-116103927D01*
G37*
G36*
X151863512Y-116103927D02*
G01*
X152012812Y-116133624D01*
X152176784Y-116201544D01*
X152324354Y-116300147D01*
X152449853Y-116425646D01*
X152548456Y-116573216D01*
X152616376Y-116737188D01*
X152651000Y-116911259D01*
X152651000Y-117088741D01*
X152616376Y-117262812D01*
X152548456Y-117426784D01*
X152449853Y-117574354D01*
X152324354Y-117699853D01*
X152176784Y-117798456D01*
X152012812Y-117866376D01*
X151863512Y-117896073D01*
X151838742Y-117901000D01*
X151661258Y-117901000D01*
X151636488Y-117896073D01*
X151487188Y-117866376D01*
X151323216Y-117798456D01*
X151175646Y-117699853D01*
X151050147Y-117574354D01*
X150951544Y-117426784D01*
X150883624Y-117262812D01*
X150849000Y-117088741D01*
X150849000Y-116911259D01*
X150883624Y-116737188D01*
X150951544Y-116573216D01*
X151050147Y-116425646D01*
X151175646Y-116300147D01*
X151323216Y-116201544D01*
X151487188Y-116133624D01*
X151636488Y-116103927D01*
X151661258Y-116099000D01*
X151838742Y-116099000D01*
X151863512Y-116103927D01*
X151863512Y-116103927D01*
G37*
G36*
X146863512Y-116103927D02*
G01*
X147012812Y-116133624D01*
X147176784Y-116201544D01*
X147324354Y-116300147D01*
X147449853Y-116425646D01*
X147548456Y-116573216D01*
X147616376Y-116737188D01*
X147651000Y-116911259D01*
X147651000Y-117088741D01*
X147616376Y-117262812D01*
X147548456Y-117426784D01*
X147449853Y-117574354D01*
X147324354Y-117699853D01*
X147176784Y-117798456D01*
X147012812Y-117866376D01*
X146863512Y-117896073D01*
X146838742Y-117901000D01*
X146661258Y-117901000D01*
X146636488Y-117896073D01*
X146487188Y-117866376D01*
X146323216Y-117798456D01*
X146175646Y-117699853D01*
X146050147Y-117574354D01*
X145951544Y-117426784D01*
X145883624Y-117262812D01*
X145849000Y-117088741D01*
X145849000Y-116911259D01*
X145883624Y-116737188D01*
X145951544Y-116573216D01*
X146050147Y-116425646D01*
X146175646Y-116300147D01*
X146323216Y-116201544D01*
X146487188Y-116133624D01*
X146636488Y-116103927D01*
X146661258Y-116099000D01*
X146838742Y-116099000D01*
X146863512Y-116103927D01*
X146863512Y-116103927D01*
G37*
G36*
X132863512Y-116103927D02*
G01*
X133012812Y-116133624D01*
X133176784Y-116201544D01*
X133324354Y-116300147D01*
X133449853Y-116425646D01*
X133548456Y-116573216D01*
X133616376Y-116737188D01*
X133651000Y-116911259D01*
X133651000Y-117088741D01*
X133616376Y-117262812D01*
X133548456Y-117426784D01*
X133449853Y-117574354D01*
X133324354Y-117699853D01*
X133176784Y-117798456D01*
X133012812Y-117866376D01*
X132863512Y-117896073D01*
X132838742Y-117901000D01*
X132661258Y-117901000D01*
X132636488Y-117896073D01*
X132487188Y-117866376D01*
X132323216Y-117798456D01*
X132175646Y-117699853D01*
X132050147Y-117574354D01*
X131951544Y-117426784D01*
X131883624Y-117262812D01*
X131849000Y-117088741D01*
X131849000Y-116911259D01*
X131883624Y-116737188D01*
X131951544Y-116573216D01*
X132050147Y-116425646D01*
X132175646Y-116300147D01*
X132323216Y-116201544D01*
X132487188Y-116133624D01*
X132636488Y-116103927D01*
X132661258Y-116099000D01*
X132838742Y-116099000D01*
X132863512Y-116103927D01*
X132863512Y-116103927D01*
G37*
G36*
X123863512Y-116103927D02*
G01*
X124012812Y-116133624D01*
X124176784Y-116201544D01*
X124324354Y-116300147D01*
X124449853Y-116425646D01*
X124548456Y-116573216D01*
X124616376Y-116737188D01*
X124651000Y-116911259D01*
X124651000Y-117088741D01*
X124616376Y-117262812D01*
X124548456Y-117426784D01*
X124449853Y-117574354D01*
X124324354Y-117699853D01*
X124176784Y-117798456D01*
X124012812Y-117866376D01*
X123863512Y-117896073D01*
X123838742Y-117901000D01*
X123661258Y-117901000D01*
X123636488Y-117896073D01*
X123487188Y-117866376D01*
X123323216Y-117798456D01*
X123175646Y-117699853D01*
X123050147Y-117574354D01*
X122951544Y-117426784D01*
X122883624Y-117262812D01*
X122849000Y-117088741D01*
X122849000Y-116911259D01*
X122883624Y-116737188D01*
X122951544Y-116573216D01*
X123050147Y-116425646D01*
X123175646Y-116300147D01*
X123323216Y-116201544D01*
X123487188Y-116133624D01*
X123636488Y-116103927D01*
X123661258Y-116099000D01*
X123838742Y-116099000D01*
X123863512Y-116103927D01*
X123863512Y-116103927D01*
G37*
G36*
X118863512Y-116103927D02*
G01*
X119012812Y-116133624D01*
X119176784Y-116201544D01*
X119324354Y-116300147D01*
X119449853Y-116425646D01*
X119548456Y-116573216D01*
X119616376Y-116737188D01*
X119651000Y-116911259D01*
X119651000Y-117088741D01*
X119616376Y-117262812D01*
X119548456Y-117426784D01*
X119449853Y-117574354D01*
X119324354Y-117699853D01*
X119176784Y-117798456D01*
X119012812Y-117866376D01*
X118863512Y-117896073D01*
X118838742Y-117901000D01*
X118661258Y-117901000D01*
X118636488Y-117896073D01*
X118487188Y-117866376D01*
X118323216Y-117798456D01*
X118175646Y-117699853D01*
X118050147Y-117574354D01*
X117951544Y-117426784D01*
X117883624Y-117262812D01*
X117849000Y-117088741D01*
X117849000Y-116911259D01*
X117883624Y-116737188D01*
X117951544Y-116573216D01*
X118050147Y-116425646D01*
X118175646Y-116300147D01*
X118323216Y-116201544D01*
X118487188Y-116133624D01*
X118636488Y-116103927D01*
X118661258Y-116099000D01*
X118838742Y-116099000D01*
X118863512Y-116103927D01*
X118863512Y-116103927D01*
G37*
G36*
X109863512Y-116103927D02*
G01*
X110012812Y-116133624D01*
X110176784Y-116201544D01*
X110324354Y-116300147D01*
X110449853Y-116425646D01*
X110548456Y-116573216D01*
X110616376Y-116737188D01*
X110651000Y-116911259D01*
X110651000Y-117088741D01*
X110616376Y-117262812D01*
X110548456Y-117426784D01*
X110449853Y-117574354D01*
X110324354Y-117699853D01*
X110176784Y-117798456D01*
X110012812Y-117866376D01*
X109863512Y-117896073D01*
X109838742Y-117901000D01*
X109661258Y-117901000D01*
X109636488Y-117896073D01*
X109487188Y-117866376D01*
X109323216Y-117798456D01*
X109175646Y-117699853D01*
X109050147Y-117574354D01*
X108951544Y-117426784D01*
X108883624Y-117262812D01*
X108849000Y-117088741D01*
X108849000Y-116911259D01*
X108883624Y-116737188D01*
X108951544Y-116573216D01*
X109050147Y-116425646D01*
X109175646Y-116300147D01*
X109323216Y-116201544D01*
X109487188Y-116133624D01*
X109636488Y-116103927D01*
X109661258Y-116099000D01*
X109838742Y-116099000D01*
X109863512Y-116103927D01*
X109863512Y-116103927D01*
G37*
G36*
X104863512Y-116103927D02*
G01*
X105012812Y-116133624D01*
X105176784Y-116201544D01*
X105324354Y-116300147D01*
X105449853Y-116425646D01*
X105548456Y-116573216D01*
X105616376Y-116737188D01*
X105651000Y-116911259D01*
X105651000Y-117088741D01*
X105616376Y-117262812D01*
X105548456Y-117426784D01*
X105449853Y-117574354D01*
X105324354Y-117699853D01*
X105176784Y-117798456D01*
X105012812Y-117866376D01*
X104863512Y-117896073D01*
X104838742Y-117901000D01*
X104661258Y-117901000D01*
X104636488Y-117896073D01*
X104487188Y-117866376D01*
X104323216Y-117798456D01*
X104175646Y-117699853D01*
X104050147Y-117574354D01*
X103951544Y-117426784D01*
X103883624Y-117262812D01*
X103849000Y-117088741D01*
X103849000Y-116911259D01*
X103883624Y-116737188D01*
X103951544Y-116573216D01*
X104050147Y-116425646D01*
X104175646Y-116300147D01*
X104323216Y-116201544D01*
X104487188Y-116133624D01*
X104636488Y-116103927D01*
X104661258Y-116099000D01*
X104838742Y-116099000D01*
X104863512Y-116103927D01*
X104863512Y-116103927D01*
G37*
G36*
X90863512Y-116103927D02*
G01*
X91012812Y-116133624D01*
X91176784Y-116201544D01*
X91324354Y-116300147D01*
X91449853Y-116425646D01*
X91548456Y-116573216D01*
X91616376Y-116737188D01*
X91651000Y-116911259D01*
X91651000Y-117088741D01*
X91616376Y-117262812D01*
X91548456Y-117426784D01*
X91449853Y-117574354D01*
X91324354Y-117699853D01*
X91176784Y-117798456D01*
X91012812Y-117866376D01*
X90863512Y-117896073D01*
X90838742Y-117901000D01*
X90661258Y-117901000D01*
X90636488Y-117896073D01*
X90487188Y-117866376D01*
X90323216Y-117798456D01*
X90175646Y-117699853D01*
X90050147Y-117574354D01*
X89951544Y-117426784D01*
X89883624Y-117262812D01*
X89849000Y-117088741D01*
X89849000Y-116911259D01*
X89883624Y-116737188D01*
X89951544Y-116573216D01*
X90050147Y-116425646D01*
X90175646Y-116300147D01*
X90323216Y-116201544D01*
X90487188Y-116133624D01*
X90636488Y-116103927D01*
X90661258Y-116099000D01*
X90838742Y-116099000D01*
X90863512Y-116103927D01*
X90863512Y-116103927D01*
G37*
G36*
X81863512Y-116103927D02*
G01*
X82012812Y-116133624D01*
X82176784Y-116201544D01*
X82324354Y-116300147D01*
X82449853Y-116425646D01*
X82548456Y-116573216D01*
X82616376Y-116737188D01*
X82651000Y-116911259D01*
X82651000Y-117088741D01*
X82616376Y-117262812D01*
X82548456Y-117426784D01*
X82449853Y-117574354D01*
X82324354Y-117699853D01*
X82176784Y-117798456D01*
X82012812Y-117866376D01*
X81863512Y-117896073D01*
X81838742Y-117901000D01*
X81661258Y-117901000D01*
X81636488Y-117896073D01*
X81487188Y-117866376D01*
X81323216Y-117798456D01*
X81175646Y-117699853D01*
X81050147Y-117574354D01*
X80951544Y-117426784D01*
X80883624Y-117262812D01*
X80849000Y-117088741D01*
X80849000Y-116911259D01*
X80883624Y-116737188D01*
X80951544Y-116573216D01*
X81050147Y-116425646D01*
X81175646Y-116300147D01*
X81323216Y-116201544D01*
X81487188Y-116133624D01*
X81636488Y-116103927D01*
X81661258Y-116099000D01*
X81838742Y-116099000D01*
X81863512Y-116103927D01*
X81863512Y-116103927D01*
G37*
G36*
X76863512Y-116103927D02*
G01*
X77012812Y-116133624D01*
X77176784Y-116201544D01*
X77324354Y-116300147D01*
X77449853Y-116425646D01*
X77548456Y-116573216D01*
X77616376Y-116737188D01*
X77651000Y-116911259D01*
X77651000Y-117088741D01*
X77616376Y-117262812D01*
X77548456Y-117426784D01*
X77449853Y-117574354D01*
X77324354Y-117699853D01*
X77176784Y-117798456D01*
X77012812Y-117866376D01*
X76863512Y-117896073D01*
X76838742Y-117901000D01*
X76661258Y-117901000D01*
X76636488Y-117896073D01*
X76487188Y-117866376D01*
X76323216Y-117798456D01*
X76175646Y-117699853D01*
X76050147Y-117574354D01*
X75951544Y-117426784D01*
X75883624Y-117262812D01*
X75849000Y-117088741D01*
X75849000Y-116911259D01*
X75883624Y-116737188D01*
X75951544Y-116573216D01*
X76050147Y-116425646D01*
X76175646Y-116300147D01*
X76323216Y-116201544D01*
X76487188Y-116133624D01*
X76636488Y-116103927D01*
X76661258Y-116099000D01*
X76838742Y-116099000D01*
X76863512Y-116103927D01*
X76863512Y-116103927D01*
G37*
G36*
X67863512Y-116103927D02*
G01*
X68012812Y-116133624D01*
X68176784Y-116201544D01*
X68324354Y-116300147D01*
X68449853Y-116425646D01*
X68548456Y-116573216D01*
X68616376Y-116737188D01*
X68651000Y-116911259D01*
X68651000Y-117088741D01*
X68616376Y-117262812D01*
X68548456Y-117426784D01*
X68449853Y-117574354D01*
X68324354Y-117699853D01*
X68176784Y-117798456D01*
X68012812Y-117866376D01*
X67863512Y-117896073D01*
X67838742Y-117901000D01*
X67661258Y-117901000D01*
X67636488Y-117896073D01*
X67487188Y-117866376D01*
X67323216Y-117798456D01*
X67175646Y-117699853D01*
X67050147Y-117574354D01*
X66951544Y-117426784D01*
X66883624Y-117262812D01*
X66849000Y-117088741D01*
X66849000Y-116911259D01*
X66883624Y-116737188D01*
X66951544Y-116573216D01*
X67050147Y-116425646D01*
X67175646Y-116300147D01*
X67323216Y-116201544D01*
X67487188Y-116133624D01*
X67636488Y-116103927D01*
X67661258Y-116099000D01*
X67838742Y-116099000D01*
X67863512Y-116103927D01*
X67863512Y-116103927D01*
G37*
G36*
X60591000Y-117901000D02*
G01*
X58789000Y-117901000D01*
X58789000Y-116099000D01*
X60591000Y-116099000D01*
X60591000Y-117901000D01*
X60591000Y-117901000D01*
G37*
G36*
X62863512Y-116103927D02*
G01*
X63012812Y-116133624D01*
X63176784Y-116201544D01*
X63324354Y-116300147D01*
X63449853Y-116425646D01*
X63548456Y-116573216D01*
X63616376Y-116737188D01*
X63651000Y-116911259D01*
X63651000Y-117088741D01*
X63616376Y-117262812D01*
X63548456Y-117426784D01*
X63449853Y-117574354D01*
X63324354Y-117699853D01*
X63176784Y-117798456D01*
X63012812Y-117866376D01*
X62863512Y-117896073D01*
X62838742Y-117901000D01*
X62661258Y-117901000D01*
X62636488Y-117896073D01*
X62487188Y-117866376D01*
X62323216Y-117798456D01*
X62175646Y-117699853D01*
X62050147Y-117574354D01*
X61951544Y-117426784D01*
X61883624Y-117262812D01*
X61849000Y-117088741D01*
X61849000Y-116911259D01*
X61883624Y-116737188D01*
X61951544Y-116573216D01*
X62050147Y-116425646D01*
X62175646Y-116300147D01*
X62323216Y-116201544D01*
X62487188Y-116133624D01*
X62636488Y-116103927D01*
X62661258Y-116099000D01*
X62838742Y-116099000D01*
X62863512Y-116103927D01*
X62863512Y-116103927D01*
G37*
G36*
X169811000Y-117901000D02*
G01*
X168009000Y-117901000D01*
X168009000Y-116099000D01*
X169811000Y-116099000D01*
X169811000Y-117901000D01*
X169811000Y-117901000D01*
G37*
G36*
X160863512Y-116103927D02*
G01*
X161012812Y-116133624D01*
X161176784Y-116201544D01*
X161324354Y-116300147D01*
X161449853Y-116425646D01*
X161548456Y-116573216D01*
X161616376Y-116737188D01*
X161651000Y-116911259D01*
X161651000Y-117088741D01*
X161616376Y-117262812D01*
X161548456Y-117426784D01*
X161449853Y-117574354D01*
X161324354Y-117699853D01*
X161176784Y-117798456D01*
X161012812Y-117866376D01*
X160863512Y-117896073D01*
X160838742Y-117901000D01*
X160661258Y-117901000D01*
X160636488Y-117896073D01*
X160487188Y-117866376D01*
X160323216Y-117798456D01*
X160175646Y-117699853D01*
X160050147Y-117574354D01*
X159951544Y-117426784D01*
X159883624Y-117262812D01*
X159849000Y-117088741D01*
X159849000Y-116911259D01*
X159883624Y-116737188D01*
X159951544Y-116573216D01*
X160050147Y-116425646D01*
X160175646Y-116300147D01*
X160323216Y-116201544D01*
X160487188Y-116133624D01*
X160636488Y-116103927D01*
X160661258Y-116099000D01*
X160838742Y-116099000D01*
X160863512Y-116103927D01*
X160863512Y-116103927D01*
G37*
G36*
X95863512Y-116103927D02*
G01*
X96012812Y-116133624D01*
X96176784Y-116201544D01*
X96324354Y-116300147D01*
X96449853Y-116425646D01*
X96548456Y-116573216D01*
X96616376Y-116737188D01*
X96651000Y-116911259D01*
X96651000Y-117088741D01*
X96616376Y-117262812D01*
X96548456Y-117426784D01*
X96449853Y-117574354D01*
X96324354Y-117699853D01*
X96176784Y-117798456D01*
X96012812Y-117866376D01*
X95863512Y-117896073D01*
X95838742Y-117901000D01*
X95661258Y-117901000D01*
X95636488Y-117896073D01*
X95487188Y-117866376D01*
X95323216Y-117798456D01*
X95175646Y-117699853D01*
X95050147Y-117574354D01*
X94951544Y-117426784D01*
X94883624Y-117262812D01*
X94849000Y-117088741D01*
X94849000Y-116911259D01*
X94883624Y-116737188D01*
X94951544Y-116573216D01*
X95050147Y-116425646D01*
X95175646Y-116300147D01*
X95323216Y-116201544D01*
X95487188Y-116133624D01*
X95636488Y-116103927D01*
X95661258Y-116099000D01*
X95838742Y-116099000D01*
X95863512Y-116103927D01*
X95863512Y-116103927D01*
G37*
G36*
X59800443Y-113565519D02*
G01*
X59866627Y-113572037D01*
X60036466Y-113623557D01*
X60192991Y-113707222D01*
X60228729Y-113736552D01*
X60330186Y-113819814D01*
X60413448Y-113921271D01*
X60442778Y-113957009D01*
X60526443Y-114113534D01*
X60577963Y-114283373D01*
X60595359Y-114460000D01*
X60577963Y-114636627D01*
X60526443Y-114806466D01*
X60442778Y-114962991D01*
X60413448Y-114998729D01*
X60330186Y-115100186D01*
X60228729Y-115183448D01*
X60192991Y-115212778D01*
X60036466Y-115296443D01*
X59866627Y-115347963D01*
X59800442Y-115354482D01*
X59734260Y-115361000D01*
X59645740Y-115361000D01*
X59579558Y-115354482D01*
X59513373Y-115347963D01*
X59343534Y-115296443D01*
X59187009Y-115212778D01*
X59151271Y-115183448D01*
X59049814Y-115100186D01*
X58966552Y-114998729D01*
X58937222Y-114962991D01*
X58853557Y-114806466D01*
X58802037Y-114636627D01*
X58784641Y-114460000D01*
X58802037Y-114283373D01*
X58853557Y-114113534D01*
X58937222Y-113957009D01*
X58966552Y-113921271D01*
X59049814Y-113819814D01*
X59151271Y-113736552D01*
X59187009Y-113707222D01*
X59343534Y-113623557D01*
X59513373Y-113572037D01*
X59579557Y-113565519D01*
X59645740Y-113559000D01*
X59734260Y-113559000D01*
X59800443Y-113565519D01*
X59800443Y-113565519D01*
G37*
G36*
X169020443Y-113565519D02*
G01*
X169086627Y-113572037D01*
X169256466Y-113623557D01*
X169412991Y-113707222D01*
X169448729Y-113736552D01*
X169550186Y-113819814D01*
X169633448Y-113921271D01*
X169662778Y-113957009D01*
X169746443Y-114113534D01*
X169797963Y-114283373D01*
X169815359Y-114460000D01*
X169797963Y-114636627D01*
X169746443Y-114806466D01*
X169662778Y-114962991D01*
X169633448Y-114998729D01*
X169550186Y-115100186D01*
X169448729Y-115183448D01*
X169412991Y-115212778D01*
X169256466Y-115296443D01*
X169086627Y-115347963D01*
X169020442Y-115354482D01*
X168954260Y-115361000D01*
X168865740Y-115361000D01*
X168799558Y-115354482D01*
X168733373Y-115347963D01*
X168563534Y-115296443D01*
X168407009Y-115212778D01*
X168371271Y-115183448D01*
X168269814Y-115100186D01*
X168186552Y-114998729D01*
X168157222Y-114962991D01*
X168073557Y-114806466D01*
X168022037Y-114636627D01*
X168004641Y-114460000D01*
X168022037Y-114283373D01*
X168073557Y-114113534D01*
X168157222Y-113957009D01*
X168186552Y-113921271D01*
X168269814Y-113819814D01*
X168371271Y-113736552D01*
X168407009Y-113707222D01*
X168563534Y-113623557D01*
X168733373Y-113572037D01*
X168799557Y-113565519D01*
X168865740Y-113559000D01*
X168954260Y-113559000D01*
X169020443Y-113565519D01*
X169020443Y-113565519D01*
G37*
G36*
X59800443Y-111025519D02*
G01*
X59866627Y-111032037D01*
X60036466Y-111083557D01*
X60192991Y-111167222D01*
X60228729Y-111196552D01*
X60330186Y-111279814D01*
X60413448Y-111381271D01*
X60442778Y-111417009D01*
X60526443Y-111573534D01*
X60577963Y-111743373D01*
X60595359Y-111920000D01*
X60577963Y-112096627D01*
X60526443Y-112266466D01*
X60442778Y-112422991D01*
X60414143Y-112457883D01*
X60330186Y-112560186D01*
X60228729Y-112643448D01*
X60192991Y-112672778D01*
X60036466Y-112756443D01*
X59866627Y-112807963D01*
X59800443Y-112814481D01*
X59734260Y-112821000D01*
X59645740Y-112821000D01*
X59579557Y-112814481D01*
X59513373Y-112807963D01*
X59343534Y-112756443D01*
X59187009Y-112672778D01*
X59151271Y-112643448D01*
X59049814Y-112560186D01*
X58965857Y-112457883D01*
X58937222Y-112422991D01*
X58853557Y-112266466D01*
X58802037Y-112096627D01*
X58784641Y-111920000D01*
X58802037Y-111743373D01*
X58853557Y-111573534D01*
X58937222Y-111417009D01*
X58966552Y-111381271D01*
X59049814Y-111279814D01*
X59151271Y-111196552D01*
X59187009Y-111167222D01*
X59343534Y-111083557D01*
X59513373Y-111032037D01*
X59579557Y-111025519D01*
X59645740Y-111019000D01*
X59734260Y-111019000D01*
X59800443Y-111025519D01*
X59800443Y-111025519D01*
G37*
G36*
X169020443Y-111025519D02*
G01*
X169086627Y-111032037D01*
X169256466Y-111083557D01*
X169412991Y-111167222D01*
X169448729Y-111196552D01*
X169550186Y-111279814D01*
X169633448Y-111381271D01*
X169662778Y-111417009D01*
X169746443Y-111573534D01*
X169797963Y-111743373D01*
X169815359Y-111920000D01*
X169797963Y-112096627D01*
X169746443Y-112266466D01*
X169662778Y-112422991D01*
X169634143Y-112457883D01*
X169550186Y-112560186D01*
X169448729Y-112643448D01*
X169412991Y-112672778D01*
X169256466Y-112756443D01*
X169086627Y-112807963D01*
X169020443Y-112814481D01*
X168954260Y-112821000D01*
X168865740Y-112821000D01*
X168799557Y-112814481D01*
X168733373Y-112807963D01*
X168563534Y-112756443D01*
X168407009Y-112672778D01*
X168371271Y-112643448D01*
X168269814Y-112560186D01*
X168185857Y-112457883D01*
X168157222Y-112422991D01*
X168073557Y-112266466D01*
X168022037Y-112096627D01*
X168004641Y-111920000D01*
X168022037Y-111743373D01*
X168073557Y-111573534D01*
X168157222Y-111417009D01*
X168186552Y-111381271D01*
X168269814Y-111279814D01*
X168371271Y-111196552D01*
X168407009Y-111167222D01*
X168563534Y-111083557D01*
X168733373Y-111032037D01*
X168799557Y-111025519D01*
X168865740Y-111019000D01*
X168954260Y-111019000D01*
X169020443Y-111025519D01*
X169020443Y-111025519D01*
G37*
G36*
X162959618Y-111527965D02*
G01*
X162992433Y-111537919D01*
X163022665Y-111554079D01*
X163049170Y-111575830D01*
X163070921Y-111602335D01*
X163087081Y-111632567D01*
X163097035Y-111665382D01*
X163101000Y-111705640D01*
X163101000Y-112294360D01*
X163097035Y-112334618D01*
X163087081Y-112367433D01*
X163070921Y-112397665D01*
X163049170Y-112424170D01*
X163022665Y-112445921D01*
X162992433Y-112462081D01*
X162959618Y-112472035D01*
X162919360Y-112476000D01*
X161955640Y-112476000D01*
X161915382Y-112472035D01*
X161882567Y-112462081D01*
X161852335Y-112445921D01*
X161825830Y-112424170D01*
X161804079Y-112397665D01*
X161787919Y-112367433D01*
X161777965Y-112334618D01*
X161774000Y-112294360D01*
X161774000Y-111705640D01*
X161777965Y-111665382D01*
X161787919Y-111632567D01*
X161804079Y-111602335D01*
X161825830Y-111575830D01*
X161852335Y-111554079D01*
X161882567Y-111537919D01*
X161915382Y-111527965D01*
X161955640Y-111524000D01*
X162919360Y-111524000D01*
X162959618Y-111527965D01*
X162959618Y-111527965D01*
G37*
G36*
X164584618Y-111527965D02*
G01*
X164617433Y-111537919D01*
X164647665Y-111554079D01*
X164674170Y-111575830D01*
X164695921Y-111602335D01*
X164712081Y-111632567D01*
X164722035Y-111665382D01*
X164726000Y-111705640D01*
X164726000Y-112294360D01*
X164722035Y-112334618D01*
X164712081Y-112367433D01*
X164695921Y-112397665D01*
X164674170Y-112424170D01*
X164647665Y-112445921D01*
X164617433Y-112462081D01*
X164584618Y-112472035D01*
X164544360Y-112476000D01*
X163580640Y-112476000D01*
X163540382Y-112472035D01*
X163507567Y-112462081D01*
X163477335Y-112445921D01*
X163450830Y-112424170D01*
X163429079Y-112397665D01*
X163412919Y-112367433D01*
X163402965Y-112334618D01*
X163399000Y-112294360D01*
X163399000Y-111705640D01*
X163402965Y-111665382D01*
X163412919Y-111632567D01*
X163429079Y-111602335D01*
X163450830Y-111575830D01*
X163477335Y-111554079D01*
X163507567Y-111537919D01*
X163540382Y-111527965D01*
X163580640Y-111524000D01*
X164544360Y-111524000D01*
X164584618Y-111527965D01*
X164584618Y-111527965D01*
G37*
G36*
X120959618Y-111527965D02*
G01*
X120992433Y-111537919D01*
X121022665Y-111554079D01*
X121049170Y-111575830D01*
X121070921Y-111602335D01*
X121087081Y-111632567D01*
X121097035Y-111665382D01*
X121101000Y-111705640D01*
X121101000Y-112294360D01*
X121097035Y-112334618D01*
X121087081Y-112367433D01*
X121070921Y-112397665D01*
X121049170Y-112424170D01*
X121022665Y-112445921D01*
X120992433Y-112462081D01*
X120959618Y-112472035D01*
X120919360Y-112476000D01*
X119955640Y-112476000D01*
X119915382Y-112472035D01*
X119882567Y-112462081D01*
X119852335Y-112445921D01*
X119825830Y-112424170D01*
X119804079Y-112397665D01*
X119787919Y-112367433D01*
X119777965Y-112334618D01*
X119774000Y-112294360D01*
X119774000Y-111705640D01*
X119777965Y-111665382D01*
X119787919Y-111632567D01*
X119804079Y-111602335D01*
X119825830Y-111575830D01*
X119852335Y-111554079D01*
X119882567Y-111537919D01*
X119915382Y-111527965D01*
X119955640Y-111524000D01*
X120919360Y-111524000D01*
X120959618Y-111527965D01*
X120959618Y-111527965D01*
G37*
G36*
X122584618Y-111527965D02*
G01*
X122617433Y-111537919D01*
X122647665Y-111554079D01*
X122674170Y-111575830D01*
X122695921Y-111602335D01*
X122712081Y-111632567D01*
X122722035Y-111665382D01*
X122726000Y-111705640D01*
X122726000Y-112294360D01*
X122722035Y-112334618D01*
X122712081Y-112367433D01*
X122695921Y-112397665D01*
X122674170Y-112424170D01*
X122647665Y-112445921D01*
X122617433Y-112462081D01*
X122584618Y-112472035D01*
X122544360Y-112476000D01*
X121580640Y-112476000D01*
X121540382Y-112472035D01*
X121507567Y-112462081D01*
X121477335Y-112445921D01*
X121450830Y-112424170D01*
X121429079Y-112397665D01*
X121412919Y-112367433D01*
X121402965Y-112334618D01*
X121399000Y-112294360D01*
X121399000Y-111705640D01*
X121402965Y-111665382D01*
X121412919Y-111632567D01*
X121429079Y-111602335D01*
X121450830Y-111575830D01*
X121477335Y-111554079D01*
X121507567Y-111537919D01*
X121540382Y-111527965D01*
X121580640Y-111524000D01*
X122544360Y-111524000D01*
X122584618Y-111527965D01*
X122584618Y-111527965D01*
G37*
G36*
X134959618Y-111527965D02*
G01*
X134992433Y-111537919D01*
X135022665Y-111554079D01*
X135049170Y-111575830D01*
X135070921Y-111602335D01*
X135087081Y-111632567D01*
X135097035Y-111665382D01*
X135101000Y-111705640D01*
X135101000Y-112294360D01*
X135097035Y-112334618D01*
X135087081Y-112367433D01*
X135070921Y-112397665D01*
X135049170Y-112424170D01*
X135022665Y-112445921D01*
X134992433Y-112462081D01*
X134959618Y-112472035D01*
X134919360Y-112476000D01*
X133955640Y-112476000D01*
X133915382Y-112472035D01*
X133882567Y-112462081D01*
X133852335Y-112445921D01*
X133825830Y-112424170D01*
X133804079Y-112397665D01*
X133787919Y-112367433D01*
X133777965Y-112334618D01*
X133774000Y-112294360D01*
X133774000Y-111705640D01*
X133777965Y-111665382D01*
X133787919Y-111632567D01*
X133804079Y-111602335D01*
X133825830Y-111575830D01*
X133852335Y-111554079D01*
X133882567Y-111537919D01*
X133915382Y-111527965D01*
X133955640Y-111524000D01*
X134919360Y-111524000D01*
X134959618Y-111527965D01*
X134959618Y-111527965D01*
G37*
G36*
X148959618Y-111527965D02*
G01*
X148992433Y-111537919D01*
X149022665Y-111554079D01*
X149049170Y-111575830D01*
X149070921Y-111602335D01*
X149087081Y-111632567D01*
X149097035Y-111665382D01*
X149101000Y-111705640D01*
X149101000Y-112294360D01*
X149097035Y-112334618D01*
X149087081Y-112367433D01*
X149070921Y-112397665D01*
X149049170Y-112424170D01*
X149022665Y-112445921D01*
X148992433Y-112462081D01*
X148959618Y-112472035D01*
X148919360Y-112476000D01*
X147955640Y-112476000D01*
X147915382Y-112472035D01*
X147882567Y-112462081D01*
X147852335Y-112445921D01*
X147825830Y-112424170D01*
X147804079Y-112397665D01*
X147787919Y-112367433D01*
X147777965Y-112334618D01*
X147774000Y-112294360D01*
X147774000Y-111705640D01*
X147777965Y-111665382D01*
X147787919Y-111632567D01*
X147804079Y-111602335D01*
X147825830Y-111575830D01*
X147852335Y-111554079D01*
X147882567Y-111537919D01*
X147915382Y-111527965D01*
X147955640Y-111524000D01*
X148919360Y-111524000D01*
X148959618Y-111527965D01*
X148959618Y-111527965D01*
G37*
G36*
X150584618Y-111527965D02*
G01*
X150617433Y-111537919D01*
X150647665Y-111554079D01*
X150674170Y-111575830D01*
X150695921Y-111602335D01*
X150712081Y-111632567D01*
X150722035Y-111665382D01*
X150726000Y-111705640D01*
X150726000Y-112294360D01*
X150722035Y-112334618D01*
X150712081Y-112367433D01*
X150695921Y-112397665D01*
X150674170Y-112424170D01*
X150647665Y-112445921D01*
X150617433Y-112462081D01*
X150584618Y-112472035D01*
X150544360Y-112476000D01*
X149580640Y-112476000D01*
X149540382Y-112472035D01*
X149507567Y-112462081D01*
X149477335Y-112445921D01*
X149450830Y-112424170D01*
X149429079Y-112397665D01*
X149412919Y-112367433D01*
X149402965Y-112334618D01*
X149399000Y-112294360D01*
X149399000Y-111705640D01*
X149402965Y-111665382D01*
X149412919Y-111632567D01*
X149429079Y-111602335D01*
X149450830Y-111575830D01*
X149477335Y-111554079D01*
X149507567Y-111537919D01*
X149540382Y-111527965D01*
X149580640Y-111524000D01*
X150544360Y-111524000D01*
X150584618Y-111527965D01*
X150584618Y-111527965D01*
G37*
G36*
X106959618Y-111527965D02*
G01*
X106992433Y-111537919D01*
X107022665Y-111554079D01*
X107049170Y-111575830D01*
X107070921Y-111602335D01*
X107087081Y-111632567D01*
X107097035Y-111665382D01*
X107101000Y-111705640D01*
X107101000Y-112294360D01*
X107097035Y-112334618D01*
X107087081Y-112367433D01*
X107070921Y-112397665D01*
X107049170Y-112424170D01*
X107022665Y-112445921D01*
X106992433Y-112462081D01*
X106959618Y-112472035D01*
X106919360Y-112476000D01*
X105955640Y-112476000D01*
X105915382Y-112472035D01*
X105882567Y-112462081D01*
X105852335Y-112445921D01*
X105825830Y-112424170D01*
X105804079Y-112397665D01*
X105787919Y-112367433D01*
X105777965Y-112334618D01*
X105774000Y-112294360D01*
X105774000Y-111705640D01*
X105777965Y-111665382D01*
X105787919Y-111632567D01*
X105804079Y-111602335D01*
X105825830Y-111575830D01*
X105852335Y-111554079D01*
X105882567Y-111537919D01*
X105915382Y-111527965D01*
X105955640Y-111524000D01*
X106919360Y-111524000D01*
X106959618Y-111527965D01*
X106959618Y-111527965D01*
G37*
G36*
X108584618Y-111527965D02*
G01*
X108617433Y-111537919D01*
X108647665Y-111554079D01*
X108674170Y-111575830D01*
X108695921Y-111602335D01*
X108712081Y-111632567D01*
X108722035Y-111665382D01*
X108726000Y-111705640D01*
X108726000Y-112294360D01*
X108722035Y-112334618D01*
X108712081Y-112367433D01*
X108695921Y-112397665D01*
X108674170Y-112424170D01*
X108647665Y-112445921D01*
X108617433Y-112462081D01*
X108584618Y-112472035D01*
X108544360Y-112476000D01*
X107580640Y-112476000D01*
X107540382Y-112472035D01*
X107507567Y-112462081D01*
X107477335Y-112445921D01*
X107450830Y-112424170D01*
X107429079Y-112397665D01*
X107412919Y-112367433D01*
X107402965Y-112334618D01*
X107399000Y-112294360D01*
X107399000Y-111705640D01*
X107402965Y-111665382D01*
X107412919Y-111632567D01*
X107429079Y-111602335D01*
X107450830Y-111575830D01*
X107477335Y-111554079D01*
X107507567Y-111537919D01*
X107540382Y-111527965D01*
X107580640Y-111524000D01*
X108544360Y-111524000D01*
X108584618Y-111527965D01*
X108584618Y-111527965D01*
G37*
G36*
X92959618Y-111527965D02*
G01*
X92992433Y-111537919D01*
X93022665Y-111554079D01*
X93049170Y-111575830D01*
X93070921Y-111602335D01*
X93087081Y-111632567D01*
X93097035Y-111665382D01*
X93101000Y-111705640D01*
X93101000Y-112294360D01*
X93097035Y-112334618D01*
X93087081Y-112367433D01*
X93070921Y-112397665D01*
X93049170Y-112424170D01*
X93022665Y-112445921D01*
X92992433Y-112462081D01*
X92959618Y-112472035D01*
X92919360Y-112476000D01*
X91955640Y-112476000D01*
X91915382Y-112472035D01*
X91882567Y-112462081D01*
X91852335Y-112445921D01*
X91825830Y-112424170D01*
X91804079Y-112397665D01*
X91787919Y-112367433D01*
X91777965Y-112334618D01*
X91774000Y-112294360D01*
X91774000Y-111705640D01*
X91777965Y-111665382D01*
X91787919Y-111632567D01*
X91804079Y-111602335D01*
X91825830Y-111575830D01*
X91852335Y-111554079D01*
X91882567Y-111537919D01*
X91915382Y-111527965D01*
X91955640Y-111524000D01*
X92919360Y-111524000D01*
X92959618Y-111527965D01*
X92959618Y-111527965D01*
G37*
G36*
X94584618Y-111527965D02*
G01*
X94617433Y-111537919D01*
X94647665Y-111554079D01*
X94674170Y-111575830D01*
X94695921Y-111602335D01*
X94712081Y-111632567D01*
X94722035Y-111665382D01*
X94726000Y-111705640D01*
X94726000Y-112294360D01*
X94722035Y-112334618D01*
X94712081Y-112367433D01*
X94695921Y-112397665D01*
X94674170Y-112424170D01*
X94647665Y-112445921D01*
X94617433Y-112462081D01*
X94584618Y-112472035D01*
X94544360Y-112476000D01*
X93580640Y-112476000D01*
X93540382Y-112472035D01*
X93507567Y-112462081D01*
X93477335Y-112445921D01*
X93450830Y-112424170D01*
X93429079Y-112397665D01*
X93412919Y-112367433D01*
X93402965Y-112334618D01*
X93399000Y-112294360D01*
X93399000Y-111705640D01*
X93402965Y-111665382D01*
X93412919Y-111632567D01*
X93429079Y-111602335D01*
X93450830Y-111575830D01*
X93477335Y-111554079D01*
X93507567Y-111537919D01*
X93540382Y-111527965D01*
X93580640Y-111524000D01*
X94544360Y-111524000D01*
X94584618Y-111527965D01*
X94584618Y-111527965D01*
G37*
G36*
X80584618Y-111527965D02*
G01*
X80617433Y-111537919D01*
X80647665Y-111554079D01*
X80674170Y-111575830D01*
X80695921Y-111602335D01*
X80712081Y-111632567D01*
X80722035Y-111665382D01*
X80726000Y-111705640D01*
X80726000Y-112294360D01*
X80722035Y-112334618D01*
X80712081Y-112367433D01*
X80695921Y-112397665D01*
X80674170Y-112424170D01*
X80647665Y-112445921D01*
X80617433Y-112462081D01*
X80584618Y-112472035D01*
X80544360Y-112476000D01*
X79580640Y-112476000D01*
X79540382Y-112472035D01*
X79507567Y-112462081D01*
X79477335Y-112445921D01*
X79450830Y-112424170D01*
X79429079Y-112397665D01*
X79412919Y-112367433D01*
X79402965Y-112334618D01*
X79399000Y-112294360D01*
X79399000Y-111705640D01*
X79402965Y-111665382D01*
X79412919Y-111632567D01*
X79429079Y-111602335D01*
X79450830Y-111575830D01*
X79477335Y-111554079D01*
X79507567Y-111537919D01*
X79540382Y-111527965D01*
X79580640Y-111524000D01*
X80544360Y-111524000D01*
X80584618Y-111527965D01*
X80584618Y-111527965D01*
G37*
G36*
X78959618Y-111527965D02*
G01*
X78992433Y-111537919D01*
X79022665Y-111554079D01*
X79049170Y-111575830D01*
X79070921Y-111602335D01*
X79087081Y-111632567D01*
X79097035Y-111665382D01*
X79101000Y-111705640D01*
X79101000Y-112294360D01*
X79097035Y-112334618D01*
X79087081Y-112367433D01*
X79070921Y-112397665D01*
X79049170Y-112424170D01*
X79022665Y-112445921D01*
X78992433Y-112462081D01*
X78959618Y-112472035D01*
X78919360Y-112476000D01*
X77955640Y-112476000D01*
X77915382Y-112472035D01*
X77882567Y-112462081D01*
X77852335Y-112445921D01*
X77825830Y-112424170D01*
X77804079Y-112397665D01*
X77787919Y-112367433D01*
X77777965Y-112334618D01*
X77774000Y-112294360D01*
X77774000Y-111705640D01*
X77777965Y-111665382D01*
X77787919Y-111632567D01*
X77804079Y-111602335D01*
X77825830Y-111575830D01*
X77852335Y-111554079D01*
X77882567Y-111537919D01*
X77915382Y-111527965D01*
X77955640Y-111524000D01*
X78919360Y-111524000D01*
X78959618Y-111527965D01*
X78959618Y-111527965D01*
G37*
G36*
X64959618Y-111527965D02*
G01*
X64992433Y-111537919D01*
X65022665Y-111554079D01*
X65049170Y-111575830D01*
X65070921Y-111602335D01*
X65087081Y-111632567D01*
X65097035Y-111665382D01*
X65101000Y-111705640D01*
X65101000Y-112294360D01*
X65097035Y-112334618D01*
X65087081Y-112367433D01*
X65070921Y-112397665D01*
X65049170Y-112424170D01*
X65022665Y-112445921D01*
X64992433Y-112462081D01*
X64959618Y-112472035D01*
X64919360Y-112476000D01*
X63955640Y-112476000D01*
X63915382Y-112472035D01*
X63882567Y-112462081D01*
X63852335Y-112445921D01*
X63825830Y-112424170D01*
X63804079Y-112397665D01*
X63787919Y-112367433D01*
X63777965Y-112334618D01*
X63774000Y-112294360D01*
X63774000Y-111705640D01*
X63777965Y-111665382D01*
X63787919Y-111632567D01*
X63804079Y-111602335D01*
X63825830Y-111575830D01*
X63852335Y-111554079D01*
X63882567Y-111537919D01*
X63915382Y-111527965D01*
X63955640Y-111524000D01*
X64919360Y-111524000D01*
X64959618Y-111527965D01*
X64959618Y-111527965D01*
G37*
G36*
X66584618Y-111527965D02*
G01*
X66617433Y-111537919D01*
X66647665Y-111554079D01*
X66674170Y-111575830D01*
X66695921Y-111602335D01*
X66712081Y-111632567D01*
X66722035Y-111665382D01*
X66726000Y-111705640D01*
X66726000Y-112294360D01*
X66722035Y-112334618D01*
X66712081Y-112367433D01*
X66695921Y-112397665D01*
X66674170Y-112424170D01*
X66647665Y-112445921D01*
X66617433Y-112462081D01*
X66584618Y-112472035D01*
X66544360Y-112476000D01*
X65580640Y-112476000D01*
X65540382Y-112472035D01*
X65507567Y-112462081D01*
X65477335Y-112445921D01*
X65450830Y-112424170D01*
X65429079Y-112397665D01*
X65412919Y-112367433D01*
X65402965Y-112334618D01*
X65399000Y-112294360D01*
X65399000Y-111705640D01*
X65402965Y-111665382D01*
X65412919Y-111632567D01*
X65429079Y-111602335D01*
X65450830Y-111575830D01*
X65477335Y-111554079D01*
X65507567Y-111537919D01*
X65540382Y-111527965D01*
X65580640Y-111524000D01*
X66544360Y-111524000D01*
X66584618Y-111527965D01*
X66584618Y-111527965D01*
G37*
G36*
X136584618Y-111527965D02*
G01*
X136617433Y-111537919D01*
X136647665Y-111554079D01*
X136674170Y-111575830D01*
X136695921Y-111602335D01*
X136712081Y-111632567D01*
X136722035Y-111665382D01*
X136726000Y-111705640D01*
X136726000Y-112294360D01*
X136722035Y-112334618D01*
X136712081Y-112367433D01*
X136695921Y-112397665D01*
X136674170Y-112424170D01*
X136647665Y-112445921D01*
X136617433Y-112462081D01*
X136584618Y-112472035D01*
X136544360Y-112476000D01*
X135580640Y-112476000D01*
X135540382Y-112472035D01*
X135507567Y-112462081D01*
X135477335Y-112445921D01*
X135450830Y-112424170D01*
X135429079Y-112397665D01*
X135412919Y-112367433D01*
X135402965Y-112334618D01*
X135399000Y-112294360D01*
X135399000Y-111705640D01*
X135402965Y-111665382D01*
X135412919Y-111632567D01*
X135429079Y-111602335D01*
X135450830Y-111575830D01*
X135477335Y-111554079D01*
X135507567Y-111537919D01*
X135540382Y-111527965D01*
X135580640Y-111524000D01*
X136544360Y-111524000D01*
X136584618Y-111527965D01*
X136584618Y-111527965D01*
G37*
G36*
X59800442Y-108485518D02*
G01*
X59866627Y-108492037D01*
X60036466Y-108543557D01*
X60192991Y-108627222D01*
X60228729Y-108656552D01*
X60330186Y-108739814D01*
X60413448Y-108841271D01*
X60442778Y-108877009D01*
X60526443Y-109033534D01*
X60577963Y-109203373D01*
X60595359Y-109380000D01*
X60577963Y-109556627D01*
X60526443Y-109726466D01*
X60442778Y-109882991D01*
X60413448Y-109918729D01*
X60330186Y-110020186D01*
X60228729Y-110103448D01*
X60192991Y-110132778D01*
X60036466Y-110216443D01*
X59866627Y-110267963D01*
X59800442Y-110274482D01*
X59734260Y-110281000D01*
X59645740Y-110281000D01*
X59579558Y-110274482D01*
X59513373Y-110267963D01*
X59343534Y-110216443D01*
X59187009Y-110132778D01*
X59151271Y-110103448D01*
X59049814Y-110020186D01*
X58966552Y-109918729D01*
X58937222Y-109882991D01*
X58853557Y-109726466D01*
X58802037Y-109556627D01*
X58784641Y-109380000D01*
X58802037Y-109203373D01*
X58853557Y-109033534D01*
X58937222Y-108877009D01*
X58966552Y-108841271D01*
X59049814Y-108739814D01*
X59151271Y-108656552D01*
X59187009Y-108627222D01*
X59343534Y-108543557D01*
X59513373Y-108492037D01*
X59579558Y-108485518D01*
X59645740Y-108479000D01*
X59734260Y-108479000D01*
X59800442Y-108485518D01*
X59800442Y-108485518D01*
G37*
G36*
X59800443Y-105945519D02*
G01*
X59866627Y-105952037D01*
X60036466Y-106003557D01*
X60192991Y-106087222D01*
X60228729Y-106116552D01*
X60330186Y-106199814D01*
X60413448Y-106301271D01*
X60442778Y-106337009D01*
X60526443Y-106493534D01*
X60577963Y-106663373D01*
X60595359Y-106840000D01*
X60577963Y-107016627D01*
X60526443Y-107186466D01*
X60442778Y-107342991D01*
X60413448Y-107378729D01*
X60330186Y-107480186D01*
X60228729Y-107563448D01*
X60192991Y-107592778D01*
X60036466Y-107676443D01*
X59866627Y-107727963D01*
X59800442Y-107734482D01*
X59734260Y-107741000D01*
X59645740Y-107741000D01*
X59579558Y-107734482D01*
X59513373Y-107727963D01*
X59343534Y-107676443D01*
X59187009Y-107592778D01*
X59151271Y-107563448D01*
X59049814Y-107480186D01*
X58966552Y-107378729D01*
X58937222Y-107342991D01*
X58853557Y-107186466D01*
X58802037Y-107016627D01*
X58784641Y-106840000D01*
X58802037Y-106663373D01*
X58853557Y-106493534D01*
X58937222Y-106337009D01*
X58966552Y-106301271D01*
X59049814Y-106199814D01*
X59151271Y-106116552D01*
X59187009Y-106087222D01*
X59343534Y-106003557D01*
X59513373Y-105952037D01*
X59579557Y-105945519D01*
X59645740Y-105939000D01*
X59734260Y-105939000D01*
X59800443Y-105945519D01*
X59800443Y-105945519D01*
G37*
G36*
X90863512Y-104103927D02*
G01*
X91012812Y-104133624D01*
X91176784Y-104201544D01*
X91324354Y-104300147D01*
X91449853Y-104425646D01*
X91548456Y-104573216D01*
X91616376Y-104737188D01*
X91651000Y-104911259D01*
X91651000Y-105088741D01*
X91616376Y-105262812D01*
X91548456Y-105426784D01*
X91449853Y-105574354D01*
X91324354Y-105699853D01*
X91176784Y-105798456D01*
X91012812Y-105866376D01*
X90863512Y-105896073D01*
X90838742Y-105901000D01*
X90661258Y-105901000D01*
X90636488Y-105896073D01*
X90487188Y-105866376D01*
X90323216Y-105798456D01*
X90175646Y-105699853D01*
X90050147Y-105574354D01*
X89951544Y-105426784D01*
X89883624Y-105262812D01*
X89849000Y-105088741D01*
X89849000Y-104911259D01*
X89883624Y-104737188D01*
X89951544Y-104573216D01*
X90050147Y-104425646D01*
X90175646Y-104300147D01*
X90323216Y-104201544D01*
X90487188Y-104133624D01*
X90636488Y-104103927D01*
X90661258Y-104099000D01*
X90838742Y-104099000D01*
X90863512Y-104103927D01*
X90863512Y-104103927D01*
G37*
G36*
X118863512Y-104103927D02*
G01*
X119012812Y-104133624D01*
X119176784Y-104201544D01*
X119324354Y-104300147D01*
X119449853Y-104425646D01*
X119548456Y-104573216D01*
X119616376Y-104737188D01*
X119651000Y-104911259D01*
X119651000Y-105088741D01*
X119616376Y-105262812D01*
X119548456Y-105426784D01*
X119449853Y-105574354D01*
X119324354Y-105699853D01*
X119176784Y-105798456D01*
X119012812Y-105866376D01*
X118863512Y-105896073D01*
X118838742Y-105901000D01*
X118661258Y-105901000D01*
X118636488Y-105896073D01*
X118487188Y-105866376D01*
X118323216Y-105798456D01*
X118175646Y-105699853D01*
X118050147Y-105574354D01*
X117951544Y-105426784D01*
X117883624Y-105262812D01*
X117849000Y-105088741D01*
X117849000Y-104911259D01*
X117883624Y-104737188D01*
X117951544Y-104573216D01*
X118050147Y-104425646D01*
X118175646Y-104300147D01*
X118323216Y-104201544D01*
X118487188Y-104133624D01*
X118636488Y-104103927D01*
X118661258Y-104099000D01*
X118838742Y-104099000D01*
X118863512Y-104103927D01*
X118863512Y-104103927D01*
G37*
G36*
X160863512Y-104103927D02*
G01*
X161012812Y-104133624D01*
X161176784Y-104201544D01*
X161324354Y-104300147D01*
X161449853Y-104425646D01*
X161548456Y-104573216D01*
X161616376Y-104737188D01*
X161651000Y-104911259D01*
X161651000Y-105088741D01*
X161616376Y-105262812D01*
X161548456Y-105426784D01*
X161449853Y-105574354D01*
X161324354Y-105699853D01*
X161176784Y-105798456D01*
X161012812Y-105866376D01*
X160863512Y-105896073D01*
X160838742Y-105901000D01*
X160661258Y-105901000D01*
X160636488Y-105896073D01*
X160487188Y-105866376D01*
X160323216Y-105798456D01*
X160175646Y-105699853D01*
X160050147Y-105574354D01*
X159951544Y-105426784D01*
X159883624Y-105262812D01*
X159849000Y-105088741D01*
X159849000Y-104911259D01*
X159883624Y-104737188D01*
X159951544Y-104573216D01*
X160050147Y-104425646D01*
X160175646Y-104300147D01*
X160323216Y-104201544D01*
X160487188Y-104133624D01*
X160636488Y-104103927D01*
X160661258Y-104099000D01*
X160838742Y-104099000D01*
X160863512Y-104103927D01*
X160863512Y-104103927D01*
G37*
G36*
X151863512Y-104103927D02*
G01*
X152012812Y-104133624D01*
X152176784Y-104201544D01*
X152324354Y-104300147D01*
X152449853Y-104425646D01*
X152548456Y-104573216D01*
X152616376Y-104737188D01*
X152651000Y-104911259D01*
X152651000Y-105088741D01*
X152616376Y-105262812D01*
X152548456Y-105426784D01*
X152449853Y-105574354D01*
X152324354Y-105699853D01*
X152176784Y-105798456D01*
X152012812Y-105866376D01*
X151863512Y-105896073D01*
X151838742Y-105901000D01*
X151661258Y-105901000D01*
X151636488Y-105896073D01*
X151487188Y-105866376D01*
X151323216Y-105798456D01*
X151175646Y-105699853D01*
X151050147Y-105574354D01*
X150951544Y-105426784D01*
X150883624Y-105262812D01*
X150849000Y-105088741D01*
X150849000Y-104911259D01*
X150883624Y-104737188D01*
X150951544Y-104573216D01*
X151050147Y-104425646D01*
X151175646Y-104300147D01*
X151323216Y-104201544D01*
X151487188Y-104133624D01*
X151636488Y-104103927D01*
X151661258Y-104099000D01*
X151838742Y-104099000D01*
X151863512Y-104103927D01*
X151863512Y-104103927D01*
G37*
G36*
X146863512Y-104103927D02*
G01*
X147012812Y-104133624D01*
X147176784Y-104201544D01*
X147324354Y-104300147D01*
X147449853Y-104425646D01*
X147548456Y-104573216D01*
X147616376Y-104737188D01*
X147651000Y-104911259D01*
X147651000Y-105088741D01*
X147616376Y-105262812D01*
X147548456Y-105426784D01*
X147449853Y-105574354D01*
X147324354Y-105699853D01*
X147176784Y-105798456D01*
X147012812Y-105866376D01*
X146863512Y-105896073D01*
X146838742Y-105901000D01*
X146661258Y-105901000D01*
X146636488Y-105896073D01*
X146487188Y-105866376D01*
X146323216Y-105798456D01*
X146175646Y-105699853D01*
X146050147Y-105574354D01*
X145951544Y-105426784D01*
X145883624Y-105262812D01*
X145849000Y-105088741D01*
X145849000Y-104911259D01*
X145883624Y-104737188D01*
X145951544Y-104573216D01*
X146050147Y-104425646D01*
X146175646Y-104300147D01*
X146323216Y-104201544D01*
X146487188Y-104133624D01*
X146636488Y-104103927D01*
X146661258Y-104099000D01*
X146838742Y-104099000D01*
X146863512Y-104103927D01*
X146863512Y-104103927D01*
G37*
G36*
X137863512Y-104103927D02*
G01*
X138012812Y-104133624D01*
X138176784Y-104201544D01*
X138324354Y-104300147D01*
X138449853Y-104425646D01*
X138548456Y-104573216D01*
X138616376Y-104737188D01*
X138651000Y-104911259D01*
X138651000Y-105088741D01*
X138616376Y-105262812D01*
X138548456Y-105426784D01*
X138449853Y-105574354D01*
X138324354Y-105699853D01*
X138176784Y-105798456D01*
X138012812Y-105866376D01*
X137863512Y-105896073D01*
X137838742Y-105901000D01*
X137661258Y-105901000D01*
X137636488Y-105896073D01*
X137487188Y-105866376D01*
X137323216Y-105798456D01*
X137175646Y-105699853D01*
X137050147Y-105574354D01*
X136951544Y-105426784D01*
X136883624Y-105262812D01*
X136849000Y-105088741D01*
X136849000Y-104911259D01*
X136883624Y-104737188D01*
X136951544Y-104573216D01*
X137050147Y-104425646D01*
X137175646Y-104300147D01*
X137323216Y-104201544D01*
X137487188Y-104133624D01*
X137636488Y-104103927D01*
X137661258Y-104099000D01*
X137838742Y-104099000D01*
X137863512Y-104103927D01*
X137863512Y-104103927D01*
G37*
G36*
X132863512Y-104103927D02*
G01*
X133012812Y-104133624D01*
X133176784Y-104201544D01*
X133324354Y-104300147D01*
X133449853Y-104425646D01*
X133548456Y-104573216D01*
X133616376Y-104737188D01*
X133651000Y-104911259D01*
X133651000Y-105088741D01*
X133616376Y-105262812D01*
X133548456Y-105426784D01*
X133449853Y-105574354D01*
X133324354Y-105699853D01*
X133176784Y-105798456D01*
X133012812Y-105866376D01*
X132863512Y-105896073D01*
X132838742Y-105901000D01*
X132661258Y-105901000D01*
X132636488Y-105896073D01*
X132487188Y-105866376D01*
X132323216Y-105798456D01*
X132175646Y-105699853D01*
X132050147Y-105574354D01*
X131951544Y-105426784D01*
X131883624Y-105262812D01*
X131849000Y-105088741D01*
X131849000Y-104911259D01*
X131883624Y-104737188D01*
X131951544Y-104573216D01*
X132050147Y-104425646D01*
X132175646Y-104300147D01*
X132323216Y-104201544D01*
X132487188Y-104133624D01*
X132636488Y-104103927D01*
X132661258Y-104099000D01*
X132838742Y-104099000D01*
X132863512Y-104103927D01*
X132863512Y-104103927D01*
G37*
G36*
X123863512Y-104103927D02*
G01*
X124012812Y-104133624D01*
X124176784Y-104201544D01*
X124324354Y-104300147D01*
X124449853Y-104425646D01*
X124548456Y-104573216D01*
X124616376Y-104737188D01*
X124651000Y-104911259D01*
X124651000Y-105088741D01*
X124616376Y-105262812D01*
X124548456Y-105426784D01*
X124449853Y-105574354D01*
X124324354Y-105699853D01*
X124176784Y-105798456D01*
X124012812Y-105866376D01*
X123863512Y-105896073D01*
X123838742Y-105901000D01*
X123661258Y-105901000D01*
X123636488Y-105896073D01*
X123487188Y-105866376D01*
X123323216Y-105798456D01*
X123175646Y-105699853D01*
X123050147Y-105574354D01*
X122951544Y-105426784D01*
X122883624Y-105262812D01*
X122849000Y-105088741D01*
X122849000Y-104911259D01*
X122883624Y-104737188D01*
X122951544Y-104573216D01*
X123050147Y-104425646D01*
X123175646Y-104300147D01*
X123323216Y-104201544D01*
X123487188Y-104133624D01*
X123636488Y-104103927D01*
X123661258Y-104099000D01*
X123838742Y-104099000D01*
X123863512Y-104103927D01*
X123863512Y-104103927D01*
G37*
G36*
X109863512Y-104103927D02*
G01*
X110012812Y-104133624D01*
X110176784Y-104201544D01*
X110324354Y-104300147D01*
X110449853Y-104425646D01*
X110548456Y-104573216D01*
X110616376Y-104737188D01*
X110651000Y-104911259D01*
X110651000Y-105088741D01*
X110616376Y-105262812D01*
X110548456Y-105426784D01*
X110449853Y-105574354D01*
X110324354Y-105699853D01*
X110176784Y-105798456D01*
X110012812Y-105866376D01*
X109863512Y-105896073D01*
X109838742Y-105901000D01*
X109661258Y-105901000D01*
X109636488Y-105896073D01*
X109487188Y-105866376D01*
X109323216Y-105798456D01*
X109175646Y-105699853D01*
X109050147Y-105574354D01*
X108951544Y-105426784D01*
X108883624Y-105262812D01*
X108849000Y-105088741D01*
X108849000Y-104911259D01*
X108883624Y-104737188D01*
X108951544Y-104573216D01*
X109050147Y-104425646D01*
X109175646Y-104300147D01*
X109323216Y-104201544D01*
X109487188Y-104133624D01*
X109636488Y-104103927D01*
X109661258Y-104099000D01*
X109838742Y-104099000D01*
X109863512Y-104103927D01*
X109863512Y-104103927D01*
G37*
G36*
X104863512Y-104103927D02*
G01*
X105012812Y-104133624D01*
X105176784Y-104201544D01*
X105324354Y-104300147D01*
X105449853Y-104425646D01*
X105548456Y-104573216D01*
X105616376Y-104737188D01*
X105651000Y-104911259D01*
X105651000Y-105088741D01*
X105616376Y-105262812D01*
X105548456Y-105426784D01*
X105449853Y-105574354D01*
X105324354Y-105699853D01*
X105176784Y-105798456D01*
X105012812Y-105866376D01*
X104863512Y-105896073D01*
X104838742Y-105901000D01*
X104661258Y-105901000D01*
X104636488Y-105896073D01*
X104487188Y-105866376D01*
X104323216Y-105798456D01*
X104175646Y-105699853D01*
X104050147Y-105574354D01*
X103951544Y-105426784D01*
X103883624Y-105262812D01*
X103849000Y-105088741D01*
X103849000Y-104911259D01*
X103883624Y-104737188D01*
X103951544Y-104573216D01*
X104050147Y-104425646D01*
X104175646Y-104300147D01*
X104323216Y-104201544D01*
X104487188Y-104133624D01*
X104636488Y-104103927D01*
X104661258Y-104099000D01*
X104838742Y-104099000D01*
X104863512Y-104103927D01*
X104863512Y-104103927D01*
G37*
G36*
X95863512Y-104103927D02*
G01*
X96012812Y-104133624D01*
X96176784Y-104201544D01*
X96324354Y-104300147D01*
X96449853Y-104425646D01*
X96548456Y-104573216D01*
X96616376Y-104737188D01*
X96651000Y-104911259D01*
X96651000Y-105088741D01*
X96616376Y-105262812D01*
X96548456Y-105426784D01*
X96449853Y-105574354D01*
X96324354Y-105699853D01*
X96176784Y-105798456D01*
X96012812Y-105866376D01*
X95863512Y-105896073D01*
X95838742Y-105901000D01*
X95661258Y-105901000D01*
X95636488Y-105896073D01*
X95487188Y-105866376D01*
X95323216Y-105798456D01*
X95175646Y-105699853D01*
X95050147Y-105574354D01*
X94951544Y-105426784D01*
X94883624Y-105262812D01*
X94849000Y-105088741D01*
X94849000Y-104911259D01*
X94883624Y-104737188D01*
X94951544Y-104573216D01*
X95050147Y-104425646D01*
X95175646Y-104300147D01*
X95323216Y-104201544D01*
X95487188Y-104133624D01*
X95636488Y-104103927D01*
X95661258Y-104099000D01*
X95838742Y-104099000D01*
X95863512Y-104103927D01*
X95863512Y-104103927D01*
G37*
G36*
X81863512Y-104103927D02*
G01*
X82012812Y-104133624D01*
X82176784Y-104201544D01*
X82324354Y-104300147D01*
X82449853Y-104425646D01*
X82548456Y-104573216D01*
X82616376Y-104737188D01*
X82651000Y-104911259D01*
X82651000Y-105088741D01*
X82616376Y-105262812D01*
X82548456Y-105426784D01*
X82449853Y-105574354D01*
X82324354Y-105699853D01*
X82176784Y-105798456D01*
X82012812Y-105866376D01*
X81863512Y-105896073D01*
X81838742Y-105901000D01*
X81661258Y-105901000D01*
X81636488Y-105896073D01*
X81487188Y-105866376D01*
X81323216Y-105798456D01*
X81175646Y-105699853D01*
X81050147Y-105574354D01*
X80951544Y-105426784D01*
X80883624Y-105262812D01*
X80849000Y-105088741D01*
X80849000Y-104911259D01*
X80883624Y-104737188D01*
X80951544Y-104573216D01*
X81050147Y-104425646D01*
X81175646Y-104300147D01*
X81323216Y-104201544D01*
X81487188Y-104133624D01*
X81636488Y-104103927D01*
X81661258Y-104099000D01*
X81838742Y-104099000D01*
X81863512Y-104103927D01*
X81863512Y-104103927D01*
G37*
G36*
X76863512Y-104103927D02*
G01*
X77012812Y-104133624D01*
X77176784Y-104201544D01*
X77324354Y-104300147D01*
X77449853Y-104425646D01*
X77548456Y-104573216D01*
X77616376Y-104737188D01*
X77651000Y-104911259D01*
X77651000Y-105088741D01*
X77616376Y-105262812D01*
X77548456Y-105426784D01*
X77449853Y-105574354D01*
X77324354Y-105699853D01*
X77176784Y-105798456D01*
X77012812Y-105866376D01*
X76863512Y-105896073D01*
X76838742Y-105901000D01*
X76661258Y-105901000D01*
X76636488Y-105896073D01*
X76487188Y-105866376D01*
X76323216Y-105798456D01*
X76175646Y-105699853D01*
X76050147Y-105574354D01*
X75951544Y-105426784D01*
X75883624Y-105262812D01*
X75849000Y-105088741D01*
X75849000Y-104911259D01*
X75883624Y-104737188D01*
X75951544Y-104573216D01*
X76050147Y-104425646D01*
X76175646Y-104300147D01*
X76323216Y-104201544D01*
X76487188Y-104133624D01*
X76636488Y-104103927D01*
X76661258Y-104099000D01*
X76838742Y-104099000D01*
X76863512Y-104103927D01*
X76863512Y-104103927D01*
G37*
G36*
X67863512Y-104103927D02*
G01*
X68012812Y-104133624D01*
X68176784Y-104201544D01*
X68324354Y-104300147D01*
X68449853Y-104425646D01*
X68548456Y-104573216D01*
X68616376Y-104737188D01*
X68651000Y-104911259D01*
X68651000Y-105088741D01*
X68616376Y-105262812D01*
X68548456Y-105426784D01*
X68449853Y-105574354D01*
X68324354Y-105699853D01*
X68176784Y-105798456D01*
X68012812Y-105866376D01*
X67863512Y-105896073D01*
X67838742Y-105901000D01*
X67661258Y-105901000D01*
X67636488Y-105896073D01*
X67487188Y-105866376D01*
X67323216Y-105798456D01*
X67175646Y-105699853D01*
X67050147Y-105574354D01*
X66951544Y-105426784D01*
X66883624Y-105262812D01*
X66849000Y-105088741D01*
X66849000Y-104911259D01*
X66883624Y-104737188D01*
X66951544Y-104573216D01*
X67050147Y-104425646D01*
X67175646Y-104300147D01*
X67323216Y-104201544D01*
X67487188Y-104133624D01*
X67636488Y-104103927D01*
X67661258Y-104099000D01*
X67838742Y-104099000D01*
X67863512Y-104103927D01*
X67863512Y-104103927D01*
G37*
G36*
X165863512Y-104103927D02*
G01*
X166012812Y-104133624D01*
X166176784Y-104201544D01*
X166324354Y-104300147D01*
X166449853Y-104425646D01*
X166548456Y-104573216D01*
X166616376Y-104737188D01*
X166651000Y-104911259D01*
X166651000Y-105088741D01*
X166616376Y-105262812D01*
X166548456Y-105426784D01*
X166449853Y-105574354D01*
X166324354Y-105699853D01*
X166176784Y-105798456D01*
X166012812Y-105866376D01*
X165863512Y-105896073D01*
X165838742Y-105901000D01*
X165661258Y-105901000D01*
X165636488Y-105896073D01*
X165487188Y-105866376D01*
X165323216Y-105798456D01*
X165175646Y-105699853D01*
X165050147Y-105574354D01*
X164951544Y-105426784D01*
X164883624Y-105262812D01*
X164849000Y-105088741D01*
X164849000Y-104911259D01*
X164883624Y-104737188D01*
X164951544Y-104573216D01*
X165050147Y-104425646D01*
X165175646Y-104300147D01*
X165323216Y-104201544D01*
X165487188Y-104133624D01*
X165636488Y-104103927D01*
X165661258Y-104099000D01*
X165838742Y-104099000D01*
X165863512Y-104103927D01*
X165863512Y-104103927D01*
G37*
G36*
X62863512Y-104103927D02*
G01*
X63012812Y-104133624D01*
X63176784Y-104201544D01*
X63324354Y-104300147D01*
X63449853Y-104425646D01*
X63548456Y-104573216D01*
X63616376Y-104737188D01*
X63651000Y-104911259D01*
X63651000Y-105088741D01*
X63616376Y-105262812D01*
X63548456Y-105426784D01*
X63449853Y-105574354D01*
X63324354Y-105699853D01*
X63176784Y-105798456D01*
X63012812Y-105866376D01*
X62863512Y-105896073D01*
X62838742Y-105901000D01*
X62661258Y-105901000D01*
X62636488Y-105896073D01*
X62487188Y-105866376D01*
X62323216Y-105798456D01*
X62175646Y-105699853D01*
X62050147Y-105574354D01*
X61951544Y-105426784D01*
X61883624Y-105262812D01*
X61849000Y-105088741D01*
X61849000Y-104911259D01*
X61883624Y-104737188D01*
X61951544Y-104573216D01*
X62050147Y-104425646D01*
X62175646Y-104300147D01*
X62323216Y-104201544D01*
X62487188Y-104133624D01*
X62636488Y-104103927D01*
X62661258Y-104099000D01*
X62838742Y-104099000D01*
X62863512Y-104103927D01*
X62863512Y-104103927D01*
G37*
G36*
X106959618Y-99527965D02*
G01*
X106992433Y-99537919D01*
X107022665Y-99554079D01*
X107049170Y-99575830D01*
X107070921Y-99602335D01*
X107087081Y-99632567D01*
X107097035Y-99665382D01*
X107101000Y-99705640D01*
X107101000Y-100294360D01*
X107097035Y-100334618D01*
X107087081Y-100367433D01*
X107070921Y-100397665D01*
X107049170Y-100424170D01*
X107022665Y-100445921D01*
X106992433Y-100462081D01*
X106959618Y-100472035D01*
X106919360Y-100476000D01*
X105955640Y-100476000D01*
X105915382Y-100472035D01*
X105882567Y-100462081D01*
X105852335Y-100445921D01*
X105825830Y-100424170D01*
X105804079Y-100397665D01*
X105787919Y-100367433D01*
X105777965Y-100334618D01*
X105774000Y-100294360D01*
X105774000Y-99705640D01*
X105777965Y-99665382D01*
X105787919Y-99632567D01*
X105804079Y-99602335D01*
X105825830Y-99575830D01*
X105852335Y-99554079D01*
X105882567Y-99537919D01*
X105915382Y-99527965D01*
X105955640Y-99524000D01*
X106919360Y-99524000D01*
X106959618Y-99527965D01*
X106959618Y-99527965D01*
G37*
G36*
X94584618Y-99527965D02*
G01*
X94617433Y-99537919D01*
X94647665Y-99554079D01*
X94674170Y-99575830D01*
X94695921Y-99602335D01*
X94712081Y-99632567D01*
X94722035Y-99665382D01*
X94726000Y-99705640D01*
X94726000Y-100294360D01*
X94722035Y-100334618D01*
X94712081Y-100367433D01*
X94695921Y-100397665D01*
X94674170Y-100424170D01*
X94647665Y-100445921D01*
X94617433Y-100462081D01*
X94584618Y-100472035D01*
X94544360Y-100476000D01*
X93580640Y-100476000D01*
X93540382Y-100472035D01*
X93507567Y-100462081D01*
X93477335Y-100445921D01*
X93450830Y-100424170D01*
X93429079Y-100397665D01*
X93412919Y-100367433D01*
X93402965Y-100334618D01*
X93399000Y-100294360D01*
X93399000Y-99705640D01*
X93402965Y-99665382D01*
X93412919Y-99632567D01*
X93429079Y-99602335D01*
X93450830Y-99575830D01*
X93477335Y-99554079D01*
X93507567Y-99537919D01*
X93540382Y-99527965D01*
X93580640Y-99524000D01*
X94544360Y-99524000D01*
X94584618Y-99527965D01*
X94584618Y-99527965D01*
G37*
G36*
X64959618Y-99527965D02*
G01*
X64992433Y-99537919D01*
X65022665Y-99554079D01*
X65049170Y-99575830D01*
X65070921Y-99602335D01*
X65087081Y-99632567D01*
X65097035Y-99665382D01*
X65101000Y-99705640D01*
X65101000Y-100294360D01*
X65097035Y-100334618D01*
X65087081Y-100367433D01*
X65070921Y-100397665D01*
X65049170Y-100424170D01*
X65022665Y-100445921D01*
X64992433Y-100462081D01*
X64959618Y-100472035D01*
X64919360Y-100476000D01*
X63955640Y-100476000D01*
X63915382Y-100472035D01*
X63882567Y-100462081D01*
X63852335Y-100445921D01*
X63825830Y-100424170D01*
X63804079Y-100397665D01*
X63787919Y-100367433D01*
X63777965Y-100334618D01*
X63774000Y-100294360D01*
X63774000Y-99705640D01*
X63777965Y-99665382D01*
X63787919Y-99632567D01*
X63804079Y-99602335D01*
X63825830Y-99575830D01*
X63852335Y-99554079D01*
X63882567Y-99537919D01*
X63915382Y-99527965D01*
X63955640Y-99524000D01*
X64919360Y-99524000D01*
X64959618Y-99527965D01*
X64959618Y-99527965D01*
G37*
G36*
X66584618Y-99527965D02*
G01*
X66617433Y-99537919D01*
X66647665Y-99554079D01*
X66674170Y-99575830D01*
X66695921Y-99602335D01*
X66712081Y-99632567D01*
X66722035Y-99665382D01*
X66726000Y-99705640D01*
X66726000Y-100294360D01*
X66722035Y-100334618D01*
X66712081Y-100367433D01*
X66695921Y-100397665D01*
X66674170Y-100424170D01*
X66647665Y-100445921D01*
X66617433Y-100462081D01*
X66584618Y-100472035D01*
X66544360Y-100476000D01*
X65580640Y-100476000D01*
X65540382Y-100472035D01*
X65507567Y-100462081D01*
X65477335Y-100445921D01*
X65450830Y-100424170D01*
X65429079Y-100397665D01*
X65412919Y-100367433D01*
X65402965Y-100334618D01*
X65399000Y-100294360D01*
X65399000Y-99705640D01*
X65402965Y-99665382D01*
X65412919Y-99632567D01*
X65429079Y-99602335D01*
X65450830Y-99575830D01*
X65477335Y-99554079D01*
X65507567Y-99537919D01*
X65540382Y-99527965D01*
X65580640Y-99524000D01*
X66544360Y-99524000D01*
X66584618Y-99527965D01*
X66584618Y-99527965D01*
G37*
G36*
X78959618Y-99527965D02*
G01*
X78992433Y-99537919D01*
X79022665Y-99554079D01*
X79049170Y-99575830D01*
X79070921Y-99602335D01*
X79087081Y-99632567D01*
X79097035Y-99665382D01*
X79101000Y-99705640D01*
X79101000Y-100294360D01*
X79097035Y-100334618D01*
X79087081Y-100367433D01*
X79070921Y-100397665D01*
X79049170Y-100424170D01*
X79022665Y-100445921D01*
X78992433Y-100462081D01*
X78959618Y-100472035D01*
X78919360Y-100476000D01*
X77955640Y-100476000D01*
X77915382Y-100472035D01*
X77882567Y-100462081D01*
X77852335Y-100445921D01*
X77825830Y-100424170D01*
X77804079Y-100397665D01*
X77787919Y-100367433D01*
X77777965Y-100334618D01*
X77774000Y-100294360D01*
X77774000Y-99705640D01*
X77777965Y-99665382D01*
X77787919Y-99632567D01*
X77804079Y-99602335D01*
X77825830Y-99575830D01*
X77852335Y-99554079D01*
X77882567Y-99537919D01*
X77915382Y-99527965D01*
X77955640Y-99524000D01*
X78919360Y-99524000D01*
X78959618Y-99527965D01*
X78959618Y-99527965D01*
G37*
G36*
X80584618Y-99527965D02*
G01*
X80617433Y-99537919D01*
X80647665Y-99554079D01*
X80674170Y-99575830D01*
X80695921Y-99602335D01*
X80712081Y-99632567D01*
X80722035Y-99665382D01*
X80726000Y-99705640D01*
X80726000Y-100294360D01*
X80722035Y-100334618D01*
X80712081Y-100367433D01*
X80695921Y-100397665D01*
X80674170Y-100424170D01*
X80647665Y-100445921D01*
X80617433Y-100462081D01*
X80584618Y-100472035D01*
X80544360Y-100476000D01*
X79580640Y-100476000D01*
X79540382Y-100472035D01*
X79507567Y-100462081D01*
X79477335Y-100445921D01*
X79450830Y-100424170D01*
X79429079Y-100397665D01*
X79412919Y-100367433D01*
X79402965Y-100334618D01*
X79399000Y-100294360D01*
X79399000Y-99705640D01*
X79402965Y-99665382D01*
X79412919Y-99632567D01*
X79429079Y-99602335D01*
X79450830Y-99575830D01*
X79477335Y-99554079D01*
X79507567Y-99537919D01*
X79540382Y-99527965D01*
X79580640Y-99524000D01*
X80544360Y-99524000D01*
X80584618Y-99527965D01*
X80584618Y-99527965D01*
G37*
G36*
X92959618Y-99527965D02*
G01*
X92992433Y-99537919D01*
X93022665Y-99554079D01*
X93049170Y-99575830D01*
X93070921Y-99602335D01*
X93087081Y-99632567D01*
X93097035Y-99665382D01*
X93101000Y-99705640D01*
X93101000Y-100294360D01*
X93097035Y-100334618D01*
X93087081Y-100367433D01*
X93070921Y-100397665D01*
X93049170Y-100424170D01*
X93022665Y-100445921D01*
X92992433Y-100462081D01*
X92959618Y-100472035D01*
X92919360Y-100476000D01*
X91955640Y-100476000D01*
X91915382Y-100472035D01*
X91882567Y-100462081D01*
X91852335Y-100445921D01*
X91825830Y-100424170D01*
X91804079Y-100397665D01*
X91787919Y-100367433D01*
X91777965Y-100334618D01*
X91774000Y-100294360D01*
X91774000Y-99705640D01*
X91777965Y-99665382D01*
X91787919Y-99632567D01*
X91804079Y-99602335D01*
X91825830Y-99575830D01*
X91852335Y-99554079D01*
X91882567Y-99537919D01*
X91915382Y-99527965D01*
X91955640Y-99524000D01*
X92919360Y-99524000D01*
X92959618Y-99527965D01*
X92959618Y-99527965D01*
G37*
G36*
X122584618Y-99527965D02*
G01*
X122617433Y-99537919D01*
X122647665Y-99554079D01*
X122674170Y-99575830D01*
X122695921Y-99602335D01*
X122712081Y-99632567D01*
X122722035Y-99665382D01*
X122726000Y-99705640D01*
X122726000Y-100294360D01*
X122722035Y-100334618D01*
X122712081Y-100367433D01*
X122695921Y-100397665D01*
X122674170Y-100424170D01*
X122647665Y-100445921D01*
X122617433Y-100462081D01*
X122584618Y-100472035D01*
X122544360Y-100476000D01*
X121580640Y-100476000D01*
X121540382Y-100472035D01*
X121507567Y-100462081D01*
X121477335Y-100445921D01*
X121450830Y-100424170D01*
X121429079Y-100397665D01*
X121412919Y-100367433D01*
X121402965Y-100334618D01*
X121399000Y-100294360D01*
X121399000Y-99705640D01*
X121402965Y-99665382D01*
X121412919Y-99632567D01*
X121429079Y-99602335D01*
X121450830Y-99575830D01*
X121477335Y-99554079D01*
X121507567Y-99537919D01*
X121540382Y-99527965D01*
X121580640Y-99524000D01*
X122544360Y-99524000D01*
X122584618Y-99527965D01*
X122584618Y-99527965D01*
G37*
G36*
X148959618Y-99527965D02*
G01*
X148992433Y-99537919D01*
X149022665Y-99554079D01*
X149049170Y-99575830D01*
X149070921Y-99602335D01*
X149087081Y-99632567D01*
X149097035Y-99665382D01*
X149101000Y-99705640D01*
X149101000Y-100294360D01*
X149097035Y-100334618D01*
X149087081Y-100367433D01*
X149070921Y-100397665D01*
X149049170Y-100424170D01*
X149022665Y-100445921D01*
X148992433Y-100462081D01*
X148959618Y-100472035D01*
X148919360Y-100476000D01*
X147955640Y-100476000D01*
X147915382Y-100472035D01*
X147882567Y-100462081D01*
X147852335Y-100445921D01*
X147825830Y-100424170D01*
X147804079Y-100397665D01*
X147787919Y-100367433D01*
X147777965Y-100334618D01*
X147774000Y-100294360D01*
X147774000Y-99705640D01*
X147777965Y-99665382D01*
X147787919Y-99632567D01*
X147804079Y-99602335D01*
X147825830Y-99575830D01*
X147852335Y-99554079D01*
X147882567Y-99537919D01*
X147915382Y-99527965D01*
X147955640Y-99524000D01*
X148919360Y-99524000D01*
X148959618Y-99527965D01*
X148959618Y-99527965D01*
G37*
G36*
X164584618Y-99527965D02*
G01*
X164617433Y-99537919D01*
X164647665Y-99554079D01*
X164674170Y-99575830D01*
X164695921Y-99602335D01*
X164712081Y-99632567D01*
X164722035Y-99665382D01*
X164726000Y-99705640D01*
X164726000Y-100294360D01*
X164722035Y-100334618D01*
X164712081Y-100367433D01*
X164695921Y-100397665D01*
X164674170Y-100424170D01*
X164647665Y-100445921D01*
X164617433Y-100462081D01*
X164584618Y-100472035D01*
X164544360Y-100476000D01*
X163580640Y-100476000D01*
X163540382Y-100472035D01*
X163507567Y-100462081D01*
X163477335Y-100445921D01*
X163450830Y-100424170D01*
X163429079Y-100397665D01*
X163412919Y-100367433D01*
X163402965Y-100334618D01*
X163399000Y-100294360D01*
X163399000Y-99705640D01*
X163402965Y-99665382D01*
X163412919Y-99632567D01*
X163429079Y-99602335D01*
X163450830Y-99575830D01*
X163477335Y-99554079D01*
X163507567Y-99537919D01*
X163540382Y-99527965D01*
X163580640Y-99524000D01*
X164544360Y-99524000D01*
X164584618Y-99527965D01*
X164584618Y-99527965D01*
G37*
G36*
X108584618Y-99527965D02*
G01*
X108617433Y-99537919D01*
X108647665Y-99554079D01*
X108674170Y-99575830D01*
X108695921Y-99602335D01*
X108712081Y-99632567D01*
X108722035Y-99665382D01*
X108726000Y-99705640D01*
X108726000Y-100294360D01*
X108722035Y-100334618D01*
X108712081Y-100367433D01*
X108695921Y-100397665D01*
X108674170Y-100424170D01*
X108647665Y-100445921D01*
X108617433Y-100462081D01*
X108584618Y-100472035D01*
X108544360Y-100476000D01*
X107580640Y-100476000D01*
X107540382Y-100472035D01*
X107507567Y-100462081D01*
X107477335Y-100445921D01*
X107450830Y-100424170D01*
X107429079Y-100397665D01*
X107412919Y-100367433D01*
X107402965Y-100334618D01*
X107399000Y-100294360D01*
X107399000Y-99705640D01*
X107402965Y-99665382D01*
X107412919Y-99632567D01*
X107429079Y-99602335D01*
X107450830Y-99575830D01*
X107477335Y-99554079D01*
X107507567Y-99537919D01*
X107540382Y-99527965D01*
X107580640Y-99524000D01*
X108544360Y-99524000D01*
X108584618Y-99527965D01*
X108584618Y-99527965D01*
G37*
G36*
X162959618Y-99527965D02*
G01*
X162992433Y-99537919D01*
X163022665Y-99554079D01*
X163049170Y-99575830D01*
X163070921Y-99602335D01*
X163087081Y-99632567D01*
X163097035Y-99665382D01*
X163101000Y-99705640D01*
X163101000Y-100294360D01*
X163097035Y-100334618D01*
X163087081Y-100367433D01*
X163070921Y-100397665D01*
X163049170Y-100424170D01*
X163022665Y-100445921D01*
X162992433Y-100462081D01*
X162959618Y-100472035D01*
X162919360Y-100476000D01*
X161955640Y-100476000D01*
X161915382Y-100472035D01*
X161882567Y-100462081D01*
X161852335Y-100445921D01*
X161825830Y-100424170D01*
X161804079Y-100397665D01*
X161787919Y-100367433D01*
X161777965Y-100334618D01*
X161774000Y-100294360D01*
X161774000Y-99705640D01*
X161777965Y-99665382D01*
X161787919Y-99632567D01*
X161804079Y-99602335D01*
X161825830Y-99575830D01*
X161852335Y-99554079D01*
X161882567Y-99537919D01*
X161915382Y-99527965D01*
X161955640Y-99524000D01*
X162919360Y-99524000D01*
X162959618Y-99527965D01*
X162959618Y-99527965D01*
G37*
G36*
X120959618Y-99527965D02*
G01*
X120992433Y-99537919D01*
X121022665Y-99554079D01*
X121049170Y-99575830D01*
X121070921Y-99602335D01*
X121087081Y-99632567D01*
X121097035Y-99665382D01*
X121101000Y-99705640D01*
X121101000Y-100294360D01*
X121097035Y-100334618D01*
X121087081Y-100367433D01*
X121070921Y-100397665D01*
X121049170Y-100424170D01*
X121022665Y-100445921D01*
X120992433Y-100462081D01*
X120959618Y-100472035D01*
X120919360Y-100476000D01*
X119955640Y-100476000D01*
X119915382Y-100472035D01*
X119882567Y-100462081D01*
X119852335Y-100445921D01*
X119825830Y-100424170D01*
X119804079Y-100397665D01*
X119787919Y-100367433D01*
X119777965Y-100334618D01*
X119774000Y-100294360D01*
X119774000Y-99705640D01*
X119777965Y-99665382D01*
X119787919Y-99632567D01*
X119804079Y-99602335D01*
X119825830Y-99575830D01*
X119852335Y-99554079D01*
X119882567Y-99537919D01*
X119915382Y-99527965D01*
X119955640Y-99524000D01*
X120919360Y-99524000D01*
X120959618Y-99527965D01*
X120959618Y-99527965D01*
G37*
G36*
X136584618Y-99527965D02*
G01*
X136617433Y-99537919D01*
X136647665Y-99554079D01*
X136674170Y-99575830D01*
X136695921Y-99602335D01*
X136712081Y-99632567D01*
X136722035Y-99665382D01*
X136726000Y-99705640D01*
X136726000Y-100294360D01*
X136722035Y-100334618D01*
X136712081Y-100367433D01*
X136695921Y-100397665D01*
X136674170Y-100424170D01*
X136647665Y-100445921D01*
X136617433Y-100462081D01*
X136584618Y-100472035D01*
X136544360Y-100476000D01*
X135580640Y-100476000D01*
X135540382Y-100472035D01*
X135507567Y-100462081D01*
X135477335Y-100445921D01*
X135450830Y-100424170D01*
X135429079Y-100397665D01*
X135412919Y-100367433D01*
X135402965Y-100334618D01*
X135399000Y-100294360D01*
X135399000Y-99705640D01*
X135402965Y-99665382D01*
X135412919Y-99632567D01*
X135429079Y-99602335D01*
X135450830Y-99575830D01*
X135477335Y-99554079D01*
X135507567Y-99537919D01*
X135540382Y-99527965D01*
X135580640Y-99524000D01*
X136544360Y-99524000D01*
X136584618Y-99527965D01*
X136584618Y-99527965D01*
G37*
G36*
X150584618Y-99527965D02*
G01*
X150617433Y-99537919D01*
X150647665Y-99554079D01*
X150674170Y-99575830D01*
X150695921Y-99602335D01*
X150712081Y-99632567D01*
X150722035Y-99665382D01*
X150726000Y-99705640D01*
X150726000Y-100294360D01*
X150722035Y-100334618D01*
X150712081Y-100367433D01*
X150695921Y-100397665D01*
X150674170Y-100424170D01*
X150647665Y-100445921D01*
X150617433Y-100462081D01*
X150584618Y-100472035D01*
X150544360Y-100476000D01*
X149580640Y-100476000D01*
X149540382Y-100472035D01*
X149507567Y-100462081D01*
X149477335Y-100445921D01*
X149450830Y-100424170D01*
X149429079Y-100397665D01*
X149412919Y-100367433D01*
X149402965Y-100334618D01*
X149399000Y-100294360D01*
X149399000Y-99705640D01*
X149402965Y-99665382D01*
X149412919Y-99632567D01*
X149429079Y-99602335D01*
X149450830Y-99575830D01*
X149477335Y-99554079D01*
X149507567Y-99537919D01*
X149540382Y-99527965D01*
X149580640Y-99524000D01*
X150544360Y-99524000D01*
X150584618Y-99527965D01*
X150584618Y-99527965D01*
G37*
G36*
X134959618Y-99527965D02*
G01*
X134992433Y-99537919D01*
X135022665Y-99554079D01*
X135049170Y-99575830D01*
X135070921Y-99602335D01*
X135087081Y-99632567D01*
X135097035Y-99665382D01*
X135101000Y-99705640D01*
X135101000Y-100294360D01*
X135097035Y-100334618D01*
X135087081Y-100367433D01*
X135070921Y-100397665D01*
X135049170Y-100424170D01*
X135022665Y-100445921D01*
X134992433Y-100462081D01*
X134959618Y-100472035D01*
X134919360Y-100476000D01*
X133955640Y-100476000D01*
X133915382Y-100472035D01*
X133882567Y-100462081D01*
X133852335Y-100445921D01*
X133825830Y-100424170D01*
X133804079Y-100397665D01*
X133787919Y-100367433D01*
X133777965Y-100334618D01*
X133774000Y-100294360D01*
X133774000Y-99705640D01*
X133777965Y-99665382D01*
X133787919Y-99632567D01*
X133804079Y-99602335D01*
X133825830Y-99575830D01*
X133852335Y-99554079D01*
X133882567Y-99537919D01*
X133915382Y-99527965D01*
X133955640Y-99524000D01*
X134919360Y-99524000D01*
X134959618Y-99527965D01*
X134959618Y-99527965D01*
G37*
G36*
X150352383Y-93662489D02*
G01*
X150352386Y-93662490D01*
X150352385Y-93662490D01*
X150416258Y-93688946D01*
X150473748Y-93727360D01*
X150522640Y-93776252D01*
X150561054Y-93833742D01*
X150574570Y-93866375D01*
X150587511Y-93897617D01*
X150601000Y-93965430D01*
X150601000Y-94034570D01*
X150587511Y-94102383D01*
X150587510Y-94102385D01*
X150561054Y-94166258D01*
X150522640Y-94223748D01*
X150473748Y-94272640D01*
X150416258Y-94311054D01*
X150364182Y-94332624D01*
X150352383Y-94337511D01*
X150284570Y-94351000D01*
X150215430Y-94351000D01*
X150147617Y-94337511D01*
X150135818Y-94332624D01*
X150083742Y-94311054D01*
X150026252Y-94272640D01*
X149977360Y-94223748D01*
X149938946Y-94166258D01*
X149912490Y-94102385D01*
X149912489Y-94102383D01*
X149899000Y-94034570D01*
X149899000Y-93965430D01*
X149912489Y-93897617D01*
X149925430Y-93866375D01*
X149938946Y-93833742D01*
X149977360Y-93776252D01*
X150026252Y-93727360D01*
X150083742Y-93688946D01*
X150147615Y-93662490D01*
X150147614Y-93662490D01*
X150147617Y-93662489D01*
X150215430Y-93649000D01*
X150284570Y-93649000D01*
X150352383Y-93662489D01*
X150352383Y-93662489D01*
G37*
G36*
X102863512Y-92103927D02*
G01*
X103012812Y-92133624D01*
X103176784Y-92201544D01*
X103324354Y-92300147D01*
X103449853Y-92425646D01*
X103548456Y-92573216D01*
X103616376Y-92737188D01*
X103651000Y-92911259D01*
X103651000Y-93088741D01*
X103616376Y-93262812D01*
X103548456Y-93426784D01*
X103449853Y-93574354D01*
X103324354Y-93699853D01*
X103176784Y-93798456D01*
X103012812Y-93866376D01*
X102863512Y-93896073D01*
X102838742Y-93901000D01*
X102661258Y-93901000D01*
X102636488Y-93896073D01*
X102487188Y-93866376D01*
X102323216Y-93798456D01*
X102175646Y-93699853D01*
X102050147Y-93574354D01*
X101951544Y-93426784D01*
X101883624Y-93262812D01*
X101849000Y-93088741D01*
X101849000Y-92911259D01*
X101883624Y-92737188D01*
X101951544Y-92573216D01*
X102050147Y-92425646D01*
X102175646Y-92300147D01*
X102323216Y-92201544D01*
X102487188Y-92133624D01*
X102636488Y-92103927D01*
X102661258Y-92099000D01*
X102838742Y-92099000D01*
X102863512Y-92103927D01*
X102863512Y-92103927D01*
G37*
G36*
X125863512Y-92103927D02*
G01*
X126012812Y-92133624D01*
X126176784Y-92201544D01*
X126324354Y-92300147D01*
X126449853Y-92425646D01*
X126548456Y-92573216D01*
X126616376Y-92737188D01*
X126651000Y-92911259D01*
X126651000Y-93088741D01*
X126616376Y-93262812D01*
X126548456Y-93426784D01*
X126449853Y-93574354D01*
X126324354Y-93699853D01*
X126176784Y-93798456D01*
X126012812Y-93866376D01*
X125863512Y-93896073D01*
X125838742Y-93901000D01*
X125661258Y-93901000D01*
X125636488Y-93896073D01*
X125487188Y-93866376D01*
X125323216Y-93798456D01*
X125175646Y-93699853D01*
X125050147Y-93574354D01*
X124951544Y-93426784D01*
X124883624Y-93262812D01*
X124849000Y-93088741D01*
X124849000Y-92911259D01*
X124883624Y-92737188D01*
X124951544Y-92573216D01*
X125050147Y-92425646D01*
X125175646Y-92300147D01*
X125323216Y-92201544D01*
X125487188Y-92133624D01*
X125636488Y-92103927D01*
X125661258Y-92099000D01*
X125838742Y-92099000D01*
X125863512Y-92103927D01*
X125863512Y-92103927D01*
G37*
G36*
X130863512Y-92103927D02*
G01*
X131012812Y-92133624D01*
X131176784Y-92201544D01*
X131324354Y-92300147D01*
X131449853Y-92425646D01*
X131548456Y-92573216D01*
X131616376Y-92737188D01*
X131651000Y-92911259D01*
X131651000Y-93088741D01*
X131616376Y-93262812D01*
X131548456Y-93426784D01*
X131449853Y-93574354D01*
X131324354Y-93699853D01*
X131176784Y-93798456D01*
X131012812Y-93866376D01*
X130863512Y-93896073D01*
X130838742Y-93901000D01*
X130661258Y-93901000D01*
X130636488Y-93896073D01*
X130487188Y-93866376D01*
X130323216Y-93798456D01*
X130175646Y-93699853D01*
X130050147Y-93574354D01*
X129951544Y-93426784D01*
X129883624Y-93262812D01*
X129849000Y-93088741D01*
X129849000Y-92911259D01*
X129883624Y-92737188D01*
X129951544Y-92573216D01*
X130050147Y-92425646D01*
X130175646Y-92300147D01*
X130323216Y-92201544D01*
X130487188Y-92133624D01*
X130636488Y-92103927D01*
X130661258Y-92099000D01*
X130838742Y-92099000D01*
X130863512Y-92103927D01*
X130863512Y-92103927D01*
G37*
G36*
X97863512Y-92103927D02*
G01*
X98012812Y-92133624D01*
X98176784Y-92201544D01*
X98324354Y-92300147D01*
X98449853Y-92425646D01*
X98548456Y-92573216D01*
X98616376Y-92737188D01*
X98651000Y-92911259D01*
X98651000Y-93088741D01*
X98616376Y-93262812D01*
X98548456Y-93426784D01*
X98449853Y-93574354D01*
X98324354Y-93699853D01*
X98176784Y-93798456D01*
X98012812Y-93866376D01*
X97863512Y-93896073D01*
X97838742Y-93901000D01*
X97661258Y-93901000D01*
X97636488Y-93896073D01*
X97487188Y-93866376D01*
X97323216Y-93798456D01*
X97175646Y-93699853D01*
X97050147Y-93574354D01*
X96951544Y-93426784D01*
X96883624Y-93262812D01*
X96849000Y-93088741D01*
X96849000Y-92911259D01*
X96883624Y-92737188D01*
X96951544Y-92573216D01*
X97050147Y-92425646D01*
X97175646Y-92300147D01*
X97323216Y-92201544D01*
X97487188Y-92133624D01*
X97636488Y-92103927D01*
X97661258Y-92099000D01*
X97838742Y-92099000D01*
X97863512Y-92103927D01*
X97863512Y-92103927D01*
G37*
G36*
X99959618Y-87527965D02*
G01*
X99992433Y-87537919D01*
X100022665Y-87554079D01*
X100049170Y-87575830D01*
X100070921Y-87602335D01*
X100087081Y-87632567D01*
X100097035Y-87665382D01*
X100101000Y-87705640D01*
X100101000Y-88294360D01*
X100097035Y-88334618D01*
X100087081Y-88367433D01*
X100070921Y-88397665D01*
X100049170Y-88424170D01*
X100022665Y-88445921D01*
X99992433Y-88462081D01*
X99959618Y-88472035D01*
X99919360Y-88476000D01*
X98955640Y-88476000D01*
X98915382Y-88472035D01*
X98882567Y-88462081D01*
X98852335Y-88445921D01*
X98825830Y-88424170D01*
X98804079Y-88397665D01*
X98787919Y-88367433D01*
X98777965Y-88334618D01*
X98774000Y-88294360D01*
X98774000Y-87705640D01*
X98777965Y-87665382D01*
X98787919Y-87632567D01*
X98804079Y-87602335D01*
X98825830Y-87575830D01*
X98852335Y-87554079D01*
X98882567Y-87537919D01*
X98915382Y-87527965D01*
X98955640Y-87524000D01*
X99919360Y-87524000D01*
X99959618Y-87527965D01*
X99959618Y-87527965D01*
G37*
G36*
X101584618Y-87527965D02*
G01*
X101617433Y-87537919D01*
X101647665Y-87554079D01*
X101674170Y-87575830D01*
X101695921Y-87602335D01*
X101712081Y-87632567D01*
X101722035Y-87665382D01*
X101726000Y-87705640D01*
X101726000Y-88294360D01*
X101722035Y-88334618D01*
X101712081Y-88367433D01*
X101695921Y-88397665D01*
X101674170Y-88424170D01*
X101647665Y-88445921D01*
X101617433Y-88462081D01*
X101584618Y-88472035D01*
X101544360Y-88476000D01*
X100580640Y-88476000D01*
X100540382Y-88472035D01*
X100507567Y-88462081D01*
X100477335Y-88445921D01*
X100450830Y-88424170D01*
X100429079Y-88397665D01*
X100412919Y-88367433D01*
X100402965Y-88334618D01*
X100399000Y-88294360D01*
X100399000Y-87705640D01*
X100402965Y-87665382D01*
X100412919Y-87632567D01*
X100429079Y-87602335D01*
X100450830Y-87575830D01*
X100477335Y-87554079D01*
X100507567Y-87537919D01*
X100540382Y-87527965D01*
X100580640Y-87524000D01*
X101544360Y-87524000D01*
X101584618Y-87527965D01*
X101584618Y-87527965D01*
G37*
G36*
X129584618Y-87527965D02*
G01*
X129617433Y-87537919D01*
X129647665Y-87554079D01*
X129674170Y-87575830D01*
X129695921Y-87602335D01*
X129712081Y-87632567D01*
X129722035Y-87665382D01*
X129726000Y-87705640D01*
X129726000Y-88294360D01*
X129722035Y-88334618D01*
X129712081Y-88367433D01*
X129695921Y-88397665D01*
X129674170Y-88424170D01*
X129647665Y-88445921D01*
X129617433Y-88462081D01*
X129584618Y-88472035D01*
X129544360Y-88476000D01*
X128580640Y-88476000D01*
X128540382Y-88472035D01*
X128507567Y-88462081D01*
X128477335Y-88445921D01*
X128450830Y-88424170D01*
X128429079Y-88397665D01*
X128412919Y-88367433D01*
X128402965Y-88334618D01*
X128399000Y-88294360D01*
X128399000Y-87705640D01*
X128402965Y-87665382D01*
X128412919Y-87632567D01*
X128429079Y-87602335D01*
X128450830Y-87575830D01*
X128477335Y-87554079D01*
X128507567Y-87537919D01*
X128540382Y-87527965D01*
X128580640Y-87524000D01*
X129544360Y-87524000D01*
X129584618Y-87527965D01*
X129584618Y-87527965D01*
G37*
G36*
X127959618Y-87527965D02*
G01*
X127992433Y-87537919D01*
X128022665Y-87554079D01*
X128049170Y-87575830D01*
X128070921Y-87602335D01*
X128087081Y-87632567D01*
X128097035Y-87665382D01*
X128101000Y-87705640D01*
X128101000Y-88294360D01*
X128097035Y-88334618D01*
X128087081Y-88367433D01*
X128070921Y-88397665D01*
X128049170Y-88424170D01*
X128022665Y-88445921D01*
X127992433Y-88462081D01*
X127959618Y-88472035D01*
X127919360Y-88476000D01*
X126955640Y-88476000D01*
X126915382Y-88472035D01*
X126882567Y-88462081D01*
X126852335Y-88445921D01*
X126825830Y-88424170D01*
X126804079Y-88397665D01*
X126787919Y-88367433D01*
X126777965Y-88334618D01*
X126774000Y-88294360D01*
X126774000Y-87705640D01*
X126777965Y-87665382D01*
X126787919Y-87632567D01*
X126804079Y-87602335D01*
X126825830Y-87575830D01*
X126852335Y-87554079D01*
X126882567Y-87537919D01*
X126915382Y-87527965D01*
X126955640Y-87524000D01*
X127919360Y-87524000D01*
X127959618Y-87527965D01*
X127959618Y-87527965D01*
G37*
G36*
X60591000Y-87851000D02*
G01*
X58789000Y-87851000D01*
X58789000Y-86049000D01*
X60591000Y-86049000D01*
X60591000Y-87851000D01*
X60591000Y-87851000D01*
G37*
G36*
X169811000Y-87851000D02*
G01*
X168009000Y-87851000D01*
X168009000Y-86049000D01*
X169811000Y-86049000D01*
X169811000Y-87851000D01*
X169811000Y-87851000D01*
G37*
G36*
X91342383Y-86162489D02*
G01*
X91342386Y-86162490D01*
X91342385Y-86162490D01*
X91406258Y-86188946D01*
X91463748Y-86227360D01*
X91512640Y-86276252D01*
X91551054Y-86333742D01*
X91572624Y-86385818D01*
X91577511Y-86397617D01*
X91591000Y-86465430D01*
X91591000Y-86534570D01*
X91577511Y-86602383D01*
X91577510Y-86602385D01*
X91551054Y-86666258D01*
X91512640Y-86723748D01*
X91463748Y-86772640D01*
X91406258Y-86811054D01*
X91354182Y-86832624D01*
X91342383Y-86837511D01*
X91274570Y-86851000D01*
X91205430Y-86851000D01*
X91137617Y-86837511D01*
X91125818Y-86832624D01*
X91073742Y-86811054D01*
X91016252Y-86772640D01*
X90967360Y-86723748D01*
X90928946Y-86666258D01*
X90902490Y-86602385D01*
X90902489Y-86602383D01*
X90889000Y-86534570D01*
X90889000Y-86465430D01*
X90902489Y-86397617D01*
X90907376Y-86385818D01*
X90928946Y-86333742D01*
X90967360Y-86276252D01*
X91016252Y-86227360D01*
X91073742Y-86188946D01*
X91137615Y-86162490D01*
X91137614Y-86162490D01*
X91137617Y-86162489D01*
X91205430Y-86149000D01*
X91274570Y-86149000D01*
X91342383Y-86162489D01*
X91342383Y-86162489D01*
G37*
G36*
X65362383Y-86162489D02*
G01*
X65362386Y-86162490D01*
X65362385Y-86162490D01*
X65426258Y-86188946D01*
X65483748Y-86227360D01*
X65532640Y-86276252D01*
X65571054Y-86333742D01*
X65592624Y-86385818D01*
X65597511Y-86397617D01*
X65611000Y-86465430D01*
X65611000Y-86534570D01*
X65597511Y-86602383D01*
X65597510Y-86602385D01*
X65571054Y-86666258D01*
X65532640Y-86723748D01*
X65483748Y-86772640D01*
X65426258Y-86811054D01*
X65374182Y-86832624D01*
X65362383Y-86837511D01*
X65294570Y-86851000D01*
X65225430Y-86851000D01*
X65157617Y-86837511D01*
X65145818Y-86832624D01*
X65093742Y-86811054D01*
X65036252Y-86772640D01*
X64987360Y-86723748D01*
X64948946Y-86666258D01*
X64922490Y-86602385D01*
X64922489Y-86602383D01*
X64909000Y-86534570D01*
X64909000Y-86465430D01*
X64922489Y-86397617D01*
X64927376Y-86385818D01*
X64948946Y-86333742D01*
X64987360Y-86276252D01*
X65036252Y-86227360D01*
X65093742Y-86188946D01*
X65157615Y-86162490D01*
X65157614Y-86162490D01*
X65157617Y-86162489D01*
X65225430Y-86149000D01*
X65294570Y-86149000D01*
X65362383Y-86162489D01*
X65362383Y-86162489D01*
G37*
G36*
X169020442Y-83515518D02*
G01*
X169086627Y-83522037D01*
X169256466Y-83573557D01*
X169412991Y-83657222D01*
X169448729Y-83686552D01*
X169550186Y-83769814D01*
X169633448Y-83871271D01*
X169662778Y-83907009D01*
X169746443Y-84063534D01*
X169797963Y-84233373D01*
X169815359Y-84410000D01*
X169797963Y-84586627D01*
X169746443Y-84756466D01*
X169662778Y-84912991D01*
X169633448Y-84948729D01*
X169550186Y-85050186D01*
X169448729Y-85133448D01*
X169412991Y-85162778D01*
X169256466Y-85246443D01*
X169086627Y-85297963D01*
X169020443Y-85304481D01*
X168954260Y-85311000D01*
X168865740Y-85311000D01*
X168799557Y-85304481D01*
X168733373Y-85297963D01*
X168563534Y-85246443D01*
X168407009Y-85162778D01*
X168371271Y-85133448D01*
X168269814Y-85050186D01*
X168186552Y-84948729D01*
X168157222Y-84912991D01*
X168073557Y-84756466D01*
X168022037Y-84586627D01*
X168004641Y-84410000D01*
X168022037Y-84233373D01*
X168073557Y-84063534D01*
X168157222Y-83907009D01*
X168186552Y-83871271D01*
X168269814Y-83769814D01*
X168371271Y-83686552D01*
X168407009Y-83657222D01*
X168563534Y-83573557D01*
X168733373Y-83522037D01*
X168799558Y-83515518D01*
X168865740Y-83509000D01*
X168954260Y-83509000D01*
X169020442Y-83515518D01*
X169020442Y-83515518D01*
G37*
G36*
X59800442Y-83515518D02*
G01*
X59866627Y-83522037D01*
X60036466Y-83573557D01*
X60192991Y-83657222D01*
X60228729Y-83686552D01*
X60330186Y-83769814D01*
X60413448Y-83871271D01*
X60442778Y-83907009D01*
X60526443Y-84063534D01*
X60577963Y-84233373D01*
X60595359Y-84410000D01*
X60577963Y-84586627D01*
X60526443Y-84756466D01*
X60442778Y-84912991D01*
X60413448Y-84948729D01*
X60330186Y-85050186D01*
X60228729Y-85133448D01*
X60192991Y-85162778D01*
X60036466Y-85246443D01*
X59866627Y-85297963D01*
X59800443Y-85304481D01*
X59734260Y-85311000D01*
X59645740Y-85311000D01*
X59579557Y-85304481D01*
X59513373Y-85297963D01*
X59343534Y-85246443D01*
X59187009Y-85162778D01*
X59151271Y-85133448D01*
X59049814Y-85050186D01*
X58966552Y-84948729D01*
X58937222Y-84912991D01*
X58853557Y-84756466D01*
X58802037Y-84586627D01*
X58784641Y-84410000D01*
X58802037Y-84233373D01*
X58853557Y-84063534D01*
X58937222Y-83907009D01*
X58966552Y-83871271D01*
X59049814Y-83769814D01*
X59151271Y-83686552D01*
X59187009Y-83657222D01*
X59343534Y-83573557D01*
X59513373Y-83522037D01*
X59579558Y-83515518D01*
X59645740Y-83509000D01*
X59734260Y-83509000D01*
X59800442Y-83515518D01*
X59800442Y-83515518D01*
G37*
G36*
X151577477Y-74623892D02*
G01*
X151889144Y-74752989D01*
X152405707Y-74966956D01*
X153151093Y-75465008D01*
X153784992Y-76098907D01*
X154283044Y-76844293D01*
X154468900Y-77292989D01*
X154626108Y-77672523D01*
X154801000Y-78551764D01*
X154801000Y-79448236D01*
X154626108Y-80327477D01*
X154484006Y-80670541D01*
X154283044Y-81155707D01*
X153784992Y-81901093D01*
X153151093Y-82534992D01*
X152405707Y-83033044D01*
X151920541Y-83234006D01*
X151577477Y-83376108D01*
X150698236Y-83551000D01*
X149801764Y-83551000D01*
X148922523Y-83376108D01*
X148579459Y-83234006D01*
X148094293Y-83033044D01*
X147348907Y-82534992D01*
X146715008Y-81901093D01*
X146216956Y-81155707D01*
X146015994Y-80670541D01*
X145873892Y-80327477D01*
X145699000Y-79448236D01*
X145699000Y-78551764D01*
X145873892Y-77672523D01*
X146031100Y-77292989D01*
X146216956Y-76844293D01*
X146715008Y-76098907D01*
X147348907Y-75465008D01*
X148094293Y-74966956D01*
X148610856Y-74752989D01*
X148922523Y-74623892D01*
X149801764Y-74449000D01*
X150698236Y-74449000D01*
X151577477Y-74623892D01*
X151577477Y-74623892D01*
G37*
G36*
X79577477Y-74623892D02*
G01*
X79889144Y-74752989D01*
X80405707Y-74966956D01*
X81151093Y-75465008D01*
X81784992Y-76098907D01*
X82283044Y-76844293D01*
X82468900Y-77292989D01*
X82626108Y-77672523D01*
X82801000Y-78551764D01*
X82801000Y-79448236D01*
X82626108Y-80327477D01*
X82484006Y-80670541D01*
X82283044Y-81155707D01*
X81784992Y-81901093D01*
X81151093Y-82534992D01*
X80405707Y-83033044D01*
X79920541Y-83234006D01*
X79577477Y-83376108D01*
X78698236Y-83551000D01*
X77801764Y-83551000D01*
X76922523Y-83376108D01*
X76579459Y-83234006D01*
X76094293Y-83033044D01*
X75348907Y-82534992D01*
X74715008Y-81901093D01*
X74216956Y-81155707D01*
X74015994Y-80670541D01*
X73873892Y-80327477D01*
X73699000Y-79448236D01*
X73699000Y-78551764D01*
X73873892Y-77672523D01*
X74031100Y-77292989D01*
X74216956Y-76844293D01*
X74715008Y-76098907D01*
X75348907Y-75465008D01*
X76094293Y-74966956D01*
X76610856Y-74752989D01*
X76922523Y-74623892D01*
X77801764Y-74449000D01*
X78698236Y-74449000D01*
X79577477Y-74623892D01*
X79577477Y-74623892D01*
G37*
G36*
X169020442Y-80975518D02*
G01*
X169086627Y-80982037D01*
X169256466Y-81033557D01*
X169412991Y-81117222D01*
X169448729Y-81146552D01*
X169550186Y-81229814D01*
X169633448Y-81331271D01*
X169662778Y-81367009D01*
X169746443Y-81523534D01*
X169797963Y-81693373D01*
X169815359Y-81870000D01*
X169797963Y-82046627D01*
X169746443Y-82216466D01*
X169662778Y-82372991D01*
X169633448Y-82408729D01*
X169550186Y-82510186D01*
X169448729Y-82593448D01*
X169412991Y-82622778D01*
X169256466Y-82706443D01*
X169086627Y-82757963D01*
X169020443Y-82764481D01*
X168954260Y-82771000D01*
X168865740Y-82771000D01*
X168799557Y-82764481D01*
X168733373Y-82757963D01*
X168563534Y-82706443D01*
X168407009Y-82622778D01*
X168371271Y-82593448D01*
X168269814Y-82510186D01*
X168186552Y-82408729D01*
X168157222Y-82372991D01*
X168073557Y-82216466D01*
X168022037Y-82046627D01*
X168004641Y-81870000D01*
X168022037Y-81693373D01*
X168073557Y-81523534D01*
X168157222Y-81367009D01*
X168186552Y-81331271D01*
X168269814Y-81229814D01*
X168371271Y-81146552D01*
X168407009Y-81117222D01*
X168563534Y-81033557D01*
X168733373Y-80982037D01*
X168799558Y-80975518D01*
X168865740Y-80969000D01*
X168954260Y-80969000D01*
X169020442Y-80975518D01*
X169020442Y-80975518D01*
G37*
G36*
X59800442Y-80975518D02*
G01*
X59866627Y-80982037D01*
X60036466Y-81033557D01*
X60192991Y-81117222D01*
X60228729Y-81146552D01*
X60330186Y-81229814D01*
X60413448Y-81331271D01*
X60442778Y-81367009D01*
X60526443Y-81523534D01*
X60577963Y-81693373D01*
X60595359Y-81870000D01*
X60577963Y-82046627D01*
X60526443Y-82216466D01*
X60442778Y-82372991D01*
X60413448Y-82408729D01*
X60330186Y-82510186D01*
X60228729Y-82593448D01*
X60192991Y-82622778D01*
X60036466Y-82706443D01*
X59866627Y-82757963D01*
X59800443Y-82764481D01*
X59734260Y-82771000D01*
X59645740Y-82771000D01*
X59579557Y-82764481D01*
X59513373Y-82757963D01*
X59343534Y-82706443D01*
X59187009Y-82622778D01*
X59151271Y-82593448D01*
X59049814Y-82510186D01*
X58966552Y-82408729D01*
X58937222Y-82372991D01*
X58853557Y-82216466D01*
X58802037Y-82046627D01*
X58784641Y-81870000D01*
X58802037Y-81693373D01*
X58853557Y-81523534D01*
X58937222Y-81367009D01*
X58966552Y-81331271D01*
X59049814Y-81229814D01*
X59151271Y-81146552D01*
X59187009Y-81117222D01*
X59343534Y-81033557D01*
X59513373Y-80982037D01*
X59579558Y-80975518D01*
X59645740Y-80969000D01*
X59734260Y-80969000D01*
X59800442Y-80975518D01*
X59800442Y-80975518D01*
G37*
G36*
X59800443Y-78435519D02*
G01*
X59866627Y-78442037D01*
X60036466Y-78493557D01*
X60192991Y-78577222D01*
X60228729Y-78606552D01*
X60330186Y-78689814D01*
X60413448Y-78791271D01*
X60442778Y-78827009D01*
X60526443Y-78983534D01*
X60577963Y-79153373D01*
X60595359Y-79330000D01*
X60577963Y-79506627D01*
X60526443Y-79676466D01*
X60442778Y-79832991D01*
X60413448Y-79868729D01*
X60330186Y-79970186D01*
X60228729Y-80053448D01*
X60192991Y-80082778D01*
X60036466Y-80166443D01*
X59866627Y-80217963D01*
X59800442Y-80224482D01*
X59734260Y-80231000D01*
X59645740Y-80231000D01*
X59579558Y-80224482D01*
X59513373Y-80217963D01*
X59343534Y-80166443D01*
X59187009Y-80082778D01*
X59151271Y-80053448D01*
X59049814Y-79970186D01*
X58966552Y-79868729D01*
X58937222Y-79832991D01*
X58853557Y-79676466D01*
X58802037Y-79506627D01*
X58784641Y-79330000D01*
X58802037Y-79153373D01*
X58853557Y-78983534D01*
X58937222Y-78827009D01*
X58966552Y-78791271D01*
X59049814Y-78689814D01*
X59151271Y-78606552D01*
X59187009Y-78577222D01*
X59343534Y-78493557D01*
X59513373Y-78442037D01*
X59579557Y-78435519D01*
X59645740Y-78429000D01*
X59734260Y-78429000D01*
X59800443Y-78435519D01*
X59800443Y-78435519D01*
G37*
G36*
X169020443Y-78435519D02*
G01*
X169086627Y-78442037D01*
X169256466Y-78493557D01*
X169412991Y-78577222D01*
X169448729Y-78606552D01*
X169550186Y-78689814D01*
X169633448Y-78791271D01*
X169662778Y-78827009D01*
X169746443Y-78983534D01*
X169797963Y-79153373D01*
X169815359Y-79330000D01*
X169797963Y-79506627D01*
X169746443Y-79676466D01*
X169662778Y-79832991D01*
X169633448Y-79868729D01*
X169550186Y-79970186D01*
X169448729Y-80053448D01*
X169412991Y-80082778D01*
X169256466Y-80166443D01*
X169086627Y-80217963D01*
X169020442Y-80224482D01*
X168954260Y-80231000D01*
X168865740Y-80231000D01*
X168799558Y-80224482D01*
X168733373Y-80217963D01*
X168563534Y-80166443D01*
X168407009Y-80082778D01*
X168371271Y-80053448D01*
X168269814Y-79970186D01*
X168186552Y-79868729D01*
X168157222Y-79832991D01*
X168073557Y-79676466D01*
X168022037Y-79506627D01*
X168004641Y-79330000D01*
X168022037Y-79153373D01*
X168073557Y-78983534D01*
X168157222Y-78827009D01*
X168186552Y-78791271D01*
X168269814Y-78689814D01*
X168371271Y-78606552D01*
X168407009Y-78577222D01*
X168563534Y-78493557D01*
X168733373Y-78442037D01*
X168799557Y-78435519D01*
X168865740Y-78429000D01*
X168954260Y-78429000D01*
X169020443Y-78435519D01*
X169020443Y-78435519D01*
G37*
G36*
X59800443Y-75895519D02*
G01*
X59866627Y-75902037D01*
X60036466Y-75953557D01*
X60192991Y-76037222D01*
X60228729Y-76066552D01*
X60330186Y-76149814D01*
X60413448Y-76251271D01*
X60442778Y-76287009D01*
X60526443Y-76443534D01*
X60577963Y-76613373D01*
X60595359Y-76790000D01*
X60577963Y-76966627D01*
X60526443Y-77136466D01*
X60442778Y-77292991D01*
X60413448Y-77328729D01*
X60330186Y-77430186D01*
X60228729Y-77513448D01*
X60192991Y-77542778D01*
X60036466Y-77626443D01*
X59866627Y-77677963D01*
X59800442Y-77684482D01*
X59734260Y-77691000D01*
X59645740Y-77691000D01*
X59579558Y-77684482D01*
X59513373Y-77677963D01*
X59343534Y-77626443D01*
X59187009Y-77542778D01*
X59151271Y-77513448D01*
X59049814Y-77430186D01*
X58966552Y-77328729D01*
X58937222Y-77292991D01*
X58853557Y-77136466D01*
X58802037Y-76966627D01*
X58784641Y-76790000D01*
X58802037Y-76613373D01*
X58853557Y-76443534D01*
X58937222Y-76287009D01*
X58966552Y-76251271D01*
X59049814Y-76149814D01*
X59151271Y-76066552D01*
X59187009Y-76037222D01*
X59343534Y-75953557D01*
X59513373Y-75902037D01*
X59579557Y-75895519D01*
X59645740Y-75889000D01*
X59734260Y-75889000D01*
X59800443Y-75895519D01*
X59800443Y-75895519D01*
G37*
G36*
X169020443Y-75895519D02*
G01*
X169086627Y-75902037D01*
X169256466Y-75953557D01*
X169412991Y-76037222D01*
X169448729Y-76066552D01*
X169550186Y-76149814D01*
X169633448Y-76251271D01*
X169662778Y-76287009D01*
X169746443Y-76443534D01*
X169797963Y-76613373D01*
X169815359Y-76790000D01*
X169797963Y-76966627D01*
X169746443Y-77136466D01*
X169662778Y-77292991D01*
X169633448Y-77328729D01*
X169550186Y-77430186D01*
X169448729Y-77513448D01*
X169412991Y-77542778D01*
X169256466Y-77626443D01*
X169086627Y-77677963D01*
X169020442Y-77684482D01*
X168954260Y-77691000D01*
X168865740Y-77691000D01*
X168799558Y-77684482D01*
X168733373Y-77677963D01*
X168563534Y-77626443D01*
X168407009Y-77542778D01*
X168371271Y-77513448D01*
X168269814Y-77430186D01*
X168186552Y-77328729D01*
X168157222Y-77292991D01*
X168073557Y-77136466D01*
X168022037Y-76966627D01*
X168004641Y-76790000D01*
X168022037Y-76613373D01*
X168073557Y-76443534D01*
X168157222Y-76287009D01*
X168186552Y-76251271D01*
X168269814Y-76149814D01*
X168371271Y-76066552D01*
X168407009Y-76037222D01*
X168563534Y-75953557D01*
X168733373Y-75902037D01*
X168799557Y-75895519D01*
X168865740Y-75889000D01*
X168954260Y-75889000D01*
X169020443Y-75895519D01*
X169020443Y-75895519D01*
G37*
G36*
X59800442Y-73355518D02*
G01*
X59866627Y-73362037D01*
X60036466Y-73413557D01*
X60192991Y-73497222D01*
X60228729Y-73526552D01*
X60330186Y-73609814D01*
X60413448Y-73711271D01*
X60442778Y-73747009D01*
X60526443Y-73903534D01*
X60577963Y-74073373D01*
X60595359Y-74250000D01*
X60577963Y-74426627D01*
X60526443Y-74596466D01*
X60442778Y-74752991D01*
X60413448Y-74788729D01*
X60330186Y-74890186D01*
X60236640Y-74966956D01*
X60192991Y-75002778D01*
X60036466Y-75086443D01*
X59866627Y-75137963D01*
X59800442Y-75144482D01*
X59734260Y-75151000D01*
X59645740Y-75151000D01*
X59579558Y-75144482D01*
X59513373Y-75137963D01*
X59343534Y-75086443D01*
X59187009Y-75002778D01*
X59143360Y-74966956D01*
X59049814Y-74890186D01*
X58966552Y-74788729D01*
X58937222Y-74752991D01*
X58853557Y-74596466D01*
X58802037Y-74426627D01*
X58784641Y-74250000D01*
X58802037Y-74073373D01*
X58853557Y-73903534D01*
X58937222Y-73747009D01*
X58966552Y-73711271D01*
X59049814Y-73609814D01*
X59151271Y-73526552D01*
X59187009Y-73497222D01*
X59343534Y-73413557D01*
X59513373Y-73362037D01*
X59579558Y-73355518D01*
X59645740Y-73349000D01*
X59734260Y-73349000D01*
X59800442Y-73355518D01*
X59800442Y-73355518D01*
G37*
G36*
X169020442Y-73355518D02*
G01*
X169086627Y-73362037D01*
X169256466Y-73413557D01*
X169412991Y-73497222D01*
X169448729Y-73526552D01*
X169550186Y-73609814D01*
X169633448Y-73711271D01*
X169662778Y-73747009D01*
X169746443Y-73903534D01*
X169797963Y-74073373D01*
X169815359Y-74250000D01*
X169797963Y-74426627D01*
X169746443Y-74596466D01*
X169662778Y-74752991D01*
X169633448Y-74788729D01*
X169550186Y-74890186D01*
X169456640Y-74966956D01*
X169412991Y-75002778D01*
X169256466Y-75086443D01*
X169086627Y-75137963D01*
X169020442Y-75144482D01*
X168954260Y-75151000D01*
X168865740Y-75151000D01*
X168799558Y-75144482D01*
X168733373Y-75137963D01*
X168563534Y-75086443D01*
X168407009Y-75002778D01*
X168363360Y-74966956D01*
X168269814Y-74890186D01*
X168186552Y-74788729D01*
X168157222Y-74752991D01*
X168073557Y-74596466D01*
X168022037Y-74426627D01*
X168004641Y-74250000D01*
X168022037Y-74073373D01*
X168073557Y-73903534D01*
X168157222Y-73747009D01*
X168186552Y-73711271D01*
X168269814Y-73609814D01*
X168371271Y-73526552D01*
X168407009Y-73497222D01*
X168563534Y-73413557D01*
X168733373Y-73362037D01*
X168799558Y-73355518D01*
X168865740Y-73349000D01*
X168954260Y-73349000D01*
X169020442Y-73355518D01*
X169020442Y-73355518D01*
G37*
G36*
X59800442Y-70815518D02*
G01*
X59866627Y-70822037D01*
X60036466Y-70873557D01*
X60192991Y-70957222D01*
X60228729Y-70986552D01*
X60330186Y-71069814D01*
X60395171Y-71149000D01*
X60442778Y-71207009D01*
X60526443Y-71363534D01*
X60577963Y-71533373D01*
X60595359Y-71710000D01*
X60577963Y-71886627D01*
X60526443Y-72056466D01*
X60442778Y-72212991D01*
X60413448Y-72248729D01*
X60330186Y-72350186D01*
X60228729Y-72433448D01*
X60192991Y-72462778D01*
X60036466Y-72546443D01*
X59866627Y-72597963D01*
X59800443Y-72604481D01*
X59734260Y-72611000D01*
X59645740Y-72611000D01*
X59579557Y-72604481D01*
X59513373Y-72597963D01*
X59343534Y-72546443D01*
X59187009Y-72462778D01*
X59151271Y-72433448D01*
X59049814Y-72350186D01*
X58966552Y-72248729D01*
X58937222Y-72212991D01*
X58853557Y-72056466D01*
X58802037Y-71886627D01*
X58784641Y-71710000D01*
X58802037Y-71533373D01*
X58853557Y-71363534D01*
X58937222Y-71207009D01*
X58984829Y-71149000D01*
X59049814Y-71069814D01*
X59151271Y-70986552D01*
X59187009Y-70957222D01*
X59343534Y-70873557D01*
X59513373Y-70822037D01*
X59579558Y-70815518D01*
X59645740Y-70809000D01*
X59734260Y-70809000D01*
X59800442Y-70815518D01*
X59800442Y-70815518D01*
G37*
G36*
X169020442Y-70815518D02*
G01*
X169086627Y-70822037D01*
X169256466Y-70873557D01*
X169412991Y-70957222D01*
X169448729Y-70986552D01*
X169550186Y-71069814D01*
X169615171Y-71149000D01*
X169662778Y-71207009D01*
X169746443Y-71363534D01*
X169797963Y-71533373D01*
X169815359Y-71710000D01*
X169797963Y-71886627D01*
X169746443Y-72056466D01*
X169662778Y-72212991D01*
X169633448Y-72248729D01*
X169550186Y-72350186D01*
X169448729Y-72433448D01*
X169412991Y-72462778D01*
X169256466Y-72546443D01*
X169086627Y-72597963D01*
X169020443Y-72604481D01*
X168954260Y-72611000D01*
X168865740Y-72611000D01*
X168799557Y-72604481D01*
X168733373Y-72597963D01*
X168563534Y-72546443D01*
X168407009Y-72462778D01*
X168371271Y-72433448D01*
X168269814Y-72350186D01*
X168186552Y-72248729D01*
X168157222Y-72212991D01*
X168073557Y-72056466D01*
X168022037Y-71886627D01*
X168004641Y-71710000D01*
X168022037Y-71533373D01*
X168073557Y-71363534D01*
X168157222Y-71207009D01*
X168204829Y-71149000D01*
X168269814Y-71069814D01*
X168371271Y-70986552D01*
X168407009Y-70957222D01*
X168563534Y-70873557D01*
X168733373Y-70822037D01*
X168799558Y-70815518D01*
X168865740Y-70809000D01*
X168954260Y-70809000D01*
X169020442Y-70815518D01*
X169020442Y-70815518D01*
G37*
G36*
X163342383Y-71162489D02*
G01*
X163342386Y-71162490D01*
X163342385Y-71162490D01*
X163406258Y-71188946D01*
X163463748Y-71227360D01*
X163512640Y-71276252D01*
X163551054Y-71333742D01*
X163572624Y-71385818D01*
X163577511Y-71397617D01*
X163591000Y-71465430D01*
X163591000Y-71534570D01*
X163577511Y-71602383D01*
X163577510Y-71602385D01*
X163551054Y-71666258D01*
X163512640Y-71723748D01*
X163463748Y-71772640D01*
X163406258Y-71811054D01*
X163354182Y-71832624D01*
X163342383Y-71837511D01*
X163274570Y-71851000D01*
X163205430Y-71851000D01*
X163137617Y-71837511D01*
X163125818Y-71832624D01*
X163073742Y-71811054D01*
X163016252Y-71772640D01*
X162967360Y-71723748D01*
X162928946Y-71666258D01*
X162902490Y-71602385D01*
X162902489Y-71602383D01*
X162889000Y-71534570D01*
X162889000Y-71465430D01*
X162902489Y-71397617D01*
X162907376Y-71385818D01*
X162928946Y-71333742D01*
X162967360Y-71276252D01*
X163016252Y-71227360D01*
X163073742Y-71188946D01*
X163137615Y-71162490D01*
X163137614Y-71162490D01*
X163137617Y-71162489D01*
X163205430Y-71149000D01*
X163274570Y-71149000D01*
X163342383Y-71162489D01*
X163342383Y-71162489D01*
G37*
G36*
X137362383Y-71162489D02*
G01*
X137362386Y-71162490D01*
X137362385Y-71162490D01*
X137426258Y-71188946D01*
X137483748Y-71227360D01*
X137532640Y-71276252D01*
X137571054Y-71333742D01*
X137592624Y-71385818D01*
X137597511Y-71397617D01*
X137611000Y-71465430D01*
X137611000Y-71534570D01*
X137597511Y-71602383D01*
X137597510Y-71602385D01*
X137571054Y-71666258D01*
X137532640Y-71723748D01*
X137483748Y-71772640D01*
X137426258Y-71811054D01*
X137374182Y-71832624D01*
X137362383Y-71837511D01*
X137294570Y-71851000D01*
X137225430Y-71851000D01*
X137157617Y-71837511D01*
X137145818Y-71832624D01*
X137093742Y-71811054D01*
X137036252Y-71772640D01*
X136987360Y-71723748D01*
X136948946Y-71666258D01*
X136922490Y-71602385D01*
X136922489Y-71602383D01*
X136909000Y-71534570D01*
X136909000Y-71465430D01*
X136922489Y-71397617D01*
X136927376Y-71385818D01*
X136948946Y-71333742D01*
X136987360Y-71276252D01*
X137036252Y-71227360D01*
X137093742Y-71188946D01*
X137157615Y-71162490D01*
X137157614Y-71162490D01*
X137157617Y-71162489D01*
X137225430Y-71149000D01*
X137294570Y-71149000D01*
X137362383Y-71162489D01*
X137362383Y-71162489D01*
G37*
G36*
X78352383Y-63662489D02*
G01*
X78352386Y-63662490D01*
X78352385Y-63662490D01*
X78416258Y-63688946D01*
X78473748Y-63727360D01*
X78522640Y-63776252D01*
X78561054Y-63833742D01*
X78582624Y-63885818D01*
X78587511Y-63897617D01*
X78601000Y-63965430D01*
X78601000Y-64034570D01*
X78587511Y-64102383D01*
X78587510Y-64102385D01*
X78561054Y-64166258D01*
X78522640Y-64223748D01*
X78473748Y-64272640D01*
X78416258Y-64311054D01*
X78364182Y-64332624D01*
X78352383Y-64337511D01*
X78284570Y-64351000D01*
X78215430Y-64351000D01*
X78147617Y-64337511D01*
X78135818Y-64332624D01*
X78083742Y-64311054D01*
X78026252Y-64272640D01*
X77977360Y-64223748D01*
X77938946Y-64166258D01*
X77912490Y-64102385D01*
X77912489Y-64102383D01*
X77899000Y-64034570D01*
X77899000Y-63965430D01*
X77912489Y-63897617D01*
X77917376Y-63885818D01*
X77938946Y-63833742D01*
X77977360Y-63776252D01*
X78026252Y-63727360D01*
X78083742Y-63688946D01*
X78147615Y-63662490D01*
X78147614Y-63662490D01*
X78147617Y-63662489D01*
X78215430Y-63649000D01*
X78284570Y-63649000D01*
X78352383Y-63662489D01*
X78352383Y-63662489D01*
G37*
G36*
X111820442Y-57855518D02*
G01*
X111886627Y-57862037D01*
X112056466Y-57913557D01*
X112212991Y-57997222D01*
X112248729Y-58026552D01*
X112350186Y-58109814D01*
X112433448Y-58211271D01*
X112462778Y-58247009D01*
X112546443Y-58403534D01*
X112597963Y-58573373D01*
X112615359Y-58750000D01*
X112597963Y-58926627D01*
X112546443Y-59096466D01*
X112462778Y-59252991D01*
X112433448Y-59288729D01*
X112350186Y-59390186D01*
X112248729Y-59473448D01*
X112212991Y-59502778D01*
X112056466Y-59586443D01*
X111886627Y-59637963D01*
X111820442Y-59644482D01*
X111754260Y-59651000D01*
X111665740Y-59651000D01*
X111599558Y-59644482D01*
X111533373Y-59637963D01*
X111363534Y-59586443D01*
X111207009Y-59502778D01*
X111171271Y-59473448D01*
X111069814Y-59390186D01*
X110986552Y-59288729D01*
X110957222Y-59252991D01*
X110873557Y-59096466D01*
X110822037Y-58926627D01*
X110804641Y-58750000D01*
X110822037Y-58573373D01*
X110873557Y-58403534D01*
X110957222Y-58247009D01*
X110986552Y-58211271D01*
X111069814Y-58109814D01*
X111171271Y-58026552D01*
X111207009Y-57997222D01*
X111363534Y-57913557D01*
X111533373Y-57862037D01*
X111599558Y-57855518D01*
X111665740Y-57849000D01*
X111754260Y-57849000D01*
X111820442Y-57855518D01*
X111820442Y-57855518D01*
G37*
G36*
X121980442Y-57855518D02*
G01*
X122046627Y-57862037D01*
X122216466Y-57913557D01*
X122372991Y-57997222D01*
X122408729Y-58026552D01*
X122510186Y-58109814D01*
X122593448Y-58211271D01*
X122622778Y-58247009D01*
X122706443Y-58403534D01*
X122757963Y-58573373D01*
X122775359Y-58750000D01*
X122757963Y-58926627D01*
X122706443Y-59096466D01*
X122622778Y-59252991D01*
X122593448Y-59288729D01*
X122510186Y-59390186D01*
X122408729Y-59473448D01*
X122372991Y-59502778D01*
X122216466Y-59586443D01*
X122046627Y-59637963D01*
X121980442Y-59644482D01*
X121914260Y-59651000D01*
X121825740Y-59651000D01*
X121759558Y-59644482D01*
X121693373Y-59637963D01*
X121523534Y-59586443D01*
X121367009Y-59502778D01*
X121331271Y-59473448D01*
X121229814Y-59390186D01*
X121146552Y-59288729D01*
X121117222Y-59252991D01*
X121033557Y-59096466D01*
X120982037Y-58926627D01*
X120964641Y-58750000D01*
X120982037Y-58573373D01*
X121033557Y-58403534D01*
X121117222Y-58247009D01*
X121146552Y-58211271D01*
X121229814Y-58109814D01*
X121331271Y-58026552D01*
X121367009Y-57997222D01*
X121523534Y-57913557D01*
X121693373Y-57862037D01*
X121759558Y-57855518D01*
X121825740Y-57849000D01*
X121914260Y-57849000D01*
X121980442Y-57855518D01*
X121980442Y-57855518D01*
G37*
G36*
X119440442Y-57855518D02*
G01*
X119506627Y-57862037D01*
X119676466Y-57913557D01*
X119832991Y-57997222D01*
X119868729Y-58026552D01*
X119970186Y-58109814D01*
X120053448Y-58211271D01*
X120082778Y-58247009D01*
X120166443Y-58403534D01*
X120217963Y-58573373D01*
X120235359Y-58750000D01*
X120217963Y-58926627D01*
X120166443Y-59096466D01*
X120082778Y-59252991D01*
X120053448Y-59288729D01*
X119970186Y-59390186D01*
X119868729Y-59473448D01*
X119832991Y-59502778D01*
X119676466Y-59586443D01*
X119506627Y-59637963D01*
X119440442Y-59644482D01*
X119374260Y-59651000D01*
X119285740Y-59651000D01*
X119219558Y-59644482D01*
X119153373Y-59637963D01*
X118983534Y-59586443D01*
X118827009Y-59502778D01*
X118791271Y-59473448D01*
X118689814Y-59390186D01*
X118606552Y-59288729D01*
X118577222Y-59252991D01*
X118493557Y-59096466D01*
X118442037Y-58926627D01*
X118424641Y-58750000D01*
X118442037Y-58573373D01*
X118493557Y-58403534D01*
X118577222Y-58247009D01*
X118606552Y-58211271D01*
X118689814Y-58109814D01*
X118791271Y-58026552D01*
X118827009Y-57997222D01*
X118983534Y-57913557D01*
X119153373Y-57862037D01*
X119219558Y-57855518D01*
X119285740Y-57849000D01*
X119374260Y-57849000D01*
X119440442Y-57855518D01*
X119440442Y-57855518D01*
G37*
G36*
X114360442Y-57855518D02*
G01*
X114426627Y-57862037D01*
X114596466Y-57913557D01*
X114752991Y-57997222D01*
X114788729Y-58026552D01*
X114890186Y-58109814D01*
X114973448Y-58211271D01*
X115002778Y-58247009D01*
X115086443Y-58403534D01*
X115137963Y-58573373D01*
X115155359Y-58750000D01*
X115137963Y-58926627D01*
X115086443Y-59096466D01*
X115002778Y-59252991D01*
X114973448Y-59288729D01*
X114890186Y-59390186D01*
X114788729Y-59473448D01*
X114752991Y-59502778D01*
X114596466Y-59586443D01*
X114426627Y-59637963D01*
X114360442Y-59644482D01*
X114294260Y-59651000D01*
X114205740Y-59651000D01*
X114139558Y-59644482D01*
X114073373Y-59637963D01*
X113903534Y-59586443D01*
X113747009Y-59502778D01*
X113711271Y-59473448D01*
X113609814Y-59390186D01*
X113526552Y-59288729D01*
X113497222Y-59252991D01*
X113413557Y-59096466D01*
X113362037Y-58926627D01*
X113344641Y-58750000D01*
X113362037Y-58573373D01*
X113413557Y-58403534D01*
X113497222Y-58247009D01*
X113526552Y-58211271D01*
X113609814Y-58109814D01*
X113711271Y-58026552D01*
X113747009Y-57997222D01*
X113903534Y-57913557D01*
X114073373Y-57862037D01*
X114139558Y-57855518D01*
X114205740Y-57849000D01*
X114294260Y-57849000D01*
X114360442Y-57855518D01*
X114360442Y-57855518D01*
G37*
G36*
X109280442Y-57855518D02*
G01*
X109346627Y-57862037D01*
X109516466Y-57913557D01*
X109672991Y-57997222D01*
X109708729Y-58026552D01*
X109810186Y-58109814D01*
X109893448Y-58211271D01*
X109922778Y-58247009D01*
X110006443Y-58403534D01*
X110057963Y-58573373D01*
X110075359Y-58750000D01*
X110057963Y-58926627D01*
X110006443Y-59096466D01*
X109922778Y-59252991D01*
X109893448Y-59288729D01*
X109810186Y-59390186D01*
X109708729Y-59473448D01*
X109672991Y-59502778D01*
X109516466Y-59586443D01*
X109346627Y-59637963D01*
X109280442Y-59644482D01*
X109214260Y-59651000D01*
X109125740Y-59651000D01*
X109059558Y-59644482D01*
X108993373Y-59637963D01*
X108823534Y-59586443D01*
X108667009Y-59502778D01*
X108631271Y-59473448D01*
X108529814Y-59390186D01*
X108446552Y-59288729D01*
X108417222Y-59252991D01*
X108333557Y-59096466D01*
X108282037Y-58926627D01*
X108264641Y-58750000D01*
X108282037Y-58573373D01*
X108333557Y-58403534D01*
X108417222Y-58247009D01*
X108446552Y-58211271D01*
X108529814Y-58109814D01*
X108631271Y-58026552D01*
X108667009Y-57997222D01*
X108823534Y-57913557D01*
X108993373Y-57862037D01*
X109059558Y-57855518D01*
X109125740Y-57849000D01*
X109214260Y-57849000D01*
X109280442Y-57855518D01*
X109280442Y-57855518D01*
G37*
G36*
X107531000Y-59651000D02*
G01*
X105729000Y-59651000D01*
X105729000Y-57849000D01*
X107531000Y-57849000D01*
X107531000Y-59651000D01*
X107531000Y-59651000D01*
G37*
G36*
X116900442Y-57855518D02*
G01*
X116966627Y-57862037D01*
X117136466Y-57913557D01*
X117292991Y-57997222D01*
X117328729Y-58026552D01*
X117430186Y-58109814D01*
X117513448Y-58211271D01*
X117542778Y-58247009D01*
X117626443Y-58403534D01*
X117677963Y-58573373D01*
X117695359Y-58750000D01*
X117677963Y-58926627D01*
X117626443Y-59096466D01*
X117542778Y-59252991D01*
X117513448Y-59288729D01*
X117430186Y-59390186D01*
X117328729Y-59473448D01*
X117292991Y-59502778D01*
X117136466Y-59586443D01*
X116966627Y-59637963D01*
X116900442Y-59644482D01*
X116834260Y-59651000D01*
X116745740Y-59651000D01*
X116679558Y-59644482D01*
X116613373Y-59637963D01*
X116443534Y-59586443D01*
X116287009Y-59502778D01*
X116251271Y-59473448D01*
X116149814Y-59390186D01*
X116066552Y-59288729D01*
X116037222Y-59252991D01*
X115953557Y-59096466D01*
X115902037Y-58926627D01*
X115884641Y-58750000D01*
X115902037Y-58573373D01*
X115953557Y-58403534D01*
X116037222Y-58247009D01*
X116066552Y-58211271D01*
X116149814Y-58109814D01*
X116251271Y-58026552D01*
X116287009Y-57997222D01*
X116443534Y-57913557D01*
X116613373Y-57862037D01*
X116679558Y-57855518D01*
X116745740Y-57849000D01*
X116834260Y-57849000D01*
X116900442Y-57855518D01*
X116900442Y-57855518D01*
G37*
G36*
X146964795Y-54910156D02*
G01*
X147071150Y-54931311D01*
X147171334Y-54972809D01*
X147271520Y-55014307D01*
X147451844Y-55134795D01*
X147605205Y-55288156D01*
X147725693Y-55468480D01*
X147808689Y-55668851D01*
X147851000Y-55881560D01*
X147851000Y-56098440D01*
X147808689Y-56311149D01*
X147725693Y-56511520D01*
X147605205Y-56691844D01*
X147451844Y-56845205D01*
X147271520Y-56965693D01*
X147071150Y-57048689D01*
X146964794Y-57069845D01*
X146858440Y-57091000D01*
X146641560Y-57091000D01*
X146535206Y-57069845D01*
X146428850Y-57048689D01*
X146328666Y-57007191D01*
X146228480Y-56965693D01*
X146048156Y-56845205D01*
X145894795Y-56691844D01*
X145774307Y-56511520D01*
X145691311Y-56311149D01*
X145649000Y-56098440D01*
X145649000Y-55881560D01*
X145691311Y-55668851D01*
X145774307Y-55468480D01*
X145894795Y-55288156D01*
X146048156Y-55134795D01*
X146228480Y-55014307D01*
X146328666Y-54972809D01*
X146428850Y-54931311D01*
X146535205Y-54910156D01*
X146641560Y-54889000D01*
X146858440Y-54889000D01*
X146964795Y-54910156D01*
X146964795Y-54910156D01*
G37*
G36*
X153974795Y-54910156D02*
G01*
X154081150Y-54931311D01*
X154181334Y-54972809D01*
X154281520Y-55014307D01*
X154461844Y-55134795D01*
X154615205Y-55288156D01*
X154735693Y-55468480D01*
X154818689Y-55668851D01*
X154861000Y-55881560D01*
X154861000Y-56098440D01*
X154818689Y-56311149D01*
X154735693Y-56511520D01*
X154615205Y-56691844D01*
X154461844Y-56845205D01*
X154281520Y-56965693D01*
X154081150Y-57048689D01*
X153974794Y-57069845D01*
X153868440Y-57091000D01*
X153651560Y-57091000D01*
X153545206Y-57069845D01*
X153438850Y-57048689D01*
X153338666Y-57007191D01*
X153238480Y-56965693D01*
X153058156Y-56845205D01*
X152904795Y-56691844D01*
X152784307Y-56511520D01*
X152701311Y-56311149D01*
X152659000Y-56098440D01*
X152659000Y-55881560D01*
X152701311Y-55668851D01*
X152784307Y-55468480D01*
X152904795Y-55288156D01*
X153058156Y-55134795D01*
X153238480Y-55014307D01*
X153338666Y-54972809D01*
X153438850Y-54931311D01*
X153545205Y-54910156D01*
X153651560Y-54889000D01*
X153868440Y-54889000D01*
X153974795Y-54910156D01*
X153974795Y-54910156D01*
G37*
G36*
X81974795Y-54910156D02*
G01*
X82081150Y-54931311D01*
X82181334Y-54972809D01*
X82281520Y-55014307D01*
X82461844Y-55134795D01*
X82615205Y-55288156D01*
X82735693Y-55468480D01*
X82818689Y-55668851D01*
X82861000Y-55881560D01*
X82861000Y-56098440D01*
X82818689Y-56311149D01*
X82735693Y-56511520D01*
X82615205Y-56691844D01*
X82461844Y-56845205D01*
X82281520Y-56965693D01*
X82181334Y-57007191D01*
X82081150Y-57048689D01*
X81974794Y-57069845D01*
X81868440Y-57091000D01*
X81651560Y-57091000D01*
X81545206Y-57069845D01*
X81438850Y-57048689D01*
X81338666Y-57007191D01*
X81238480Y-56965693D01*
X81058156Y-56845205D01*
X80904795Y-56691844D01*
X80784307Y-56511520D01*
X80701311Y-56311149D01*
X80659000Y-56098440D01*
X80659000Y-55881560D01*
X80701311Y-55668851D01*
X80784307Y-55468480D01*
X80904795Y-55288156D01*
X81058156Y-55134795D01*
X81238480Y-55014307D01*
X81338666Y-54972809D01*
X81438850Y-54931311D01*
X81545205Y-54910156D01*
X81651560Y-54889000D01*
X81868440Y-54889000D01*
X81974795Y-54910156D01*
X81974795Y-54910156D01*
G37*
G36*
X74964795Y-54910156D02*
G01*
X75071150Y-54931311D01*
X75171334Y-54972809D01*
X75271520Y-55014307D01*
X75451844Y-55134795D01*
X75605205Y-55288156D01*
X75725693Y-55468480D01*
X75808689Y-55668851D01*
X75851000Y-55881560D01*
X75851000Y-56098440D01*
X75808689Y-56311149D01*
X75725693Y-56511520D01*
X75605205Y-56691844D01*
X75451844Y-56845205D01*
X75271520Y-56965693D01*
X75171334Y-57007191D01*
X75071150Y-57048689D01*
X74964794Y-57069845D01*
X74858440Y-57091000D01*
X74641560Y-57091000D01*
X74535206Y-57069845D01*
X74428850Y-57048689D01*
X74328666Y-57007191D01*
X74228480Y-56965693D01*
X74048156Y-56845205D01*
X73894795Y-56691844D01*
X73774307Y-56511520D01*
X73691311Y-56311149D01*
X73649000Y-56098440D01*
X73649000Y-55881560D01*
X73691311Y-55668851D01*
X73774307Y-55468480D01*
X73894795Y-55288156D01*
X74048156Y-55134795D01*
X74228480Y-55014307D01*
X74328666Y-54972809D01*
X74428850Y-54931311D01*
X74535205Y-54910156D01*
X74641560Y-54889000D01*
X74858440Y-54889000D01*
X74964795Y-54910156D01*
X74964795Y-54910156D01*
G37*
G36*
X175854048Y-51696442D02*
G01*
X176146413Y-51785130D01*
X176146415Y-51785131D01*
X176415856Y-51929150D01*
X176415858Y-51929151D01*
X176415857Y-51929151D01*
X176652029Y-52122971D01*
X176739395Y-52229426D01*
X176845850Y-52359142D01*
X176960693Y-52574000D01*
X176989870Y-52628586D01*
X177078558Y-52920951D01*
X177101000Y-53148810D01*
X177101000Y-53951189D01*
X177078558Y-54179048D01*
X177003646Y-54426000D01*
X176989869Y-54471417D01*
X176845850Y-54740858D01*
X176652029Y-54977029D01*
X176415858Y-55170850D01*
X176146416Y-55314869D01*
X176146414Y-55314870D01*
X175854049Y-55403558D01*
X175550000Y-55433504D01*
X175245952Y-55403558D01*
X174953587Y-55314870D01*
X174953585Y-55314869D01*
X174684144Y-55170850D01*
X174640211Y-55134795D01*
X174447971Y-54977029D01*
X174360605Y-54870574D01*
X174254150Y-54740858D01*
X174110131Y-54471416D01*
X174096354Y-54426000D01*
X174021442Y-54179049D01*
X173999000Y-53951190D01*
X173999000Y-53148811D01*
X174021442Y-52920952D01*
X174110130Y-52628587D01*
X174254151Y-52359143D01*
X174447971Y-52122971D01*
X174554426Y-52035605D01*
X174684142Y-51929150D01*
X174953584Y-51785131D01*
X174953586Y-51785130D01*
X175245951Y-51696442D01*
X175550000Y-51666496D01*
X175854048Y-51696442D01*
X175854048Y-51696442D01*
G37*
G36*
X53354048Y-51696442D02*
G01*
X53646413Y-51785130D01*
X53646415Y-51785131D01*
X53915856Y-51929150D01*
X53915858Y-51929151D01*
X53915857Y-51929151D01*
X54152029Y-52122971D01*
X54239395Y-52229426D01*
X54345850Y-52359142D01*
X54460693Y-52574000D01*
X54489870Y-52628586D01*
X54578558Y-52920951D01*
X54601000Y-53148810D01*
X54601000Y-53951189D01*
X54578558Y-54179048D01*
X54503646Y-54426000D01*
X54489869Y-54471417D01*
X54345850Y-54740858D01*
X54152029Y-54977029D01*
X53915858Y-55170850D01*
X53646416Y-55314869D01*
X53646414Y-55314870D01*
X53354049Y-55403558D01*
X53050000Y-55433504D01*
X52745952Y-55403558D01*
X52453587Y-55314870D01*
X52453585Y-55314869D01*
X52184144Y-55170850D01*
X52140211Y-55134795D01*
X51947971Y-54977029D01*
X51860605Y-54870574D01*
X51754150Y-54740858D01*
X51610131Y-54471416D01*
X51596354Y-54426000D01*
X51521442Y-54179049D01*
X51499000Y-53951190D01*
X51499000Y-53148811D01*
X51521442Y-52920952D01*
X51610130Y-52628587D01*
X51754151Y-52359143D01*
X51947971Y-52122971D01*
X52054426Y-52035605D01*
X52184142Y-51929150D01*
X52453584Y-51785131D01*
X52453586Y-51785130D01*
X52745951Y-51696442D01*
X53050000Y-51666496D01*
X53354048Y-51696442D01*
X53354048Y-51696442D01*
G37*
G36*
X153020104Y-52609585D02*
G01*
X153188626Y-52679389D01*
X153340291Y-52780728D01*
X153469272Y-52909709D01*
X153570611Y-53061374D01*
X153640415Y-53229896D01*
X153676000Y-53408797D01*
X153676000Y-53591203D01*
X153640415Y-53770104D01*
X153570611Y-53938626D01*
X153469272Y-54090291D01*
X153340291Y-54219272D01*
X153188626Y-54320611D01*
X153020104Y-54390415D01*
X152841203Y-54426000D01*
X152658797Y-54426000D01*
X152479896Y-54390415D01*
X152311374Y-54320611D01*
X152159709Y-54219272D01*
X152030728Y-54090291D01*
X151929389Y-53938626D01*
X151859585Y-53770104D01*
X151824000Y-53591203D01*
X151824000Y-53408797D01*
X151859585Y-53229896D01*
X151929389Y-53061374D01*
X152030728Y-52909709D01*
X152159709Y-52780728D01*
X152311374Y-52679389D01*
X152479896Y-52609585D01*
X152658797Y-52574000D01*
X152841203Y-52574000D01*
X153020104Y-52609585D01*
X153020104Y-52609585D01*
G37*
G36*
X148020104Y-52609585D02*
G01*
X148188626Y-52679389D01*
X148340291Y-52780728D01*
X148469272Y-52909709D01*
X148570611Y-53061374D01*
X148640415Y-53229896D01*
X148676000Y-53408797D01*
X148676000Y-53591203D01*
X148640415Y-53770104D01*
X148570611Y-53938626D01*
X148469272Y-54090291D01*
X148340291Y-54219272D01*
X148188626Y-54320611D01*
X148020104Y-54390415D01*
X147841203Y-54426000D01*
X147658797Y-54426000D01*
X147479896Y-54390415D01*
X147311374Y-54320611D01*
X147159709Y-54219272D01*
X147030728Y-54090291D01*
X146929389Y-53938626D01*
X146859585Y-53770104D01*
X146824000Y-53591203D01*
X146824000Y-53408797D01*
X146859585Y-53229896D01*
X146929389Y-53061374D01*
X147030728Y-52909709D01*
X147159709Y-52780728D01*
X147311374Y-52679389D01*
X147479896Y-52609585D01*
X147658797Y-52574000D01*
X147841203Y-52574000D01*
X148020104Y-52609585D01*
X148020104Y-52609585D01*
G37*
G36*
X81020104Y-52609585D02*
G01*
X81188626Y-52679389D01*
X81340291Y-52780728D01*
X81469272Y-52909709D01*
X81570611Y-53061374D01*
X81640415Y-53229896D01*
X81676000Y-53408797D01*
X81676000Y-53591203D01*
X81640415Y-53770104D01*
X81570611Y-53938626D01*
X81469272Y-54090291D01*
X81340291Y-54219272D01*
X81188626Y-54320611D01*
X81020104Y-54390415D01*
X80841203Y-54426000D01*
X80658797Y-54426000D01*
X80479896Y-54390415D01*
X80311374Y-54320611D01*
X80159709Y-54219272D01*
X80030728Y-54090291D01*
X79929389Y-53938626D01*
X79859585Y-53770104D01*
X79824000Y-53591203D01*
X79824000Y-53408797D01*
X79859585Y-53229896D01*
X79929389Y-53061374D01*
X80030728Y-52909709D01*
X80159709Y-52780728D01*
X80311374Y-52679389D01*
X80479896Y-52609585D01*
X80658797Y-52574000D01*
X80841203Y-52574000D01*
X81020104Y-52609585D01*
X81020104Y-52609585D01*
G37*
G36*
X76020104Y-52609585D02*
G01*
X76188626Y-52679389D01*
X76340291Y-52780728D01*
X76469272Y-52909709D01*
X76570611Y-53061374D01*
X76640415Y-53229896D01*
X76676000Y-53408797D01*
X76676000Y-53591203D01*
X76640415Y-53770104D01*
X76570611Y-53938626D01*
X76469272Y-54090291D01*
X76340291Y-54219272D01*
X76188626Y-54320611D01*
X76020104Y-54390415D01*
X75841203Y-54426000D01*
X75658797Y-54426000D01*
X75479896Y-54390415D01*
X75311374Y-54320611D01*
X75159709Y-54219272D01*
X75030728Y-54090291D01*
X74929389Y-53938626D01*
X74859585Y-53770104D01*
X74824000Y-53591203D01*
X74824000Y-53408797D01*
X74859585Y-53229896D01*
X74929389Y-53061374D01*
X75030728Y-52909709D01*
X75159709Y-52780728D01*
X75311374Y-52679389D01*
X75479896Y-52609585D01*
X75658797Y-52574000D01*
X75841203Y-52574000D01*
X76020104Y-52609585D01*
X76020104Y-52609585D01*
G37*
M02*
